<svg width="216" height="226" viewBox="0 0 216 226" fill="none" xmlns="http://www.w3.org/2000/svg">
<path d="M134.519 50.5171C129.65 54.6673 128.094 59.8563 127.57 66.0481C127.437 71.1263 128.24 76.2408 128.819 81.2766C128.537 81.1003 128.255 80.9241 127.964 80.7425C126.539 80.1373 126.539 80.1373 121.979 79.5677C121.979 71.2968 121.979 63.0259 121.979 54.5044C114.28 54.1197 106.598 53.7819 98.8942 53.6144C98.3628 53.6025 97.8313 53.5906 97.2838 53.5784C87.7153 53.37 78.1479 53.304 68.5773 53.294C67.5879 53.2918 67.5879 53.2918 66.5784 53.2895C64.7131 53.2862 62.8478 53.287 60.9825 53.2895C60.1409 53.2878 60.141 53.2878 59.2824 53.2861C58.7709 53.2879 58.2594 53.2896 57.7324 53.2915C57.2858 53.2919 56.8391 53.2924 56.3789 53.2928C55.2892 53.3652 55.2892 53.3652 54.1492 53.9348C54.0937 63.8706 54.0577 73.8016 54.3986 83.7331C54.4209 84.4069 54.4433 85.0807 54.4663 85.775C54.5855 88.9033 54.8435 91.8296 55.2892 94.9475C65.2585 94.9475 75.2278 94.9475 85.4992 94.9475C85.4992 99.0829 85.4992 103.218 85.4992 107.479C79.4331 107.046 76.1915 105.825 71.3249 102.426C67.1161 99.5677 62.0744 98.3578 56.9992 98.9348C54.9386 99.7507 53.2579 100.6 51.8692 102.353C49.8481 108.412 52.194 114.462 54.7192 120.011C56.467 123.494 58.3787 126.885 60.3385 130.252C60.9752 131.378 61.5607 132.52 62.1292 133.682C61.8515 133.412 61.5737 133.143 61.2876 132.865C55.5271 127.496 47.5317 121.302 39.3292 121.15C36.855 121.678 35.191 122.426 33.4155 124.247C33.1098 124.729 32.8041 125.211 32.4892 125.707C32.2658 126.048 32.0425 126.388 31.8123 126.739C30.3524 130.667 30.771 134.293 31.9192 138.239C32.2792 139.008 32.6534 139.771 33.0592 140.517C32.694 140.456 32.3288 140.395 31.9526 140.332C28.5914 139.867 26.3637 139.815 23.3692 141.656C20.604 143.96 19.3957 146.381 18.8804 149.927C18.6571 154.356 20.5369 157.196 23.3692 160.454C23.6565 160.794 23.9438 161.135 24.2398 161.486C29.4935 167.237 36.7781 169.992 44.3479 170.907C44.8065 170.967 45.2651 171.026 45.7377 171.087C47.1872 171.274 48.6375 171.453 50.088 171.633C51.0551 171.757 52.0221 171.881 52.9892 172.006C53.9324 172.127 54.8757 172.247 55.8191 172.367C56.2444 172.421 56.6698 172.475 57.108 172.53C58.401 172.69 59.6945 172.841 60.9892 172.985C61.4608 173.038 61.9324 173.091 62.4182 173.146C66.7625 173.589 71.0861 173.666 75.4507 173.691C75.8332 173.693 76.2157 173.695 76.6098 173.698C78.6372 173.71 80.6645 173.718 82.6919 173.723C84.3406 173.728 85.9891 173.74 87.6377 173.758C115.379 174.057 115.379 174.057 124.58 166.012C126.754 163.707 127.923 161.805 128.819 158.745C129.759 158.755 129.759 158.755 130.718 158.765C135.44 158.799 140.083 158.743 144.779 158.175C144.967 158.739 145.155 159.303 145.349 159.884C153.921 159.949 162.445 159.891 170.999 159.315C170.986 159.936 170.973 160.557 170.959 161.197C171.021 164.436 172.044 166.055 174.312 168.322C176.171 169.597 177.327 169.979 179.549 170.137C179.502 170.807 179.455 171.477 179.407 172.167C179.434 174.756 180.014 176.785 181.829 178.682C187.464 182.356 193.768 183.008 200.327 181.71C206.915 179.83 212.391 176.796 216.068 170.865C216.762 169.17 216.753 167.779 216.767 165.947C216.775 165.202 216.783 164.457 216.792 163.689C216.795 162.865 216.798 162.04 216.801 161.215C216.808 160.346 216.816 159.477 216.824 158.607C216.848 155.754 216.859 152.9 216.871 150.047C216.875 149.064 216.88 148.081 216.885 147.098C216.907 142.479 216.923 137.861 216.932 133.243C216.944 127.914 216.974 122.586 217.02 117.258C217.054 113.137 217.071 109.017 217.075 104.896C217.077 102.436 217.087 99.9758 217.116 97.5155C217.143 95.2005 217.148 92.8864 217.136 90.5712C217.135 89.7232 217.142 88.8751 217.158 88.0272C217.269 81.6409 217.269 81.6409 215.61 79.3283C213.551 77.4825 211.283 76.1419 208.726 75.0819C208.205 74.8602 207.684 74.6384 207.147 74.41C204.935 73.5456 203.258 73.2244 200.889 73.2307C200.335 73.2292 199.782 73.2277 199.212 73.2262C197.789 73.3019 197.789 73.3019 196.649 73.8715C196.627 73.334 196.627 73.334 196.605 72.7857C196.304 68.2501 195.032 64.4693 191.929 61.0283C187.941 57.6593 183.607 56.2492 178.431 56.527C172.769 57.3635 169.194 60.8298 165.299 64.7576C165.06 64.2201 165.06 64.2201 164.816 63.6717C161.835 57.3118 157.532 52.4606 150.907 49.7628C144.956 47.801 140.206 47.4852 134.519 50.5171ZM116.279 95.5171C117.032 97.0209 117.784 98.5247 118.559 100.074C118.747 100.45 118.935 100.826 119.129 101.213C118.774 101.225 118.419 101.236 118.052 101.247C109.494 101.533 101.261 102.047 92.9092 104.061C92.9092 101.242 92.9092 98.4221 92.9092 95.5171C100.621 95.5171 108.333 95.5171 116.279 95.5171Z" fill="#FBD1AE"/>
<path d="M134.52 50.5171C129.651 54.6673 128.094 59.8563 127.571 66.0481C127.437 71.1263 128.24 76.2408 128.82 81.2766C128.396 81.0122 128.396 81.0122 127.965 80.7425C126.54 80.1373 126.54 80.1373 121.98 79.5677C121.98 71.2968 121.98 63.0259 121.98 54.5044C114.281 54.1197 106.598 53.7819 98.8947 53.6144C98.3632 53.6025 97.8318 53.5906 97.2842 53.5784C87.7158 53.37 78.1484 53.304 68.5778 53.294C67.5884 53.2918 67.5884 53.2918 66.5789 53.2895C64.7136 53.2862 62.8483 53.287 60.983 53.2895C60.1414 53.2878 60.1414 53.2878 59.2829 53.2861C58.5156 53.2888 58.5156 53.2888 57.7329 53.2915C57.2863 53.2919 56.8396 53.2924 56.3794 53.2928C55.2897 53.3652 55.2897 53.3652 54.1497 53.9348C54.0942 63.8706 54.0582 73.8016 54.3991 83.7331C54.4214 84.4069 54.4438 85.0807 54.4668 85.775C54.585 88.8762 54.8196 91.8759 55.2897 94.9475C55.9462 94.9456 55.9462 94.9456 56.616 94.9436C60.7423 94.9322 64.8685 94.9235 68.9948 94.9179C71.1162 94.915 73.2375 94.9109 75.3588 94.9045C77.4063 94.8983 79.4538 94.8949 81.5013 94.8934C82.2821 94.8924 83.063 94.8903 83.8438 94.8872C84.9381 94.8831 86.0324 94.8829 87.1267 94.8828C87.7495 94.8815 88.3722 94.8803 89.0139 94.879C90.4294 94.939 91.553 95.1564 92.9097 95.5171C93.71 95.5643 94.5122 95.5842 95.3138 95.5817C95.7815 95.5817 96.2492 95.5817 96.7311 95.5816C97.2306 95.5787 97.73 95.5757 98.2445 95.5727C99.0178 95.5715 99.0178 95.5715 99.8066 95.5703C101.45 95.5671 103.094 95.5599 104.737 95.5527C105.853 95.5498 106.968 95.5472 108.084 95.5449C110.816 95.5386 113.548 95.5288 116.28 95.5171C116.315 95.9165 116.35 96.316 116.387 96.7275C117.028 98.9962 117.994 100.163 119.7 101.783C121.652 102.266 121.652 102.266 123.868 102.346C124.262 102.365 124.656 102.384 125.062 102.404C126.314 102.461 127.566 102.497 128.82 102.531C130.072 102.58 131.325 102.633 132.577 102.688C133.714 102.735 134.85 102.771 135.987 102.807C137.85 102.867 137.85 102.867 139.287 103.21C140.891 103.511 142.36 103.56 143.991 103.556C144.619 103.556 145.246 103.556 145.892 103.556C146.899 103.552 146.899 103.552 147.926 103.547C148.618 103.547 149.309 103.546 150.022 103.545C152.229 103.542 154.436 103.535 156.643 103.527C158.14 103.525 159.638 103.522 161.135 103.52C164.803 103.513 168.471 103.504 172.14 103.492C172.169 103.063 172.199 102.633 172.229 102.191C172.273 101.628 172.317 101.064 172.362 100.483C172.424 99.6458 172.424 99.6458 172.488 98.7913C172.793 96.6414 173.545 95.4119 174.99 93.8082C177.326 92.0579 179.453 91.8028 182.293 91.7077C182.688 91.6883 183.083 91.6688 183.49 91.6488C184.456 91.6021 185.423 91.565 186.39 91.5297C186.37 91.1237 186.35 90.7176 186.33 90.2993C186.198 85.6631 186.881 82.3237 189.997 78.691C191.22 77.6232 192.547 76.949 193.978 76.1856C196.584 74.6795 196.584 74.6795 197.148 72.6255C195.868 67.0505 194.341 62.4941 189.469 59.1993C184.836 56.5765 180.451 55.7966 175.252 57.1634C171.231 58.7447 168.293 61.7389 165.3 64.7576C165.14 64.3993 164.981 64.0409 164.817 63.6717C161.836 57.3118 157.533 52.4606 150.907 49.7628C144.956 47.801 140.206 47.4852 134.52 50.5171Z" fill="#A590E4"/>
<path d="M195.83 74.1985C190.946 76.9811 187.635 79.8212 185.819 85.2638C185.667 87.5141 185.805 89.3685 186.389 91.5296C185.825 91.49 185.261 91.4503 184.679 91.4095C180.56 91.2073 177.351 91.1259 174.087 93.9772C171.621 96.9383 172.052 99.8152 172.139 103.492C171.712 103.451 171.285 103.41 170.845 103.368C165.698 102.92 160.591 102.854 155.431 102.886C154.614 102.889 153.796 102.892 152.979 102.894C151.005 102.9 149.032 102.91 147.059 102.922C147.224 103.627 147.388 104.332 147.558 105.058C147.774 106.054 147.988 107.051 148.199 108.049C148.36 108.77 148.36 108.77 148.524 109.507C149.529 114.605 149.512 119.671 149.488 124.846C149.482 126.371 149.488 127.895 149.495 129.419C149.503 138.978 148.968 149.036 145.919 158.175C145.543 158.175 145.167 158.175 144.779 158.175C144.967 158.739 145.155 159.303 145.349 159.884C153.921 159.949 162.445 159.891 170.999 159.314C170.986 159.936 170.973 160.557 170.959 161.197C171.021 164.436 172.044 166.055 174.312 168.322C176.171 169.597 177.327 169.979 179.549 170.137C179.502 170.807 179.455 171.477 179.407 172.166C179.434 174.756 180.014 176.785 181.829 178.682C187.464 182.356 193.768 183.007 200.327 181.71C206.915 179.83 212.391 176.796 216.068 170.864C216.762 169.17 216.753 167.778 216.767 165.947C216.775 165.202 216.783 164.457 216.792 163.689C216.795 162.864 216.798 162.04 216.801 161.215C216.808 160.346 216.816 159.476 216.824 158.607C216.848 155.754 216.859 152.9 216.871 150.047C216.875 149.064 216.88 148.081 216.885 147.098C216.907 142.479 216.923 137.861 216.932 133.242C216.944 127.914 216.974 122.586 217.02 117.258C217.054 113.137 217.071 109.017 217.075 104.896C217.077 102.435 217.087 99.9756 217.116 97.5154C217.143 95.2004 217.148 92.8862 217.136 90.5711C217.135 89.7231 217.142 88.875 217.158 88.0271C217.269 81.6408 217.269 81.6408 215.61 79.3282C213.551 77.4824 211.283 76.1418 208.726 75.0818C208.205 74.8601 207.684 74.6383 207.147 74.4099C203.222 72.8763 199.762 72.3988 195.83 74.1985Z" fill="#1A4D65"/>
<path d="M53.5803 100.644C51.9521 101.99 51.4353 103.143 51.1244 105.258C50.6588 114.367 55.9223 122.662 60.3396 130.252C60.9764 131.378 61.5618 132.52 62.1303 133.681C61.8526 133.412 61.5748 133.143 61.2887 132.865C55.5282 127.496 47.5328 121.302 39.3303 121.15C36.8561 121.678 35.1921 122.426 33.4166 124.247C32.9581 124.97 32.9581 124.97 32.4903 125.707C32.2669 126.047 32.0436 126.388 31.8134 126.739C30.3535 130.667 30.7722 134.293 31.9203 138.238C32.2803 139.008 32.6545 139.771 33.0603 140.517C32.6951 140.456 32.33 140.395 31.9537 140.332C28.5925 139.867 26.3648 139.815 23.3703 141.656C20.6051 143.96 19.3969 146.381 18.8816 149.927C18.6582 154.356 20.538 157.196 23.3703 160.454C23.8013 160.965 23.8013 160.965 24.2409 161.486C29.4946 167.237 36.7792 169.992 44.349 170.907C44.8076 170.966 45.2663 171.026 45.7388 171.087C47.1883 171.274 48.6386 171.453 50.0891 171.632C51.0562 171.757 52.0233 171.881 52.9903 172.006C53.9335 172.127 54.8769 172.247 55.8202 172.367C56.2456 172.421 56.6709 172.475 57.1091 172.53C58.4021 172.69 59.6956 172.84 60.9903 172.985C61.4619 173.038 61.9335 173.091 62.4193 173.146C66.7636 173.589 71.0872 173.665 75.4518 173.691C75.8343 173.693 76.2168 173.695 76.6109 173.698C78.6383 173.709 80.6656 173.718 82.693 173.723C84.3417 173.728 85.9902 173.74 87.6388 173.758C115.613 174.059 115.613 174.059 124.581 165.972C128.82 161.372 128.82 161.372 128.82 158.175C128.347 158.166 128.347 158.166 127.865 158.157C124.535 158.095 121.205 158.03 117.875 157.963C116.638 157.939 115.401 157.915 114.164 157.892C107.065 157.759 99.9918 157.57 92.9103 157.036C92.9103 159.104 92.9103 161.171 92.9103 163.302C90.6531 163.302 88.3959 163.302 86.0703 163.302C86.0703 161.046 86.0703 158.79 86.0703 156.466C85.3109 156.373 85.3109 156.373 84.5362 156.277C82.9662 156.082 81.3966 155.886 79.827 155.688C77.7676 155.428 75.7071 155.178 73.6461 154.931C72.5031 154.79 71.3601 154.649 70.2172 154.508C69.6808 154.446 69.1443 154.383 68.5917 154.318C61.1919 153.595 61.1919 153.595 55.2903 149.631C54.8997 148.298 54.8997 148.298 54.8628 146.925C54.8305 146.47 54.7982 146.015 54.7648 145.546C54.7428 145.03 54.7428 145.03 54.7203 144.504C56.8617 143.054 58.5765 142.494 61.1328 142.155C61.7787 142.066 62.4245 141.978 63.09 141.888C65.4288 141.601 67.766 141.325 70.1103 141.087C69.8458 140.434 69.8458 140.434 69.5759 139.769C68.4736 136.983 68.3 134.609 68.2845 131.643C68.2813 131.162 68.278 130.681 68.2747 130.185C68.2693 129.166 68.2656 128.147 68.2634 127.128C68.2579 125.578 68.2402 124.028 68.2222 122.478C68.2185 121.487 68.2155 120.495 68.2133 119.503C68.2027 118.813 68.2027 118.813 68.192 118.109C68.2061 114.49 68.8255 111.721 71.3572 108.974C73.4724 107.753 75.0927 107.643 77.5203 107.479C77.5203 107.103 77.5203 106.727 77.5203 106.34C76.3021 105.439 75.0953 104.617 73.8153 103.812C73.267 103.465 73.267 103.465 72.7076 103.11C67.0439 99.5905 59.7184 96.7919 53.5803 100.644Z" fill="#A590E4"/>
<path d="M68.5782 53.294C67.5887 53.2918 67.5887 53.2918 66.5793 53.2895C64.714 53.2862 62.8487 53.2871 60.9834 53.2895C60.1418 53.2879 60.1418 53.2879 59.2832 53.2861C58.516 53.2888 58.516 53.2888 57.7333 53.2915C57.2867 53.2919 56.84 53.2924 56.3798 53.2929C55.2901 53.3652 55.2901 53.3652 54.1501 53.9348C54.0946 63.8707 54.0585 73.8016 54.3994 83.7331C54.4218 84.4069 54.4442 85.0808 54.4672 85.775C54.5854 88.8763 54.82 91.8759 55.2901 94.9475C55.9466 94.9456 55.9466 94.9456 56.6164 94.9436C60.7427 94.9322 64.8689 94.9236 68.9952 94.918C71.1166 94.915 73.2379 94.911 75.3592 94.9045C77.4067 94.8983 79.4541 94.8949 81.5016 94.8934C82.2825 94.8924 83.0633 94.8903 83.8442 94.8873C84.9385 94.8831 86.0328 94.8829 87.1271 94.8828C87.7499 94.8815 88.3726 94.8803 89.0142 94.879C90.429 94.939 91.5547 95.153 92.9101 95.5171C94.5847 95.5717 96.2453 95.5969 97.9198 95.5928C98.4092 95.5933 98.8985 95.5938 99.4026 95.5944C100.438 95.5948 101.474 95.5937 102.51 95.5914C104.079 95.5883 105.647 95.5913 107.216 95.595C108.226 95.5946 109.236 95.5939 110.246 95.5928C110.708 95.5939 111.17 95.5951 111.647 95.5962C114.929 95.5831 118.15 95.3244 121.41 94.9475C122.136 81.4705 122.038 67.9961 121.98 54.5044C114.286 54.0858 106.598 53.7819 98.8951 53.6144C98.3636 53.6025 97.8322 53.5907 97.2846 53.5784C87.7162 53.37 78.1488 53.304 68.5782 53.294Z" fill="#111111"/>
<path d="M85.5006 94.3774C85.5006 98.7009 85.5006 103.024 85.5006 107.479C84.5601 107.291 83.6196 107.103 82.6506 106.909C80.9365 106.805 79.2363 106.852 77.5206 106.909C77.1231 106.912 76.7256 106.915 76.3161 106.918C73.453 107.074 71.8825 108.035 69.7945 109.835C67.6071 112.653 67.6486 115.947 67.6391 119.347C67.6334 120.063 67.6334 120.063 67.6276 120.794C67.6219 121.8 67.6192 122.807 67.6194 123.813C67.6169 125.342 67.5962 126.87 67.5746 128.399C67.5712 129.381 67.569 130.363 67.5679 131.345C67.5597 131.797 67.5515 132.248 67.5431 132.714C67.5701 136.058 68.4442 138.188 70.1106 141.086C69.417 141.063 68.7234 141.039 68.0088 141.015C63.4112 141.022 57.6075 141.049 54.1506 144.504C54.1195 145.581 54.1195 145.581 54.2219 146.925C54.2469 147.363 54.2718 147.8 54.2976 148.251C54.9187 150.276 55.9351 151.154 57.5706 152.479C66.0775 155.833 77.02 156.466 86.0706 156.466C86.0706 158.722 86.0706 160.977 86.0706 163.301C88.3278 163.301 90.585 163.301 92.9106 163.301C92.9106 157.85 92.9106 152.399 92.9106 146.783C94.4154 146.783 95.9202 146.783 97.4706 146.783C100.73 145.725 103.725 144.121 105.451 141.086C106.117 139.401 106.671 137.704 107.161 135.96C107.269 135.576 107.378 135.192 107.49 134.796C107.856 133.098 107.764 131.424 107.731 129.694C108.17 129.941 108.609 130.187 109.062 130.442C109.92 130.917 109.92 130.917 110.794 131.403C111.363 131.72 111.932 132.037 112.518 132.364C114.001 133.112 114.001 133.112 115.141 133.112C115.141 132.548 115.141 131.984 115.141 131.403C114.696 131.206 114.696 131.206 114.243 131.004C109.71 128.886 107.192 125.707 104.311 121.719C103.464 122.001 103.464 122.001 102.601 122.289C102.538 122.846 102.476 123.403 102.411 123.978C101.797 130.963 101.797 130.963 98.8244 137.135C96.7271 137.962 94.5576 138.085 92.3406 137.669C90.8282 136.701 90.6385 135.992 90.2143 134.235C89.5786 128.801 89.3748 123.418 89.3481 117.945C89.3428 117.257 89.3376 116.568 89.3321 115.858C89.3161 110.976 89.3161 110.976 90.6306 106.339C91.0274 106.077 91.4242 105.815 91.833 105.545C92.9106 104.631 92.9106 104.631 93.0943 103.597C93.1352 102.285 93.1091 100.993 93.0531 99.682C93.0428 99.2279 93.0326 98.7737 93.022 98.3058C92.9951 97.1859 92.9542 96.0664 92.9106 94.9471C90.6306 94.3774 90.6306 94.3774 85.5006 94.3774Z" fill="#FBB9A1"/>
<path d="M77.5196 106.909C76.9278 106.916 76.9278 106.916 76.3239 106.922C73.4568 107.066 71.8828 108.034 69.7934 109.835C67.9583 112.199 67.6883 114.854 67.7183 117.763C67.722 118.395 67.7256 119.026 67.7294 119.677C67.739 120.327 67.7485 120.978 67.7584 121.648C67.7635 122.312 67.7686 122.976 67.7739 123.66C67.7873 125.291 67.8061 126.923 67.8296 128.555C74.6388 131.114 81.1559 133.119 88.3496 134.251C88.1615 131.055 87.9734 127.86 87.7796 124.567C85.2921 123.709 82.8017 122.895 80.2716 122.171C79.8487 122.05 79.4258 121.928 78.9901 121.803C78.1431 121.561 77.2952 121.323 76.4465 121.087C73.9845 120.384 71.8248 119.479 69.5396 118.302C69.1634 118.302 68.7872 118.302 68.3996 118.302C68.3996 117.926 68.3996 117.55 68.3996 117.162C68.9455 117.383 69.4915 117.603 70.0539 117.83C75.7084 120.058 81.2662 121.572 87.2096 122.859C87.3977 118.159 87.5858 113.46 87.7796 108.618C83.8043 107.294 81.4668 106.642 77.5196 106.909Z" fill="#FBD1AE"/>
<path d="M64.3744 141.122C63.939 141.145 63.5037 141.169 63.0551 141.192C59.7015 141.43 56.6094 142.047 54.15 144.504C54.0632 145.637 54.0632 145.637 54.1856 146.961C54.2158 147.393 54.2459 147.826 54.2769 148.272C54.9277 150.268 55.9492 151.163 57.57 152.479C65.8849 155.758 76.6499 156.466 85.5 156.466C85.5 153.083 85.5 149.699 85.5 146.213C84.73 146.034 83.9599 145.855 83.1666 145.67C82.1393 145.424 81.1121 145.178 80.085 144.932C79.5795 144.815 79.074 144.698 78.5531 144.578C76.1086 143.985 73.9661 143.364 71.7688 142.126C69.2689 140.792 67.1456 140.876 64.3744 141.122Z" fill="#FBD1AE"/>
<path d="M67.8309 129.694C67.4944 137.391 67.4944 137.391 69.5409 139.947C76.38 144.717 88.5526 146.744 96.6804 145.397C99.8347 144.645 101.751 143.565 103.712 140.964C104.459 139.696 104.792 138.568 104.881 137.099C101.214 136.884 101.214 136.884 99.6084 137.954C97.1607 139.288 94.5011 139.223 91.7709 138.808C90.0054 137.773 89.5802 137.367 88.9209 135.391C87.2823 134.966 85.7041 134.641 84.0402 134.358C79.361 133.482 75.1018 132.143 70.6964 130.362C68.9709 129.694 68.9709 129.694 67.8309 129.694Z" fill="#FBD1AE"/>
<path d="M177.27 102.352C176.037 102.186 176.037 102.186 174.634 102.246C174.168 102.261 173.702 102.276 173.222 102.292C172.687 102.322 172.687 102.322 172.14 102.352C172.14 102.728 172.14 103.104 172.14 103.492C173.022 103.474 173.022 103.474 173.921 103.456C175.541 103.667 176.037 103.956 177.137 105.2C178.236 106.864 179.228 108.545 180.12 110.327C179.626 110.234 179.131 110.141 178.622 110.044C175.167 109.551 171.667 109.698 168.186 109.722C167.47 109.724 166.754 109.727 166.016 109.73C164.257 109.736 162.499 109.746 160.74 109.757C160.458 110.603 160.458 110.603 160.17 111.466C160.549 111.46 160.927 111.454 161.317 111.448C171.074 111.2 171.074 111.2 180.69 112.606C180.878 113.545 181.066 114.485 181.26 115.454C180.167 115.313 180.167 115.313 179.051 115.169C176.171 114.844 173.325 114.83 170.43 114.884C170.43 115.26 170.43 115.636 170.43 116.023C173.006 116.526 175.432 116.653 178.054 116.629C179.923 116.611 179.923 116.611 181.83 116.593C182.018 119.413 182.206 122.232 182.4 125.137C181.784 125.055 181.167 124.973 180.532 124.888C172.783 123.929 165.12 123.874 157.32 123.998C157.32 124.562 157.32 125.126 157.32 125.707C165.597 125.895 173.873 126.083 182.4 126.276C181.811 133.722 181.199 141.102 180.12 148.492C175.982 148.492 171.844 148.492 167.58 148.492C167.768 148.868 167.956 149.244 168.15 149.631C171.912 149.631 175.674 149.631 179.55 149.631C179.362 150.195 179.174 150.759 178.98 151.34C165.719 151.622 165.719 151.622 152.19 151.909C152.76 153.049 152.76 153.049 153.789 153.397C155.011 153.613 156.152 153.708 157.392 153.735C157.848 153.747 158.305 153.758 158.775 153.77C159.505 153.784 159.505 153.784 160.25 153.798C160.753 153.81 161.256 153.822 161.774 153.834C163.377 153.872 164.98 153.905 166.583 153.939C167.671 153.963 168.759 153.988 169.847 154.013C172.511 154.074 175.176 154.132 177.84 154.188C177.499 154.938 177.15 155.685 176.798 156.431C176.508 157.055 176.508 157.055 176.212 157.692C175.608 158.911 175.608 158.911 173.993 159.314C173.57 159.314 173.146 159.314 172.71 159.314C172.71 159.69 172.71 160.066 172.71 160.454C174.278 160.632 174.278 160.632 176.13 160.454C182.101 155.013 183.31 143.713 183.702 136.131C183.819 133.203 183.85 130.275 183.861 127.344C183.866 126.871 183.871 126.397 183.876 125.91C183.933 118.026 183.269 110.617 178.41 104.061C178.034 103.497 177.658 102.933 177.27 102.352Z" fill="#0E3544"/>
<path d="M92.9102 146.783C90.653 146.783 88.3958 146.783 86.0702 146.783C86.0702 152.234 86.0702 157.685 86.0702 163.302C88.3274 163.302 90.5846 163.302 92.9102 163.302C92.9102 157.85 92.9102 152.399 92.9102 146.783Z" fill="#3A4A4B"/>
<path d="M85.4998 94.3774C85.4998 98.8888 85.4998 103.4 85.4998 108.048C89.4898 108.048 89.4898 108.048 91.1285 106.66C91.5283 106.178 91.928 105.697 92.3398 105.2C92.5279 105.012 92.716 104.824 92.9098 104.631C92.9515 103 92.9624 101.383 92.9454 99.7532C92.9428 99.2939 92.9403 98.8347 92.9376 98.3614C92.9309 97.2233 92.9207 96.0852 92.9098 94.9471C90.6298 94.3774 90.6298 94.3774 85.4998 94.3774Z" fill="#3B4B4D"/>
<path d="M104.311 121.719C103.746 121.907 103.182 122.095 102.601 122.289C102.532 122.846 102.462 123.403 102.391 123.978C101.878 128.021 101.295 131.997 100.321 135.96C102.202 135.96 104.083 135.96 106.021 135.96C106.308 134.667 106.592 133.373 106.876 132.079C107.034 131.359 107.193 130.639 107.357 129.896C107.987 126.675 107.987 126.675 106.983 125.112C106.665 124.709 106.348 124.306 106.021 123.891C105.703 123.483 105.386 123.076 105.059 122.656C104.812 122.347 104.565 122.038 104.311 121.719ZM110.011 128.555C109.258 128.931 108.506 129.307 107.731 129.694C108.75 130.266 109.772 130.835 110.794 131.403C111.363 131.72 111.932 132.037 112.518 132.364C114.001 133.112 114.001 133.112 115.141 133.112C115.141 132.548 115.141 131.984 115.141 131.403C114.818 131.245 114.496 131.087 114.163 130.924C113.745 130.718 113.327 130.512 112.896 130.299C112.271 129.992 112.271 129.992 111.634 129.678C110.602 129.202 110.602 129.202 110.011 128.555Z" fill="#FBB9A1"/>
<path d="M161.772 133.076C160.675 133.079 159.578 133.082 158.48 133.084C155.813 133.09 153.146 133.1 150.479 133.112C150.479 133.488 150.479 133.864 150.479 134.251C160.26 134.439 170.042 134.627 180.119 134.821C180.119 134.445 180.119 134.069 180.119 133.682C174.027 132.888 167.902 133.048 161.772 133.076Z" fill="#0D3340"/>
<path d="M104.88 125.137C104.692 125.137 104.504 125.137 104.31 125.137C103.928 126.62 103.548 128.103 103.17 129.587C103.062 130.008 102.953 130.428 102.841 130.861C102.399 132.602 102.03 134.156 102.03 135.96C103.347 135.96 104.664 135.96 106.02 135.96C106.529 134.052 106.675 132.193 106.733 130.228C106.748 129.752 106.762 129.275 106.777 128.784C106.551 127.131 105.996 126.356 104.88 125.137Z" fill="#FBD1AE"/>
<path d="M80.9402 144.504C81.6171 145.359 81.6171 145.359 82.6502 146.213C83.5907 146.213 84.5312 146.213 85.5002 146.213C85.5002 149.597 85.5002 152.98 85.5002 156.466C85.6883 156.466 85.8764 156.466 86.0702 156.466C86.0702 153.083 86.0702 149.699 86.0702 146.213C87.7631 145.931 87.7631 145.931 89.4902 145.644C89.4902 145.456 89.4902 145.268 89.4902 145.074C88.494 144.866 87.4961 144.666 86.4977 144.469C85.6645 144.3 85.6645 144.3 84.8145 144.128C83.2954 143.944 82.3717 144.017 80.9402 144.504Z" fill="#FBB9A1"/>
<path d="M89.4902 108.048C88.3616 108.048 87.233 108.048 86.0702 108.048C86.6345 108.236 87.1988 108.424 87.7802 108.618C87.7802 113.317 87.7802 118.017 87.7802 122.858C87.9683 122.858 88.1564 122.858 88.3502 122.858C88.402 121.828 88.402 121.828 88.4549 120.776C88.503 119.856 88.5513 118.936 88.5996 118.017C88.622 117.566 88.6444 117.115 88.6675 116.65C88.8217 113.759 89.0985 110.917 89.4902 108.048Z" fill="#FBB9A1"/>
<path d="M131.67 135.96C131.106 136.148 130.541 136.336 129.96 136.53C129.96 138.221 129.96 139.913 129.96 141.656C130.524 141.656 131.089 141.656 131.67 141.656C131.67 139.776 131.67 137.897 131.67 135.96Z" fill="#FBB9A1"/>
<path d="M103.171 122.289C102.983 122.289 102.795 122.289 102.601 122.289C102.413 124.921 102.225 127.552 102.031 130.264C102.595 130.076 103.159 129.888 103.741 129.694C104.157 128.517 104.157 128.517 104.418 127.095C104.508 126.625 104.598 126.154 104.692 125.669C104.754 125.305 104.817 124.942 104.881 124.568C104.505 124.568 104.128 124.568 103.741 124.568C103.553 123.816 103.365 123.064 103.171 122.289Z" fill="#FBB9A1"/>
<path d="M74.6704 143.365C76.5428 144.613 77.424 144.705 79.6223 144.861C80.472 144.924 80.472 144.924 81.3389 144.99C81.9881 145.031 81.9881 145.031 82.6504 145.074C80.2204 143.455 77.5408 142.218 74.6704 143.365Z" fill="#FBB9A1"/>
<path d="M68.3999 117.163C68.3999 117.539 68.3999 117.914 68.3999 118.302C72.1049 120.011 72.1049 120.011 74.6699 120.011C74.6699 119.635 74.6699 119.259 74.6699 118.871C73.9469 118.583 73.2222 118.299 72.4968 118.017C71.8917 117.779 71.8917 117.779 71.2744 117.536C70.1099 117.163 70.1099 117.163 68.3999 117.163Z" fill="#FBB9A1"/>
<path d="M89.4902 108.048C88.3616 108.048 87.233 108.048 86.0702 108.048C86.6345 108.236 87.1988 108.424 87.7802 108.618C87.9683 109.558 88.1564 110.498 88.3502 111.466C88.7264 111.09 89.1026 110.714 89.4902 110.327C89.4902 109.575 89.4902 108.823 89.4902 108.048Z" fill="#FBB9A1"/>
<path d="M69.0852 63.6182C70.0916 63.6738 70.0916 63.6738 71.3652 64.1878C72.1862 65.4135 72.85 66.5459 73.5027 67.8547C73.7727 68.3663 73.7727 68.3663 74.0482 68.8883C75.3552 71.4129 75.3552 71.4129 75.3552 72.7321C75.7314 72.7321 76.1076 72.7321 76.4952 72.7321C76.7002 72.2695 76.7002 72.2695 76.9093 71.7976C77.8227 70.1065 78.9313 68.6813 80.129 67.1783C80.788 66.3368 80.788 66.3368 81.4604 65.4783C82.7652 64.1878 82.7652 64.1878 85.0452 64.1878C84.7717 66.8219 83.7888 68.0287 81.9815 69.9196C81.0981 70.8527 80.219 71.79 79.3452 72.7321C79.0168 73.0691 78.6883 73.4062 78.3499 73.7534C77.2747 75.6447 77.309 77.5864 77.2433 79.7099C77.2239 80.1343 77.2044 80.5588 77.1843 80.996C77.1375 82.0386 77.1004 83.0815 77.0652 84.1245C76.1247 83.9365 75.1842 83.7485 74.2152 83.5549C74.227 82.9895 74.2387 82.4241 74.2508 81.8416C74.2171 76.2888 73.1536 72.7882 70.0627 68.1685C69.0612 66.4245 68.8554 65.5829 69.0852 63.6182Z" fill="#EDF0FD"/>
<path d="M89.8206 64.1318C90.6155 64.1356 91.4104 64.1424 92.2053 64.1519C92.6105 64.1544 93.0157 64.157 93.4332 64.1596C94.4371 64.1664 95.4409 64.1766 96.4447 64.1875C96.6328 64.9394 96.8209 65.6913 97.0147 66.4659C94.5694 66.4659 92.1241 66.4659 89.6047 66.4659C89.6047 68.1577 89.6047 69.8495 89.6047 71.5925C91.1095 71.5925 92.6143 71.5925 94.1647 71.5925C93.9766 72.3444 93.7885 73.0963 93.5947 73.871C92.278 73.871 90.9613 73.871 89.6047 73.871C89.6047 76.5027 89.6047 79.1343 89.6047 81.8457C91.8619 81.8457 94.1191 81.8457 96.4447 81.8457C96.4447 82.5976 96.4447 83.3495 96.4447 84.1242C95.0315 84.1395 93.6185 84.1508 92.2053 84.1598C91.8023 84.1645 91.3992 84.1693 90.984 84.1742C89.9541 84.1792 88.9241 84.1539 87.8947 84.1242C86.62 82.8503 87.0511 80.0021 86.9684 78.2856C86.9432 77.7717 86.9179 77.2579 86.8919 76.7284C86.7223 72.7166 86.6991 68.7371 87.3247 64.7571C87.8947 64.1875 87.8947 64.1875 89.8206 64.1318Z" fill="#F7F8FE"/>
<path d="M106.135 64.1874C107.275 65.3267 107.275 65.3267 107.275 67.0355C105.959 67.0355 104.642 67.0355 103.285 67.0355C103.347 70.2889 104.036 72.0627 105.886 74.761C107.202 76.715 107.825 77.7451 108.237 80.1012C107.845 81.8457 107.845 81.8457 106.99 83.2341C104.877 84.5543 103.477 84.3632 101.005 84.1241C100.629 83.7482 100.253 83.3722 99.8652 82.9849C100.079 81.4897 100.079 81.4897 100.435 80.1368C100.776 80.3248 101.117 80.5128 101.468 80.7064C102.746 81.3945 102.746 81.3945 104.425 81.276C104.922 78.0522 103.631 76.3924 101.809 73.8999C100.579 72.1125 100.335 70.5782 100.293 68.4596C100.278 68.019 100.263 67.5785 100.248 67.1245C100.435 65.8963 100.435 65.8963 101.172 64.8928C102.766 63.7372 104.239 64.0151 106.135 64.1874Z" fill="#F0F2FD"/>
</svg>
