<svg width="548" height="229" viewBox="0 0 548 229" fill="none" xmlns="http://www.w3.org/2000/svg">
<g clip-path="url(#clip0_11703_4421)">
<path d="M442.952 272.034C477.302 245.886 493.708 201.947 483.437 160.032C483.182 158.991 482.912 157.952 482.629 156.915C475.82 132.035 458.973 108.388 434.42 100.438C413.804 93.7631 391.301 98.8962 369.793 96.2417C327.572 91.0308 294.84 56.8896 271.808 21.1434C248.776 -14.6029 231.075 -54.6157 200.471 -84.1473C150.025 -132.825 67.735 -143.306 5.18917 -111.62C-57.3566 -79.9342 -97.1976 -9.63671 -95.4985 60.4235C-93.7993 130.484 -52.183 197.466 8.25435 233.005C30.4566 246.06 56.1355 255.309 81.6913 252.072C103.866 249.264 124.014 237.357 146.084 233.821C180.783 228.263 215.261 243.943 245.274 262.214C275.286 280.485 304.276 302.142 338.38 310.612C371.496 318.837 412.523 295.197 442.952 272.034Z" fill="#F2F2F2"/>
<path d="M393.598 -110.148C392.844 -110.65 392.083 -111.126 391.33 -111.61C369.563 -125.523 346.233 -136.826 321.821 -145.285L316.16 -67.2447H280.276V-156.677C278.017 -157.144 275.741 -157.585 273.465 -158V-67.2447H230.821C207.345 -67.2447 184.831 -76.5649 168.231 -93.1549C151.631 -109.745 142.306 -132.246 142.306 -155.708C140.021 -155.215 137.753 -154.687 135.485 -154.125V-67.2447H100.752L95.3603 -141.66C70.2732 -132.045 46.4566 -119.4 24.4405 -104.007C24.0596 -103.747 23.6788 -103.479 23.3066 -103.22C21.3939 -101.879 19.5071 -100.512 17.6289 -99.1284V198.594H119.993L118.184 173.553L108.23 36.0616H308.674L298.72 173.553L296.911 198.594H398.141V-107.138C396.635 -108.159 395.121 -109.162 393.598 -110.148ZM135.485 13.3555H106.586L101.246 -60.4286H135.485V13.3555ZM273.465 13.3555H224.927V11.8936C224.927 11.1909 224.788 10.4951 224.519 9.84592C224.25 9.19678 223.855 8.60709 223.357 8.11058C222.86 7.61407 222.269 7.22048 221.619 6.95236C220.969 6.68423 220.273 6.54681 219.57 6.54797H198.468C197.766 6.5477 197.07 6.68579 196.421 6.95434C195.772 7.22288 195.182 7.61664 194.686 8.11308C194.189 8.60953 193.795 9.19892 193.526 9.84761C193.257 10.4963 193.119 11.1916 193.12 11.8936V13.3555H142.306V-60.4286H273.465V13.3555ZM280.276 13.3555V-60.4286H315.667L310.327 13.3555H280.276Z" fill="#3F3D56"/>
<path d="M-133 217.659C-125.481 226.563 -117.349 234.931 -108.662 242.701L523.662 243.566C532.349 235.796 540.481 227.428 548 218.524L-133 217.659Z" fill="#3F3D56"/>
<path d="M295.799 137.475V211.608C295.8 212.553 296.175 213.459 296.844 214.127C297.512 214.795 298.419 215.17 299.364 215.171H409.287C410.233 215.17 411.139 214.795 411.808 214.127C412.476 213.459 412.852 212.553 412.853 211.608V137.475C412.85 136.531 412.474 135.626 411.806 134.959C411.137 134.292 410.232 133.917 409.287 133.916H299.364C298.419 133.917 297.514 134.292 296.846 134.959C296.177 135.626 295.801 136.531 295.799 137.475Z" fill="#3F3D56"/>
<path d="M298.379 138.397V210.694C298.38 211.199 298.581 211.683 298.938 212.04C299.295 212.396 299.779 212.597 300.284 212.598H408.374C408.879 212.597 409.363 212.396 409.72 212.04C410.077 211.683 410.278 211.199 410.279 210.694V138.397C410.279 137.892 410.078 137.407 409.721 137.05C409.364 136.692 408.879 136.49 408.374 136.489H300.284C299.779 136.49 299.294 136.692 298.937 137.05C298.58 137.407 298.379 137.892 298.379 138.397Z" fill="#5F7FF8"/>
<path d="M293.501 226.066C293.702 226.318 293.958 226.522 294.249 226.661C294.541 226.801 294.86 226.872 295.183 226.87H412.885C413.207 226.87 413.525 226.798 413.815 226.659C414.106 226.521 414.362 226.319 414.564 226.069C414.767 225.82 414.912 225.528 414.987 225.215C415.063 224.902 415.068 224.577 415.002 224.262L413.175 215.588C413.099 215.235 412.936 214.906 412.701 214.631C412.465 214.356 412.165 214.145 411.826 214.016C411.582 213.92 411.321 213.871 411.058 213.871H297.003C296.74 213.871 296.479 213.92 296.234 214.016C295.896 214.145 295.595 214.356 295.36 214.631C295.124 214.906 294.961 215.235 294.885 215.588L293.058 224.262C292.993 224.577 292.999 224.902 293.076 225.214C293.152 225.526 293.297 225.817 293.501 226.066Z" fill="#2F2E41"/>
<path d="M407.02 217.607H409.8C410.034 217.607 410.223 217.418 410.223 217.185V215.856C410.223 215.623 410.034 215.434 409.8 215.434H407.02C406.787 215.434 406.597 215.623 406.597 215.856V217.185C406.597 217.418 406.787 217.607 407.02 217.607Z" fill="#3F3D56"/>
<path d="M399.77 217.607H402.55C402.783 217.607 402.973 217.418 402.973 217.185V215.856C402.973 215.623 402.783 215.434 402.55 215.434H399.77C399.537 215.434 399.347 215.623 399.347 215.856V217.185C399.347 217.418 399.537 217.607 399.77 217.607Z" fill="#3F3D56"/>
<path d="M392.518 217.607H395.298C395.532 217.607 395.721 217.418 395.721 217.185V215.856C395.721 215.623 395.532 215.434 395.298 215.434H392.518C392.285 215.434 392.096 215.623 392.096 215.856V217.185C392.096 217.418 392.285 217.607 392.518 217.607Z" fill="#3F3D56"/>
<path d="M385.268 217.607H388.048C388.282 217.607 388.471 217.418 388.471 217.185V215.856C388.471 215.623 388.282 215.434 388.048 215.434H385.268C385.035 215.434 384.846 215.623 384.846 215.856V217.185C384.846 217.418 385.035 217.607 385.268 217.607Z" fill="#3F3D56"/>
<path d="M378.018 217.607H380.798C381.032 217.607 381.221 217.418 381.221 217.185V215.855C381.221 215.622 381.032 215.433 380.798 215.433H378.018C377.785 215.433 377.596 215.622 377.596 215.855V217.185C377.596 217.418 377.785 217.607 378.018 217.607Z" fill="#3F3D56"/>
<path d="M370.768 217.607H373.548C373.782 217.607 373.971 217.418 373.971 217.185V215.856C373.971 215.623 373.782 215.434 373.548 215.434H370.768C370.535 215.434 370.346 215.623 370.346 215.856V217.185C370.346 217.418 370.535 217.607 370.768 217.607Z" fill="#3F3D56"/>
<path d="M363.518 217.607H366.298C366.532 217.607 366.721 217.418 366.721 217.185V215.856C366.721 215.623 366.532 215.434 366.298 215.434H363.518C363.285 215.434 363.096 215.623 363.096 215.856V217.185C363.096 217.418 363.285 217.607 363.518 217.607Z" fill="#3F3D56"/>
<path d="M356.266 217.607H359.046C359.28 217.607 359.469 217.418 359.469 217.185V215.856C359.469 215.623 359.28 215.434 359.046 215.434H356.266C356.033 215.434 355.844 215.623 355.844 215.856V217.185C355.844 217.418 356.033 217.607 356.266 217.607Z" fill="#3F3D56"/>
<path d="M349.016 217.607H351.796C352.03 217.607 352.219 217.418 352.219 217.185V215.856C352.219 215.623 352.03 215.434 351.796 215.434H349.016C348.783 215.434 348.594 215.623 348.594 215.856V217.185C348.594 217.418 348.783 217.607 349.016 217.607Z" fill="#3F3D56"/>
<path d="M341.766 217.607H344.546C344.78 217.607 344.969 217.418 344.969 217.185V215.856C344.969 215.623 344.78 215.434 344.546 215.434H341.766C341.533 215.434 341.344 215.623 341.344 215.856V217.185C341.344 217.418 341.533 217.607 341.766 217.607Z" fill="#3F3D56"/>
<path d="M334.516 217.607H337.296C337.53 217.607 337.719 217.418 337.719 217.185V215.855C337.719 215.622 337.53 215.433 337.296 215.433H334.516C334.283 215.433 334.094 215.622 334.094 215.855V217.185C334.094 217.418 334.283 217.607 334.516 217.607Z" fill="#3F3D56"/>
<path d="M327.266 217.607H330.046C330.28 217.607 330.469 217.418 330.469 217.185V215.856C330.469 215.623 330.28 215.434 330.046 215.434H327.266C327.033 215.434 326.844 215.623 326.844 215.856V217.185C326.844 217.418 327.033 217.607 327.266 217.607Z" fill="#3F3D56"/>
<path d="M320.016 217.607H322.796C323.03 217.607 323.219 217.418 323.219 217.185V215.856C323.219 215.623 323.03 215.434 322.796 215.434H320.016C319.783 215.434 319.594 215.623 319.594 215.856V217.185C319.594 217.418 319.783 217.607 320.016 217.607Z" fill="#3F3D56"/>
<path d="M312.764 217.607H315.544C315.778 217.607 315.967 217.418 315.967 217.185V215.856C315.967 215.623 315.778 215.434 315.544 215.434H312.764C312.531 215.434 312.342 215.623 312.342 215.856V217.185C312.342 217.418 312.531 217.607 312.764 217.607Z" fill="#3F3D56"/>
<path d="M305.514 217.607H308.294C308.528 217.607 308.717 217.418 308.717 217.185V215.856C308.717 215.623 308.528 215.434 308.294 215.434H305.514C305.281 215.434 305.092 215.623 305.092 215.856V217.185C305.092 217.418 305.281 217.607 305.514 217.607Z" fill="#3F3D56"/>
<path d="M298.262 217.607H301.042C301.276 217.607 301.465 217.418 301.465 217.185V215.856C301.465 215.623 301.276 215.434 301.042 215.434H298.262C298.029 215.434 297.84 215.623 297.84 215.856V217.185C297.84 217.418 298.029 217.607 298.262 217.607Z" fill="#3F3D56"/>
<path d="M407.104 221.23H409.884C410.117 221.23 410.307 221.041 410.307 220.808V219.478C410.307 219.245 410.117 219.056 409.884 219.056H407.104C406.871 219.056 406.681 219.245 406.681 219.478V220.808C406.681 221.041 406.871 221.23 407.104 221.23Z" fill="#3F3D56"/>
<path d="M399.854 221.23H402.634C402.867 221.23 403.057 221.041 403.057 220.808V219.479C403.057 219.246 402.867 219.057 402.634 219.057H399.854C399.621 219.057 399.431 219.246 399.431 219.479V220.808C399.431 221.041 399.621 221.23 399.854 221.23Z" fill="#3F3D56"/>
<path d="M392.604 221.23H395.384C395.617 221.23 395.807 221.041 395.807 220.808V219.479C395.807 219.246 395.617 219.057 395.384 219.057H392.604C392.371 219.057 392.181 219.246 392.181 219.479V220.808C392.181 221.041 392.371 221.23 392.604 221.23Z" fill="#3F3D56"/>
<path d="M385.352 221.23H388.132C388.366 221.23 388.555 221.041 388.555 220.808V219.479C388.555 219.246 388.366 219.057 388.132 219.057H385.352C385.119 219.057 384.93 219.246 384.93 219.479V220.808C384.93 221.041 385.119 221.23 385.352 221.23Z" fill="#3F3D56"/>
<path d="M378.102 221.23H380.882C381.116 221.23 381.305 221.041 381.305 220.808V219.479C381.305 219.246 381.116 219.057 380.882 219.057H378.102C377.869 219.057 377.68 219.246 377.68 219.479V220.808C377.68 221.041 377.869 221.23 378.102 221.23Z" fill="#3F3D56"/>
<path d="M370.852 221.23H373.632C373.866 221.23 374.055 221.041 374.055 220.808V219.478C374.055 219.245 373.866 219.056 373.632 219.056H370.852C370.619 219.056 370.43 219.245 370.43 219.478V220.808C370.43 221.041 370.619 221.23 370.852 221.23Z" fill="#3F3D56"/>
<path d="M363.602 221.23H366.382C366.615 221.23 366.805 221.041 366.805 220.808V219.478C366.805 219.245 366.615 219.056 366.382 219.056H363.602C363.369 219.056 363.179 219.245 363.179 219.478V220.808C363.179 221.041 363.369 221.23 363.602 221.23Z" fill="#3F3D56"/>
<path d="M356.352 221.23H359.132C359.365 221.23 359.555 221.041 359.555 220.808V219.479C359.555 219.246 359.365 219.057 359.132 219.057H356.352C356.119 219.057 355.93 219.246 355.93 219.479V220.808C355.93 221.041 356.119 221.23 356.352 221.23Z" fill="#3F3D56"/>
<path d="M349.102 221.23H351.882C352.116 221.23 352.305 221.041 352.305 220.808V219.479C352.305 219.246 352.116 219.057 351.882 219.057H349.102C348.869 219.057 348.68 219.246 348.68 219.479V220.808C348.68 221.041 348.869 221.23 349.102 221.23Z" fill="#3F3D56"/>
<path d="M341.85 221.23H344.63C344.864 221.23 345.053 221.041 345.053 220.808V219.479C345.053 219.246 344.864 219.057 344.63 219.057H341.85C341.617 219.057 341.428 219.246 341.428 219.479V220.808C341.428 221.041 341.617 221.23 341.85 221.23Z" fill="#3F3D56"/>
<path d="M334.6 221.23H337.38C337.614 221.23 337.803 221.041 337.803 220.808V219.479C337.803 219.246 337.614 219.057 337.38 219.057H334.6C334.367 219.057 334.178 219.246 334.178 219.479V220.808C334.178 221.041 334.367 221.23 334.6 221.23Z" fill="#3F3D56"/>
<path d="M327.35 221.23H330.13C330.364 221.23 330.553 221.041 330.553 220.808V219.478C330.553 219.245 330.364 219.056 330.13 219.056H327.35C327.117 219.056 326.928 219.245 326.928 219.478V220.808C326.928 221.041 327.117 221.23 327.35 221.23Z" fill="#3F3D56"/>
<path d="M320.1 221.23H322.88C323.114 221.23 323.303 221.041 323.303 220.808V219.478C323.303 219.245 323.114 219.056 322.88 219.056H320.1C319.867 219.056 319.678 219.245 319.678 219.478V220.808C319.678 221.041 319.867 221.23 320.1 221.23Z" fill="#3F3D56"/>
<path d="M312.85 221.23H315.63C315.864 221.23 316.053 221.041 316.053 220.808V219.479C316.053 219.246 315.864 219.057 315.63 219.057H312.85C312.617 219.057 312.428 219.246 312.428 219.479V220.808C312.428 221.041 312.617 221.23 312.85 221.23Z" fill="#3F3D56"/>
<path d="M305.6 221.23H308.38C308.614 221.23 308.803 221.041 308.803 220.808V219.479C308.803 219.246 308.614 219.057 308.38 219.057H305.6C305.367 219.057 305.178 219.246 305.178 219.479V220.808C305.178 221.041 305.367 221.23 305.6 221.23Z" fill="#3F3D56"/>
<path d="M298.348 221.23H301.128C301.362 221.23 301.551 221.041 301.551 220.808V219.479C301.551 219.246 301.362 219.057 301.128 219.057H298.348C298.115 219.057 297.926 219.246 297.926 219.479V220.808C297.926 221.041 298.115 221.23 298.348 221.23Z" fill="#3F3D56"/>
<path d="M346.927 225.578H375.083C375.317 225.578 375.506 225.389 375.506 225.155V223.826C375.506 223.593 375.317 223.404 375.083 223.404H346.927C346.694 223.404 346.504 223.593 346.504 223.826V225.155C346.504 225.389 346.694 225.578 346.927 225.578Z" fill="#3F3D56"/>
<path d="M317.096 152.306H314.634C313.888 152.306 313.283 152.91 313.283 153.656C313.283 154.402 313.888 155.006 314.634 155.006H317.096C317.842 155.006 318.447 154.402 318.447 153.656C318.447 152.91 317.842 152.306 317.096 152.306Z" fill="white"/>
<path d="M345.246 152.306H342.785C342.039 152.306 341.434 152.91 341.434 153.656C341.434 154.402 342.039 155.006 342.785 155.006H345.246C345.992 155.006 346.597 154.402 346.597 153.656C346.597 152.91 345.992 152.306 345.246 152.306Z" fill="white"/>
<path d="M353.221 152.306H350.759C350.013 152.306 349.408 152.91 349.408 153.656C349.408 154.402 350.013 155.006 350.759 155.006H353.221C353.967 155.006 354.572 154.402 354.572 153.656C354.572 152.91 353.967 152.306 353.221 152.306Z" fill="white"/>
<path d="M337.588 152.081H322.291C321.544 152.081 320.939 152.685 320.939 153.431C320.939 154.177 321.544 154.781 322.291 154.781H337.588C338.334 154.781 338.939 154.177 338.939 153.431C338.939 152.685 338.334 152.081 337.588 152.081Z" fill="white"/>
<path d="M375.121 152.081H359.824C359.078 152.081 358.473 152.685 358.473 153.431C358.473 154.177 359.078 154.781 359.824 154.781H375.121C375.867 154.781 376.472 154.177 376.472 153.431C376.472 152.685 375.867 152.081 375.121 152.081Z" fill="white"/>
<path d="M324.603 158.401H322.142C321.396 158.401 320.791 159.005 320.791 159.751C320.791 160.497 321.396 161.102 322.142 161.102H324.603C325.35 161.102 325.955 160.497 325.955 159.751C325.955 159.005 325.35 158.401 324.603 158.401Z" fill="white"/>
<path d="M352.75 158.401H350.289C349.542 158.401 348.938 159.005 348.938 159.751C348.938 160.497 349.542 161.102 350.289 161.102H352.75C353.496 161.102 354.101 160.497 354.101 159.751C354.101 159.005 353.496 158.401 352.75 158.401Z" fill="white"/>
<path d="M360.726 158.401H358.265C357.519 158.401 356.914 159.005 356.914 159.751C356.914 160.497 357.519 161.102 358.265 161.102H360.726C361.473 161.102 362.078 160.497 362.078 159.751C362.078 159.005 361.473 158.401 360.726 158.401Z" fill="white"/>
<path d="M345.095 158.176H329.798C329.052 158.176 328.447 158.78 328.447 159.526C328.447 160.272 329.052 160.876 329.798 160.876H345.095C345.842 160.876 346.447 160.272 346.447 159.526C346.447 158.78 345.842 158.176 345.095 158.176Z" fill="white"/>
<path d="M382.627 158.176H367.33C366.583 158.176 365.979 158.78 365.979 159.526C365.979 160.272 366.583 160.876 367.33 160.876H382.627C383.373 160.876 383.978 160.272 383.978 159.526C383.978 158.78 383.373 158.176 382.627 158.176Z" fill="white"/>
<path d="M332.109 164.496H329.648C328.902 164.496 328.297 165.101 328.297 165.846C328.297 166.592 328.902 167.197 329.648 167.197H332.109C332.855 167.197 333.46 166.592 333.46 165.846C333.46 165.101 332.855 164.496 332.109 164.496Z" fill="white"/>
<path d="M360.258 164.496H357.796C357.05 164.496 356.445 165.101 356.445 165.846C356.445 166.592 357.05 167.197 357.796 167.197H360.258C361.004 167.197 361.609 166.592 361.609 165.846C361.609 165.101 361.004 164.496 360.258 164.496Z" fill="white"/>
<path d="M368.234 164.496H365.773C365.027 164.496 364.422 165.101 364.422 165.846C364.422 166.592 365.027 167.197 365.773 167.197H368.234C368.98 167.197 369.585 166.592 369.585 165.846C369.585 165.101 368.98 164.496 368.234 164.496Z" fill="white"/>
<path d="M352.601 164.271H337.304C336.558 164.271 335.953 164.876 335.953 165.622C335.953 166.368 336.558 166.972 337.304 166.972H352.601C353.347 166.972 353.952 166.368 353.952 165.622C353.952 164.876 353.347 164.271 352.601 164.271Z" fill="white"/>
<path d="M390.133 164.271H374.836C374.089 164.271 373.484 164.876 373.484 165.622C373.484 166.368 374.089 166.972 374.836 166.972H390.133C390.879 166.972 391.484 166.368 391.484 165.622C391.484 164.876 390.879 164.271 390.133 164.271Z" fill="white"/>
<path d="M339.615 170.592H337.154C336.408 170.592 335.803 171.196 335.803 171.942C335.803 172.688 336.408 173.292 337.154 173.292H339.615C340.361 173.292 340.966 172.688 340.966 171.942C340.966 171.196 340.361 170.592 339.615 170.592Z" fill="white"/>
<path d="M367.764 170.592H365.302C364.556 170.592 363.951 171.196 363.951 171.942C363.951 172.688 364.556 173.292 365.302 173.292H367.764C368.51 173.292 369.115 172.688 369.115 171.942C369.115 171.196 368.51 170.592 367.764 170.592Z" fill="white"/>
<path d="M375.738 170.592H373.277C372.531 170.592 371.926 171.196 371.926 171.942C371.926 172.688 372.531 173.292 373.277 173.292H375.738C376.484 173.292 377.089 172.688 377.089 171.942C377.089 171.196 376.484 170.592 375.738 170.592Z" fill="white"/>
<path d="M360.107 170.366H344.81C344.064 170.366 343.459 170.971 343.459 171.717C343.459 172.462 344.064 173.067 344.81 173.067H360.107C360.853 173.067 361.458 172.462 361.458 171.717C361.458 170.971 360.853 170.366 360.107 170.366Z" fill="white"/>
<path d="M345.246 194.829H342.785C342.039 194.829 341.434 195.434 341.434 196.179C341.434 196.925 342.039 197.53 342.785 197.53H345.246C345.992 197.53 346.597 196.925 346.597 196.179C346.597 195.434 345.992 194.829 345.246 194.829Z" fill="white"/>
<path d="M353.221 194.829H350.759C350.013 194.829 349.408 195.434 349.408 196.179C349.408 196.925 350.013 197.53 350.759 197.53H353.221C353.967 197.53 354.572 196.925 354.572 196.179C354.572 195.434 353.967 194.829 353.221 194.829Z" fill="white"/>
<path d="M375.121 195.054H359.824C359.078 195.054 358.473 195.659 358.473 196.405C358.473 197.15 359.078 197.755 359.824 197.755H375.121C375.867 197.755 376.472 197.15 376.472 196.405C376.472 195.659 375.867 195.054 375.121 195.054Z" fill="white"/>
<path d="M317.096 194.829H314.634C313.888 194.829 313.283 195.434 313.283 196.179C313.283 196.925 313.888 197.53 314.634 197.53H317.096C317.842 197.53 318.447 196.925 318.447 196.179C318.447 195.434 317.842 194.829 317.096 194.829Z" fill="white"/>
<path d="M337.588 195.054H322.291C321.544 195.054 320.939 195.659 320.939 196.405C320.939 197.15 321.544 197.755 322.291 197.755H337.588C338.334 197.755 338.939 197.15 338.939 196.405C338.939 195.659 338.334 195.054 337.588 195.054Z" fill="white"/>
<path d="M324.603 188.734H322.142C321.396 188.734 320.791 189.338 320.791 190.084C320.791 190.83 321.396 191.435 322.142 191.435H324.603C325.35 191.435 325.955 190.83 325.955 190.084C325.955 189.338 325.35 188.734 324.603 188.734Z" fill="white"/>
<path d="M352.75 188.734H350.289C349.542 188.734 348.938 189.338 348.938 190.084C348.938 190.83 349.542 191.435 350.289 191.435H352.75C353.496 191.435 354.101 190.83 354.101 190.084C354.101 189.338 353.496 188.734 352.75 188.734Z" fill="white"/>
<path d="M360.726 188.734H358.265C357.519 188.734 356.914 189.338 356.914 190.084C356.914 190.83 357.519 191.435 358.265 191.435H360.726C361.473 191.435 362.078 190.83 362.078 190.084C362.078 189.338 361.473 188.734 360.726 188.734Z" fill="white"/>
<path d="M345.095 188.959H329.798C329.052 188.959 328.447 189.564 328.447 190.309C328.447 191.055 329.052 191.66 329.798 191.66H345.095C345.842 191.66 346.447 191.055 346.447 190.309C346.447 189.564 345.842 188.959 345.095 188.959Z" fill="white"/>
<path d="M332.109 182.639H329.648C328.902 182.639 328.297 183.243 328.297 183.989C328.297 184.735 328.902 185.339 329.648 185.339H332.109C332.855 185.339 333.46 184.735 333.46 183.989C333.46 183.243 332.855 182.639 332.109 182.639Z" fill="white"/>
<path d="M360.258 182.639H357.796C357.05 182.639 356.445 183.243 356.445 183.989C356.445 184.735 357.05 185.339 357.796 185.339H360.258C361.004 185.339 361.609 184.735 361.609 183.989C361.609 183.243 361.004 182.639 360.258 182.639Z" fill="white"/>
<path d="M368.234 182.639H365.773C365.027 182.639 364.422 183.243 364.422 183.989C364.422 184.735 365.027 185.339 365.773 185.339H368.234C368.98 185.339 369.585 184.735 369.585 183.989C369.585 183.243 368.98 182.639 368.234 182.639Z" fill="white"/>
<path d="M352.601 182.864H337.304C336.558 182.864 335.953 183.468 335.953 184.214C335.953 184.96 336.558 185.564 337.304 185.564H352.601C353.347 185.564 353.952 184.96 353.952 184.214C353.952 183.468 353.347 182.864 352.601 182.864Z" fill="white"/>
<path d="M339.615 176.543H337.154C336.408 176.543 335.803 177.148 335.803 177.893C335.803 178.639 336.408 179.244 337.154 179.244H339.615C340.361 179.244 340.966 178.639 340.966 177.893C340.966 177.148 340.361 176.543 339.615 176.543Z" fill="white"/>
<path d="M367.764 176.543H365.302C364.556 176.543 363.951 177.148 363.951 177.894C363.951 178.64 364.556 179.244 365.302 179.244H367.764C368.51 179.244 369.115 178.64 369.115 177.894C369.115 177.148 368.51 176.543 367.764 176.543Z" fill="white"/>
<path d="M375.738 176.543H373.277C372.531 176.543 371.926 177.148 371.926 177.893C371.926 178.639 372.531 179.244 373.277 179.244H375.738C376.484 179.244 377.089 178.639 377.089 177.893C377.089 177.148 376.484 176.543 375.738 176.543Z" fill="white"/>
<path d="M360.107 176.769H344.81C344.064 176.769 343.459 177.373 343.459 178.119C343.459 178.865 344.064 179.469 344.81 179.469H360.107C360.853 179.469 361.458 178.865 361.458 178.119C361.458 177.373 360.853 176.769 360.107 176.769Z" fill="white"/>
<path d="M304.011 266.264L292.457 248.011L328.724 219.118L343.693 202.544C345.638 200.39 348.114 198.785 350.874 197.888C353.634 196.99 356.582 196.833 359.422 197.431C362.262 198.028 364.895 199.361 367.059 201.294C369.223 203.228 370.84 205.695 371.751 208.45C373.1 212.531 372.81 216.977 370.942 220.849C369.073 224.721 365.773 227.716 361.737 229.202L338.066 237.917L304.011 266.264Z" fill="#FFCCB6"/>
<path d="M32.9082 133.919V222.633H95.0951V133.919C95.0961 133.281 94.8924 132.659 94.5138 132.145C94.1353 131.632 93.6018 131.253 92.9919 131.064C92.7044 130.969 92.4032 130.923 92.1004 130.926H35.9115C35.5176 130.925 35.1274 131.002 34.7633 131.152C34.3991 131.302 34.0681 131.522 33.7892 131.8C33.5103 132.078 33.2889 132.408 33.1377 132.772C32.9866 133.135 32.9086 133.525 32.9082 133.919ZM57.1771 164.401C57.1933 162.652 57.8999 160.981 59.1431 159.75C60.3862 158.519 62.0655 157.828 63.8155 157.828C65.5656 157.828 67.2448 158.519 68.488 159.75C69.7312 160.981 70.4378 162.652 70.454 164.401V174.695C70.445 176.448 69.7417 178.127 68.4977 179.364C67.2537 180.601 65.5703 181.295 63.8155 181.295C62.0608 181.295 60.3774 180.601 59.1334 179.364C57.8894 178.127 57.1861 176.448 57.1771 174.695V164.401Z" fill="#2F2E41"/>
<path d="M32.7188 219.796V228.351C32.7202 228.794 32.8963 229.219 33.209 229.533C33.5218 229.847 33.9458 230.025 34.3892 230.029H93.616C94.0598 230.027 94.4847 229.849 94.7978 229.534C95.1108 229.22 95.2865 228.794 95.2864 228.351V219.796H32.7188Z" fill="#3F3D56"/>
<path d="M-64.918 0.260183V162.239C-64.9163 164.303 -64.0951 166.282 -62.6346 167.742C-61.1742 169.202 -59.1938 170.022 -57.1284 170.024H183.05C185.116 170.022 187.096 169.202 188.557 167.742C190.017 166.282 190.838 164.303 190.84 162.239V0.260183C190.835 -1.80221 190.013 -3.77861 188.553 -5.23613C187.093 -6.69366 185.114 -7.51349 183.05 -7.51611H-57.1284C-59.192 -7.51348 -61.1705 -6.69363 -62.6305 -5.2361C-64.0905 -3.77858 -64.913 -1.80221 -64.918 0.260183Z" fill="#3F3D56"/>
<path d="M-59.2852 2.27573V160.241C-59.2833 161.344 -58.844 162.401 -58.0637 163.181C-57.2834 163.961 -56.2256 164.4 -55.1221 164.402H181.049C182.153 164.4 183.211 163.961 183.991 163.181C184.771 162.401 185.211 161.344 185.213 160.241V2.27573C185.212 1.1715 184.774 0.112409 183.994 -0.66921C183.213 -1.45083 182.154 -1.89116 181.049 -1.89355H-55.1221C-56.2269 -1.89115 -57.2858 -1.45083 -58.0662 -0.66921C-58.8467 0.112407 -59.285 1.1715 -59.2852 2.27573Z" fill="white"/>
<path d="M-15.4558 229.449C-15.2154 229.751 -14.9099 229.994 -14.5621 230.16C-14.2143 230.326 -13.8333 230.412 -13.4478 230.41H127.059C127.443 230.409 127.823 230.323 128.169 230.158C128.516 229.992 128.822 229.752 129.064 229.453C129.306 229.155 129.478 228.807 129.569 228.433C129.659 228.06 129.665 227.671 129.586 227.296L127.405 216.942C127.315 216.519 127.12 216.126 126.839 215.799C126.558 215.471 126.199 215.218 125.795 215.065C125.503 214.95 125.192 214.891 124.878 214.892H-11.2754C-11.5893 214.891 -11.9005 214.95 -12.1928 215.065C-12.5965 215.218 -12.9553 215.471 -13.2365 215.799C-13.5177 216.126 -13.7123 216.519 -13.8027 216.942L-15.9837 227.296C-16.0614 227.671 -16.0542 228.059 -15.9629 228.432C-15.8716 228.805 -15.6984 229.152 -15.4558 229.449Z" fill="#2F2E41"/>
<path d="M173.385 19.8669H-47.5995C-47.8292 19.8618 -48.0478 19.767 -48.2084 19.6029C-48.369 19.4387 -48.459 19.2182 -48.459 18.9886C-48.459 18.759 -48.369 18.5385 -48.2084 18.3744C-48.0478 18.2102 -47.8292 18.1154 -47.5995 18.1104H173.385C173.615 18.1154 173.834 18.2102 173.994 18.3744C174.155 18.5385 174.245 18.759 174.245 18.9886C174.245 19.2182 174.155 19.4387 173.994 19.6029C173.834 19.767 173.615 19.8618 173.385 19.8669Z" fill="#3F3D56"/>
<path d="M3.0271 13.6261C5.87145 13.6261 8.17725 11.2703 8.17725 8.36434C8.17725 5.45832 5.87145 3.10254 3.0271 3.10254C0.18275 3.10254 -2.12305 5.45832 -2.12305 8.36434C-2.12305 11.2703 0.18275 13.6261 3.0271 13.6261Z" fill="#3F3D56"/>
<path d="M162.672 4.40332H150.036C149.786 4.40914 149.549 4.51238 149.374 4.691C149.199 4.86962 149.102 5.10941 149.102 5.35912C149.102 5.60883 149.199 5.84865 149.374 6.02727C149.549 6.20589 149.786 6.30913 150.036 6.31495H162.672C162.924 6.31141 163.164 6.20915 163.34 6.03028C163.516 5.85141 163.615 5.61031 163.615 5.35912C163.615 5.10793 163.516 4.86686 163.34 4.68799C163.164 4.50913 162.924 4.40686 162.672 4.40332Z" fill="#3F3D56"/>
<path d="M162.672 7.99316H150.035C149.785 7.99869 149.547 8.10183 149.372 8.28047C149.198 8.45912 149.1 8.69909 149.1 8.94899C149.1 9.19889 149.198 9.43886 149.372 9.61751C149.547 9.79616 149.785 9.89927 150.035 9.9048H162.672C162.923 9.90177 163.164 9.79973 163.34 9.62081C163.517 9.44189 163.616 9.20052 163.616 8.94899C163.616 8.69747 163.517 8.45607 163.34 8.27715C163.164 8.09823 162.923 7.99619 162.672 7.99316Z" fill="#3F3D56"/>
<path d="M162.672 11.583H150.036C149.786 11.5888 149.549 11.6921 149.374 11.8707C149.199 12.0493 149.102 12.2891 149.102 12.5388C149.102 12.7885 149.199 13.0283 149.374 13.207C149.549 13.3856 149.786 13.4888 150.036 13.4946H162.672C162.924 13.4911 163.164 13.3888 163.34 13.21C163.516 13.0311 163.615 12.79 163.615 12.5388C163.615 12.2876 163.516 12.0465 163.34 11.8677C163.164 11.6888 162.924 11.5866 162.672 11.583Z" fill="#3F3D56"/>
<path d="M467.313 223.55C467.694 224.66 468.417 225.62 469.379 226.293C470.34 226.966 471.491 227.318 472.664 227.297L495.593 226.707C496.775 226.684 497.919 226.279 498.852 225.553C499.785 224.827 500.458 223.819 500.77 222.679L504.014 188.003C505.166 188.525 506.419 188.782 507.682 188.757C508.78 188.729 509.862 188.486 510.865 188.041C511.869 187.595 512.775 186.957 513.532 186.161C514.289 185.366 514.881 184.43 515.276 183.406C515.67 182.382 515.859 181.29 515.832 180.193C515.804 179.095 515.561 178.015 515.115 177.011C514.67 176.008 514.031 175.103 513.235 174.347C512.439 173.59 511.502 172.998 510.478 172.604C509.453 172.209 508.36 172.02 507.263 172.048C506.758 172.046 506.254 172.099 505.76 172.204C505.223 171.623 504.57 171.161 503.843 170.848C503.117 170.535 502.333 170.377 501.541 170.385L466.271 171.295C465.979 171.306 465.688 171.342 465.401 171.403C464.628 171.547 463.894 171.855 463.25 172.307C462.606 172.758 462.065 173.342 461.666 174.019C461.266 174.696 461.016 175.451 460.933 176.233C460.85 177.015 460.935 177.806 461.184 178.552L467.313 223.55ZM504.68 185.649L506.989 177.386C507.251 176.431 507.257 175.425 507.006 174.467C507.118 174.467 507.217 174.414 507.329 174.413C508.912 174.381 510.444 174.977 511.588 176.071C512.732 177.165 513.395 178.668 513.432 180.25C513.469 181.832 512.877 183.364 511.786 184.51C510.694 185.657 509.192 186.324 507.609 186.365C506.586 186.397 505.573 186.15 504.68 185.649Z" fill="#2F2E41"/>
<path d="M465.402 171.403C466.154 175.697 474.602 178.716 484.76 178.191C494.101 177.761 501.739 174.483 503.139 170.598C502.621 170.445 502.082 170.373 501.542 170.385L466.272 171.295C465.98 171.306 465.689 171.342 465.402 171.403Z" fill="#3F3D56"/>
<path d="M486.621 204.496C486.668 204.484 486.712 204.465 486.752 204.438L491.731 201.181C491.791 201.142 491.841 201.088 491.875 201.025C491.909 200.962 491.927 200.891 491.927 200.819C491.927 200.748 491.909 200.677 491.875 200.614C491.841 200.551 491.792 200.497 491.732 200.458L486.556 197.07C486.508 197.038 486.455 197.017 486.399 197.006C486.343 196.995 486.286 196.995 486.23 197.007C486.174 197.018 486.121 197.041 486.074 197.073C486.027 197.105 485.987 197.146 485.956 197.193C485.924 197.241 485.903 197.294 485.892 197.35C485.882 197.406 485.882 197.464 485.894 197.519C485.906 197.575 485.928 197.628 485.961 197.675C485.993 197.722 486.034 197.762 486.082 197.793L490.704 200.819L486.278 203.715C486.192 203.771 486.129 203.855 486.1 203.953C486.071 204.051 486.078 204.157 486.119 204.25C486.16 204.344 486.233 204.42 486.325 204.465C486.417 204.51 486.522 204.521 486.621 204.496Z" fill="#5F7FF8"/>
<path d="M478.759 204.858C478.842 204.837 478.918 204.792 478.975 204.727C479.033 204.663 479.07 204.583 479.081 204.498C479.093 204.413 479.079 204.326 479.041 204.248C479.003 204.171 478.943 204.107 478.868 204.064L474.278 201.434L478.714 198.141C478.76 198.107 478.798 198.065 478.827 198.016C478.857 197.967 478.876 197.913 478.884 197.857C478.892 197.801 478.89 197.744 478.876 197.689C478.862 197.634 478.837 197.582 478.803 197.536C478.77 197.491 478.727 197.452 478.678 197.423C478.63 197.394 478.576 197.375 478.519 197.366C478.463 197.358 478.406 197.361 478.351 197.375C478.296 197.389 478.244 197.413 478.198 197.447L473.232 201.134C473.174 201.177 473.128 201.233 473.097 201.299C473.067 201.364 473.053 201.435 473.057 201.507C473.062 201.579 473.084 201.648 473.122 201.709C473.159 201.77 473.212 201.821 473.274 201.856L478.437 204.814C478.535 204.87 478.65 204.886 478.759 204.858Z" fill="#5F7FF8"/>
<path d="M486.127 207.35C486.169 207.34 486.209 207.323 486.245 207.3C486.294 207.271 486.336 207.232 486.37 207.186C486.403 207.14 486.428 207.088 486.441 207.033C486.455 206.978 486.457 206.921 486.448 206.865C486.44 206.808 486.42 206.754 486.39 206.706L479.332 195.108C479.272 195.01 479.176 194.94 479.064 194.913C478.953 194.886 478.835 194.904 478.737 194.964C478.639 195.024 478.569 195.12 478.542 195.231C478.514 195.343 478.533 195.46 478.592 195.558L485.651 207.156C485.699 207.235 485.771 207.297 485.857 207.332C485.942 207.366 486.037 207.373 486.127 207.35Z" fill="#5F7FF8"/>
<path d="M89.2974 67.6143H51.0498C49.4895 67.6143 48.2246 68.8784 48.2246 70.4378V74.1723C48.2246 75.7316 49.4895 76.9957 51.0498 76.9957H89.2974C90.8577 76.9957 92.1225 75.7316 92.1225 74.1723V70.4378C92.1225 68.8784 90.8577 67.6143 89.2974 67.6143Z" fill="#5F7FF8"/>
<path d="M111.593 86.377H28.7568C27.1965 86.377 25.9316 87.6411 25.9316 89.2004V92.9349C25.9316 94.4943 27.1965 95.7584 28.7568 95.7584H111.593C113.153 95.7584 114.418 94.4943 114.418 92.9349V89.2004C114.418 87.6411 113.153 86.377 111.593 86.377Z" fill="#E6E6E6"/>
<path d="M111.593 105.14H28.7568C27.1965 105.14 25.9316 106.404 25.9316 107.964V111.698C25.9316 113.258 27.1965 114.522 28.7568 114.522H111.593C113.153 114.522 114.418 113.258 114.418 111.698V107.964C114.418 106.404 113.153 105.14 111.593 105.14Z" fill="#E6E6E6"/>
<path d="M118.613 167.97L118.801 168.562L118.811 168.581L124.458 185.741L130.955 205.516L143.178 242.677L143.297 248.45V248.469L144.205 294.906L141.687 301.202L144.521 311.523C144.521 311.523 143.218 295.921 136.228 304.881C132.268 309.973 127.638 315.183 123.836 320.067C129.375 322.307 135.003 324.333 140.72 326.146C141.954 326.54 143.198 326.915 144.442 327.29C144.709 327.369 144.975 327.448 145.242 327.527C164.192 333.128 183.783 336.275 203.535 336.891C204.562 336.921 205.569 336.941 206.546 336.961C206.892 336.97 207.227 336.98 207.563 336.98C208.669 336.99 209.765 337 210.871 337C213.102 337 215.324 336.967 217.535 336.901C233.905 336.44 250.179 334.241 266.083 330.339C265.974 323.777 265.678 316.11 265.254 307.92C265.056 303.904 260.623 299.553 260.356 295.349C260.169 292.191 264.148 289.221 263.94 286.014C262.598 266.269 260.919 273.849 259.675 259.866C259.547 258.495 259.428 257.182 259.32 255.929C258.52 246.95 257.967 241.335 257.967 241.335L263.279 207.874L271.622 155.339L270.98 154.283L270.26 153.928L226.254 132.16L223.864 126.042C223.168 124.28 221.96 122.766 220.396 121.695C218.832 120.624 216.983 120.045 215.087 120.033L186.098 119.915C184.594 119.908 183.11 120.26 181.768 120.941C180.427 121.622 179.268 122.613 178.387 123.832L170.538 134.696L118.613 167.97Z" fill="#3F3D56"/>
<path d="M149.864 234.408L143.298 248.45L138.815 258.041L131.104 298.39L127.244 302.485L123.936 287.988L89.3175 295.67C88.182 289.365 89.0135 295.883 88.3125 288.966C88.51 288.769 88.7173 288.571 88.9247 288.374C89.4776 287.861 89.9416 287.377 89.9318 286.914C89.5368 263.054 90.7216 222.449 100.615 197.849C102.164 193.832 104.207 190.024 106.697 186.511C106.894 186.245 107.082 185.978 107.27 185.712C111.831 179.327 114.714 173.042 118.802 168.572V168.562C118.827 168.542 118.85 168.518 118.871 168.493C118.886 168.486 118.899 168.476 118.91 168.463L146.99 153.583L148.195 187.409L149.054 211.723L149.864 234.408Z" fill="#3F3D56"/>
<path d="M251.113 238.396L259.315 255.934L262.177 262.042L269.886 302.387L273.734 306.472L277.049 291.978L278.607 291.659L306.7 285.844L314.889 311.834C316.734 308.761 317.461 305.145 316.947 301.598C316.433 298.051 314.708 294.79 312.066 292.367C311.507 291.861 311.041 291.369 311.054 290.903C311.52 262.84 309.803 211.597 294.291 190.507C289.365 183.814 286.409 177.147 282.109 172.49C282.096 172.477 282.096 172.464 282.082 172.464L271.617 155.338L270.978 154.287L270.259 153.928L251.113 238.396Z" fill="#3F3D56"/>
<path d="M201.429 111.67C222.728 111.67 239.994 94.4137 239.994 73.1272C239.994 51.8406 222.728 34.5845 201.429 34.5845C180.13 34.5845 162.863 51.8406 162.863 73.1272C162.863 94.4137 180.13 111.67 201.429 111.67Z" fill="#FFCCB6"/>
<path d="M253.556 46.2053C253.257 45.8861 252.897 45.6305 252.497 45.4536C252.097 45.2767 251.665 45.1823 251.228 45.1759L251.807 43.5671C251.997 43.0603 252.048 42.5123 251.956 41.9793C251.863 41.4463 251.631 40.9475 251.282 40.5338C250.933 40.1201 250.481 39.8065 249.971 39.6252C249.461 39.4438 248.912 39.4011 248.38 39.5016L246.268 39.9081L246.467 38.4982C246.544 37.9731 246.482 37.4371 246.288 36.9431C246.094 36.4491 245.775 36.0139 245.362 35.6805C244.949 35.3471 244.456 35.127 243.932 35.0416C243.408 34.9563 242.871 35.0088 242.373 35.1939C241.921 35.3719 241.434 35.4465 240.949 35.4121C240.464 35.3777 239.992 35.2351 239.569 34.995C239.145 34.7621 238.776 34.4395 238.489 34.0495C238.202 33.6596 238.003 33.2118 237.907 32.7373L237.172 29.1908L237.094 29.0005C233.511 23.032 226.621 18.6898 218.191 17.0982C210.687 15.6709 202.993 16.3975 195.575 17.0809C192.633 17.3577 189.309 17.6691 186.539 19.3644C184.185 20.8176 182.195 23.724 182.601 26.6564C175.288 24.416 167.446 28.888 163.56 34.5278C158.956 41.2402 158.203 49.6479 158.082 56.2219C157.753 71.7745 160.964 84.4986 167.602 94.0481C168.087 94.7401 168.208 96.1847 169.169 96.6691L168.97 96.349C170.043 96.8853 171.133 97.7503 170.727 98.6758C169.558 101.34 177.322 107.231 182.792 109.177C192.771 112.732 206.039 112.429 215.37 111.149L215.698 108.943C219.065 108.485 221.437 107.611 222.103 106.245C223.28 105.241 224.284 104.342 225.158 103.511L225.167 103.503C225.184 103.485 225.219 103.459 225.236 103.442C229.451 99.4024 230.429 97.1016 230.871 93.5984C231.295 90.1643 230.542 86.6784 229.772 83.5385C245.991 86.047 223.384 66.2732 238.496 62.4499C238.669 62.3965 238.846 62.3532 239.024 62.3201C239.465 62.2163 239.907 62.1125 240.331 61.9914C242.375 61.4369 244.333 60.6014 246.147 59.5089C250.371 56.9399 251.764 53.5318 253.945 49.6912C254.26 49.1444 254.392 48.5114 254.322 47.8845C254.252 47.2575 253.984 46.6693 253.556 46.2053Z" fill="#2F2E41"/>
<path d="M337.83 241.14C337.821 242.654 337.804 244.773 337.735 247.394C337.726 247.758 337.717 248.13 337.709 248.51C337.596 253.328 337.484 257.368 337.302 261.857C337.293 262.168 337.285 262.471 337.267 262.783C337.025 269.045 336.644 276.337 335.986 287.885C334.766 309.216 332.637 290.817 330.499 298.299C330.395 298.671 330.283 299.112 330.179 299.631C329.855 301.514 329.309 303.352 328.552 305.107C327.418 305.781 326.249 306.43 325.098 307.079C321.818 308.904 318.486 310.66 315.128 312.33C313.241 313.264 311.345 314.181 309.441 315.063C309.138 315.201 308.844 315.34 308.55 315.469C298.799 319.977 288.75 323.809 278.473 326.939C276.465 327.545 274.466 328.133 272.441 328.678C270.329 329.266 268.217 329.82 266.079 330.339C250.176 334.241 233.902 336.442 217.533 336.904C215.326 336.973 213.101 336.999 210.868 336.999C209.761 336.999 208.67 336.991 207.562 336.982C207.225 336.982 206.887 336.973 206.55 336.965C205.571 336.939 204.559 336.921 203.537 336.895C183.786 336.28 164.195 333.131 145.245 327.528L144.441 327.294C143.194 326.913 141.957 326.541 140.719 326.143C135.006 324.336 129.378 322.312 123.833 320.071C119.6 318.367 115.417 316.539 111.283 314.587C111.245 314.577 111.21 314.559 111.179 314.535C110.313 314.137 109.439 313.722 108.574 313.298C108.461 313.238 108.34 313.177 108.219 313.117C104.991 311.542 101.797 309.893 98.6378 308.169C95.9807 302.071 92.2417 300.903 89.9221 295.54C89.247 293.947 88.7591 292.281 88.468 290.575C88.468 290.558 88.4594 290.54 88.4594 290.514C88.7017 293.732 87.4294 284.805 88.4507 290.48C88.4421 290.376 88.4334 290.263 88.4248 290.134C88.3988 289.822 88.3642 289.442 88.3123 288.966C85.3436 259.997 85.534 226.868 84.2444 199.569C84.1578 197.804 84.0684 196.115 83.9761 194.5C83.9501 193.964 83.9155 193.436 83.8809 192.917C83.9414 192.761 84.0107 192.597 84.0886 192.441C84.1052 192.396 84.1254 192.353 84.1492 192.311C84.1747 192.258 84.2036 192.206 84.2357 192.156C84.253 192.13 84.279 192.095 84.2963 192.069C84.309 192.04 84.3234 192.011 84.3396 191.983C84.4175 191.862 84.504 191.732 84.5992 191.611C84.6425 191.559 84.6771 191.516 84.7204 191.472C84.7503 191.428 84.7851 191.388 84.8243 191.351C84.8508 191.31 84.8829 191.272 84.9195 191.239C84.9541 191.204 84.9887 191.161 85.032 191.118C85.0505 191.091 85.074 191.067 85.1012 191.049C85.1697 190.97 85.245 190.898 85.3262 190.832C85.635 190.548 85.9649 190.288 86.3129 190.054C86.4341 189.976 86.5639 189.898 86.6851 189.812C87.5573 189.29 88.4758 188.85 89.4288 188.497C89.7577 188.376 90.0865 188.263 90.4414 188.142C90.5712 188.108 90.6924 188.064 90.8222 188.021C91.0126 187.961 91.2031 187.9 91.4021 187.857C92.3888 187.563 93.4534 187.312 94.6045 187.078C94.743 187.052 94.8901 187.026 95.0373 186.992C95.245 186.949 95.4614 186.914 95.6778 186.879C95.972 186.827 96.2749 186.776 96.5779 186.724C99.1484 186.317 102.065 186.014 105.285 185.815C105.588 185.798 105.891 185.781 106.194 185.764C106.549 185.746 106.903 185.729 107.267 185.712C107.57 185.694 107.881 185.686 108.193 185.677C108.496 185.66 108.808 185.651 109.128 185.642C110.002 185.616 110.902 185.591 111.819 185.573C114.433 185.521 117.186 185.539 120.076 185.599C121.418 185.634 122.786 185.668 124.188 185.729C124.283 185.729 124.369 185.738 124.456 185.738C125.676 185.781 126.905 185.833 128.169 185.902C129.052 185.945 129.943 185.988 130.835 186.04C131.674 186.092 132.522 186.144 133.379 186.205C134.046 186.239 134.712 186.291 135.387 186.334C135.958 186.378 136.53 186.421 137.101 186.456L137.88 186.507C138.304 186.542 138.728 186.568 139.161 186.611C140.113 186.689 141.065 186.767 142.034 186.845C142.995 186.931 143.973 187.018 144.951 187.104C145.929 187.191 146.916 187.286 147.903 187.381C148.006 187.39 148.102 187.398 148.197 187.407C149.097 187.502 149.997 187.589 150.906 187.684C151.114 187.701 151.33 187.718 151.538 187.744C152.404 187.831 153.287 187.933 154.162 188.026C154.43 188.055 154.697 188.083 154.966 188.112C155.651 188.187 156.327 188.252 157.016 188.333C157.925 188.436 158.851 188.531 159.751 188.653C160.452 188.73 161.153 188.808 161.854 188.895C162.954 189.025 164.07 189.163 165.187 189.31C165.611 189.362 166.035 189.414 166.459 189.474C169.644 189.872 172.864 190.313 176.135 190.772C181.095 191.472 186.132 192.234 191.204 193.055C196.284 193.877 201.394 194.745 206.532 195.659C207.83 195.893 209.129 196.126 210.436 196.368C211.024 196.481 211.613 196.593 212.201 196.706C213.205 196.887 214.209 197.078 215.213 197.268C216.217 197.458 217.221 197.648 218.225 197.847C219.42 198.081 220.623 198.315 221.817 198.548C229.684 200.105 237.509 201.766 245.142 203.505C246.397 203.79 247.652 204.084 248.899 204.37C251.391 204.949 253.861 205.537 256.308 206.134C256.983 206.29 257.649 206.454 258.316 206.618C259.977 207.034 261.639 207.449 263.275 207.873L263.56 207.951C264.764 208.245 265.941 208.547 267.118 208.859C269.896 209.585 272.628 210.321 275.314 211.065C277.097 211.558 278.86 212.056 280.602 212.561C283.208 213.314 285.761 214.075 288.245 214.845C288.859 215.035 289.474 215.225 290.08 215.407C291.897 215.969 293.689 216.54 295.429 217.111C296.813 217.561 298.164 218.019 299.496 218.478C300.829 218.936 302.136 219.394 303.417 219.853C304.239 220.147 305.053 220.458 305.867 220.753C307.035 221.185 308.186 221.618 309.311 222.05C309.658 222.18 309.995 222.318 310.333 222.448C310.549 222.543 310.757 222.621 310.964 222.707C311.371 222.872 311.787 223.027 312.185 223.192C312.592 223.347 312.99 223.512 313.388 223.685C313.777 223.841 314.175 224.005 314.556 224.169C314.946 224.325 315.327 224.489 315.707 224.662C316.028 224.792 316.339 224.93 316.642 225.069C317.257 225.337 317.871 225.605 318.468 225.882C318.763 226.02 319.057 226.15 319.351 226.288L320.026 226.6C320.122 226.652 320.217 226.695 320.312 226.738C320.528 226.842 320.753 226.955 320.97 227.058C321.472 227.292 321.965 227.543 322.45 227.776C323.099 228.105 323.731 228.434 324.337 228.754C324.951 229.082 325.548 229.411 326.119 229.731C326.215 229.783 326.301 229.835 326.396 229.887C326.526 229.956 326.656 230.034 326.786 230.103C327.227 230.354 327.651 230.613 328.076 230.864C328.906 231.375 329.694 231.876 330.43 232.378C330.594 232.49 330.75 232.603 330.914 232.707C331.46 233.096 331.979 233.477 332.464 233.866C332.464 233.874 332.464 233.874 332.472 233.874C332.637 233.996 332.793 234.125 332.948 234.246C333.078 234.367 333.217 234.471 333.346 234.592C333.797 234.982 334.212 235.353 334.593 235.734C334.72 235.852 334.842 235.976 334.956 236.106C335.007 236.148 335.053 236.194 335.095 236.245C335.268 236.418 335.424 236.59 335.571 236.763C335.594 236.787 335.614 236.813 335.631 236.841C335.839 237.084 336.03 237.326 336.211 237.568C336.298 237.689 336.393 237.81 336.471 237.931C336.575 238.078 336.679 238.234 336.765 238.381C336.843 238.502 336.912 238.632 336.982 238.753C337.165 239.065 337.322 239.392 337.449 239.73C337.546 239.96 337.624 240.197 337.683 240.44C337.748 240.67 337.797 240.904 337.83 241.14Z" fill="#2F2E41"/>
<path opacity="0.2" d="M337.831 241.14C337.822 242.654 337.805 244.773 337.736 247.394C337.727 247.757 337.71 248.129 337.701 248.51C337.614 252.186 337.485 256.727 337.303 261.857C337.294 262.168 337.285 262.471 337.268 262.782C337.026 269.045 336.645 276.337 335.987 287.884C334.767 309.215 332.638 290.817 330.5 298.299C324.562 294.649 318.054 290.825 311.095 286.898C309.84 286.189 308.574 285.477 307.296 284.762C293.378 277.003 277.834 268.872 261.605 260.819C260.965 260.499 260.316 260.179 259.675 259.867C222.502 241.503 181.927 223.641 149.055 211.722C142.71 209.421 136.652 207.345 130.957 205.52C118.961 201.688 108.592 199.006 100.612 197.847C92.3031 196.636 86.5648 197.069 84.2452 199.568C84.1587 197.804 84.0692 196.114 83.9769 194.5C83.9422 193.963 83.9076 193.436 83.873 192.917C83.9265 192.774 83.9959 192.638 84.0631 192.501C84.0727 192.481 84.0795 192.461 84.0894 192.441C84.106 192.396 84.1263 192.353 84.15 192.311C84.1755 192.257 84.2045 192.205 84.2366 192.155C84.2647 192.094 84.2995 192.036 84.3404 191.982C84.4183 191.861 84.5049 191.732 84.6001 191.611C84.6701 191.52 84.7452 191.433 84.8251 191.351C84.8517 191.309 84.8837 191.272 84.9203 191.239C84.955 191.204 84.9896 191.161 85.0328 191.117C85.0513 191.09 85.0748 191.067 85.1021 191.048C85.1705 190.97 85.2458 190.897 85.3271 190.832C85.6359 190.548 85.9657 190.288 86.3138 190.054C86.4349 189.976 86.5648 189.898 86.686 189.811C87.5582 189.29 88.4766 188.85 89.4296 188.497C89.7585 188.375 90.0874 188.263 90.4423 188.142C90.5721 188.107 90.6933 188.064 90.8231 188.021C91.0135 187.96 91.2039 187.9 91.403 187.856C92.3897 187.562 93.4542 187.311 94.6054 187.078C94.9516 187.009 95.3151 186.94 95.6786 186.879C95.9729 186.827 96.2758 186.775 96.5787 186.723C99.1493 186.317 102.066 186.014 105.286 185.815C105.589 185.798 105.892 185.78 106.195 185.763C106.549 185.746 106.904 185.729 107.268 185.711C107.571 185.694 107.882 185.685 108.194 185.677C108.497 185.659 108.808 185.651 109.129 185.642C110.003 185.616 110.903 185.59 111.82 185.573C114.434 185.53 117.187 185.547 120.077 185.607C121.419 185.633 122.786 185.677 124.188 185.737C124.275 185.737 124.37 185.746 124.457 185.746C125.677 185.78 126.915 185.841 128.17 185.902C129.053 185.945 129.944 185.988 130.836 186.04C131.675 186.092 132.523 186.144 133.38 186.204C134.047 186.239 134.713 186.291 135.388 186.334C135.959 186.377 136.531 186.421 137.102 186.455C137.786 186.507 138.469 186.559 139.162 186.611C140.114 186.689 141.066 186.767 142.035 186.844C142.996 186.931 143.974 187.017 144.952 187.104C145.93 187.19 146.917 187.286 147.903 187.381C148.007 187.389 148.102 187.398 148.198 187.407C149.098 187.502 149.998 187.588 150.907 187.683C155.944 188.194 161.128 188.791 166.46 189.474C169.645 189.881 172.87 190.316 176.136 190.78C181.096 191.481 186.133 192.242 191.205 193.055C196.285 193.877 201.395 194.745 206.533 195.659C207.831 195.892 209.129 196.126 210.436 196.368C212.029 196.662 213.622 196.962 215.214 197.268C216.218 197.458 217.222 197.648 218.226 197.847C219.42 198.081 220.623 198.314 221.818 198.548C229.685 200.105 237.51 201.766 245.143 203.504C246.398 203.79 247.653 204.084 248.9 204.369C251.392 204.949 253.862 205.537 256.308 206.134C256.984 206.298 257.65 206.462 258.316 206.627C259.987 207.042 261.64 207.457 263.276 207.872V207.881C263.371 207.898 263.466 207.924 263.561 207.95C264.756 208.253 265.942 208.556 267.119 208.867C269.897 209.594 272.629 210.326 275.315 211.064C277.098 211.566 278.864 212.059 280.603 212.561C283.208 213.322 285.762 214.083 288.246 214.844C288.86 215.035 289.475 215.225 290.081 215.407C291.898 215.977 293.681 216.545 295.429 217.111C296.814 217.56 298.164 218.019 299.497 218.477C300.83 218.936 302.137 219.394 303.418 219.853C304.249 220.147 305.063 220.449 305.867 220.744C307.045 221.176 308.187 221.609 309.312 222.05C309.658 222.179 309.996 222.318 310.333 222.448C310.965 222.69 311.58 222.941 312.186 223.191C312.592 223.347 312.991 223.512 313.389 223.685C313.778 223.84 314.176 224.005 314.557 224.169C314.947 224.325 315.327 224.489 315.708 224.662C316.029 224.792 316.34 224.93 316.643 225.069C317.258 225.337 317.872 225.605 318.469 225.882C318.764 226.02 319.058 226.15 319.352 226.288L320.027 226.6C320.122 226.651 320.218 226.695 320.313 226.738C321.049 227.084 321.758 227.43 322.451 227.776C323.1 228.105 323.732 228.433 324.337 228.753C325.056 229.134 325.74 229.506 326.397 229.887C326.527 229.956 326.657 230.034 326.787 230.103C327.228 230.354 327.652 230.613 328.076 230.864C328.907 231.374 329.695 231.876 330.431 232.378C331.158 232.879 331.833 233.372 332.465 233.865C332.465 233.874 332.465 233.874 332.473 233.874C332.776 234.116 333.07 234.359 333.347 234.592C333.797 234.981 334.213 235.353 334.594 235.734C334.721 235.851 334.843 235.975 334.957 236.106C335.008 236.147 335.054 236.194 335.096 236.244C335.277 236.443 335.459 236.642 335.632 236.841C335.84 237.083 336.031 237.325 336.212 237.568C336.299 237.689 336.394 237.81 336.472 237.931C336.576 238.078 336.68 238.234 336.766 238.381C336.844 238.502 336.913 238.632 336.983 238.753C337.166 239.064 337.323 239.391 337.45 239.73C337.545 239.961 337.623 240.198 337.684 240.439C337.749 240.669 337.798 240.903 337.831 241.14Z" fill="black"/>
</g>
<defs>
<clipPath id="clip0_11703_4421">
<rect width="681" height="495" fill="white" transform="translate(-133 -158)"/>
</clipPath>
</defs>
</svg>
