<svg width="605" height="495" viewBox="0 0 605 495" fill="none" xmlns="http://www.w3.org/2000/svg">
<rect x="107.5" y="177.5" width="129" height="270" stroke="#111111"/>
<rect x="107.5" y="177.5" width="129" height="30" fill="#111111" stroke="#111111"/>
<circle cx="125" cy="193" r="8.5" fill="white" stroke="#111111"/>
<line x1="145" y1="192.5" x2="170" y2="192.5" stroke="white"/>
<rect x="274.5" y="261.5" width="95" height="106" stroke="#111111"/>
<rect x="358.5" y="250.5" width="21" height="21" fill="white" stroke="#111111"/>
<rect x="263.5" y="250.5" width="21" height="21" fill="white" stroke="#111111"/>
<rect x="358.5" y="357.5" width="21" height="21" fill="white" stroke="#111111"/>
<rect x="263.5" y="357.5" width="21" height="21" fill="white" stroke="#111111"/>
<ellipse cx="167" cy="489.5" rx="136" ry="5.5" fill="#111111"/>
<path d="M24.9945 238.426L24.0039 238.438L21.5519 258.053L2.43642 260.504L2.41167 261.492L21.5507 264.927L24.0041 284.064L24.9942 284.076L27.9413 264.92L44.6008 261.49L44.5727 260.505L27.9395 258.059L24.9945 238.426Z" fill="white" stroke="#111111" stroke-linecap="round" stroke-linejoin="round"/>
<path d="M62.5024 448.5C36.5 416.5 54 381.5 65.0024 370L224.503 401C285.503 434 246.503 491 216.503 491H27.5024C7.99702 491.5 12.9999 474.5 25.4969 473.5C47.4969 468.5 56.5024 456.167 62.5024 448.5Z" fill="white" stroke="#111111" stroke-linecap="round"/>
<path d="M77 432C68.6 433.6 64 444 62.5 448L57 440.5C65 432.9 71.5 431.5 77 432Z" fill="#111111" stroke="#111111" stroke-linecap="round"/>
<path d="M77 432C84 431.5 90.5 435.731 95 438.5C99.5 441.269 115 441 122.5 439.5C130 438 153 430 170 428.5C175.5 428.015 186.5 428.5 193.5 428.5" stroke="#111111" stroke-linecap="round"/>
<path d="M122.5 439.5C115 441 102.5 441 97.5 439.5C98.3333 450.667 99 476.6 95 491H120.5C122.333 484 125.3 463.9 122.5 439.5Z" fill="#111111" stroke="#111111" stroke-linecap="round"/>
<path d="M25.4969 473.5C33 471.5 33 471.5 37.5 469.5C37.1 482.3 47.3333 489.167 52.5 491H27.5024C7.99702 491.5 12.9999 474.5 25.4969 473.5Z" fill="#111111" stroke="#111111" stroke-linecap="round"/>
<circle cx="161.5" cy="215.5" r="10.5" fill="#111111"/>
<path d="M167.996 224H154.996C153.5 225 153.497 227 154.996 228H167.996C169 226.5 169 225.5 167.996 224Z" fill="white" stroke="#111111"/>
<path d="M45.4991 367C47.5005 365 58.5 365 64.9998 369.5L54.4997 386C47.9999 381.5 41.999 370.498 45.4991 367Z" fill="#111111" stroke="#111111"/>
<path d="M99.5 283.5C125.5 245.5 178 261 184 305.5L194.5 402C142.5 427.5 75.6987 378.539 67 371C59.5 364.5 51 366 47 366C61 355.5 68.5 339.5 75 330C82.454 319.105 93 292 99.5 283.5Z" fill="#C1E693" stroke="#111111"/>
<path d="M247.5 300C243.9 288 229 270.5 221.5 264.5L180.5 291.5C186 308.5 187.5 338.5 190 361.5L247.5 300Z" fill="#C1E693" stroke="#111111"/>
<path d="M247.5 300C243.9 288 229 270.5 221.5 264.5C226.901 260.997 238.412 252.048 246.024 245.58C247.953 243.941 250.407 243.034 252.938 243.094L267.399 243.438C269.105 243.479 270.771 243.955 272.241 244.822L273.719 245.693C278.104 248.279 276.27 255 271.179 255H257.784C257.126 255 256.511 255.324 256.137 255.865L249.5 265.5C251.5 265 256 264 260 267.5L267.5 263.5C274.5 260 278.081 267.326 274 270.5C269.5 274 266.5 275.5 261 287C253.5 296 250.5 298 247.5 300Z" fill="white"/>
<path d="M260 267.5C256 264 251.5 265 249.5 265.5L256.137 255.865C256.511 255.324 257.126 255 257.784 255H271.179C276.27 255 278.104 248.279 273.719 245.693L272.241 244.822C270.771 243.955 269.105 243.479 267.399 243.438L252.938 243.094C250.407 243.034 247.953 243.941 246.024 245.58C238.412 252.048 226.901 260.997 221.5 264.5C229 270.5 243.9 288 247.5 300C250.5 298 253.5 296 261 287C266.5 275.5 269.5 274 274 270.5C278.081 267.326 274.5 260 267.5 263.5L260 267.5ZM260 267.5C261 269.5 260.5 270.5 260 271.5" stroke="#111111" stroke-linecap="round"/>
<path d="M166.5 272.5C162 267.5 148 262 141.5 262L157 236.5L172.5 241.5L166.5 272.5Z" fill="white" stroke="#111111"/>
<path d="M155.001 228.5C145.501 231.5 145 245 147.501 250.5C149.868 250.5 156.971 244.662 160.363 241.624L160.501 241.5C162.901 244.3 168.835 247 171.502 248C184.002 245 174.502 231.5 168.502 228.5H155.001Z" fill="#111111"/>
<path d="M160.501 241.5C162.901 244.3 168.835 247 171.502 248C184.002 245 174.502 231.5 168.502 228.5H155.001C145.501 231.5 145 245 147.501 250.5C149.868 250.5 156.971 244.662 160.363 241.624M160.501 241.5C160.456 241.541 160.41 241.582 160.363 241.624M160.501 241.5L160.363 241.624M161 249.5C162.5 248.833 165.7 248.4 166.5 252" stroke="#111111" stroke-linecap="round"/>
<path d="M168.5 264.5C164.612 265.277 160.726 263.638 158.016 261.46C156.582 260.308 155.626 257.872 156.832 256.482C158.284 254.808 160.304 256.477 162.352 257.323C164.448 258.188 167.184 258.803 169.003 258.5L168.5 264.5Z" stroke="#111111"/>
<path d="M105.494 303C115.494 269 147.994 283.5 153.994 298.5L175.994 348.5C177.5 348.5 192.771 349.011 199 351.5C204.006 353.5 219.994 353.333 227.494 353C242.5 363.5 238.5 386.5 237.994 397C236.827 397.333 225.705 400.44 189.994 407.5C147 416 136.652 400.707 132.501 397.5C121.5 389 121.476 372 118.505 363.5C114.342 351.591 102.496 322 105.494 303Z" fill="#C1E693" stroke="#111111"/>
<path d="M227.494 353C242.5 363.5 238.5 386.5 237.994 397C239.5 396.5 254 391 262.5 389.5C274.475 387.387 284.521 379.863 290.573 372.526C290.86 372.178 291.1 371.79 291.245 371.364C292.984 366.257 287.883 364.558 285 366C280.791 369.508 273.967 370.65 269.653 370.99C268.581 371.075 267.52 370.763 266.631 370.157L265.073 369.095C263.756 368.197 263.97 366.204 265.452 365.616C269.283 364.098 273.903 362.298 274.5 362C278.717 359.188 277.226 354.62 273.317 352.823C272.789 352.58 272.203 352.508 271.621 352.523L254.076 352.985C253.7 352.995 253.323 352.893 252.995 352.707C239.739 345.199 229.475 353 227.494 353Z" fill="white" stroke="#111111"/>
<path d="M183.5 289.5L180.5 291.5C185.5 303.5 187 331.5 188.5 349C188.9 349 193 349.5 195 350C195.5 346 195.5 343 195 339C194.307 333.453 191.5 321 191 314C190.202 302.821 186.167 293 183.5 289.5Z" fill="#111111" stroke="#111111"/>
<path d="M105.013 309.688C105.011 307.354 105.161 305.112 105.494 303C105.226 304.774 105.066 307.045 105.013 309.688C105.034 328.359 114.804 352.915 118.504 363.5C121.475 372 120.5 421.239 189.994 407.5C225.705 400.44 221.832 401.333 222.999 401L231.999 406.5L187.999 418C108 437 114.911 375.315 109.5 351C106.299 336.615 104.804 320.207 105.013 309.688Z" fill="#111111"/>
<path d="M105.494 303C102.496 322 114.342 351.591 118.504 363.5C121.475 372 120.5 421.239 189.994 407.5C225.705 400.44 221.832 401.333 222.999 401L231.999 406.5L187.999 418C108 437 114.911 375.315 109.5 351C105.494 333 104.161 311.833 105.494 303Z" stroke="#111111"/>
<path d="M143.994 361.091C156.5 347.5 177 346 199 351.5" stroke="#111111" stroke-linecap="round"/>
<path d="M308.5 310C308.5 303.649 313.649 298.5 320 298.5H468C474.351 298.5 479.5 303.649 479.5 310V323.5V450C479.5 456.351 474.351 461.5 468 461.5H320C313.649 461.5 308.5 456.351 308.5 450V323.5V310Z" fill="white" stroke="#111111"/>
<path d="M407 339.5H465.5V388H407V339.5Z" fill="#111111"/>
<path d="M407 339.5H465.5M407 339.5V388M407 339.5C425.667 355.333 463.5 387.2 465.5 388M465.5 339.5V388M465.5 339.5L407 388M465.5 388H407" stroke="white" stroke-linecap="round"/>
<rect x="322" y="339" width="70" height="108" fill="#111111"/>
<rect x="10.8699" y="341.579" width="52.3119" height="6" rx="3" transform="rotate(-47.7397 10.8699 341.579)" fill="white" stroke="#111111"/>
<rect x="259.294" y="322.009" width="52.3119" height="6" rx="3" transform="rotate(-47.7397 259.294 322.009)" fill="white" stroke="#111111"/>
<rect x="278.294" y="428.009" width="52.3119" height="6" rx="3" transform="rotate(-47.7397 278.294 428.009)" fill="white" stroke="#111111"/>
<circle cx="83" cy="239" r="4.5" fill="white" stroke="#111111"/>
<circle cx="388.5" cy="216.5" r="3" fill="#111111" stroke="#111111"/>
<circle cx="505" cy="455" r="3.5" fill="#111111" stroke="#111111"/>
<circle cx="7" cy="414" r="6.5" fill="white" stroke="#111111"/>
<path d="M243.337 448.817C243.29 448.804 243.269 448.784 243.257 448.766C243.242 448.745 243.231 448.714 243.231 448.678C243.231 448.641 243.242 448.61 243.257 448.589C243.269 448.572 243.29 448.551 243.337 448.538L243.492 448.494C250.764 446.443 256.471 440.664 258.521 433.397C258.532 433.358 258.549 433.342 258.562 433.332C258.58 433.32 258.606 433.31 258.637 433.311C258.668 433.311 258.689 433.32 258.701 433.328C258.709 433.334 258.722 433.345 258.731 433.382L258.996 434.496C260.706 441.676 266.439 447.204 273.676 448.652C273.693 448.655 273.699 448.659 273.701 448.66C273.701 448.66 273.701 448.66 273.702 448.661C273.702 448.661 273.703 448.662 273.703 448.662C273.705 448.665 273.711 448.676 273.711 448.697C273.711 448.718 273.704 448.732 273.699 448.739C273.699 448.74 273.698 448.741 273.697 448.742C273.695 448.743 273.694 448.745 273.692 448.746C273.688 448.748 273.68 448.753 273.664 448.757C266.253 450.383 260.398 456.186 258.771 463.6L258.691 463.964C258.683 463.998 258.671 464.009 258.664 464.014C258.654 464.022 258.635 464.03 258.609 464.031C258.584 464.032 258.564 464.025 258.553 464.017C258.546 464.013 258.534 464.002 258.524 463.969L258.474 463.791L257.993 463.927L258.474 463.791C256.436 456.566 250.79 450.919 243.565 448.882L243.337 448.817Z" fill="#111111" stroke="#111111" stroke-linejoin="round"/>
<mask id="path-46-outside-1_11699_3661" maskUnits="userSpaceOnUse" x="263" y="250" width="22" height="10" fill="black">
<rect fill="white" x="263" y="250" width="22" height="10"/>
<path d="M264 251H284V260H264V251Z"/>
</mask>
<path d="M264 251H284V260H264V251Z" fill="white"/>
<path d="M264 251V250H263V251H264ZM284 251H285V250H284V251ZM264 252H284V250H264V252ZM283 251V260H285V251H283ZM265 260V251H263V260H265Z" fill="#111111" mask="url(#path-46-outside-1_11699_3661)"/>
<path d="M481.494 396.926L480.504 396.938L478.052 416.553L458.936 419.004L458.912 419.992L478.051 423.427L480.504 442.564L481.494 442.576L484.441 423.42L501.101 419.99L501.073 419.005L484.439 416.559L481.494 396.926Z" fill="#111111" stroke="#111111" stroke-linecap="round" stroke-linejoin="round"/>
<path d="M407.5 18C407.5 8.33502 415.335 0.5 425 0.5H528.608C538.273 0.5 546.108 8.33502 546.108 18V93C546.108 102.665 538.273 110.5 528.608 110.5H425C415.335 110.5 407.5 102.665 407.5 93V18Z" fill="white" stroke="#111111"/>
<path d="M407.5 18C407.5 8.33502 415.335 0.5 425 0.5H528.608C538.273 0.5 546.108 8.33502 546.108 18V21.5H407.5V18Z" fill="#111111" stroke="#111111"/>
<circle cx="510.18" cy="11.6343" r="4.26804" fill="white" stroke="#111111"/>
<circle cx="527.727" cy="11.6343" r="4.26804" fill="white" stroke="#111111"/>
<rect x="499.5" y="63.5" width="95" height="106" stroke="#111111"/>
<rect x="583.5" y="52.5" width="21" height="21" fill="white" stroke="#111111"/>
<rect x="488.5" y="52.5" width="21" height="21" fill="white" stroke="#111111"/>
<rect x="583.5" y="159.5" width="21" height="21" fill="white" stroke="#111111"/>
<rect x="488.5" y="159.5" width="21" height="21" fill="white" stroke="#111111"/>
<path d="M452.485 138.132C455.957 137 458.704 134.263 459.889 130.817C460.758 134.366 463.46 137.153 466.934 138.153C463.51 139.197 460.823 141.934 459.878 145.401C458.703 141.95 455.963 139.251 452.485 138.132Z" fill="#111111" stroke="#111111" stroke-linejoin="round"/>
<path d="M536.334 205.634L535.344 205.646L534.222 214.621L525.481 215.741L525.457 216.729L534.221 218.303L535.344 227.064L536.334 227.076L537.685 218.295L545.3 216.727L545.272 215.743L537.683 214.627L536.334 205.634Z" fill="white" stroke="#111111" stroke-linecap="round" stroke-linejoin="round"/>
<circle cx="569.533" cy="207.346" r="2.83974" fill="#111111" stroke="#111111"/>
<circle cx="568.83" cy="89.1893" r="2.60577" fill="white" stroke="#111111"/>
<circle cx="442.951" cy="83.1058" r="2.60577" fill="white" stroke="#111111"/>
<circle cx="587.547" cy="98.5478" r="1.66987" fill="white" stroke="#111111"/>
<circle cx="425.17" cy="117.734" r="1.66987" fill="white" stroke="#111111"/>
<circle cx="426.572" cy="189.33" r="1.66987" fill="#111111" stroke="#111111"/>
<circle cx="448.568" cy="211.324" r="1.66987" fill="white" stroke="#111111"/>
<circle cx="593.631" cy="195.414" r="1.66987" fill="white" stroke="#111111"/>
<rect x="575.844" y="188.141" width="25.6626" height="3.33974" rx="1.66987" transform="rotate(-45.0283 575.844 188.141)" fill="#111111" stroke="#111111"/>
<rect x="451.308" y="195.536" width="17.1907" height="3.33974" rx="1.66987" transform="rotate(-137.005 451.308 195.536)" fill="#111111" stroke="#111111"/>
</svg>
