<svg width="350" height="104" viewBox="0 0 350 104" fill="none" xmlns="http://www.w3.org/2000/svg">
<path d="M0.764648 18.3049C0.764648 14.5634 3.81336 11.5146 7.55495 11.5146C11.4351 11.5146 14.4838 14.5634 14.4838 18.3049C14.4838 22.1851 11.4351 25.2338 7.55495 25.2338C3.81336 25.2338 0.764648 22.1851 0.764648 18.3049Z" fill="#111111"/>
<path d="M294.438 44.3097H335.596C333.101 35.3021 324.925 28.6504 315.086 28.6504C305.247 28.6504 296.932 35.3021 294.438 44.3097ZM335.18 57.1974H294.992C297.902 65.512 305.801 71.4708 315.086 71.4708C322.154 71.4708 328.39 68.0064 332.27 62.7405H346.82C341.832 75.351 329.498 84.3586 315.086 84.3586C296.101 84.3586 280.857 68.9765 280.857 50.1299C280.857 31.1448 296.101 15.7627 315.086 15.7627C333.933 15.7627 349.315 31.1448 349.315 50.1299C349.315 52.4857 349.038 54.9801 348.483 57.1974H335.18Z" fill="#111111"/>
<path d="M218.812 70.9203V53.0438V18.3994H231.7V53.3209V70.9203C231.7 89.0739 216.872 103.763 198.719 103.763H178.763V90.8754H198.719C207.033 90.8754 218.812 82.6994 218.812 70.9203ZM183.198 18.3994V52.3509C182.921 63.2985 190.542 69.2573 198.719 70.2274V83.3923C182.644 82.2836 170.033 68.703 170.31 52.3509V18.3994H183.198Z" fill="#111111"/>
<path d="M137.192 6.11358L142.192 10.4441V56.5125C142.192 63.9957 148.151 70.0931 155.634 70.0931H161.87V82.9808H155.634C141.084 82.9808 129.305 71.0631 129.305 56.5125V0.25L137.192 6.11358Z" fill="#111111"/>
<path d="M66.1275 44.3097H107.285C104.791 35.3021 96.6145 28.6504 86.7755 28.6504C76.9365 28.6504 68.6219 35.3021 66.1275 44.3097ZM106.869 57.1974H66.6818C69.5919 65.512 77.4908 71.4708 86.7755 71.4708C93.843 71.4708 100.079 68.0064 103.959 62.7405H118.51C113.521 75.351 101.188 84.3586 86.7755 84.3586C67.7904 84.3586 52.5469 68.9765 52.5469 50.1299C52.5469 31.1448 67.7904 15.7627 86.7755 15.7627C105.622 15.7627 121.004 31.1448 121.004 50.1299C121.004 52.4857 120.727 54.9801 120.173 57.1974H106.869Z" fill="#111111"/>
<path d="M9.26074 83.2569V46.1182C9.26074 30.3203 22.0099 17.4326 37.9463 17.4326H51.1111V30.3203H37.9463C29.2159 30.3203 22.1484 37.3878 22.1484 46.1182V83.2569H9.26074Z" fill="#111111"/>
<path d="M240.354 0.455078V22.5451L241.177 21.3119C243.856 17.2924 248.176 14.6633 252.977 14.1299V4.6627V0.455078H240.354Z" fill="#111111"/>
<path d="M272.744 30.3203H253.066V56.7886C253.066 64.2718 259.025 70.2306 266.508 70.2306H272.744V83.1183H266.508C251.958 83.1183 240.179 71.3393 240.179 56.7886V35.3469C240.179 29.5702 243.003 24.1547 247.752 20.8665V20.8665C248.314 20.4777 248.972 20.1037 249.664 19.7549C253.394 17.874 257.639 17.4326 261.816 17.4326H272.744V30.3203Z" fill="#111111"/>
</svg>
