<svg xmlns="http://www.w3.org/2000/svg" width="430" height="430" style="width:100%;height:100%;transform:translate3d(0,0,0);content-visibility:visible" viewBox="0 0 430 430"><defs><clipPath id="o"><path d="M0 0h430v430H0z"/></clipPath><clipPath id="z"><path d="M0 0h430v430H0z"/></clipPath><clipPath id="t"><path d="M0 0h430v430H0z"/></clipPath><clipPath id="u"><path d="M0 0h430v430H0z"/></clipPath><clipPath id="w"><path d="M0 0h430v430H0z"/></clipPath><clipPath id="p"><path d="M0 0h430v430H0z"/></clipPath><clipPath id="q"><path d="M0 0h430v430H0z"/></clipPath><filter id="a" width="100%" height="100%" x="0%" y="0%" filterUnits="objectBoundingBox"><feComponentTransfer in="SourceGraphic"><feFuncA tableValues="1.0 0.0" type="table"/></feComponentTransfer></filter><filter id="c" width="100%" height="100%" x="0%" y="0%" filterUnits="objectBoundingBox"><feComponentTransfer in="SourceGraphic"><feFuncA tableValues="1.0 0.0" type="table"/></feComponentTransfer></filter><filter id="e" width="100%" height="100%" x="0%" y="0%" filterUnits="objectBoundingBox"><feComponentTransfer in="SourceGraphic"><feFuncA tableValues="1.0 0.0" type="table"/></feComponentTransfer></filter><filter id="g" width="100%" height="100%" x="0%" y="0%" filterUnits="objectBoundingBox"><feComponentTransfer in="SourceGraphic"><feFuncA tableValues="1.0 0.0" type="table"/></feComponentTransfer></filter><filter id="i" width="100%" height="100%" x="0%" y="0%" filterUnits="objectBoundingBox"><feComponentTransfer in="SourceGraphic"><feFuncA tableValues="1.0 0.0" type="table"/></feComponentTransfer></filter><filter id="k" width="100%" height="100%" x="0%" y="0%" filterUnits="objectBoundingBox"><feComponentTransfer in="SourceGraphic"><feFuncA tableValues="1.0 0.0" type="table"/></feComponentTransfer></filter><filter id="m" width="100%" height="100%" x="0%" y="0%" filterUnits="objectBoundingBox"><feComponentTransfer in="SourceGraphic"><feFuncA tableValues="1.0 0.0" type="table"/></feComponentTransfer></filter><path id="b" style="display:none"/><path id="d" style="display:none"/><path id="f" fill="red" d="M-181.1 0 0 84.05 181.1 0 0-84.05-181.1 0z" style="display:block" transform="translate(215 216.05)"/><path id="n" style="display:none"/><path id="l" style="display:none"/><path id="h" fill="red" d="M33.9 172.05 215 256.1l181.1-84.05L215 88 33.9 172.05z" style="display:block"/><path id="j" fill="red" d="M126.551 58.05 215 99.1l88.449-41.05L215 17l-88.449 41.05z" opacity="1"/><mask id="B" mask-type="alpha"><g filter="url(#a)"><path fill="#fff" d="M0 0h430v430H0z" opacity="0"/><use xmlns:ns1="http://www.w3.org/1999/xlink" ns1:href="#b"/></g></mask><mask id="A" mask-type="alpha"><g filter="url(#c)"><path fill="#fff" d="M0 0h430v430H0z" opacity="0"/><use xmlns:ns2="http://www.w3.org/1999/xlink" ns2:href="#d"/></g></mask><mask id="y" mask-type="alpha"><g filter="url(#e)"><path fill="#fff" d="M0 0h430v430H0z" opacity="0"/><use xmlns:ns3="http://www.w3.org/1999/xlink" ns3:href="#f"/></g></mask><mask id="x" mask-type="alpha"><g filter="url(#g)"><path fill="#fff" d="M0 0h430v430H0z" opacity="0"/><use xmlns:ns4="http://www.w3.org/1999/xlink" ns4:href="#h"/></g></mask><mask id="v" mask-type="alpha"><g filter="url(#i)"><path fill="#fff" d="M0 0h430v430H0z" opacity="0"/><use xmlns:ns5="http://www.w3.org/1999/xlink" ns5:href="#j"/></g></mask><mask id="s" mask-type="alpha"><g filter="url(#k)"><path fill="#fff" d="M0 0h430v430H0z" opacity="0"/><use xmlns:ns6="http://www.w3.org/1999/xlink" ns6:href="#l"/></g></mask><mask id="r" mask-type="alpha"><g filter="url(#m)"><path fill="#fff" d="M0 0h430v430H0z" opacity="0"/><use xmlns:ns7="http://www.w3.org/1999/xlink" ns7:href="#n"/></g></mask></defs><g clip-path="url(#o)"><g clip-path="url(#p)" style="display:none"><g clip-path="url(#q)" mask="url(#r)" style="display:none"><g mask="url(#s)" style="display:none"><path fill="none" class="primary"/></g><path fill="none" class="secondary" style="display:none"/></g><path fill="none" class="primary" style="display:none"/></g><g clip-path="url(#t)" style="display:block"><g clip-path="url(#u)" mask="url(#v)" style="display:block"><g clip-path="url(#w)" mask="url(#x)" style="display:block"><g mask="url(#y)" style="display:block"><path fill="none" stroke="#FFF" stroke-linecap="round" stroke-linejoin="round" stroke-width="12" d="M33.9 260.05 215 344.1l181.1-84.05L215 176 33.9 260.05z" class="primary"/></g><g fill="none" style="display:block"><path stroke="#FFF" stroke-linecap="round" stroke-linejoin="round" stroke-width="12" d="M33.9 216.05 215 300.1l181.1-84.05L215 132 33.9 216.05z" class="secondary"/><path d="M33.9 216.05 215 300.1l181.1-84.05L215 132 33.9 216.05z" class="primary"/></g></g><g fill="none" style="display:block"><path stroke="#FFF" stroke-linecap="round" stroke-linejoin="round" stroke-width="12" d="M33.9 172.05 215 256.1l181.1-84.05L215 88 33.9 172.05z" class="primary"/><path d="M33.9 172.05 215 256.1l181.1-84.05L215 88 33.9 172.05z" class="secondary"/></g></g><g opacity="0" style="display:block"><path fill="none" stroke="#FFF" stroke-linecap="round" stroke-linejoin="round" stroke-width="12" d="M126.551 58.05 215 99.1l88.449-41.05L215 17l-88.449 41.05z" class="primary" opacity="1"/></g></g><g clip-path="url(#z)" style="display:none"><g mask="url(#A)" style="display:none"><path fill="none" class="primary"/></g><g mask="url(#B)" style="display:none"><path fill="none" class="secondary"/></g><path fill="none" class="primary" style="display:none"/></g></g></svg>