<svg width="34" height="34" viewBox="0 0 34 34" fill="none" xmlns="http://www.w3.org/2000/svg">
<g id="icon/navigation/arrow_back_24px">
<path id="icon/navigation/arrow_back_24px_2" d="M26.7065 15.6072H11.0685L17.9005 8.77517C18.4465 8.22917 18.4465 7.33317 17.9005 6.78717C17.639 6.52501 17.2838 6.37769 16.9135 6.37769C16.5432 6.37769 16.1881 6.52501 15.9265 6.78717L6.70052 16.0132C6.15452 16.5592 6.15452 17.4412 6.70052 17.9872L15.9265 27.2132C16.4725 27.7592 17.3545 27.7592 17.9005 27.2132C18.4465 26.6672 18.4465 25.7852 17.9005 25.2392L11.0685 18.4072H26.7065C27.4765 18.4072 28.1065 17.7772 28.1065 17.0072C28.1065 16.2372 27.4765 15.6072 26.7065 15.6072Z" fill="#0B0B0D"/>
</g>
</svg>
