<svg width="32" height="32" viewBox="0 0 32 32" fill="none" xmlns="http://www.w3.org/2000/svg">
<g id="Arrow">
<path id="icon/navigation/arrow_back_24px" d="M7.55014 26.9519L23.3469 11.1552L23.3469 24.9579C23.3469 26.061 24.252 26.9661 25.3551 26.9661C25.8841 26.9667 26.3917 26.7568 26.7657 26.3827C27.1398 26.0086 27.3497 25.5011 27.3491 24.972L27.3491 6.3327C27.3491 5.22961 26.4582 4.33866 25.3551 4.33866L6.71576 4.33866C5.61267 4.33866 4.72172 5.22961 4.72172 6.3327C4.72172 7.43578 5.61267 8.32674 6.71576 8.32674L20.5185 8.32674L4.72171 24.1235C3.9439 24.9013 3.9439 26.1741 4.72171 26.9519C5.49953 27.7297 6.77232 27.7297 7.55014 26.9519Z" fill="#5F7FF8"/>
</g>
</svg>
