<svg width="32" height="32" viewBox="0 0 32 32" fill="none" xmlns="http://www.w3.org/2000/svg">
<path d="M20.1625 19.3748C20.4625 19.5623 20.825 19.6623 21.2375 19.6623C21.6875 19.6623 22.05 19.5498 22.325 19.3123C22.475 19.1873 22.6125 19.0123 22.7375 18.7873H24.7375C24.6875 19.2373 24.4375 19.6998 24.0125 20.1623C23.3375 20.8998 22.4 21.2748 21.1875 21.2748C20.1875 21.2748 19.3 20.9623 18.5375 20.3373C17.775 19.7123 17.3875 18.6998 17.3875 17.2998C17.3875 15.9873 17.725 14.9748 18.425 14.2748C19.1125 13.5748 20.0125 13.2248 21.1125 13.2248C21.7625 13.2248 22.35 13.3498 22.875 13.5873C23.4 13.8248 23.8375 14.1998 24.175 14.7123C24.475 15.1623 24.675 15.6873 24.775 16.2873C24.825 16.6373 24.85 17.1373 24.8375 17.7873H19.3625C19.4125 18.5373 19.675 19.0623 20.1625 19.3748ZM22.8125 16.4623C22.775 15.9373 22.6 15.5373 22.2875 15.2623C21.975 14.9873 21.5875 14.8498 21.125 14.8498C20.625 14.8498 20.225 14.9998 19.95 15.2873C19.675 15.5748 19.5 15.9748 19.425 16.4623H22.8125ZM18.5375 11.7873H23.8V12.8373H18.5375V11.7873ZM15.9375 16.3998C16.2 16.8123 16.3375 17.3123 16.3375 17.9123C16.3375 18.5248 16.1875 19.0623 15.8875 19.5498C15.7 19.8748 15.4625 20.1373 15.1625 20.3623C14.8375 20.6123 14.45 20.7748 14.0125 20.8748C13.575 20.9623 13.0875 21.0123 12.575 21.0123H8V10.7373H12.9125C14.15 10.7498 15.025 11.1248 15.5375 11.8373C15.85 12.2748 16 12.7998 16 13.3998C16 14.0248 15.8375 14.5373 15.525 14.9123C15.35 15.1248 15.0875 15.3248 14.75 15.4998C15.275 15.6873 15.675 15.9873 15.9375 16.3998ZM13.4375 12.6748C13.125 12.5623 12.725 12.5123 12.2375 12.5123H10.025V14.7748H12.4875C12.925 14.7748 13.2875 14.6873 13.5625 14.5248C13.8375 14.3498 13.975 14.0498 13.975 13.6248C13.975 13.1498 13.8 12.8373 13.4375 12.6748ZM13.5375 16.6623C13.3 16.5498 12.9625 16.4998 12.525 16.4873H10.025V19.2248H12.4875C12.925 19.2248 13.275 19.1623 13.5125 19.0373C13.9625 18.8123 14.175 18.3873 14.175 17.7498C14.1875 17.2248 13.9625 16.8623 13.5375 16.6623Z" fill="white"/>
<path d="M3 4.5C3 3.67157 3.67157 3 4.5 3H27C27.8284 3 28.5 3.67157 28.5 4.5V27C28.5 27.8284 27.8284 28.5 27 28.5H4.5C3.67157 28.5 3 27.8284 3 27V4.5Z" stroke="white" stroke-width="1.8"/>
</svg>
