<svg width="1440" height="316" viewBox="0 0 1440 316" fill="none" xmlns="http://www.w3.org/2000/svg">
<path d="M0.0585938 172.824C0.0585938 157.7 12.3818 145.377 27.5057 145.377C43.1897 145.377 55.5129 157.7 55.5129 172.824C55.5129 188.508 43.1897 200.831 27.5057 200.831C12.3818 200.831 0.0585938 188.508 0.0585938 172.824Z" fill="#FCFCFB"/>
<path d="M1187.12 277.924H1353.48C1343.4 241.515 1310.35 214.628 1270.58 214.628C1230.81 214.628 1197.2 241.515 1187.12 277.924ZM1351.8 330.017H1189.36C1201.12 363.626 1233.05 387.712 1270.58 387.712C1299.15 387.712 1324.36 373.709 1340.04 352.423H1398.86C1378.69 403.396 1328.84 439.806 1270.58 439.806C1193.84 439.806 1132.23 377.63 1132.23 301.45C1132.23 224.71 1193.84 162.534 1270.58 162.534C1346.76 162.534 1408.94 224.71 1408.94 301.45C1408.94 310.973 1407.82 321.055 1405.58 330.017H1351.8Z" fill="#FCFCFB"/>
<path d="M881.432 385.485V313.227V173.19H933.526V314.347V385.485C933.526 458.864 873.59 518.24 800.211 518.24H719.55V466.146H800.211C833.82 466.146 881.432 433.098 881.432 385.485ZM737.475 173.19V310.426C736.355 354.677 767.163 378.764 800.211 382.685V435.898C735.234 431.417 684.261 376.523 685.381 310.426V173.19H737.475Z" fill="#FCFCFB"/>
<path d="M551.514 123.53L571.726 141.035V327.248C571.726 357.496 595.813 382.142 626.06 382.142H651.267V434.236H626.06C567.245 434.236 519.633 386.063 519.633 327.248V99.8291L551.514 123.53Z" fill="#FCFCFB"/>
<path d="M264.261 277.924H430.624C420.542 241.515 387.493 214.628 347.723 214.628C307.953 214.628 274.344 241.515 264.261 277.924ZM428.944 330.017H266.502C278.265 363.626 310.193 387.712 347.723 387.712C376.29 387.712 401.497 373.709 417.181 352.423H475.996C455.831 403.396 405.978 439.806 347.723 439.806C270.983 439.806 209.367 377.63 209.367 301.45C209.367 224.71 270.983 162.534 347.723 162.534C423.903 162.534 486.079 224.71 486.079 301.45C486.079 310.973 484.958 321.055 482.718 330.017H428.944Z" fill="#FCFCFB"/>
<path d="M34.4023 435.337V285.219C34.4023 221.362 85.9357 169.269 150.352 169.269H203.566V221.362H150.352C115.063 221.362 86.4958 249.929 86.4958 285.219V435.337H34.4023Z" fill="#FCFCFB"/>
<path d="M968.508 100.658V189.948L971.831 184.964C982.663 168.716 1000.12 158.09 1019.53 155.933V117.666V100.658H968.508Z" fill="#FCFCFB"/>
<path d="M1099.43 221.362H1019.89V328.35C1019.89 358.597 1043.98 382.684 1074.22 382.684H1099.43V434.777H1074.22C1015.41 434.777 967.797 387.165 967.797 328.35V241.68C967.797 218.33 979.212 196.44 998.411 183.149C1000.68 181.577 1003.34 180.065 1006.14 178.656C1021.22 171.053 1038.37 169.269 1055.26 169.269H1099.43V221.362Z" fill="#FCFCFB"/>
</svg>
