<svg width="1440" height="353" viewBox="0 0 1440 353" fill="none" xmlns="http://www.w3.org/2000/svg">
<path d="M-2.94141 172.824C-2.94141 157.7 9.38179 145.377 24.5057 145.377C40.1897 145.377 52.5129 157.7 52.5129 172.824C52.5129 188.508 40.1897 200.831 24.5057 200.831C9.38179 200.831 -2.94141 188.508 -2.94141 172.824Z" fill="#FCFCFB" fill-opacity="0.05"/>
<path d="M1184.12 277.924H1350.48C1340.4 241.514 1307.35 214.627 1267.58 214.627C1227.81 214.627 1194.2 241.514 1184.12 277.924ZM1348.8 330.017H1186.36C1198.12 363.626 1230.05 387.712 1267.58 387.712C1296.15 387.712 1321.36 373.708 1337.04 352.423H1395.86C1375.69 403.396 1325.84 439.806 1267.58 439.806C1190.84 439.806 1129.23 377.63 1129.23 301.45C1129.23 224.71 1190.84 162.534 1267.58 162.534C1343.76 162.534 1405.94 224.71 1405.94 301.45C1405.94 310.972 1404.82 321.055 1402.58 330.017H1348.8Z" fill="#FCFCFB" fill-opacity="0.05"/>
<path d="M878.432 385.485V313.227V173.19H930.526V314.347V385.485C930.526 458.864 870.59 518.24 797.211 518.24H716.55V466.146H797.211C830.82 466.146 878.432 433.098 878.432 385.485ZM734.475 173.19V310.426C733.355 354.677 764.163 378.764 797.211 382.685V435.898C732.234 431.417 681.261 376.523 682.381 310.426V173.19H734.475Z" fill="#FCFCFB" fill-opacity="0.05"/>
<path d="M548.514 123.53L568.726 141.035V327.248C568.726 357.496 592.813 382.142 623.06 382.142H648.267V434.236H623.06C564.245 434.236 516.633 386.063 516.633 327.248V99.8291L548.514 123.53Z" fill="#FCFCFB" fill-opacity="0.05"/>
<path d="M261.261 277.924H427.624C417.542 241.515 384.493 214.628 344.723 214.628C304.953 214.628 271.344 241.515 261.261 277.924ZM425.944 330.017H263.502C275.265 363.626 307.193 387.712 344.723 387.712C373.29 387.712 398.497 373.709 414.181 352.423H472.996C452.831 403.396 402.978 439.806 344.723 439.806C267.983 439.806 206.367 377.63 206.367 301.45C206.367 224.71 267.983 162.534 344.723 162.534C420.903 162.534 483.079 224.71 483.079 301.45C483.079 310.973 481.958 321.055 479.718 330.017H425.944Z" fill="#FCFCFB" fill-opacity="0.05"/>
<path d="M31.4023 435.337V285.219C31.4023 221.362 82.9357 169.269 147.352 169.269H200.566V221.362H147.352C112.063 221.362 83.4958 249.93 83.4958 285.219V435.337H31.4023Z" fill="#FCFCFB" fill-opacity="0.05"/>
<path d="M965.508 100.658V189.948L968.831 184.964C979.663 168.716 997.123 158.09 1016.53 155.933V117.666V100.658H965.508Z" fill="#FCFCFB" fill-opacity="0.05"/>
<path d="M1096.43 221.362H1016.89V328.35C1016.89 358.597 1040.98 382.684 1071.22 382.684H1096.43V434.777H1071.22C1012.41 434.777 964.797 387.165 964.797 328.35V241.68C964.797 218.33 976.212 196.44 995.411 183.149C997.681 181.577 1000.34 180.065 1003.14 178.656C1018.22 171.053 1035.37 169.269 1052.26 169.269H1096.43V221.362Z" fill="#FCFCFB" fill-opacity="0.05"/>
</svg>
