<svg width="1440" height="1484" viewBox="0 0 1440 1484" fill="none" xmlns="http://www.w3.org/2000/svg">
<path d="M1535.11 1076.44C1564.09 1071.33 1583.19 1044.06 1578.08 1015.08C1572.97 986.099 1545.7 967.004 1516.72 972.114C1488.1 977.159 1468.64 1004.49 1473.69 1033.11L1473.75 1033.47L1485.76 1101.57L1492.98 1142.5L1496.75 1163.88L1463.06 1169.82L1440.07 1039.41C1431.7 991.96 1463.33 946.793 1510.78 938.426C1558.23 930.059 1603.4 961.685 1611.76 1009.14C1620.13 1056.59 1588.51 1101.76 1541.05 1110.12L1535.11 1076.44Z" fill="#FCFCFB" fill-opacity="0.05"/>
<path d="M1315.27 1092.41L1315.85 1095.67C1317.38 1104.36 1333.36 1118.73 1357.63 1114.45C1383.71 1109.85 1392.32 1093.02 1390.46 1082.51C1388.23 1069.83 1336.45 1074.85 1326.29 1074.41C1301.13 1073.61 1275.83 1065.75 1270.6 1036.05C1264.02 998.735 1296.47 970.977 1331.25 964.845C1363.85 959.097 1406.65 977.32 1412.59 1011.01L1413.23 1014.63L1379.54 1020.57L1378.9 1016.95C1377.5 1008.98 1359.65 994.573 1337.19 998.533C1312.19 1002.94 1302.37 1019.24 1304.28 1030.11C1307.03 1045.68 1357.17 1039.83 1368.42 1040.09C1393.22 1040.94 1419.04 1047.59 1424.15 1076.57C1430.54 1112.79 1400.15 1141.68 1363.57 1148.13C1328.07 1154.39 1288.1 1135.3 1282.16 1101.61L1281.58 1098.35L1315.27 1092.41Z" fill="#FCFCFB" fill-opacity="0.05"/>
<path d="M1149.94 1145.79C1145.34 1119.71 1162.84 1094.71 1188.92 1090.11C1215.97 1085.34 1240.97 1102.85 1245.56 1128.93C1250.33 1155.98 1232.83 1180.97 1205.78 1185.74C1179.7 1190.34 1154.7 1172.84 1149.94 1145.79Z" fill="#FCFCFB" fill-opacity="0.05"/>
<path d="M1137.21 834.6L1115.24 709.993L1072.66 468.505L1162.49 452.665L1205.42 696.084L1227.05 818.76C1249.36 945.3 1164.06 1065.92 1037.52 1088.23L898.42 1112.75L882.58 1022.92L1021.68 998.394C1079.63 988.175 1151.69 916.706 1137.21 834.6ZM824.411 512.278L866.141 748.936C877.664 825.587 938.116 857.755 996.299 854.467L1012.48 946.233C899.067 958.263 794.474 879.099 776.307 764.776L734.578 528.118L824.411 512.278Z" fill="#FCFCFB" fill-opacity="0.05"/>
<path d="M488.626 483.187L528.804 507.227L585.426 828.345C594.624 880.506 643.654 915.684 695.815 906.487L739.283 898.822L755.123 988.655L711.655 996.32C610.23 1014.2 513.477 945.61 495.593 844.185L426.441 452.009L488.626 483.187Z" fill="#FCFCFB" fill-opacity="0.05"/>
<path d="M40.2185 836.778L327.106 786.192C298.648 726.471 233.481 690.155 164.899 702.247C96.3162 714.34 46.5346 770.925 40.2185 836.778ZM340.048 876.536L59.9224 925.93C90.4267 980.31 152.81 1012.14 217.529 1000.73C266.792 992.04 306.002 960.226 326.576 918.751L428.001 900.867C408.726 994.9 333.827 1072.85 233.369 1090.56C101.033 1113.89 -24.1272 1025.41 -47.2911 894.04C-70.6254 761.704 16.7233 635.748 149.059 612.414C280.428 589.25 406.554 677.565 429.889 809.9C432.784 826.321 433.918 844.049 432.779 860.185L340.048 876.536Z" fill="#FCFCFB" fill-opacity="0.05"/>
<path d="M1200.77 316.949L1227.92 470.927L1232.13 461.32C1245.87 430.009 1272.75 406.374 1305.56 396.754L1293.93 330.763L1288.76 301.434L1200.77 316.949Z" fill="#FCFCFB" fill-opacity="0.05"/>
<path d="M1463.24 485.287L1326.08 509.473L1358.61 693.97C1367.81 746.131 1416.66 780.343 1468.83 771.146L1512.29 763.481L1528.13 853.315L1484.67 860.979C1383.24 878.863 1286.66 811.235 1268.77 709.81L1242.42 560.351C1235.32 520.085 1248.35 478.865 1277.42 450.107V450.107C1280.85 446.706 1284.98 443.291 1289.37 440.009C1313.06 422.314 1342.11 414.02 1371.23 408.885L1447.4 395.454L1463.24 485.287Z" fill="#FCFCFB" fill-opacity="0.05"/>
</svg>
