<svg width="312" height="400" viewBox="0 0 312 400" fill="none" xmlns="http://www.w3.org/2000/svg">
<g opacity="0.7">
<path d="M304.247 20.5051C298.15 23.0696 292.042 25.6659 285.923 28.2803C298.224 21.207 310.574 15.0733 322.583 11.1155C338.075 6.00955 305.078 20.1553 304.247 20.5051Z" fill="#C6B9EE"/>
<path d="M109.62 65.8514C102.68 64.2091 105.343 65.598 113.608 60.742C133.253 49.2003 145.456 29.9919 162.527 13.8683C183.889 -6.30783 212.036 -25.2039 237.018 -35.4283C247.043 -39.5311 228.356 -27.0022 225.981 -25.2558C200.916 -6.82402 178.868 15.4443 155.367 36.8228C133.629 56.5986 109.442 70.2805 87.6332 89.6797C69.2448 106.037 79.3062 103.841 97.0735 99.3471C166.563 81.7727 236.128 49.1591 304.247 20.5051C305.078 20.1552 338.075 6.00955 322.583 11.1155C291.926 21.2197 259.038 45.5052 230.445 63.4032C197.639 83.9395 166.875 110.138 134.108 130.145C108.696 145.662 157.084 130.04 161.253 128.796C207.148 115.105 253.54 105.253 299.571 94.0955C315.867 90.1454 349.054 76.1802 315.884 91.2731C280.444 107.399 245.886 131.944 211.687 152.644C199.761 159.862 185.865 167.038 174.872 176.886C168.049 182.997 190.819 175.966 198.715 173.327C244.179 158.132 289.167 146.828 334.826 134.545C361.595 127.343 352.567 133.33 334.946 150.917C324.6 161.243 314.185 171.273 302.93 180.023C295.347 185.918 272.379 193.221 279.748 196.716C287.433 200.362 306.615 191.55 314.41 189.568C343.421 182.189 372.17 177.506 401.15 174.259C415.547 172.646 457.484 160.668 428.64 185.462C418.019 194.592 361.63 237.69 403.158 222.87C451.509 205.614 500.047 197.343 548.703 191.453C552.358 191.011 561.764 189.956 559.143 193.464C546.866 209.903 531.659 225.608 518.15 240.446C504.196 255.772 490.18 269.999 474.239 281.918C463.839 289.694 496.455 270.597 507.462 264.551C510.093 263.106 533.166 245.624 536.762 247.029C544.467 250.04 522.555 261.213 515.002 267.497C507.13 274.046 461.004 307.264 493.658 297.095C515.432 290.314 537.096 283.667 558.969 278.241C567.678 276.08 580.377 269.279 568.545 279.683C563.941 283.732 533.559 313.786 542.122 317.643C547.972 320.279 569.16 316.104 565.056 326.606" stroke="#C6B9EE" stroke-width="40" stroke-linecap="round"/>
</g>
<g opacity="0.7">
<path d="M-28.2355 273.855C-32.8238 276.298 -37.4189 278.767 -42.0209 281.25C-32.8992 274.835 -23.6713 269.152 -14.5559 265.197C-2.7962 260.094 -27.6096 273.522 -28.2355 273.855Z" fill="#C6B9EE"/>
<path d="M-177.318 323.25C-182.867 322.461 -180.683 323.357 -174.561 318.966C-160.011 308.53 -151.834 292.625 -139.625 278.786C-124.347 261.47 -103.669 244.67 -84.8472 234.883C-77.2947 230.956 -91.0245 242.096 -92.7585 243.633C-111.059 259.849 -126.723 278.852 -143.588 297.263C-159.189 314.293 -177.141 326.729 -192.823 343.47C-206.046 357.585 -198.328 355.147 -184.744 350.361C-131.615 331.642 -79.5009 301.148 -28.2355 273.855C-27.6096 273.522 -2.7962 260.094 -14.5559 265.197C-37.8274 275.295 -61.8318 296.651 -82.9303 312.702C-107.139 331.118 -129.344 353.82 -153.559 371.819C-172.339 385.779 -135.585 370.095 -132.411 368.824C-97.47 354.83 -61.8655 343.805 -26.6374 331.784C-14.1656 327.528 10.8095 314.228 -14.072 328.41C-40.6562 343.562 -65.9491 365.241 -91.2361 383.885C-100.054 390.386 -110.416 396.995 -118.317 405.488C-123.22 410.758 -105.901 403.629 -99.9105 400.999C-65.4142 385.859 -31.0126 373.798 3.84412 360.922C24.2798 353.374 17.6423 358.704 5.10808 373.727C-2.25136 382.548 -9.68605 391.142 -17.8696 398.794C-23.383 403.95 -40.8368 411.306 -34.8201 413.515C-28.5449 415.82 -14.1618 407.553 -8.20309 405.444C13.9747 397.597 36.14 391.878 58.589 387.266C69.7413 384.975 101.707 372.604 80.9045 394.07C73.244 401.974 32.1915 439.733 63.6333 425.167C100.242 408.208 137.639 398.266 175.298 390.181C178.127 389.573 185.413 388.076 183.613 391.009C175.178 404.752 164.399 418.129 154.886 430.707C145.06 443.699 135.108 455.835 123.483 466.302C115.899 473.131 140.061 455.854 148.244 450.336C150.199 449.017 167.008 433.687 169.923 434.53C176.168 436.336 159.818 446.646 154.355 452.103C148.663 457.791 114.936 487.084 139.765 476.793C156.322 469.93 172.802 463.18 189.533 457.37C196.195 455.057 205.647 448.827 197.13 457.816C193.816 461.313 172.185 487.005 179.163 489.412C183.93 491.057 200.214 486.276 197.752 494.788" stroke="#C6B9EE" stroke-width="30" stroke-linecap="round"/>
</g>
</svg>
