<svg width="312" height="301" viewBox="0 0 312 301" fill="none" xmlns="http://www.w3.org/2000/svg">
<path opacity="0.994" fill-rule="evenodd" clip-rule="evenodd" d="M-121.291 78.5665C-115.247 60.4667 -102.161 45.8279 -86.2901 35.2338C-65.2946 21.2193 -43.505 11.1817 -20.9215 5.12066C53.0682 -14.7369 124.173 32.0349 188.794 73.181C236.87 103.793 286.673 131.072 338.202 155.02C368.231 168.975 402.058 185.326 412.492 216.753C425.99 257.403 393.108 296.098 357.25 319.525C275.313 373.054 188.496 379.717 96.8005 339.517C61.3892 323.993 33.6052 295.745 11.5486 263.989C5.66289 255.514 -0.222789 247.04 -6.10857 238.566C-22.4994 214.967 -44.9255 196.579 -69.8415 182.269C-107.199 160.813 -134.936 119.429 -121.291 78.5665Z" fill="#CFECAC"/>
</svg>
