<svg width="308" height="299" viewBox="0 0 308 299" fill="none" xmlns="http://www.w3.org/2000/svg">
<g clip-path="url(#clip0_11704_4442)">
<path opacity="0.916" fill-rule="evenodd" clip-rule="evenodd" d="M140.447 -13.7002C139.302 -14.7236 138.158 -15.747 137.014 -16.7704C151.391 -26.0775 151.931 -35.8923 138.635 -46.2134C136.244 -48.1455 133.854 -50.0783 131.463 -52.0104C129.755 -52.5682 128.009 -52.6888 126.225 -52.3709C107.801 -34.2826 90.6076 -15.0609 74.646 5.29445C73.4642 7.56879 73.1635 9.97719 73.744 12.5198C78.4283 19.3932 84.5825 24.486 92.2069 27.7982C97.3456 28.1557 101.253 26.0899 103.929 21.6007C105.386 22.5689 105.891 23.8454 105.447 25.4298C100.786 32.2376 94.8919 33.7619 87.7637 30.0026C78.6387 24.2923 71.2678 16.8756 65.6511 7.75245C65.7467 3.08318 67.4801 -0.927086 70.8513 -4.27835C86.768 -22.9944 103.142 -41.3004 119.974 -59.1977C122.695 -61.0887 125.513 -61.2459 128.427 -59.6687C135.473 -54.1909 142.109 -48.2553 148.336 -41.8617C152.725 -37.7159 153.641 -32.9833 151.083 -27.6646C147.418 -23.0882 143.872 -18.4336 140.447 -13.7002Z" fill="#1E4D66"/>
<path fill-rule="evenodd" clip-rule="evenodd" d="M77.4814 -8.23531C92.4686 -22.7781 106.959 -37.8272 120.952 -53.3817C122.901 -55.3763 125.225 -56.5932 127.924 -57.0315C110.533 -39.8392 93.9294 -21.7372 78.1144 -2.72619C75.5603 0.494615 73.4716 3.98113 71.8482 7.73328C70.3938 7.79645 70.0264 7.0559 70.746 5.51171C73.6624 0.768513 76.8887 -3.75954 80.4257 -8.07321C79.3682 -7.46697 78.3866 -7.52075 77.4814 -8.23531Z" fill="#113B4C"/>
<path fill-rule="evenodd" clip-rule="evenodd" d="M137.015 -16.7705C135.21 -18.1359 133.812 -19.7973 132.824 -21.7552C135.57 -28.6226 133.57 -33.2943 126.825 -35.7711C125.291 -35.472 123.786 -35.1709 122.309 -34.8673C121.524 -35.1472 120.886 -34.8947 120.395 -34.1083C116.538 -33.1611 113.167 -31.2338 110.28 -28.3265C102.632 -23.3712 96.6964 -16.7349 92.4733 -8.41828C91.5177 -7.67773 91.1325 -6.78658 91.3177 -5.74477C89.9766 -3.44597 89.4594 -1.02569 89.7654 1.51681C87.3011 9.26838 90.1195 13.025 98.2207 12.7868C100.695 15.4718 102.598 18.4097 103.93 21.6006C101.254 26.0898 97.3468 28.1557 92.2081 27.7981C84.5838 24.486 78.4295 19.3931 73.7453 12.5197C73.1648 9.97712 73.4654 7.56872 74.6473 5.29438C90.6088 -15.0609 107.802 -34.2827 126.226 -52.3709C128.011 -52.6889 129.756 -52.5683 131.464 -52.0105C133.855 -50.0784 136.246 -48.1455 138.636 -46.2134C151.933 -35.8924 151.392 -26.0776 137.015 -16.7705Z" fill="#F4F5F6"/>
<path opacity="0.988" fill-rule="evenodd" clip-rule="evenodd" d="M91.3176 -5.74472C91.1323 -6.78653 91.5175 -7.67768 92.4732 -8.41823C98.3649 -14.8345 104.301 -21.4709 110.28 -28.3265C112.35 -29.4434 114.595 -30.1116 117.017 -30.3326C118.393 -31.2906 119.518 -32.5489 120.395 -34.1083C120.886 -34.8946 121.524 -35.1471 122.309 -34.8672C125.812 -30.4995 129.317 -26.1289 132.824 -21.7551C133.812 -19.7973 135.21 -18.1359 137.015 -16.7704C138.159 -15.747 139.304 -14.7237 140.448 -13.7002C145.224 -7.61541 150.331 -1.81199 155.768 3.71007C168.694 13.2118 181.617 22.7111 194.536 32.2073C198.504 35.5745 202.307 39.1181 205.942 42.8396C206.805 43.7235 207.328 44.9456 207.311 46.1811C207.29 47.6651 206.52 49.0275 205.162 49.6258C202.474 50.8099 199.68 50.6155 196.778 49.0417C194.967 47.6678 192.957 46.6925 190.745 46.1165C191.221 47.7187 192.161 48.9709 193.563 49.8731C193.792 50.0776 194.021 50.2827 194.25 50.4871C181.385 42.5181 168.432 34.4346 155.392 26.2347C147.04 21.1506 140.622 23.0304 136.138 31.8734C132.121 37.5018 128.979 43.5476 126.712 50.0102C128.031 52.5068 129.784 54.6922 131.969 56.5662C138.439 61.3471 145.002 65.9818 151.66 70.4716C152.474 71.0149 153.058 71.7434 153.413 72.6569C151.228 73.3458 149.898 74.8332 149.421 77.1191C151.682 75.9453 153.548 74.3192 155.02 72.2412C160.028 75.3538 164.99 78.556 169.906 81.8484C170.608 82.4401 170.759 83.1929 170.357 84.1062C167.606 85.4736 165.318 87.3405 163.494 89.7068C164.997 88.3926 166.707 87.8625 168.624 88.1165C173.023 94.7721 178.141 100.792 183.981 106.177C179.117 99.685 174.088 93.3334 168.895 87.123C170.077 85.5596 171.534 84.3917 173.266 83.618C175.804 84.8712 178.273 86.2554 180.672 87.7714C184.982 93.4624 189.631 98.8567 194.619 103.954C188.907 106.123 183.013 107.647 176.936 108.526C173.385 107.521 170.152 106.071 167.236 104.175C164.032 101.309 160.829 98.4439 157.625 95.5782C155.374 91.9566 152.58 88.6339 149.242 85.6088C145.836 82.0072 142.585 78.2749 139.486 74.4113C139.258 74.2068 139.028 74.0017 138.8 73.7972C139.08 73.0118 138.827 72.374 138.041 71.8827C137.126 71.0642 136.21 70.2451 135.295 69.4265C125.65 54.6788 115.701 40.0133 105.448 25.4298C105.892 23.8454 105.387 22.5688 103.93 21.6007C102.598 18.4097 100.695 15.4718 98.2206 12.7868C95.3026 9.09808 92.4842 5.34142 89.7653 1.51686C90.8026 -1.23649 91.8438 -4.01236 92.8889 -6.81069C92.2054 -6.68801 91.6814 -6.33247 91.3176 -5.74472Z" fill="#FBD2AE"/>
<path fill-rule="evenodd" clip-rule="evenodd" d="M91.3181 -5.74472C91.682 -6.33247 92.206 -6.688 92.8895 -6.81068C91.8444 -4.01235 90.8032 -1.23649 89.7659 1.51686C89.4599 -1.02564 89.9771 -3.44592 91.3181 -5.74472Z" fill="#51404F"/>
<path fill-rule="evenodd" clip-rule="evenodd" d="M89.7654 1.51695C92.4843 5.34152 95.3027 9.09818 98.2207 12.7869C90.1195 13.0252 87.3011 9.26853 89.7654 1.51695Z" fill="#102E3C"/>
<path fill-rule="evenodd" clip-rule="evenodd" d="M134.449 69.1638C135.008 69.3305 135.519 69.6271 135.954 70.0157C136.151 70.1921 136.348 70.3685 136.545 70.5449C137.45 71.3538 137.622 72.9182 138.589 73.6519C138.609 73.6676 138.631 73.6832 138.652 73.6986C138.748 73.7671 138.844 73.8365 138.932 73.9152C139.29 74.2357 139.529 74.671 139.586 75.1484C140.502 82.8914 136.947 87.7337 128.922 89.676C121.057 90.8041 113.796 89.2518 107.137 85.0192C105.138 83.3234 104.182 81.3396 104.27 79.0678C104.333 77.4648 105.294 76.0649 106.502 75.0093C114.57 67.9592 123.885 66.0107 134.449 69.1638Z" fill="#F5FBEE"/>
<path opacity="0.991" fill-rule="evenodd" clip-rule="evenodd" d="M183.892 -3.77657C184.159 -5.53261 185.114 -7.10109 186.402 -8.3243C188.121 -9.95676 190.048 -11.3133 192.182 -12.3938C193.138 -12.8782 194.173 -13.1904 195.233 -13.354C204.457 -14.7784 212.657 -12.7913 219.835 -7.39266C221.859 -5.86992 223.388 -3.67524 223.626 -1.15327C224.112 3.99053 221.512 7.86678 215.828 10.4741C204.176 14.4496 194.376 12.281 186.431 3.96881C184.744 2.20387 183.611 -0.105369 183.76 -2.54232C183.786 -2.958 183.829 -3.36941 183.892 -3.77657Z" fill="#F5FBEE"/>
<path fill-rule="evenodd" clip-rule="evenodd" d="M151.66 70.4714C152.967 70.4857 154.086 71.0754 155.02 72.2411C153.548 74.319 151.682 75.9451 149.421 77.119C149.897 74.833 151.228 73.3456 153.412 72.6568C153.058 71.7432 152.474 71.0147 151.66 70.4714Z" fill="#FBB9A1"/>
<path opacity="0.737" fill-rule="evenodd" clip-rule="evenodd" d="M149.242 85.6091C152.58 88.6342 155.374 91.9569 157.625 95.5785C153.2 96.2433 149.738 94.5881 147.238 90.6128C147.276 88.6895 147.944 87.0214 149.242 85.6091Z" fill="#F5FBEE"/>
<path fill-rule="evenodd" clip-rule="evenodd" d="M194.535 32.2074C197.171 32.8145 199.86 33.2806 202.603 33.6055C204.454 33.8248 206.324 33.7862 208.179 33.6019C217.506 32.6753 226.817 31.9764 236.111 31.5047C237.713 31.4234 239.325 31.4507 240.903 31.7391C250.43 33.4806 255.808 38.7934 257.039 47.6778C257.479 50.8507 256.815 54.138 254.98 56.7635C252.217 60.7168 248.327 63.3665 243.31 64.7131C234.002 58.7833 226.5 60.723 220.805 70.533C218.936 71.0715 217.594 72.3419 216.777 74.3449C216.595 76.0816 217.216 77.4599 218.638 78.481C220.425 80.4525 221.846 82.5474 222.902 84.7663C215.514 92.653 208.808 101.072 202.784 110.022C194.301 111.907 185.733 112.276 177.08 111.127C172.663 110.156 169.381 107.839 167.235 104.175C170.151 106.071 173.384 107.521 176.936 108.526C183.012 107.647 188.907 106.123 194.618 103.954C194.823 103.725 195.028 103.496 195.233 103.267C200.113 100.799 201.527 96.9148 199.475 91.6159C197.397 88.227 195.572 84.7411 194.001 81.1583C194.205 80.9297 194.41 80.7004 194.615 80.4718C197.87 85.4506 201.91 89.6825 206.737 93.1681C209.149 93.0912 210.823 91.9106 211.758 89.627C211.862 85.9749 211.019 82.5427 209.228 79.3315C206.996 74.9394 204.689 70.6109 202.307 66.3453C202.545 65.0653 203.135 63.9457 204.077 62.9853C209.282 62.5524 214.321 61.2926 219.195 59.2077C223.373 56.1486 223.216 53.3303 218.724 50.7543C214.98 49.3381 210.888 47.9849 206.937 47.8724C207.337 46.6716 207.507 45.0071 206.634 44.0909C202.879 40.152 198.37 35.4613 194.535 32.2074ZM220.805 70.533C219.548 73.0543 218.826 75.7042 218.638 78.481C217.216 77.4599 216.595 76.0816 216.777 74.3449C217.594 72.3419 218.936 71.0715 220.805 70.533Z" fill="#F5FBEE"/>
<path opacity="0.912" fill-rule="evenodd" clip-rule="evenodd" d="M196.778 49.0417C195.706 49.3186 194.635 49.5962 193.563 49.8731C192.161 48.9709 191.221 47.7187 190.745 46.1165C192.957 46.6925 194.967 47.6678 196.778 49.0417Z" fill="#EFE8E9"/>
<path fill-rule="evenodd" clip-rule="evenodd" d="M194.249 50.4871C197.198 52.942 199.978 55.5717 202.59 58.3763C203.213 59.0453 203.507 59.9678 203.604 60.8767C203.748 62.2116 203.395 63.5552 202.818 64.7671C202.581 65.2629 202.411 65.7888 202.308 66.3451C200.379 71.3741 197.816 76.0828 194.615 80.4716C194.411 80.7002 194.206 80.9295 194.001 81.1581C191.324 85.1147 187.772 87.7045 183.346 88.9269C182.605 87.9715 181.714 87.586 180.672 87.7713C178.273 86.2553 175.804 84.8711 173.266 83.618C172.332 82.4521 171.212 81.8629 169.906 81.8483C164.99 78.5559 160.028 75.3537 155.02 72.2412C154.087 71.0755 152.967 70.4858 151.66 70.4715C145.002 65.9818 138.439 61.347 131.969 56.5661C130.328 55.1588 128.536 53.4634 127.187 51.6488C126.356 50.5315 126.261 49.0581 126.787 47.769C129.098 42.1068 132.549 36.9031 136.138 31.8733C140.622 23.0303 147.04 21.1505 155.392 26.2346C168.432 34.4346 181.385 42.5181 194.249 50.4871Z" fill="#1D4B62"/>
<path fill-rule="evenodd" clip-rule="evenodd" d="M137.24 34.095C139.387 31.4659 141.753 29.0515 144.337 26.8506C146.236 26.0129 148.187 25.9043 150.19 26.5246C166.793 35.8156 182.593 46.2412 197.592 57.8022C198.367 60.0113 198.27 62.1914 197.304 64.341C194.191 71.5819 189.761 77.9165 184.013 83.3454C182.449 83.1331 180.908 82.7839 179.388 82.2985C163.772 72.9349 148.441 63.135 133.395 52.8992C131.092 51.3561 130.104 49.2371 130.432 46.5415C132.329 42.0612 134.598 37.9123 137.24 34.095Z" fill="#4B7A87"/>
<path fill-rule="evenodd" clip-rule="evenodd" d="M169.905 81.8485C171.211 81.8631 172.332 82.4523 173.265 83.6181C171.534 84.3918 170.076 85.5597 168.894 87.1231C174.087 93.3335 179.116 99.6851 183.98 106.177C178.141 100.792 173.022 94.7722 168.623 88.1166C166.706 87.8626 164.997 88.3927 163.494 89.7069C165.317 87.3406 167.605 85.4737 170.357 84.1063C170.758 83.193 170.608 82.4402 169.905 81.8485Z" fill="#FBB9A1"/>
<path fill-rule="evenodd" clip-rule="evenodd" d="M202.307 66.3452C204.689 70.6109 206.996 74.9394 209.227 79.3314C211.019 82.5426 211.862 85.9749 211.758 89.627C210.822 91.9105 209.148 93.0911 206.737 93.1681C201.91 89.6825 197.869 85.4506 194.614 80.4717C197.815 76.083 200.378 71.3742 202.307 66.3452Z" fill="#FBD2AE"/>
<path fill-rule="evenodd" clip-rule="evenodd" d="M183.346 88.9269C187.772 87.7044 191.324 85.1146 194.002 81.1581C195.573 84.7409 197.398 88.2268 199.477 91.6157C201.529 96.9146 200.114 100.799 195.234 103.267C190.957 98.741 186.994 93.9608 183.346 88.9269Z" fill="#FBD2AE"/>
<path opacity="0.998" fill-rule="evenodd" clip-rule="evenodd" d="M201.154 118.838C204.414 118.558 207.717 119.247 210.393 121.129C214.625 124.107 218.458 127.46 221.892 131.189C220.223 133.521 222.599 136.575 225.466 136.59C226.527 136.596 227.6 136.409 228.684 136.029C232.864 138.595 236.73 141.64 240.282 145.167C240.271 148.288 241.873 149.721 245.088 149.465C245.546 149.874 245.979 149.85 246.388 149.392C247.939 149.789 249.287 150.584 250.435 151.776C251.765 158.117 253.632 164.318 256.037 170.38C237.424 176.641 218.427 178.115 199.044 174.8C198.278 174.669 197.521 174.477 196.797 174.194C193.357 172.85 190.318 170.932 187.681 168.439C185.794 166.656 184.478 164.137 184.995 161.593C185.389 159.653 186.432 158.081 188.125 156.876C189.839 155.656 192.039 155.5 194.142 155.569C196.832 155.656 199.509 155.64 202.175 155.518C205.469 155.369 209.175 154.255 210.326 151.164C211.103 149.076 209.93 147.567 206.807 146.638C205.491 146.246 204.095 146.234 202.727 146.351C192.084 147.254 181.476 147.387 170.903 146.749C164.511 146.565 159.137 144.305 154.781 139.969C153.89 139.083 153.153 138.035 152.76 136.842C151.615 133.367 152.405 130.114 155.13 127.081C159.371 123.467 164.191 121.173 169.591 120.199C170.339 120.064 171.099 120.02 171.859 120.024C181.654 120.072 191.418 119.676 201.154 118.838Z" fill="#F5FBEE"/>
<path fill-rule="evenodd" clip-rule="evenodd" d="M180.672 87.7716C181.714 87.5863 182.605 87.9718 183.346 88.9272C186.994 93.9611 190.957 98.7413 195.233 103.267C195.029 103.496 194.824 103.725 194.619 103.954C189.631 98.8569 184.982 93.4627 180.672 87.7716Z" fill="#FBB9A1"/>
<path fill-rule="evenodd" clip-rule="evenodd" d="M220.806 70.5331C226.501 60.7232 234.003 58.7834 243.311 64.7132C246.739 67.0486 248.438 70.2153 248.407 74.2136C247.501 75.4466 247.14 76.7706 247.323 78.1876C246.596 78.763 246.417 79.4253 246.782 80.1746C244.735 82.4627 242.688 84.7515 240.642 87.0395C235.311 89.9469 230.085 89.8037 224.963 86.6085C224.276 85.9945 223.59 85.3805 222.903 84.7664C221.847 82.5475 220.426 80.4526 218.639 78.4812C218.827 75.7044 219.549 73.0544 220.806 70.5331Z" fill="#FBD301"/>
<path fill-rule="evenodd" clip-rule="evenodd" d="M222.929 84.7016C223.616 85.3156 224.568 86.4504 225.254 87.0645C220.837 91.7735 216.653 96.6808 212.703 101.788C209.979 104.722 209.293 108.022 210.645 111.687C226.95 125.289 243.66 138.382 260.776 150.966C262.6 158.557 264.438 166.174 266.289 173.815C265.129 173.166 264.419 172.119 264.157 170.672C263.549 161.359 259.834 158.404 250.843 155.424C249.695 154.231 245.84 150.798 244.411 149.921C243.09 148.739 246.271 151.062 244.411 149.921C242.809 148.488 241.207 147.055 239.606 145.622C235.529 142.368 231.653 139.461 228.008 136.484C225.353 134.615 223.899 133.646 221.215 131.645C215.661 127.504 211.3 122.984 205.498 118.822C203.103 116.424 201.798 113.066 202.578 109.9C208.602 100.951 215.541 92.5884 222.929 84.7016Z" fill="#1C4961"/>
<path fill-rule="evenodd" clip-rule="evenodd" d="M224.962 86.6085C230.084 89.8037 235.311 89.9469 240.641 87.0395C240.436 87.2681 240.231 87.4974 240.027 87.726C243.716 92.7883 248.678 95.9905 254.912 97.3332C267.671 105.103 278.962 114.585 288.785 125.777C289.175 128.265 288.875 130.674 287.883 133.002C284.269 138.765 280.11 144.106 275.404 149.026C272.538 145.907 270.383 142.331 268.936 138.298C264.953 136.426 262.081 137.564 260.32 141.713C260.596 144.682 260.65 147.615 260.484 150.51C243.368 137.926 226.657 124.833 210.353 111.231C209.001 107.566 209.686 104.266 212.411 101.332C216.361 96.2249 220.545 91.3175 224.962 86.6085Z" fill="#F9FAFA"/>
<path fill-rule="evenodd" clip-rule="evenodd" d="M268.339 39.534C268.368 38.4117 268.834 37.3612 269.525 36.4763C271.083 34.4798 272.987 33.1136 275.236 32.3777C277.611 31.6004 280.404 32.0778 282.045 33.9631C283.595 35.7428 283.627 37.8659 282.142 40.3322C281.558 41.3025 280.74 42.1199 279.779 42.7197C277.639 44.0556 275.382 44.6084 273.008 44.3785C270.469 44.1325 268.271 42.084 268.339 39.534Z" fill="#F5FBEE"/>
<path opacity="0.999" fill-rule="evenodd" clip-rule="evenodd" d="M248.406 74.2135C254.737 71.5575 261.233 69.1305 267.895 66.931C282.665 64.5171 290.626 70.8136 291.777 85.8211C291.627 92.1162 289.659 97.7702 285.873 102.783C280.079 98.8414 275.588 100.178 272.399 106.795C271.941 106.386 271.484 105.977 271.026 105.567C273.336 100.371 271.74 97.0902 266.237 95.7237C264.015 95.2977 262.203 95.942 260.801 97.6573C258.523 96.8221 256.487 95.4131 254.695 93.4315C253.368 91.951 252.838 90.241 253.104 88.3019C256.341 87.3167 259.303 85.8477 261.991 83.8931C257.153 81.3715 252.264 79.4699 247.323 78.1875C247.139 76.7705 247.501 75.4465 248.406 74.2135Z" fill="#F5FBEE"/>
<path fill-rule="evenodd" clip-rule="evenodd" d="M246.781 80.1746C246.416 79.4253 246.595 78.763 247.322 78.1876C252.264 79.4699 257.153 81.3716 261.99 83.8932C259.303 85.8477 256.341 87.3167 253.104 88.3019C252.838 90.241 253.368 91.9511 254.695 93.4316C254.334 94.7562 254.406 96.0568 254.912 97.3332C248.678 95.9904 243.716 92.7883 240.026 87.726C243.432 91.4304 247.581 93.6994 252.473 94.5338C251.693 92.2121 251.343 89.8396 251.424 87.4171C254.348 86.782 256.888 85.5537 259.046 83.7311C255.657 82.584 252.321 81.2475 249.039 79.7227C248.125 79.3209 247.372 79.4717 246.781 80.1746Z" fill="#90B8FA"/>
<path fill-rule="evenodd" clip-rule="evenodd" d="M240.027 87.7258C240.232 87.4972 240.437 87.2679 240.641 87.0393C242.688 84.7512 244.735 82.4624 246.781 80.1744C247.373 79.4715 248.126 79.3206 249.039 79.7224C252.322 81.2472 255.658 82.5838 259.047 83.7308C256.889 85.5535 254.348 86.7818 251.425 87.4169C251.344 89.8394 251.693 92.2119 252.474 94.5336C247.581 93.6992 243.432 91.4302 240.027 87.7258Z" fill="#4F6BEF"/>
<path fill-rule="evenodd" clip-rule="evenodd" d="M260.8 97.6571C262.202 95.9418 264.014 95.2975 266.237 95.7235C271.739 97.09 273.335 100.371 271.025 105.567C267.708 102.809 264.3 100.172 260.8 97.6571Z" fill="#FBD2AE"/>
<path opacity="0.994" fill-rule="evenodd" clip-rule="evenodd" d="M195.426 194.333C195.475 193.182 195.935 192.09 196.618 191.162C199.311 187.502 202.846 185.308 207.223 184.577C208.525 184.36 209.85 184.576 211.107 184.979C218.131 187.233 225.279 188.685 232.551 189.336C233.695 189.439 234.854 189.662 235.799 190.314C237.206 191.286 238.082 192.57 238.429 194.166C238.744 195.618 238.23 197.102 237.426 198.352C232.222 206.434 224.799 209.659 215.159 208.026C213.803 207.796 212.545 207.191 211.441 206.371C209.989 205.292 208.536 204.213 207.084 203.133C205.685 202.094 204.034 201.463 202.319 201.149C201.752 201.045 201.187 200.93 200.624 200.804C198.074 200.23 195.767 198.454 195.478 195.856C195.422 195.351 195.405 194.844 195.426 194.333Z" fill="#F5FBEE"/>
<path opacity="0.993" fill-rule="evenodd" clip-rule="evenodd" d="M307.881 79.4845C308.342 78.0976 309.099 76.8098 310.202 75.8509C315.614 71.1464 320.465 71.5353 324.756 77.0174C325.594 78.0875 326.089 79.3896 326.248 80.7392C327.602 92.2041 323.287 101.188 313.303 107.69C312.833 107.996 312.33 108.256 311.804 108.451C305.546 110.768 301.234 109.305 298.868 104.063C298.037 102.224 298.186 100.109 298.975 98.2514C300.431 94.8213 302.247 91.5792 304.422 88.5249C305.144 87.5114 305.717 86.3969 306.075 85.205C306.655 83.2677 307.257 81.3609 307.881 79.4845Z" fill="#F5FBEE"/>
<path fill-rule="evenodd" clip-rule="evenodd" d="M282.623 114.705C282.165 114.295 281.708 113.887 281.25 113.477C289.776 103.016 290.234 103.425 282.623 114.705Z" fill="#FBB9A1"/>
<path fill-rule="evenodd" clip-rule="evenodd" d="M254.694 93.4311C256.487 95.4126 258.522 96.8217 260.8 97.6569C264.3 100.171 267.708 102.809 271.025 105.567C271.483 105.976 271.94 106.385 272.398 106.795C275.247 109.162 278.197 111.39 281.25 113.477C281.708 113.886 282.165 114.295 282.623 114.705C286.323 117.613 289.449 121.026 292 124.945C291.845 129.963 290.365 134.612 287.558 138.89C290.506 145.393 294.57 146.146 299.751 141.146C300.209 141.556 300.233 141.989 299.824 142.447C294.971 147.321 290.701 146.798 287.017 140.877C283.816 143.767 280.836 146.867 278.077 150.181C280.226 151.476 282.159 152.999 283.876 154.75C280.634 153.503 277.811 151.595 275.403 149.026C280.11 144.106 284.269 138.765 287.882 133.002C288.874 130.673 289.175 128.265 288.784 125.777C278.961 114.584 267.67 105.103 254.912 97.3327C254.406 96.0563 254.334 94.7557 254.694 93.4311Z" fill="#254D68"/>
<path d="M276.018 148.34L278.078 150.182C278.598 150.153 282.124 152.566 283.877 154.751C283.111 155.054 277.501 151.518 275.404 149.026L276.018 148.34Z" fill="#FBB9A1"/>
<path opacity="0.989" fill-rule="evenodd" clip-rule="evenodd" d="M248.612 153.028C258.304 155.936 263.257 160.903 263.865 170.216C264.126 171.663 264.837 172.71 265.997 173.358C264.145 165.717 260.129 157.773 258.305 150.181C258.434 147.942 253.888 138.439 251.695 132.875C250.785 130.566 250.876 127.681 253.125 126.631C256.004 125.287 260.855 126.015 267.28 131.287C269.082 132.766 270.343 134.788 270.927 137.045C272.016 141.248 273.208 146.636 275.404 149.026C277.811 151.595 280.635 153.503 283.876 154.751C282.16 152.999 280.226 151.476 278.077 150.181C280.836 146.867 283.816 143.767 287.017 140.878C290.702 146.798 294.971 147.321 299.824 142.447C303.779 150.931 308.573 158.926 314.206 166.432C315.3 168.101 315.511 169.937 314.839 171.942C307.496 185.502 296.985 195.872 283.306 203.051C281.548 204.054 279.723 204.482 277.833 204.334C268.379 194.245 260.79 182.926 255.068 170.38C252.663 164.318 249.942 159.369 248.612 153.028Z" fill="#FBD2AE"/>
<path opacity="0.954" fill-rule="evenodd" clip-rule="evenodd" d="M272.399 106.795C275.588 100.178 280.079 98.8414 285.873 102.783C289.465 104.634 292.542 107.181 295.105 110.422C295.425 114.33 294.763 118.063 293.12 121.622C301.2 121.618 304.681 125.555 303.562 133.433C302.417 136.085 301.147 138.656 299.752 141.147C294.571 146.146 290.506 145.394 287.559 138.891C290.365 134.612 291.846 129.963 292 124.946C289.449 121.027 286.324 117.613 282.624 114.705C290.234 103.425 289.776 103.016 281.251 113.477C278.198 111.39 275.248 109.163 272.399 106.795Z" fill="#FBD2AE"/>
<path fill-rule="evenodd" clip-rule="evenodd" d="M326.563 177.485C319.694 191.206 310.237 202.93 298.191 212.659C295.773 214.932 293.155 216.709 290.335 217.988C286.343 214.572 282.657 210.864 279.278 206.863C295.836 198.736 308.419 186.512 317.024 170.189C320.573 172.138 323.753 174.57 326.563 177.485Z" fill="#F7F9FA"/>
<path fill-rule="evenodd" clip-rule="evenodd" d="M277.834 204.335C279.724 204.482 281.548 204.054 283.307 203.051C296.986 195.872 307.497 185.502 314.84 171.942C315.512 169.937 315.301 168.101 314.207 166.433C317.514 167.43 320.85 168.766 324.214 170.441C325.386 172.248 326.145 174.162 326.491 176.185C326.949 176.594 326.973 177.027 326.564 177.485C323.754 174.57 320.575 172.138 317.025 170.189C308.42 186.512 295.837 198.736 279.279 206.863C282.658 210.864 286.344 214.572 290.336 217.988C289.616 218.715 288.773 219.197 287.807 219.434C284.417 215.419 281.039 211.367 277.672 207.279C277.065 206.222 277.119 205.24 277.834 204.335Z" fill="#9BD4DC"/>
<path opacity="0.983" fill-rule="evenodd" clip-rule="evenodd" d="M287.806 219.434C288.772 219.197 289.615 218.714 290.335 217.988C293.155 216.709 295.774 214.932 298.192 212.658C310.238 202.93 319.694 191.206 326.563 177.485C326.972 177.027 326.948 176.594 326.49 176.185C327.309 175.27 328.128 174.354 328.947 173.439C335.812 179.579 342.676 185.719 349.541 191.86C335.419 207.649 321.296 223.438 307.173 239.228C300.034 233.105 293.579 226.507 287.806 219.434Z" fill="#194D65"/>
<path d="M292.744 144.146C291.184 144.233 288.637 140.679 287.559 138.891L287.018 140.877C288.12 143.099 290.471 145.498 292.51 145.79C295.797 146.259 298.597 143.82 299.825 142.447C300.439 141.761 299.982 141.351 299.753 141.146C298.524 142.52 294.695 144.038 292.744 144.146Z" fill="#FBB9A1"/>
<path d="M260.726 158.844C261.948 164.57 262.042 163.643 266.412 174.966" stroke="#FBB9A1" stroke-width="2" stroke-linecap="round"/>
<path d="M229.323 65.1684C232.416 63.7191 233.896 63.4049 237.215 64.1484C241.706 66.6224 244.088 68.7174 245.879 73.6009C246.157 77.4796 244.522 79.4028 242.041 82.2721C239.338 84.9032 237.895 86.0402 234.251 87.1887C230.692 86.9872 228.969 85.9546 226.112 83.846C222.967 80.2672 222.951 78.3364 222.778 73.6395C223.829 70.0496 226.573 67.6165 229.323 65.1684ZM224.35 79.0677C227.01 82.9389 229.57 84.7854 234.194 85.6478C238.782 84.4359 241.017 82.3381 243.526 78.3597C244.778 75.2807 244.778 75.2807 243.983 72.1708C241.432 68.5703 238.672 66.6005 234.51 65.1912C230.396 65.9673 228.734 67.7157 226.113 70.8937C224.148 73.8798 223.668 75.5346 224.35 79.0677Z" fill="#E7BB1A"/>
<path d="M228.917 72.7276C231.26 74.9042 233.604 77.0808 236.018 79.3233C236.454 78.8546 236.889 78.3859 237.337 77.903C237.806 78.3383 238.275 78.7737 238.758 79.2222C237.234 80.8626 235.711 82.503 234.141 84.1931C233.672 83.7578 233.203 83.3225 232.72 82.874C233.373 82.1709 234.026 81.4679 234.699 80.7436C232.364 79.0273 232.364 79.0273 229.779 77.4963C229.109 77.7473 228.439 77.9984 227.75 78.257C227.433 74.3255 227.433 74.3255 228.917 72.7276Z" fill="#E9BD18"/>
<path d="M230.236 71.3071C231.542 69.9011 232.848 68.495 234.194 67.0463C235.363 68.5461 235.363 68.5461 236.375 70.3947C235.956 71.3154 235.537 72.2361 235.106 73.1847C236.211 72.465 237.316 71.7452 238.455 71.0037C238.505 72.3734 238.505 72.3734 236.859 74.2344C236.042 75.0708 236.042 75.0708 235.207 75.9241C233.567 74.4005 231.926 72.8769 230.236 71.3071Z" fill="#E8BB1A"/>
</g>
<defs>
<clipPath id="clip0_11704_4442">
<rect width="224.733" height="368.415" fill="white" transform="translate(0 52.8301) rotate(-48.1889)"/>
</clipPath>
</defs>
</svg>
