<svg width="150" height="222" viewBox="0 0 150 222" fill="none" xmlns="http://www.w3.org/2000/svg">
<g clip-path="url(#clip0_11704_4404)">
<path d="M109.885 27.84C113.505 33.9392 113.021 42.1408 113.31 49.0593C113.419 51.6608 113.54 54.2617 113.659 56.8627C113.683 57.3898 113.707 57.9169 113.731 58.46C113.98 63.9279 114.289 69.3921 114.608 74.8563C114.634 75.3004 114.66 75.7445 114.687 76.2021C114.829 78.6415 114.972 81.0808 115.117 83.52C115.466 83.4272 115.815 83.3343 116.174 83.2387C120.538 82.2115 125.158 82.5015 129.143 84.5554C131.097 85.8181 132.676 87.2335 133.722 89.32C133.777 90.1644 133.797 91.0113 133.794 91.8575C133.796 92.3046 133.797 92.7517 133.799 93.2124C133.722 94.54 133.722 94.54 133.39 95.7952C133.009 96.9075 133.009 96.9075 133.722 98.02C134.198 101.9 132.998 104.221 130.815 107.3C127.557 111.447 124.024 115.355 120.232 119.02C119.136 120.11 118.125 121.247 117.116 122.416C114.132 125.864 110.901 128.939 107.439 131.905C106.597 132.644 105.798 133.432 105.015 134.234C104.071 135.14 104.071 135.14 102.908 135.14C103.1 135.714 103.292 136.288 103.489 136.88C103.576 137.95 103.633 139.022 103.673 140.095C103.71 141.029 103.71 141.029 103.747 141.981C103.77 142.63 103.793 143.28 103.816 143.949C103.841 144.605 103.867 145.261 103.892 145.937C103.954 147.558 104.013 149.179 104.071 150.8C104.646 150.8 105.222 150.8 105.815 150.8C105.815 159.604 105.815 168.409 105.815 177.48C107.35 176.714 108.885 175.949 110.466 175.16C113.376 174.192 115.844 174.235 118.642 175.486C122.874 177.838 124.857 181.214 126.345 185.731C127.308 189.606 126.856 192.887 125.582 196.62C126.254 196.56 126.925 196.5 127.617 196.439C130.651 196.455 132.611 197.58 134.885 199.52C138.511 203.346 139.701 207.187 139.717 212.461C139.727 213.165 139.737 213.868 139.747 214.593C139.664 216.494 139.216 218.151 138.65 219.965C138.49 220.483 138.331 221 138.166 221.533C138.042 221.925 137.919 222.316 137.792 222.72C122.16 222.788 106.529 222.839 90.8977 222.87C83.6399 222.885 76.3822 222.906 69.1245 222.939C62.7992 222.968 56.4741 222.986 50.1488 222.993C46.799 222.997 43.4494 223.006 40.0997 223.027C36.9473 223.046 33.7951 223.052 30.6426 223.048C29.4853 223.049 28.3279 223.055 27.1706 223.066C25.5905 223.08 24.0113 223.077 22.4312 223.069C21.973 223.077 21.5149 223.086 21.0429 223.094C17.7146 223.049 16.2899 222.187 13.9544 219.82C9.94407 214.332 8.82648 208.421 9.57121 201.761C10.3381 197.697 11.9163 194.669 15.1172 191.98C17.5887 190.747 20.7411 191.149 23.293 191.98C23.6648 192.171 24.0365 192.363 24.4195 192.56C24.2276 191.878 24.0358 191.196 23.8381 190.494C22.8508 186.469 23.0042 183.509 25.0009 179.8C27.3379 177.184 27.3379 177.184 29.0707 176.32C30.6244 176.242 32.1651 176.295 33.7218 176.32C33.7083 175.617 33.6948 174.914 33.6809 174.19C33.5893 167.088 34.0425 160.171 34.8846 153.12C35.2683 153.12 35.6521 153.12 36.0474 153.12C35.0904 138.708 32.3218 130.082 21.7941 119.79C21.4359 119.439 21.0777 119.088 20.7086 118.726C20.0045 118.04 19.2961 117.357 18.5828 116.68C15.85 114.026 13.3295 111.184 12.3851 107.42C12.3977 104.853 12.554 103.579 14.0634 101.428C17.0355 99.5062 20.4783 99.7933 23.8381 100.34C28.2454 101.77 32.2699 103.914 36.3245 106.131C36.869 106.426 37.4134 106.72 37.9744 107.024C39.0478 107.61 40.1148 108.208 41.1744 108.819C44.0118 110.443 44.0118 110.443 47.1825 110.538C47.7288 110.235 48.2752 109.932 48.8381 109.62C49.1604 109.442 49.4826 109.265 49.8147 109.082C50.9467 108.44 52.0534 107.764 53.1622 107.083C63.5599 100.853 74.4944 95.6153 85.466 90.48C84.8681 90.5267 84.2702 90.5733 83.6541 90.6213C72.8049 91.4643 61.9549 92.2769 51.091 92.9088C50.6803 92.9334 50.2695 92.9581 49.8464 92.9835C31.939 94.0508 31.939 94.0508 28.419 91.2329C27.0488 89.5613 26.9507 88.5493 26.7791 86.4087C26.7168 85.6951 26.6545 84.9814 26.5904 84.2462C26.5326 83.4604 26.4752 82.6746 26.418 81.8888C26.3509 81.0674 26.2828 80.2461 26.2139 79.4249C26.0683 77.6618 25.9296 75.8984 25.7961 74.1344C25.6164 71.764 25.4242 69.3948 25.2281 67.0258C24.7581 61.3449 24.3263 55.6619 23.927 49.9756C23.8431 48.7903 23.756 47.6052 23.6686 46.4201C23.529 44.4686 23.4069 42.517 23.293 40.5638C23.2525 40.0161 23.2119 39.4684 23.1701 38.9042C23.0521 36.5094 23.1659 35.0209 24.0902 32.7723C28.0093 28.9578 35.6725 29.7047 40.9166 29.3625C41.4273 29.328 41.938 29.2934 42.4642 29.2578C54.0694 28.4738 65.6852 27.8542 77.3 27.2308C78.7749 27.1515 80.2499 27.0719 81.7248 26.9921C84.0831 26.865 86.4415 26.74 88.8 26.6165C89.6765 26.5705 90.5529 26.5239 91.4293 26.4767C106.409 25.6729 106.409 25.6729 109.885 27.84Z" fill="#F1F1F1"/>
<path d="M32.5535 59.0791C32.7517 59.0613 32.7517 59.0613 32.9539 59.043C33.548 59.1268 33.8314 59.3775 34.2923 59.7575C34.6579 60.2753 34.6579 60.2753 35.0057 60.8799C35.0682 60.9872 35.1306 61.0945 35.195 61.205C35.3926 61.5455 35.5875 61.8876 35.7822 62.2298C35.9149 62.4595 36.0478 62.6891 36.1809 62.9186C36.5249 63.513 36.866 64.1089 37.206 64.7055C37.2836 64.8414 37.3612 64.9774 37.4411 65.1174C37.4921 65.2069 37.5432 65.2964 37.5958 65.3886C37.6686 65.2204 37.7415 65.0522 37.8165 64.879C38.4333 63.4606 39.0613 62.0471 39.7024 60.6394C39.8022 60.4162 39.8022 60.4162 39.904 60.1886C39.9677 60.0498 40.0314 59.9111 40.097 59.7682C40.1529 59.645 40.2088 59.5218 40.2664 59.3949C40.4503 59.0832 40.4503 59.0832 40.9613 58.7047C41.3263 58.6265 41.3263 58.6265 41.7299 58.5985C41.862 58.5866 41.9942 58.5747 42.1303 58.5624C42.73 58.647 43.0049 58.889 43.4687 59.2769C43.7783 59.6877 44.0289 60.1253 44.2811 60.5727C44.3531 60.6968 44.4251 60.8208 44.4993 60.9487C44.7274 61.3425 44.9527 61.7379 45.1779 62.1334C45.3326 62.4018 45.4876 62.6701 45.6428 62.9383C46.0214 63.5937 46.3974 64.2504 46.7722 64.908C47.602 63.0336 47.602 63.0336 48.4075 61.1488C48.4567 61.0323 48.5059 60.9157 48.5566 60.7957C48.6524 60.5682 48.7468 60.3402 48.8401 60.1117C49.164 59.3527 49.5226 58.7807 50.1377 58.2241C50.6771 58.0369 51.1649 58.0422 51.7259 58.1409C52.2323 58.4981 52.5443 58.779 52.8491 59.3133C52.9234 60.4879 52.6043 61.4441 52.1302 62.5024C52.0665 62.6499 52.0028 62.7974 51.9372 62.9494C51.7343 63.4176 51.5281 63.8842 51.3216 64.3509C51.1869 64.6603 51.0525 64.9697 50.9183 65.2793C50.6573 65.8802 50.3941 66.4802 50.1291 67.0794C49.8941 67.6115 49.6644 68.1452 49.4407 68.682C49.3671 68.8565 49.3671 68.8565 49.292 69.0344C49.1629 69.3414 49.0354 69.649 48.9082 69.9567C48.6491 70.4483 48.4367 70.6943 47.9764 71.0008C47.5954 71.1032 47.5954 71.1032 47.198 71.1295C47.0674 71.1418 46.9369 71.1541 46.8025 71.1667C46.0567 71.0178 45.6436 70.5188 45.2233 69.9113C44.9748 69.5115 44.7382 69.1069 44.5046 68.6983C44.3354 68.4082 44.1661 68.1182 43.9966 67.8283C43.8749 67.6187 43.8749 67.6187 43.7507 67.4049C43.3657 66.7496 42.9574 66.1096 42.5478 65.4693C42.3604 65.1391 42.3604 65.1391 42.342 64.7883C42.2256 64.7944 42.1091 64.8005 41.9891 64.8068C41.9492 64.9599 41.9093 65.1131 41.8682 65.2709C41.5957 66.206 41.2162 67.0935 40.8413 67.992C40.703 68.3252 40.5678 68.6596 40.4326 68.994C40.3444 69.2059 40.2561 69.4177 40.1652 69.636C40.0858 69.8287 40.0065 70.0214 39.9247 70.2199C39.5623 70.8869 39.1466 71.3764 38.4027 71.6019C38.2735 71.6084 38.1442 71.6149 38.0111 71.6217C37.8821 71.6323 37.7531 71.6429 37.6202 71.6538C36.8174 71.4784 36.4304 70.9541 35.9958 70.3024C35.6624 69.7549 35.3416 69.2017 35.0238 68.6452C34.9056 68.4407 34.7872 68.2363 34.6687 68.032C34.4854 67.7161 34.3023 67.4001 34.1199 67.0837C33.699 66.3549 33.2691 65.6322 32.8338 64.9118C32.7184 64.7201 32.6029 64.5284 32.484 64.3309C32.2638 63.9657 32.0426 63.6011 31.8204 63.2372C31.7212 63.0716 31.6219 62.906 31.5197 62.7354C31.3889 62.5196 31.3889 62.5196 31.2554 62.2994C30.87 61.5158 30.7597 60.9963 30.995 60.1501C31.3685 59.365 31.7086 59.1378 32.5535 59.0791Z" fill="#3A3A3A"/>
<path d="M56.9383 57.8018C57.1365 57.7839 57.1365 57.7839 57.3387 57.7657C57.9328 57.8495 58.2162 58.1002 58.677 58.4802C59.0427 58.998 59.0427 58.998 59.3905 59.6026C59.4529 59.7098 59.5154 59.8171 59.5797 59.9276C59.7774 60.2682 59.9722 60.6103 60.167 60.9524C60.2997 61.1822 60.4326 61.4118 60.5657 61.6413C60.9097 62.2356 61.2508 62.8316 61.5908 63.4282C61.6684 63.5641 61.7459 63.7 61.8259 63.8401C61.8769 63.9296 61.928 64.0191 61.9805 64.1113C62.0534 63.9431 62.1262 63.7749 62.2013 63.6016C62.818 62.1832 63.446 60.7697 64.0872 59.3621C64.187 59.1389 64.187 59.1389 64.2888 58.9112C64.3525 58.7725 64.4162 58.6338 64.4818 58.4908C64.5377 58.3677 64.5936 58.2445 64.6512 58.1176C64.8351 57.8059 64.8351 57.8059 65.3461 57.4274C65.7111 57.3492 65.7111 57.3492 66.1147 57.3212C66.2468 57.3093 66.3789 57.2973 66.5151 57.2851C67.1148 57.3696 67.3896 57.6116 67.8534 57.9996C68.1631 58.4104 68.4137 58.848 68.6658 59.2954C68.7379 59.4194 68.8099 59.5435 68.8841 59.6713C69.1122 60.0652 69.3374 60.4606 69.5626 60.8561C69.7174 61.1245 69.8724 61.3928 70.0275 61.661C70.4061 62.3164 70.7822 62.9731 71.1569 63.6307C71.9867 61.7562 71.9867 61.7562 72.7922 59.8714C72.8414 59.7549 72.8907 59.6384 72.9413 59.5184C73.0372 59.2909 73.1316 59.0629 73.2248 58.8343C73.5488 58.0754 73.9073 57.5033 74.5225 56.9468C75.0619 56.7596 75.5497 56.7648 76.1107 56.8636C76.617 57.2208 76.9291 57.5017 77.2339 58.0359C77.3082 59.2105 76.9891 60.1667 76.515 61.225C76.4513 61.3725 76.3876 61.52 76.3219 61.672C76.1191 62.1402 75.9128 62.6069 75.7064 63.0736C75.5717 63.383 75.4373 63.6924 75.303 64.002C75.042 64.6029 74.7789 65.2028 74.5139 65.802C74.2789 66.3341 74.0491 66.8678 73.8255 67.4047C73.7519 67.5791 73.7519 67.5791 73.6768 67.7571C73.5476 68.064 73.4202 68.3717 73.2929 68.6794C73.0339 69.1709 72.8215 69.417 72.3612 69.7235C71.9802 69.8259 71.9802 69.8259 71.5827 69.8522C71.4522 69.8645 71.3217 69.8767 71.1872 69.8894C70.4415 69.7404 70.0284 69.2414 69.6081 68.6339C69.3596 68.2342 69.1229 67.8295 68.8894 67.421C68.7202 67.1309 68.5508 66.8409 68.3814 66.551C68.2596 66.3414 68.2596 66.3414 68.1354 66.1275C67.7504 65.4723 67.3421 64.8323 66.9326 64.192C66.7452 63.8617 66.7452 63.8617 66.7268 63.5109C66.6103 63.517 66.4939 63.5231 66.3739 63.5294C66.334 63.6826 66.294 63.8358 66.2529 63.9936C65.9804 64.9286 65.601 65.8162 65.2261 66.7147C65.0877 67.0479 64.9525 67.3822 64.8173 67.7167C64.7291 67.9285 64.6409 68.1404 64.55 68.3586C64.4706 68.5513 64.3912 68.7441 64.3094 68.9426C63.9471 69.6095 63.5313 70.0991 62.7875 70.3245C62.6582 70.3311 62.529 70.3376 62.3959 70.3443C62.2669 70.3549 62.1379 70.3656 62.0049 70.3765C61.2021 70.2011 60.8152 69.6768 60.3805 69.025C60.0472 68.4776 59.7264 67.9244 59.4085 67.3679C59.2903 67.1634 59.172 66.959 59.0534 66.7546C58.8702 66.4387 58.6871 66.1227 58.5046 65.8064C58.0838 65.0775 57.6538 64.3549 57.2186 63.6345C57.1031 63.4428 56.9877 63.2511 56.8688 63.0535C56.6485 62.6884 56.4274 62.3238 56.2052 61.9598C56.106 61.7943 56.0067 61.6287 55.9045 61.4581C55.7736 61.2422 55.7736 61.2422 55.6401 61.022C55.2548 60.2385 55.1444 59.719 55.3797 58.8727C55.7533 58.0876 56.0934 57.8604 56.9383 57.8018Z" fill="#3A3A3A"/>
<path d="M81.3211 56.5249C81.5193 56.5071 81.5193 56.5071 81.7215 56.4888C82.3156 56.5726 82.599 56.8233 83.0598 57.2033C83.4255 57.7211 83.4255 57.7211 83.7733 58.3257C83.8357 58.433 83.8982 58.5403 83.9625 58.6508C84.1602 58.9913 84.355 59.3334 84.5498 59.6756C84.6825 59.9053 84.8154 60.1349 84.9485 60.3644C85.2925 60.9588 85.6336 61.5547 85.9736 62.1513C86.0512 62.2872 86.1288 62.4232 86.2087 62.5632C86.2597 62.6527 86.3108 62.7422 86.3634 62.8344C86.4362 62.6662 86.509 62.498 86.5841 62.3248C87.2009 60.9064 87.8288 59.4929 88.47 58.0852C88.5698 57.862 88.5698 57.862 88.6716 57.6344C88.7353 57.4956 88.799 57.3569 88.8646 57.214C88.9205 57.0908 88.9764 56.9676 89.034 56.8407C89.2179 56.529 89.2179 56.529 89.7289 56.1505C90.0939 56.0723 90.0939 56.0723 90.4975 56.0443C90.6296 56.0324 90.7617 56.0205 90.8979 56.0082C91.4976 56.0928 91.7724 56.3348 92.2362 56.7227C92.5459 57.1335 92.7965 57.5711 93.0486 58.0185C93.1207 58.1426 93.1927 58.2666 93.2669 58.3945C93.495 58.7883 93.7202 59.1837 93.9454 59.5792C94.1002 59.8476 94.2552 60.1159 94.4103 60.3841C94.7889 61.0395 95.165 61.6963 95.5397 62.3538C96.3696 60.4794 96.3696 60.4794 97.1751 58.5946C97.2243 58.4781 97.2735 58.3615 97.3242 58.2415C97.42 58.014 97.5144 57.786 97.6076 57.5575C97.9316 56.7985 98.2901 56.2265 98.9053 55.6699C99.4447 55.4827 99.9325 55.488 100.493 55.5867C101 55.9439 101.312 56.2248 101.617 56.7591C101.691 57.9337 101.372 58.8899 100.898 59.9482C100.834 60.0957 100.77 60.2432 100.705 60.3952C100.502 60.8634 100.296 61.3301 100.089 61.7967C99.9545 62.1061 99.8201 62.4156 99.6858 62.7251C99.4249 63.326 99.1617 63.926 98.8967 64.5252C98.6617 65.0573 98.432 65.591 98.2083 66.1278C98.1347 66.3023 98.1347 66.3023 98.0596 66.4802C97.9305 66.7872 97.803 67.0948 97.6757 67.4025C97.4167 67.8941 97.2043 68.1401 96.744 68.4466C96.363 68.549 96.363 68.549 95.9655 68.5753C95.835 68.5876 95.7045 68.5999 95.57 68.6125C94.8243 68.4636 94.4112 67.9646 93.9909 67.3571C93.7424 66.9573 93.5057 66.5527 93.2722 66.1441C93.103 65.854 92.9336 65.564 92.7642 65.2741C92.6424 65.0645 92.6424 65.0645 92.5183 64.8507C92.1332 64.1954 91.7249 63.5554 91.3154 62.9151C91.128 62.5849 91.128 62.5849 91.1096 62.2341C90.9932 62.2402 90.8767 62.2463 90.7567 62.2526C90.7168 62.4057 90.6769 62.5589 90.6357 62.7167C90.3633 63.6518 89.9838 64.5393 89.6089 65.4378C89.4705 65.771 89.3354 66.1054 89.2002 66.4398C89.1119 66.6517 89.0237 66.8635 88.9328 67.0818C88.8534 67.2745 88.774 67.4672 88.6922 67.6657C88.3299 68.3327 87.9142 68.8222 87.1703 69.0477C87.041 69.0542 86.9118 69.0607 86.7787 69.0675C86.6497 69.0781 86.5207 69.0887 86.3878 69.0996C85.585 68.9242 85.198 68.3999 84.7634 67.7482C84.43 67.2007 84.1092 66.6475 83.7913 66.091C83.6731 65.8865 83.5548 65.6821 83.4363 65.4778C83.253 65.1619 83.0699 64.8459 82.8875 64.5295C82.4666 63.8007 82.0367 63.078 81.6014 62.3576C81.4859 62.1659 81.3705 61.9742 81.2516 61.7767C81.0313 61.4115 80.8102 61.0469 80.588 60.683C80.4888 60.5174 80.3895 60.3518 80.2873 60.1812C80.1564 59.9654 80.1564 59.9654 80.023 59.7452C79.6376 58.9616 79.5273 58.4421 79.7625 57.5959C80.1361 56.8108 80.4762 56.5836 81.3211 56.5249Z" fill="#3A3A3A"/>
<path d="M106.967 64.3569C107.634 64.6733 107.841 64.9268 108.181 65.5795C108.334 66.3854 108.232 66.7598 107.838 67.4772C107.26 67.9433 106.922 68.0528 106.178 68.0917C105.414 67.9135 105.113 67.7379 104.634 67.1173C104.421 66.3076 104.445 65.7299 104.855 64.9952C105.473 64.3534 106.096 64.2868 106.967 64.3569Z" fill="#3A3A3A"/>
<path d="M104.071 150.8C104.646 150.8 105.222 150.8 105.815 150.8C105.815 159.604 105.815 168.409 105.815 177.48C107.35 176.714 108.885 175.949 110.466 175.16C113.376 174.192 115.844 174.235 118.642 175.486C122.874 177.838 124.857 181.214 126.345 185.731C127.308 189.606 126.856 192.887 125.582 196.62C126.254 196.56 126.925 196.5 127.617 196.439C130.651 196.455 132.611 197.579 134.885 199.52C138.511 203.346 139.701 207.187 139.717 212.461C139.727 213.165 139.737 213.868 139.747 214.593C139.664 216.494 139.216 218.151 138.65 219.965C138.49 220.483 138.331 221 138.166 221.533C138.042 221.925 137.919 222.316 137.792 222.72C122.16 222.788 106.529 222.839 90.8977 222.87C83.6399 222.885 76.3822 222.905 69.1245 222.939C62.7992 222.967 56.4741 222.986 50.1488 222.993C46.799 222.996 43.4494 223.005 40.0997 223.026C36.9473 223.046 33.7951 223.052 30.6426 223.048C29.4853 223.049 28.3279 223.054 27.1706 223.065C25.5905 223.08 24.0113 223.076 22.4312 223.069C21.973 223.077 21.5149 223.085 21.0429 223.094C17.7146 223.049 16.2899 222.187 13.9544 219.82C9.94407 214.332 8.82648 208.421 9.57121 201.761C10.3381 197.697 11.9163 194.669 15.1172 191.98C17.5887 190.747 20.7411 191.149 23.293 191.98C23.6648 192.171 24.0365 192.363 24.4195 192.56C24.1317 191.537 24.1317 191.537 23.8381 190.494C22.8508 186.469 23.0042 183.509 25.0009 179.8C27.3379 177.184 27.3379 177.184 29.0707 176.32C30.6244 176.242 32.1651 176.295 33.7218 176.32C33.7083 175.617 33.6948 174.914 33.6809 174.19C33.5893 167.087 34.0425 160.171 34.8846 153.12C35.1964 153.287 35.5082 153.455 35.8294 153.627C44.8849 157.906 56.6327 156.8 66.3787 156.783C68.6019 156.781 70.8246 156.795 73.0478 156.809C88.9317 157.002 88.9317 157.002 103.489 151.38C103.681 151.188 103.873 150.997 104.071 150.8Z" fill="#194D65"/>
<path d="M130.233 85.2598C131.722 86.5591 132.84 87.5606 133.722 89.3198C133.777 90.1642 133.797 91.0111 133.794 91.8573C133.796 92.3044 133.797 92.7515 133.799 93.2121C133.722 94.5398 133.722 94.5398 133.39 95.7949C133.009 96.9072 133.009 96.9072 133.722 98.0198C134.198 101.899 132.998 104.221 130.815 107.3C127.557 111.447 124.023 115.354 120.231 119.02C119.136 120.11 118.125 121.246 117.115 122.416C114.132 125.864 110.9 128.938 107.438 131.904C106.596 132.644 105.798 133.432 105.015 134.234C104.07 135.14 104.07 135.14 102.908 135.14C103.099 135.714 103.291 136.288 103.489 136.88C103.77 139.278 103.894 141.684 104.034 144.094C104.088 144.758 104.143 145.422 104.199 146.107C104.298 147.922 104.34 149.581 104.07 151.38C102.583 152.886 102.583 152.886 100.582 153.7C99.9666 153.984 99.3513 154.268 98.7173 154.56C90.2023 158.183 79.8656 157.434 70.832 157.375C68.6089 157.361 66.3862 157.363 64.163 157.367C57.9016 157.36 51.6578 157.309 45.4221 156.697C44.7801 156.637 44.7801 156.637 44.125 156.576C41.4524 156.268 38.0417 155.69 36.0471 153.7C35.9426 152.799 35.8727 151.895 35.8177 150.99C34.8856 137.356 31.6853 129.46 21.7938 119.79C21.4356 119.439 21.0774 119.088 20.7083 118.726C20.0042 118.039 19.2958 117.357 18.5825 116.68C15.8497 114.026 13.3292 111.183 12.3848 107.42C12.3974 104.853 12.5537 103.578 14.0631 101.427C17.0352 99.506 20.478 99.7931 23.8378 100.34C28.2451 101.769 32.2696 103.914 36.3242 106.131C36.8687 106.425 37.4131 106.72 37.9741 107.024C39.0475 107.61 40.1145 108.208 41.1741 108.818C44.0115 110.443 44.0115 110.443 47.1822 110.537C47.7285 110.235 48.2749 109.932 48.8378 109.62C49.1601 109.442 49.4823 109.264 49.8144 109.081C50.9464 108.439 52.0531 107.763 53.1619 107.082C63.5343 100.868 74.4445 95.4517 85.4657 90.4798C85.9041 90.2712 86.3425 90.0627 86.7942 89.8478C88.8796 89.1502 90.9339 89.0213 93.1124 88.8871C94.0409 88.8196 94.9694 88.752 95.8979 88.6843C97.3508 88.5839 98.8038 88.4859 100.257 88.3907C101.667 88.2967 103.077 88.1936 104.486 88.0896C104.917 88.0641 105.347 88.0387 105.791 88.0125C109.131 87.7599 111.634 86.9939 114.027 84.6073C117.866 80.7775 126.148 82.619 130.233 85.2598Z" fill="#FBD1AE"/>
<path d="M121.22 82.8311C121.874 82.8228 122.527 82.8146 123.2 82.8062C124.923 82.9342 125.875 83.2031 127.325 84.0998C127.325 84.674 127.325 85.2482 127.325 85.8398C127.013 85.8981 126.701 85.9565 126.38 86.0165C118.509 87.9021 111.767 93.5737 105.409 98.3415C103.648 99.658 101.841 100.879 99.9992 102.08C100.782 103.641 101.909 103.969 103.44 104.697C105.839 105.258 107.759 104.608 109.876 103.447C110.473 103.045 111.069 102.642 111.684 102.227C112.008 102.012 112.331 101.797 112.665 101.575C113.691 100.891 114.713 100.199 115.733 99.5061C116.757 98.8164 117.781 98.1286 118.808 97.4436C119.739 96.8219 120.666 96.1948 121.593 95.5674C123.958 94.1051 125.466 93.3439 128.27 93.4886C130.261 93.9668 130.685 94.2524 131.976 95.6998C131.546 95.6527 131.117 95.6056 130.675 95.5571C125.372 95.2277 122.796 96.7194 118.604 99.7598C116.86 100.927 115.097 102.065 113.335 103.204C112.898 103.492 112.462 103.78 112.012 104.077C111.397 104.478 111.397 104.478 110.771 104.887C110.404 105.128 110.036 105.37 109.658 105.619C108.72 106.14 108.72 106.14 107.557 106.14C107.941 106.905 108.325 107.671 108.72 108.46C106.344 108.098 104.475 107.307 102.325 106.249C95.463 103.045 88.8653 101.647 81.3945 100.92C81.3945 100.537 81.3945 100.154 81.3945 99.7598C81.9679 99.8282 81.9679 99.8282 82.5528 99.898C88.8914 100.061 92.8078 96.315 97.5466 92.623C98.8781 91.608 100.225 90.6303 101.603 89.6778C102.01 89.3951 102.418 89.1124 102.838 88.8211C104.573 87.889 106.159 87.7942 108.098 87.6931C110.57 87.4605 112.308 86.3206 114.025 84.6073C116.053 82.5844 118.462 82.8468 121.22 82.8311Z" fill="#FBD1AE"/>
<path d="M37.7907 156.02C38.1744 156.02 38.5582 156.02 38.9535 156.02C39.0755 166.273 38.7065 176.514 38.3721 186.76C38.7948 186.859 39.2175 186.957 39.653 187.059C40.2376 187.2 40.8222 187.34 41.4244 187.485C41.991 187.62 42.5576 187.754 43.1414 187.893C46.2396 188.745 49.2767 189.806 52.3256 190.82C52.3256 185.269 52.3256 179.719 52.3256 174C52.9012 173.809 53.4768 173.617 54.0698 173.42C54.0698 179.353 54.0698 185.287 54.0698 191.4C55.7965 191.687 55.7965 191.687 57.5582 191.98C57.5582 190.066 57.5582 188.152 57.5582 186.18C58.1337 186.18 58.7093 186.18 59.3023 186.18C59.3023 188.285 59.3023 190.391 59.3023 192.56C64.2907 192.943 69.2791 193.326 74.4186 193.72C74.4186 185.298 74.4186 176.877 74.4186 168.2C74.8023 168.2 75.1861 168.2 75.5814 168.2C75.5814 176.43 75.5814 184.66 75.5814 193.14C84.9223 191.73 84.9223 191.73 93.6047 189.08C93.7965 184.869 93.9884 180.658 94.1861 176.32C94.7617 176.32 95.3372 176.32 95.9303 176.32C96.1221 180.148 96.314 183.976 96.5117 187.92C97.447 187.442 98.3823 186.963 99.3459 186.47C102.18 185.02 102.18 185.02 103.488 185.02C103.872 182.915 104.256 180.809 104.651 178.64C105.227 178.64 105.802 178.64 106.395 178.64C106.58 180.947 106.536 182.408 105.523 184.513C99.6365 191.266 87.0965 194.198 78.4884 194.88C67.2009 195.47 56.9267 194.764 46.2709 190.967C44.2125 190.249 42.1443 189.662 40.0436 189.08C37.1545 188.209 35.5142 187.448 33.721 185.02C32.9173 183.417 33.0842 182.093 33.1032 180.308C33.1085 179.672 33.1137 179.037 33.1191 178.382C33.1259 177.893 33.1326 177.404 33.1396 176.9C33.5233 176.9 33.907 176.9 34.3023 176.9C34.3728 177.431 34.4432 177.962 34.5158 178.509C34.6133 179.198 34.7107 179.887 34.8111 180.598C34.9055 181.284 34.9999 181.97 35.0972 182.677C35.3083 184.496 35.3083 184.496 36.6279 185.6C36.6425 184.931 36.6571 184.261 36.6721 183.572C36.7273 181.06 36.7854 178.549 36.8444 176.038C36.8694 174.957 36.8936 173.875 36.9171 172.793C37.1679 161.263 37.1679 161.263 37.7907 156.02Z" fill="#0D3442"/>
<path d="M127.325 84.1001C127.325 84.6743 127.325 85.2485 127.325 85.8401C127.013 85.8984 126.701 85.9567 126.38 86.0168C118.509 87.9024 111.767 93.574 105.409 98.3418C103.648 99.6583 101.841 100.879 99.9992 102.08C100.782 103.641 101.909 103.97 103.44 104.697C105.839 105.258 107.759 104.608 109.876 103.448C110.473 103.045 111.069 102.642 111.684 102.227C112.008 102.012 112.331 101.797 112.665 101.575C113.691 100.891 114.713 100.199 115.733 99.5063C116.757 98.8167 117.781 98.1288 118.808 97.4439C119.739 96.8222 120.666 96.1951 121.593 95.5677C123.958 94.1054 125.466 93.3442 128.27 93.4888C130.261 93.9671 130.685 94.2526 131.976 95.7001C131.546 95.653 131.117 95.6059 130.675 95.5574C125.372 95.228 122.796 96.7196 118.604 99.7601C116.86 100.927 115.097 102.065 113.335 103.204C112.898 103.492 112.462 103.78 112.012 104.077C111.397 104.478 111.397 104.478 110.771 104.887C110.404 105.129 110.036 105.37 109.658 105.619C108.72 106.14 108.72 106.14 107.557 106.14C107.941 106.906 108.325 107.671 108.72 108.46C106.344 108.098 104.475 107.308 102.325 106.249C95.463 103.045 88.8653 101.647 81.3945 100.92C81.3945 100.537 81.3945 100.154 81.3945 99.7601C81.9679 99.8285 81.9679 99.8285 82.5528 99.8983C88.4246 100.049 91.9264 96.9858 96.3382 93.5523C97.9716 92.2856 99.6145 91.0568 101.335 89.9092C101.693 89.6686 102.052 89.428 102.422 89.1802C103.771 88.6231 104.462 88.8431 105.813 89.3201C105.438 89.5745 105.063 89.829 104.676 90.0911C102.971 91.2473 101.267 92.4043 99.5631 93.5613C98.9726 93.9617 98.382 94.3621 97.7735 94.7746C97.2039 95.1615 96.6344 95.5484 96.0475 95.9471C95.262 96.4801 95.262 96.4801 94.4606 97.0239C93.1829 97.909 91.9338 98.8195 90.6969 99.7601C91.8511 100.171 93.0161 100.553 94.1852 100.92C94.7076 101.091 95.23 101.261 95.7682 101.437C98.6023 101.531 100.03 100.168 102.216 98.4913C103.092 97.8478 103.969 97.2043 104.846 96.561C105.293 96.2272 105.74 95.8934 106.201 95.5494C121.587 84.1001 121.587 84.1001 127.325 84.1001Z" fill="#FBB9A1"/>
<path d="M106.395 34.2199C106.395 34.6027 106.395 34.9855 106.395 35.3799C104.692 35.9464 103.383 36.0988 101.6 36.2111C100.969 36.252 100.337 36.2928 99.6862 36.3349C98.6476 36.3983 98.6476 36.3983 97.588 36.4629C96.86 36.5089 96.132 36.555 95.3819 36.6024C93.3881 36.7275 91.3942 36.8502 89.4001 36.9715C88.156 37.0473 86.9119 37.124 85.6678 37.201C72.9712 37.9852 60.271 38.6766 47.5653 39.2949C47.1789 39.3138 46.7924 39.3327 46.3943 39.3521C43.8331 39.4769 41.2718 39.5996 38.7104 39.7209C38.0677 39.7516 37.425 39.7823 36.7628 39.8139C35.8763 39.8551 35.8763 39.8551 34.9718 39.897C34.4604 39.9209 33.9491 39.9449 33.4222 39.9695C31.9701 40.0202 30.5226 40.0288 29.0697 40.0199C28.8778 39.4457 28.686 38.8715 28.4883 38.2799C28.9422 38.2547 29.3961 38.2295 29.8637 38.2036C35.2171 37.9062 40.5705 37.6075 45.9238 37.3082C47.3419 37.229 48.7599 37.1499 50.178 37.0707C59.6419 36.5423 69.1054 36.0115 78.5655 35.4185C79.2199 35.3776 79.8742 35.3367 80.5484 35.2945C83.5335 35.1072 86.5183 34.9166 89.5029 34.7211C95.1458 34.3584 100.738 34.1133 106.395 34.2199Z" fill="#FDFDFD"/>
<path d="M100.581 153.7C101.157 153.892 101.733 154.083 102.326 154.28C102.354 157.449 102.375 160.617 102.389 163.785C102.395 164.863 102.403 165.94 102.413 167.017C102.427 168.568 102.434 170.118 102.439 171.669C102.445 172.149 102.451 172.629 102.457 173.123C102.458 175.616 102.326 177.527 101.163 179.8C100.779 179.8 100.395 179.8 100 179.8C100.192 171.187 100.384 162.574 100.581 153.7Z" fill="#0F3645"/>
<path d="M41.8613 157.76C42.4369 157.76 43.0125 157.76 43.6055 157.76C43.6055 164.65 43.6055 171.541 43.6055 178.64C42.7421 178.927 42.7421 178.927 41.8613 179.22C41.8613 172.138 41.8613 165.056 41.8613 157.76Z" fill="#0E3645"/>
<path d="M61.627 112.52C66.7322 112.13 71.0762 113.047 75.2171 116.181C77.5795 118.594 79.0688 120.631 79.0688 124.12C78.6851 124.12 78.3014 124.12 77.906 124.12C77.6062 123.426 77.3065 122.732 76.9976 122.018C75.2839 118.616 72.8906 116.753 69.5848 114.949C66.9346 114.097 64.3958 113.841 61.627 113.68C61.627 113.297 61.627 112.914 61.627 112.52Z" fill="#FBB9A1"/>
<path d="M16.0027 30.9331C16.5783 31.1245 17.1538 31.3159 17.7469 31.5131C17.7469 31.8959 17.7469 32.2787 17.7469 32.6731C18.5143 32.8645 19.2817 33.0559 20.0724 33.2531C20.0724 33.8273 20.0724 34.4015 20.0724 34.9931C19.4969 34.9931 18.9213 34.9931 18.3283 34.9931C18.1364 35.7587 17.9445 36.5243 17.7469 37.3131C17.1713 37.1217 16.5957 36.9303 16.0027 36.7331C16.0027 36.3503 16.0027 35.9675 16.0027 35.5731C15.4271 35.7645 14.8515 35.9559 14.2585 36.1531C13.8748 35.9617 13.4911 35.7703 13.0957 35.5731C13.0957 34.9989 13.0957 34.4247 13.0957 33.8331C13.8631 33.6417 14.6306 33.4503 15.4213 33.2531C15.6131 32.4875 15.805 31.7219 16.0027 30.9331Z" fill="#EAF3F3"/>
<path d="M36.241 17.8462C36.8165 18.229 37.3921 18.6118 37.9851 19.0062C37.9851 19.389 37.9851 19.7718 37.9851 20.1662C38.5607 20.3576 39.1363 20.549 39.7293 20.7462C39.7293 21.3204 39.7293 21.8946 39.7293 22.4862C39.1538 22.4862 38.5782 22.4862 37.9851 22.4862C37.9851 23.2518 37.9851 24.0174 37.9851 24.8062C37.2177 24.8062 36.4503 24.8062 35.6596 24.8062C35.6596 24.232 35.6596 23.6578 35.6596 23.0662C34.8921 22.8748 34.1247 22.6834 33.334 22.4862C33.334 21.912 33.334 21.3378 33.334 20.7462C34.1014 20.7462 34.8689 20.7462 35.6596 20.7462C35.4677 20.172 35.2758 19.5978 35.0782 19.0062C35.4619 18.6234 35.8456 18.2406 36.241 17.8462Z" fill="#FDD500"/>
<path d="M120.349 27.2598C120.925 27.4512 121.5 27.6426 122.093 27.8398C122.093 28.6054 122.093 29.371 122.093 30.1598C122.861 30.3512 123.628 30.5426 124.419 30.7398C124.419 31.1226 124.419 31.5054 124.419 31.8998C124.047 31.9596 123.675 32.0194 123.292 32.081C122.897 32.2126 122.501 32.3442 122.093 32.4798C121.901 33.054 121.709 33.6282 121.512 34.2198C120.936 34.2198 120.361 34.2198 119.768 34.2198C119.768 33.6456 119.768 33.0714 119.768 32.4798C119.192 32.2884 118.616 32.097 118.023 31.8998C118.023 31.3256 118.023 30.7514 118.023 30.1598C118.599 30.1598 119.175 30.1598 119.768 30.1598C119.959 29.2028 120.151 28.2458 120.349 27.2598Z" fill="#FE98A2"/>
<path d="M81.3945 99.7598C84.0806 99.7598 86.7666 99.7598 89.5341 99.7598C89.5341 100.143 89.5341 100.525 89.5341 100.92C90.4934 100.92 91.4527 100.92 92.441 100.92C92.441 101.111 92.441 101.303 92.441 101.5C88.7957 101.308 85.1503 101.117 81.3945 100.92C81.3945 100.537 81.3945 100.154 81.3945 99.7598Z" fill="#FBB9A1"/>
<path d="M105.814 89.3201C105.065 89.8066 104.314 90.2892 103.561 90.7701C103.143 91.0393 102.725 91.3084 102.294 91.5857C101.163 92.2201 101.163 92.2201 100 92.2201C100.581 90.4801 100.581 90.4801 101.926 89.4651C103.676 88.6533 104.058 88.7674 105.814 89.3201Z" fill="#FBB9A1"/>
<path d="M99.3359 19.4971C100.103 19.4971 100.871 19.4971 101.662 19.4971C101.662 20.4541 101.662 21.4111 101.662 22.3971C100.894 22.3971 100.127 22.3971 99.3359 22.3971C99.3359 21.4401 99.3359 20.4831 99.3359 19.4971Z" fill="#EAE8E6"/>
<path d="M101.66 17.1768C102.619 17.3682 103.579 17.5596 104.567 17.7568C104.567 18.331 104.567 18.9052 104.567 19.4968C103.608 19.4968 102.649 19.4968 101.66 19.4968C101.66 18.7312 101.66 17.9656 101.66 17.1768Z" fill="#ECE8E6"/>
<path d="M99.3359 14.2769C100.103 14.4683 100.871 14.6597 101.662 14.8569C101.47 15.8139 101.278 16.7709 101.08 17.7569C100.505 17.5655 99.929 17.3741 99.3359 17.1769C99.3359 16.2199 99.3359 15.2629 99.3359 14.2769Z" fill="#ECEAE6"/>
<path d="M96.4277 17.7568C97.387 17.7568 98.3463 17.7568 99.3347 17.7568C99.1429 18.5224 98.951 19.288 98.7533 20.0768C97.9859 19.8854 97.2184 19.694 96.4277 19.4968C96.4277 18.9226 96.4277 18.3484 96.4277 17.7568Z" fill="#EAE8E5"/>
<path d="M117.104 64.5469C117.97 64.5469 118.835 64.5469 119.727 64.5469C120.303 66.8529 120.88 69.1589 121.475 71.5347C123.494 71.823 125.513 72.1112 127.593 72.4082C127.881 73.5612 128.17 74.7142 128.467 75.9021C127.007 76.3075 127.007 76.3075 125.517 76.721C123.786 77.3519 123.786 77.3519 122.349 78.5226C121.286 81.0927 120.884 83.627 120.601 86.3839C119.447 86.3839 118.293 86.3839 117.104 86.3839C116.912 85.5631 116.912 85.5631 116.715 84.7257C116.113 82.5343 115.499 80.5578 114.482 78.5226C111.835 77.0548 111.835 77.0548 109.238 76.7756C109.238 76.1991 109.238 75.6226 109.238 75.0287C110.23 74.5783 111.221 74.1279 112.243 73.6638C113.959 72.7727 113.959 72.7727 115.356 71.5347C116.212 68.3956 116.212 68.3956 116.23 65.4204C116.519 65.1321 116.807 64.8439 117.104 64.5469ZM117.978 74.1552C117.402 74.7317 116.825 75.3082 116.23 75.9021C117.096 76.1904 117.961 76.4786 118.853 76.7756C118.853 75.9109 118.853 75.0461 118.853 74.1552C118.564 74.1552 118.276 74.1552 117.978 74.1552Z" fill="#8A064F"/>
<path d="M17.4658 78.5229C18.0427 78.5229 18.6195 78.5229 19.2138 78.5229C20.6341 80.925 20.6341 80.925 21.8359 83.7638C21.1804 85.7292 21.1804 85.7292 20.0879 87.2578C19.7994 87.8343 19.511 88.4108 19.2138 89.0047C17.0344 87.9532 15.1222 86.861 13.0957 85.5108C13.3841 84.6461 13.6726 83.7813 13.9697 82.8904C14.5466 82.8904 15.1234 82.8904 15.7178 82.8904C16.2946 81.4491 16.8715 80.0079 17.4658 78.5229Z" fill="#E34585"/>
<path d="M117.104 9.51807C117.969 9.80632 118.834 10.0946 119.726 10.3915C119.835 15.4141 119.835 15.4141 118.852 17.3794C117.698 17.0912 116.544 16.8029 115.355 16.5059C116.12 10.5007 116.12 10.5007 117.104 9.51807Z" fill="#FE98BE"/>
<path d="M114.482 17.3791C114.771 18.5321 115.059 19.6851 115.356 20.8731C109.457 21.8557 109.457 21.8557 107.49 20.8731C107.49 20.0083 107.49 19.1436 107.49 18.2526C109.858 17.0696 111.868 17.3224 114.482 17.3791Z" fill="#FEA2B8"/>
<path d="M116.229 21.7466C118.032 22.1287 118.032 22.1287 119.725 22.6201C119.725 24.0613 119.725 25.5026 119.725 26.9875C118.032 27.4788 118.032 27.4788 116.229 27.861C115.355 26.9875 115.355 26.9875 115.246 24.8038C115.355 22.6201 115.355 22.6201 116.229 21.7466Z" fill="#FEA9BF"/>
<path d="M120.601 17.3789C122.62 17.6672 124.639 17.9554 126.719 18.2524C126.719 19.1171 126.719 19.9819 126.719 20.8728C123.552 21.9278 122.662 21.3472 119.727 19.9994C120.015 19.1346 120.303 18.2699 120.601 17.3789Z" fill="#FEA3B9"/>
<path d="M23.4932 29.7437C25.2237 30.176 25.2237 30.176 26.9892 30.6171C26.9892 31.7701 26.9892 32.9231 26.9892 34.1111C25.8355 34.1111 24.6818 34.1111 23.4932 34.1111C23.2047 33.2463 22.9163 32.3816 22.6191 31.4906C22.9076 30.9141 23.196 30.3376 23.4932 29.7437Z" fill="#F75C97"/>
<path d="M148.567 43.5835C149.433 43.8717 150.298 44.16 151.189 44.457C151.189 45.61 151.189 46.763 151.189 47.9509C150.036 47.6627 148.882 47.3744 147.693 47.0774C147.982 45.9244 148.27 44.7714 148.567 43.5835Z" fill="#FE00FE"/>
<path d="M139.827 40.0898C140.692 40.0898 141.558 40.0898 142.449 40.0898C142.161 41.5311 141.872 42.9723 141.575 44.4573C140.71 44.169 139.845 43.8808 138.953 43.5838C139.242 42.4308 139.53 41.2778 139.827 40.0898Z" fill="#DD4630"/>
<path d="M23.8086 19.0361C24.9623 19.0361 26.116 19.0361 27.3047 19.0361C27.3047 20.1891 27.3047 21.3421 27.3047 22.5301C26.151 22.5301 24.9973 22.5301 23.8086 22.5301C23.8086 21.3771 23.8086 20.2241 23.8086 19.0361Z" fill="#FE00FE"/>
</g>
<defs>
<clipPath id="clip0_11704_4404">
<rect width="150" height="232" fill="white"/>
</clipPath>
</defs>
</svg>
