<svg width="377" height="288" viewBox="0 0 377 288" fill="none" xmlns="http://www.w3.org/2000/svg">
<rect x="96.5" y="63.5" width="142" height="174" stroke="#111111" stroke-dasharray="7 7"/>
<rect x="234.5" y="59.5" width="10" height="10" fill="white" stroke="#111111"/>
<rect x="234.5" y="232.5" width="10" height="10" fill="#9AACEF" stroke="#111111"/>
<rect x="91.5" y="59.5" width="10" height="10" fill="#9AACEF" stroke="#111111"/>
<rect x="91.5" y="232.5" width="10" height="10" fill="white" stroke="#111111"/>
<rect x="29.5" y="-1.5" width="163" height="114" fill="white" stroke="#111111"/>
<path d="M89.5204 12.3974C89.6613 11.9191 90.3387 11.9191 90.4796 12.3974L103.014 54.9436C103.312 55.9548 104.532 56.3513 105.367 55.7084L140.516 28.6551C140.911 28.351 141.459 28.7492 141.292 29.2189L126.424 71.0069C126.071 72 126.825 73.0383 127.879 73.0091L172.216 71.7822C172.714 71.7684 172.924 72.4127 172.512 72.6945L135.922 97.7626C135.052 98.3583 135.052 99.6417 135.922 100.237L172.512 125.306C172.924 125.587 172.714 126.232 172.216 126.218L127.879 124.991C126.825 124.962 126.071 126 126.424 126.993L141.292 168.781C141.459 169.251 140.911 169.649 140.516 169.345L105.367 142.292C104.532 141.649 103.312 142.045 103.014 143.056L90.4796 185.603C90.3387 186.081 89.6613 186.081 89.5204 185.603L76.9863 143.056C76.6884 142.045 75.4679 141.649 74.6326 142.292L39.4843 169.345C39.0892 169.649 38.5411 169.251 38.7082 168.781L53.576 126.993C53.9294 126 53.1751 124.962 52.1213 124.991L7.78424 126.218C7.28583 126.232 7.0765 125.587 7.48782 125.306L44.0784 100.237C44.9481 99.6417 44.9481 98.3583 44.0784 97.7626L7.48782 72.6945C7.07649 72.4127 7.28583 71.7684 7.78424 71.7822L52.1213 73.0091C53.1751 73.0383 53.9294 72 53.576 71.0069L38.7082 29.2189C38.5411 28.7492 39.0892 28.351 39.4843 28.6551L74.6326 55.7084C75.4679 56.3514 76.6885 55.9548 76.9863 54.9436L89.5204 12.3974Z" fill="#111111" stroke="#111111"/>
<path d="M108.751 40.6286L118.5 65H96V45C96 43 98 40 101 40H107.823C108.232 40 108.6 40.249 108.751 40.6286Z" fill="white" stroke="#111111"/>
<path d="M101 40.0002H108.366C108.455 40.0002 108.545 39.9883 108.63 39.9634C114.015 38.3891 114.936 31.4843 107 29.5002C101 28.5002 98.2101 31.1718 94.5 35.5002C91.5 39.0002 90 39.0002 86.5 38.0002C81.5 37.0002 78.5 40.0002 78.5 42.5002V47.1215C78.5 47.6821 78.2647 48.2159 77.8514 48.5947L72.5 53.5002L96 65.0002V45.0002C96 43.0002 98 40.0002 101 40.0002Z" fill="#111111" stroke="#111111"/>
<path d="M43.5 95.4999C39.4087 101.637 38.3333 108.333 38 112.5H172C170.833 110 164.993 99.9848 155 77.9999C142.5 50.4998 125 57.4998 115.5 61.9998C112.751 63.3018 104.359 66.4998 98 60.9999C79.5 44.9999 56 54.4998 51 74.9999C50.3959 77.4768 46.5 90.9999 43.5 95.4999Z" fill="#9AACEF" stroke="#111111"/>
<path d="M131.683 78.2785C131.836 77.894 131.649 77.4575 131.265 77.3036C130.88 77.1498 130.444 77.3369 130.29 77.7215L131.683 78.2785ZM130.997 92.5L131.715 92.2844L131.714 92.2794L130.997 92.5ZM130.29 77.7215C129.229 80.3727 128.227 86.0488 130.28 92.7206L131.714 92.2794C129.766 85.9512 130.743 80.6273 131.683 78.2785L130.29 77.7215ZM130.278 92.7156L136.282 112.716L137.718 112.284L131.715 92.2844L130.278 92.7156Z" fill="#111111"/>
<path d="M77.3483 79.8722C77.1428 79.5126 77.2676 79.0544 77.6273 78.8489C77.9869 78.6433 78.445 78.7682 78.6506 79.1278L77.3483 79.8722ZM79.4983 93.5L78.7544 93.4046L78.7549 93.401L79.4983 93.5ZM78.6506 79.1278C79.6908 80.9476 80.355 82.6688 80.6184 84.9126C80.8789 87.1312 80.7436 89.8298 80.2417 93.599L78.7549 93.401C79.2516 89.6702 79.3671 87.1188 79.1287 85.0874C78.8931 83.0812 78.3087 81.5524 77.3483 79.8722L78.6506 79.1278ZM80.2422 93.5954L77.742 113.095L76.2542 112.905L78.7544 93.4046L80.2422 93.5954Z" fill="#111111"/>
<path d="M100.5 46C101.5 43.5 104.5 43.5 106 46M112 49.5H104.843C104.078 49.5 103.42 50.0835 103.545 50.8376C103.797 52.3651 104.788 54.1987 107.5 54.5H114L112 49.5Z" stroke="#111111" stroke-linecap="round"/>
<rect x="146.5" y="76.5" width="37" height="36" fill="#9AACEF" stroke="#111111"/>
<rect x="143.5" y="76.5" width="3" height="36" fill="white" stroke="#111111"/>
<path d="M145.5 65.5V76H176.5V39.5C175.5 35.5 171 35.5 170 39.5C169 35.5 163.5 35.5 163 39.5C162 35.5 157 35.5 156 39.5C154.184 35.8696 150.31 35.5341 148.114 38.4937C147.652 39.117 147.5 39.904 147.5 40.6801V48.5C142.3 48.9 142 53 143 56L144.5 59.5C145.3 60.7 145.5 64 145.5 65.5Z" fill="white"/>
<path d="M145.5 76H145L145.5 76.5V76ZM144.5 59.5L144.04 59.697L144.084 59.7774L144.5 59.5ZM143 56L142.526 56.1581L142.54 56.197L143 56ZM148.114 38.4937L148.516 38.7916L148.114 38.4937ZM176.5 39.5H177L176.985 39.3787L176.5 39.5ZM176.5 76V76.5L177 76H176.5ZM154 59L153.543 59.2031L153.607 59.3475L153.743 59.4287L154 59ZM161.502 69.0453C161.527 69.3203 161.77 69.5229 162.045 69.4979C162.32 69.4729 162.523 69.2297 162.498 68.9547L161.502 69.0453ZM155.5 52C155.5 52.2761 155.723 52.5 156 52.5C156.276 52.5 156.5 52.2761 156.5 52H155.5ZM162.5 52C162.5 52.2761 162.723 52.5 163 52.5C163.276 52.5 163.5 52.2761 163.5 52H162.5ZM169.5 52C169.5 52.2761 169.723 52.5 170 52.5C170.276 52.5 170.5 52.2761 170.5 52H169.5ZM146 76V65.5H145V76H146ZM146 65.5C146 64.733 145.949 63.5112 145.796 62.3235C145.719 61.7296 145.616 61.1352 145.478 60.6062C145.341 60.0855 145.162 59.5913 144.916 59.2227L144.084 59.7774C144.238 60.0087 144.384 60.377 144.51 60.8594C144.634 61.3335 144.731 61.8829 144.804 62.4515C144.951 63.5888 145 64.767 145 65.5H146ZM144.96 59.303L143.46 55.803L142.54 56.197L144.04 59.697L144.96 59.303ZM143.474 55.8419C142.994 54.4014 142.851 52.7614 143.387 51.4662C143.901 50.2232 145.088 49.187 147.538 48.9985L147.462 48.0015C144.712 48.213 143.149 49.4268 142.463 51.0838C141.799 52.6886 142.006 54.5986 142.526 56.1581L143.474 55.8419ZM148 48.5V40.6801H147V48.5H148ZM148.516 38.7916C149.521 37.4371 150.872 36.8773 152.143 37.0224C153.416 37.1677 154.707 38.0322 155.552 39.7236L156.447 39.2764C155.477 37.3374 153.923 36.219 152.256 36.0288C150.588 35.8385 148.903 36.5908 147.713 38.1958L148.516 38.7916ZM156.485 39.6213C156.931 37.8341 158.239 37 159.5 37C160.76 37 162.068 37.8341 162.515 39.6213L163.485 39.3787C162.931 37.1659 161.239 36 159.5 36C157.76 36 156.068 37.1659 155.515 39.3787L156.485 39.6213ZM163.496 39.562C163.711 37.838 164.975 37 166.312 37C167.66 37 169.074 37.8581 169.515 39.6213L170.485 39.3787C169.925 37.1419 168.089 36 166.312 36C164.524 36 162.788 37.162 162.503 39.438L163.496 39.562ZM170.485 39.6213C170.94 37.8014 172.145 37 173.25 37C174.354 37 175.56 37.8014 176.015 39.6213L176.985 39.3787C176.44 37.1986 174.895 36 173.25 36C171.604 36 170.06 37.1986 169.515 39.3787L170.485 39.6213ZM176 39.5V76H177V39.5H176ZM176.5 75.5H145.5V76.5H176.5V75.5ZM147.5 49C148.498 49 149.218 49.3266 149.788 49.8698C150.374 50.4288 150.826 51.2405 151.222 52.2458C151.618 53.2507 151.939 54.3947 152.294 55.602C152.645 56.7972 153.028 58.0447 153.543 59.2031L154.457 58.7969C153.972 57.7053 153.605 56.5153 153.253 55.3199C152.905 54.1366 152.569 52.9368 152.153 51.8792C151.736 50.822 151.219 49.8525 150.478 49.1458C149.72 48.4234 148.752 48 147.5 48V49ZM153.743 59.4287C154.958 60.1581 156.82 61.5295 158.421 63.2528C160.032 64.9866 161.317 67.0101 161.502 69.0453L162.498 68.9547C162.283 66.5899 160.818 64.3634 159.154 62.5722C157.48 60.7705 155.542 59.3419 154.257 58.5713L153.743 59.4287ZM155.5 39.5V52H156.5V39.5H155.5ZM162.5 39.5V52H163.5V39.5H162.5ZM169.5 39.5V52H170.5V39.5H169.5ZM148 40.6801C148 39.9596 148.143 39.2948 148.516 38.7916L147.713 38.1958C147.161 38.9391 147 39.8484 147 40.6801H148Z" fill="#111111"/>
<path d="M140.5 231C140.5 214.708 153.708 201.5 170 201.5H296C306.77 201.5 315.5 210.23 315.5 221V331.5H140.5V231Z" fill="#111111" stroke="#111111"/>
<path d="M255.52 121.397C255.661 120.919 256.339 120.919 256.48 121.397L269.014 163.944C269.312 164.955 270.532 165.351 271.367 164.708L306.516 137.655C306.911 137.351 307.459 137.749 307.292 138.219L292.424 180.007C292.071 181 292.825 182.038 293.879 182.009L338.216 180.782C338.714 180.768 338.924 181.413 338.512 181.694L301.922 206.763C301.052 207.358 301.052 208.642 301.922 209.237L338.512 234.306C338.924 234.587 338.714 235.232 338.216 235.218L293.879 233.991C292.825 233.962 292.071 235 292.424 235.993L307.292 277.781C307.459 278.251 306.911 278.649 306.516 278.345L271.367 251.292C270.532 250.649 269.312 251.045 269.014 252.056L256.48 294.603C256.339 295.081 255.661 295.081 255.52 294.603L242.986 252.056C242.688 251.045 241.468 250.649 240.633 251.292L205.484 278.345C205.089 278.649 204.541 278.251 204.708 277.781L219.576 235.993C219.929 235 219.175 233.962 218.121 233.991L173.784 235.218C173.286 235.232 173.076 234.587 173.488 234.306L210.078 209.237C210.948 208.642 210.948 207.358 210.078 206.763L173.488 181.694C173.076 181.413 173.286 180.768 173.784 180.782L218.121 182.009C219.175 182.038 219.929 181 219.576 180.007L204.708 138.219C204.541 137.749 205.089 137.351 205.484 137.655L240.633 164.708C241.468 165.351 242.688 164.955 242.986 163.944L255.52 121.397Z" fill="white" stroke="#111111"/>
<path d="M261 224.5H214.5C199.3 224.5 187.833 235.833 184 241.5L153 284.5C155.667 284.833 161.943 288.386 165 294.5C168 300.5 173.5 304 177 305L170 332.5H315.5V276.5L293.5 241.5C285.5 227.5 268.5 224.333 261 224.5Z" fill="#9AACEF" stroke="#111111"/>
<path d="M243.536 178.509C243.703 178.089 244.297 178.089 244.464 178.509L247.571 186.28C247.919 187.15 248.97 187.492 249.763 186.993L256.844 182.531C257.226 182.291 257.707 182.639 257.596 183.077L255.541 191.19C255.311 192.099 255.961 192.993 256.896 193.055L265.247 193.608C265.698 193.638 265.881 194.202 265.534 194.491L259.103 199.847C258.383 200.447 258.383 201.553 259.103 202.153L265.534 207.509C265.881 207.798 265.698 208.362 265.247 208.392L256.896 208.945C255.961 209.007 255.311 209.901 255.541 210.81L257.596 218.923C257.707 219.361 257.226 219.709 256.844 219.469L249.763 215.007C248.97 214.508 247.919 214.85 247.571 215.72L244.464 223.491C244.297 223.911 243.703 223.911 243.536 223.491L240.429 215.72C240.081 214.85 239.03 214.508 238.237 215.007L231.156 219.469C230.774 219.709 230.293 219.361 230.404 218.923L232.459 210.81C232.689 209.901 232.039 209.007 231.104 208.945L222.753 208.392C222.302 208.362 222.119 207.798 222.466 207.509L228.897 202.153C229.617 201.553 229.617 200.447 228.897 199.847L222.466 194.491C222.119 194.202 222.302 193.638 222.753 193.608L231.104 193.055C232.039 192.993 232.689 192.099 232.459 191.19L230.404 183.077C230.293 182.639 230.774 182.291 231.156 182.531L238.237 186.993C239.03 187.492 240.081 187.15 240.429 186.28L243.536 178.509Z" fill="#111111" stroke="#111111"/>
<path d="M272.5 304C271.167 305.167 268.2 308.6 267 313C263.833 301 258 279 257.5 277C257.116 275.466 254 266.5 258.5 259M177 305L186 269.5C186.833 265.333 190 256.1 196 252.5" stroke="#111111" stroke-linecap="round"/>
<path d="M157.002 295.5C155.502 293 153 289.5 153.002 285C155.002 284.5 159.731 287.174 163.002 291.353L157.002 295.5Z" fill="white" stroke="#111111"/>
<path d="M300 280.5C295.6 281.7 280.167 296.333 273 303.5L276.5 310.5C292 340 326 338 338.5 310.5L355.5 245C359 241 363 235 362 225.5L374 217C379 213 373 205 366.5 209.5L357 216.5L360 204C363 195.5 354.5 192 351 197C350.5 192 343 190 340.5 195C340 189.5 331 187.5 328.5 194.5L322.5 216.5L312.5 207C307.5 203 300.5 209.5 305 215L311.5 221C310.3 223.8 312.667 228.833 314 231L300 280.5Z" fill="white"/>
<path d="M300 280.5C295.6 281.7 280.167 296.333 273 303.5L276.5 310.5C292 340 326 338 338.5 310.5L355.5 245C359 241 363 235 362 225.5L374 217C379 213 373 205 366.5 209.5L357 216.5L360 204C363 195.5 354.5 192 351 197M300 280.5L314 231C312.667 228.833 310.3 223.8 311.5 221L305 215C300.5 209.5 307.5 203 312.5 207L322.5 216.5L328.5 194.5C331 187.5 340 189.5 340.5 195M300 280.5L297 290.5M340.5 195C343 190 350.5 192 351 197M340.5 195C340 200.5 337 210 336.5 211.5M351 197C350.667 201.666 347.5 211 346.5 214" stroke="#111111" stroke-linecap="round" stroke-linejoin="bevel"/>
<circle cx="218.5" cy="283.5" r="20" fill="white" stroke="#111111"/>
<path d="M222.03 287.006L221.261 286.607L221.3 287.473L222.659 317.856L222.697 318.721L223.427 318.255L249.06 301.886L249.79 301.42L249.022 301.021L222.03 287.006Z" fill="#9AACEF" stroke="#111111"/>
<path d="M251 203V224.5H220L235 199.5C239.5 191.5 251 194 251 203Z" fill="white" stroke="#111111"/>
<path d="M237 206C238.833 204.333 242.8 202.4 244 208M228 211C230.5 212 233 212.5 237 211.5C240 211 244 215.5 236.5 218.5C232.5 219.5 227 219 224.5 217.5L228 211Z" stroke="#111111"/>
<path d="M251.001 203C251.001 195.746 243.53 192.715 238.275 196C239.55 202 250.501 203 251.001 203Z" fill="#111111" stroke="#111111"/>
<rect x="56.6821" y="303.292" width="23.5973" height="4" rx="2" transform="rotate(-116.014 56.6821 303.292)" fill="white" stroke="#111111"/>
<rect x="316.447" y="78.1742" width="36.4752" height="4" rx="2" transform="rotate(-57.7973 316.447 78.1742)" fill="white" stroke="#111111"/>
<path d="M352.638 128.927L351.647 128.939L350.086 141.741L337.935 143.339L337.909 144.326L350.085 146.568L351.647 159.062L352.637 159.074L354.514 146.56L365.103 144.324L365.075 143.34L354.513 141.747L352.638 128.927Z" fill="white" stroke="#111111" stroke-linecap="round" stroke-linejoin="round"/>
<path d="M314.842 23.7988C319.983 22.3387 324.031 18.2893 325.559 13.1814L325.688 13.7232C326.883 18.7428 330.807 22.6417 335.803 23.8209C330.699 25.1176 326.696 29.1837 325.54 34.3457C324.03 29.2373 320.003 25.2544 314.867 23.8059L314.842 23.7988Z" fill="white" stroke="#111111" stroke-linejoin="round"/>
<circle cx="25" cy="271" r="3.5" fill="#111111" stroke="#111111"/>
<circle cx="127" cy="209" r="3.5" fill="white" stroke="#111111"/>
<circle cx="204.5" cy="125.5" r="4" fill="white" stroke="#111111"/>
<circle cx="353.5" cy="37.4995" r="2" fill="white" stroke="#111111"/>
</svg>
