<svg width="432" height="306" viewBox="0 0 432 306" fill="none" xmlns="http://www.w3.org/2000/svg">
<g clip-path="url(#clip0_11576_3619)">
<rect width="432" height="306" fill="#C1E693"/>
<g clip-path="url(#clip1_11576_3619)">
<path d="M488.448 364.152C528.135 333.923 547.091 283.127 535.224 234.67C534.929 233.466 534.618 232.264 534.29 231.066C526.423 202.302 506.959 174.965 478.59 165.775C454.771 158.058 428.771 163.992 403.921 160.923C355.139 154.899 317.32 115.429 290.71 74.1038C264.099 32.7783 243.648 -13.4795 208.288 -47.6204C150.003 -103.896 54.9262 -116.012 -17.3386 -79.3808C-89.6033 -42.7496 -135.635 38.5196 -133.672 119.514C-131.709 200.509 -83.6257 277.946 -13.7971 319.031C11.8551 334.124 41.5243 344.817 71.0512 341.075C96.6713 337.829 119.95 324.063 145.45 319.976C185.541 313.55 225.377 331.677 260.052 352.799C294.728 373.922 328.223 398.959 367.627 408.752C405.888 418.26 453.29 390.93 488.448 364.152Z" fill="#F2F2F2"/>
<path d="M431.425 -77.68C430.555 -78.26 429.675 -78.81 428.805 -79.37C403.656 -95.4542 376.701 -108.521 348.495 -118.3L341.955 -28.08H300.495V-131.47C297.885 -132.01 295.255 -132.52 292.625 -133V-28.08H243.355C216.231 -28.08 190.219 -38.8548 171.039 -58.0341C151.86 -77.2135 141.085 -103.226 141.085 -130.35C138.445 -129.78 135.825 -129.17 133.205 -128.52V-28.08H93.0752L86.8452 -114.11C57.8598 -102.994 30.3423 -88.3752 4.90515 -70.58C4.46515 -70.28 4.02515 -69.97 3.59515 -69.67C1.38515 -68.12 -0.794844 -66.54 -2.96484 -64.94V279.25H115.305L113.215 250.3L101.715 91.35H333.305L321.805 250.3L319.715 279.25H436.675V-74.2C434.935 -75.38 433.185 -76.54 431.425 -77.68ZM133.205 65.1H99.8152L93.6452 -20.2H133.205V65.1ZM292.625 65.1H236.545V63.41C236.545 62.5976 236.385 61.7931 236.074 61.0427C235.763 60.2922 235.307 59.6105 234.732 59.0365C234.157 58.4625 233.474 58.0075 232.723 57.6975C231.972 57.3875 231.168 57.2287 230.355 57.23H205.975C205.164 57.2297 204.36 57.3893 203.61 57.6998C202.86 58.0102 202.179 58.4655 201.605 59.0394C201.031 59.6133 200.575 60.2947 200.265 61.0446C199.955 61.7946 199.795 62.5983 199.795 63.41V65.1H141.085V-20.2H292.625V65.1ZM300.495 65.1V-20.2H341.385L335.215 65.1H300.495Z" fill="#3F3D56"/>
<path d="M-177 301.291C-168.313 311.584 -158.916 321.258 -148.88 330.241L581.7 331.241C591.736 322.258 601.133 312.584 609.82 302.291L-177 301.291Z" fill="#3F3D56"/>
<path d="M318.43 208.591V294.295C318.431 295.387 318.865 296.435 319.637 297.207C320.409 297.979 321.457 298.414 322.549 298.414H449.553C450.645 298.414 451.693 297.979 452.465 297.207C453.237 296.435 453.671 295.387 453.672 294.295V208.591C453.67 207.5 453.235 206.454 452.463 205.683C451.691 204.912 450.644 204.478 449.553 204.477H322.549C321.457 204.478 320.411 204.912 319.639 205.683C318.867 206.454 318.432 207.5 318.43 208.591Z" fill="#3F3D56"/>
<path d="M321.41 209.658V293.238C321.411 293.822 321.643 294.381 322.056 294.794C322.469 295.206 323.028 295.438 323.612 295.439H448.497C449.081 295.438 449.64 295.206 450.053 294.794C450.465 294.381 450.697 293.822 450.698 293.238V209.658C450.698 209.073 450.467 208.513 450.054 208.099C449.641 207.686 449.081 207.453 448.497 207.452H323.612C323.027 207.453 322.467 207.686 322.055 208.099C321.642 208.513 321.41 209.073 321.41 209.658Z" fill="#5F7FF8"/>
<path d="M315.774 311.01C316.006 311.301 316.302 311.537 316.639 311.698C316.975 311.859 317.344 311.942 317.717 311.94H453.709C454.081 311.939 454.448 311.856 454.784 311.696C455.119 311.535 455.415 311.302 455.649 311.014C455.884 310.725 456.051 310.387 456.138 310.026C456.226 309.664 456.231 309.288 456.155 308.924L454.044 298.897C453.957 298.488 453.768 298.107 453.496 297.79C453.224 297.472 452.877 297.228 452.486 297.079C452.203 296.968 451.902 296.911 451.598 296.911H319.82C319.516 296.911 319.215 296.968 318.932 297.079C318.541 297.228 318.194 297.472 317.922 297.79C317.649 298.107 317.461 298.488 317.374 298.897L315.263 308.924C315.187 309.288 315.194 309.664 315.283 310.025C315.371 310.385 315.539 310.722 315.774 311.01Z" fill="#2F2E41"/>
<path d="M430.179 301.23H433.391C433.66 301.23 433.879 301.012 433.879 300.742V299.206C433.879 298.936 433.66 298.717 433.391 298.717H430.179C429.909 298.717 429.69 298.936 429.69 299.206V300.742C429.69 301.012 429.909 301.23 430.179 301.23Z" fill="#3F3D56"/>
<path d="M421.802 301.23H425.014C425.283 301.23 425.502 301.012 425.502 300.742V299.206C425.502 298.936 425.283 298.717 425.014 298.717H421.802C421.532 298.717 421.313 298.936 421.313 299.206V300.742C421.313 301.012 421.532 301.23 421.802 301.23Z" fill="#3F3D56"/>
<path d="M413.425 301.23H416.637C416.906 301.23 417.125 301.012 417.125 300.742V299.206C417.125 298.936 416.906 298.717 416.637 298.717H413.425C413.155 298.717 412.937 298.936 412.937 299.206V300.742C412.937 301.012 413.155 301.23 413.425 301.23Z" fill="#3F3D56"/>
<path d="M405.048 301.23H408.26C408.529 301.23 408.748 301.012 408.748 300.742V299.206C408.748 298.936 408.529 298.717 408.26 298.717H405.048C404.778 298.717 404.56 298.936 404.56 299.206V300.742C404.56 301.012 404.778 301.23 405.048 301.23Z" fill="#3F3D56"/>
<path d="M396.671 301.23H399.883C400.153 301.23 400.371 301.012 400.371 300.742V299.206C400.371 298.936 400.153 298.717 399.883 298.717H396.671C396.401 298.717 396.183 298.936 396.183 299.206V300.742C396.183 301.012 396.401 301.23 396.671 301.23Z" fill="#3F3D56"/>
<path d="M388.294 301.23H391.506C391.776 301.23 391.994 301.012 391.994 300.742V299.206C391.994 298.936 391.776 298.717 391.506 298.717H388.294C388.024 298.717 387.806 298.936 387.806 299.206V300.742C387.806 301.012 388.024 301.23 388.294 301.23Z" fill="#3F3D56"/>
<path d="M379.917 301.23H383.129C383.399 301.23 383.617 301.012 383.617 300.742V299.206C383.617 298.936 383.399 298.717 383.129 298.717H379.917C379.647 298.717 379.429 298.936 379.429 299.206V300.742C379.429 301.012 379.647 301.23 379.917 301.23Z" fill="#3F3D56"/>
<path d="M371.54 301.23H374.752C375.022 301.23 375.24 301.012 375.24 300.742V299.206C375.24 298.936 375.022 298.717 374.752 298.717H371.54C371.27 298.717 371.052 298.936 371.052 299.206V300.742C371.052 301.012 371.27 301.23 371.54 301.23Z" fill="#3F3D56"/>
<path d="M363.163 301.23H366.375C366.645 301.23 366.863 301.012 366.863 300.742V299.206C366.863 298.936 366.645 298.717 366.375 298.717H363.163C362.893 298.717 362.675 298.936 362.675 299.206V300.742C362.675 301.012 362.893 301.23 363.163 301.23Z" fill="#3F3D56"/>
<path d="M354.786 301.23H357.998C358.268 301.23 358.486 301.012 358.486 300.742V299.206C358.486 298.936 358.268 298.717 357.998 298.717H354.786C354.516 298.717 354.298 298.936 354.298 299.206V300.742C354.298 301.012 354.516 301.23 354.786 301.23Z" fill="#3F3D56"/>
<path d="M346.409 301.23H349.621C349.891 301.23 350.109 301.012 350.109 300.742V299.206C350.109 298.936 349.891 298.717 349.621 298.717H346.409C346.139 298.717 345.921 298.936 345.921 299.206V300.742C345.921 301.012 346.139 301.23 346.409 301.23Z" fill="#3F3D56"/>
<path d="M338.032 301.23H341.244C341.514 301.23 341.732 301.012 341.732 300.742V299.206C341.732 298.936 341.514 298.717 341.244 298.717H338.032C337.762 298.717 337.544 298.936 337.544 299.206V300.742C337.544 301.012 337.762 301.23 338.032 301.23Z" fill="#3F3D56"/>
<path d="M329.655 301.23H332.867C333.137 301.23 333.355 301.012 333.355 300.742V299.206C333.355 298.936 333.137 298.717 332.867 298.717H329.655C329.386 298.717 329.167 298.936 329.167 299.206V300.742C329.167 301.012 329.386 301.23 329.655 301.23Z" fill="#3F3D56"/>
<path d="M321.276 301.23H324.488C324.758 301.23 324.977 301.012 324.977 300.742V299.206C324.977 298.936 324.758 298.717 324.488 298.717H321.276C321.007 298.717 320.788 298.936 320.788 299.206V300.742C320.788 301.012 321.007 301.23 321.276 301.23Z" fill="#3F3D56"/>
<path d="M430.276 305.419H433.488C433.758 305.419 433.977 305.2 433.977 304.931V303.394C433.977 303.124 433.758 302.906 433.488 302.906H430.276C430.007 302.906 429.788 303.124 429.788 303.394V304.931C429.788 305.2 430.007 305.419 430.276 305.419Z" fill="#3F3D56"/>
<path d="M421.899 305.419H425.111C425.381 305.419 425.6 305.2 425.6 304.931V303.394C425.6 303.124 425.381 302.906 425.111 302.906H421.899C421.63 302.906 421.411 303.124 421.411 303.394V304.931C421.411 305.2 421.63 305.419 421.899 305.419Z" fill="#3F3D56"/>
<path d="M413.522 305.419H416.734C417.004 305.419 417.223 305.2 417.223 304.931V303.394C417.223 303.124 417.004 302.906 416.734 302.906H413.522C413.253 302.906 413.034 303.124 413.034 303.394V304.931C413.034 305.2 413.253 305.419 413.522 305.419Z" fill="#3F3D56"/>
<path d="M405.145 305.419H408.358C408.627 305.419 408.846 305.2 408.846 304.931V303.394C408.846 303.124 408.627 302.906 408.358 302.906H405.145C404.876 302.906 404.657 303.124 404.657 303.394V304.931C404.657 305.2 404.876 305.419 405.145 305.419Z" fill="#3F3D56"/>
<path d="M396.768 305.419H399.981C400.25 305.419 400.469 305.2 400.469 304.931V303.394C400.469 303.124 400.25 302.906 399.981 302.906H396.768C396.499 302.906 396.28 303.124 396.28 303.394V304.931C396.28 305.2 396.499 305.419 396.768 305.419Z" fill="#3F3D56"/>
<path d="M388.391 305.419H391.604C391.873 305.419 392.092 305.2 392.092 304.931V303.394C392.092 303.124 391.873 302.906 391.604 302.906H388.391C388.122 302.906 387.903 303.124 387.903 303.394V304.931C387.903 305.2 388.122 305.419 388.391 305.419Z" fill="#3F3D56"/>
<path d="M380.015 305.419H383.227C383.496 305.419 383.715 305.2 383.715 304.931V303.394C383.715 303.124 383.496 302.906 383.227 302.906H380.015C379.745 302.906 379.526 303.124 379.526 303.394V304.931C379.526 305.2 379.745 305.419 380.015 305.419Z" fill="#3F3D56"/>
<path d="M371.638 305.419H374.85C375.119 305.419 375.338 305.2 375.338 304.931V303.394C375.338 303.124 375.119 302.906 374.85 302.906H371.638C371.368 302.906 371.149 303.124 371.149 303.394V304.931C371.149 305.2 371.368 305.419 371.638 305.419Z" fill="#3F3D56"/>
<path d="M363.261 305.419H366.473C366.742 305.419 366.961 305.2 366.961 304.931V303.394C366.961 303.124 366.742 302.906 366.473 302.906H363.261C362.991 302.906 362.772 303.124 362.772 303.394V304.931C362.772 305.2 362.991 305.419 363.261 305.419Z" fill="#3F3D56"/>
<path d="M354.884 305.419H358.096C358.365 305.419 358.584 305.2 358.584 304.931V303.394C358.584 303.124 358.365 302.906 358.096 302.906H354.884C354.614 302.906 354.396 303.124 354.396 303.394V304.931C354.396 305.2 354.614 305.419 354.884 305.419Z" fill="#3F3D56"/>
<path d="M346.507 305.419H349.719C349.988 305.419 350.207 305.2 350.207 304.931V303.394C350.207 303.124 349.988 302.906 349.719 302.906H346.507C346.237 302.906 346.019 303.124 346.019 303.394V304.931C346.019 305.2 346.237 305.419 346.507 305.419Z" fill="#3F3D56"/>
<path d="M338.13 305.419H341.342C341.611 305.419 341.83 305.2 341.83 304.931V303.394C341.83 303.124 341.611 302.906 341.342 302.906H338.13C337.86 302.906 337.642 303.124 337.642 303.394V304.931C337.642 305.2 337.86 305.419 338.13 305.419Z" fill="#3F3D56"/>
<path d="M329.753 305.419H332.965C333.235 305.419 333.453 305.2 333.453 304.931V303.394C333.453 303.124 333.235 302.906 332.965 302.906H329.753C329.483 302.906 329.265 303.124 329.265 303.394V304.931C329.265 305.2 329.483 305.419 329.753 305.419Z" fill="#3F3D56"/>
<path d="M321.376 305.419H324.588C324.858 305.419 325.076 305.2 325.076 304.931V303.394C325.076 303.124 324.858 302.906 324.588 302.906H321.376C321.106 302.906 320.888 303.124 320.888 303.394V304.931C320.888 305.2 321.106 305.419 321.376 305.419Z" fill="#3F3D56"/>
<path d="M343.036 225.737H340.192C339.33 225.737 338.631 226.436 338.631 227.298C338.631 228.16 339.33 228.859 340.192 228.859H343.036C343.898 228.859 344.597 228.16 344.597 227.298C344.597 226.436 343.898 225.737 343.036 225.737Z" fill="white"/>
<path d="M375.559 225.737H372.715C371.853 225.737 371.154 226.436 371.154 227.298C371.154 228.16 371.853 228.859 372.715 228.859H375.559C376.421 228.859 377.12 228.16 377.12 227.298C377.12 226.436 376.421 225.737 375.559 225.737Z" fill="white"/>
<path d="M384.774 225.737H381.93C381.068 225.737 380.369 226.436 380.369 227.298C380.369 228.16 381.068 228.859 381.93 228.859H384.774C385.636 228.859 386.335 228.16 386.335 227.298C386.335 226.436 385.636 225.737 384.774 225.737Z" fill="white"/>
<path d="M366.712 225.477H349.038C348.175 225.477 347.477 226.176 347.477 227.038C347.477 227.9 348.175 228.599 349.038 228.599H366.712C367.574 228.599 368.273 227.9 368.273 227.038C368.273 226.176 367.574 225.477 366.712 225.477Z" fill="white"/>
<path d="M410.077 225.477H392.403C391.541 225.477 390.842 226.176 390.842 227.038C390.842 227.9 391.541 228.599 392.403 228.599H410.077C410.939 228.599 411.638 227.9 411.638 227.038C411.638 226.176 410.939 225.477 410.077 225.477Z" fill="white"/>
<path d="M351.709 232.784H348.866C348.004 232.784 347.305 233.483 347.305 234.345C347.305 235.207 348.004 235.906 348.866 235.906H351.709C352.572 235.906 353.271 235.207 353.271 234.345C353.271 233.483 352.572 232.784 351.709 232.784Z" fill="white"/>
<path d="M384.231 232.784H381.387C380.525 232.784 379.826 233.483 379.826 234.345C379.826 235.207 380.525 235.906 381.387 235.906H384.231C385.093 235.906 385.792 235.207 385.792 234.345C385.792 233.483 385.093 232.784 384.231 232.784Z" fill="white"/>
<path d="M393.446 232.784H390.602C389.74 232.784 389.041 233.483 389.041 234.345C389.041 235.207 389.74 235.906 390.602 235.906H393.446C394.308 235.906 395.007 235.207 395.007 234.345C395.007 233.483 394.308 232.784 393.446 232.784Z" fill="white"/>
<path d="M375.385 232.523H357.711C356.849 232.523 356.15 233.222 356.15 234.085C356.15 234.947 356.849 235.646 357.711 235.646H375.385C376.248 235.646 376.947 234.947 376.947 234.085C376.947 233.222 376.248 232.523 375.385 232.523Z" fill="white"/>
<path d="M418.749 232.523H401.075C400.213 232.523 399.514 233.222 399.514 234.085C399.514 234.947 400.213 235.646 401.075 235.646H418.749C419.611 235.646 420.31 234.947 420.31 234.085C420.31 233.222 419.611 232.523 418.749 232.523Z" fill="white"/>
<path d="M360.381 239.83H357.538C356.675 239.83 355.977 240.529 355.977 241.391C355.977 242.254 356.675 242.952 357.538 242.952H360.381C361.243 242.952 361.942 242.254 361.942 241.391C361.942 240.529 361.243 239.83 360.381 239.83Z" fill="white"/>
<path d="M392.905 239.83H390.061C389.199 239.83 388.5 240.529 388.5 241.391C388.5 242.254 389.199 242.952 390.061 242.952H392.905C393.767 242.952 394.466 242.254 394.466 241.391C394.466 240.529 393.767 239.83 392.905 239.83Z" fill="white"/>
<path d="M402.12 239.83H399.276C398.414 239.83 397.715 240.529 397.715 241.391C397.715 242.254 398.414 242.952 399.276 242.952H402.12C402.982 242.952 403.681 242.254 403.681 241.391C403.681 240.529 402.982 239.83 402.12 239.83Z" fill="white"/>
<path d="M384.057 239.57H366.383C365.521 239.57 364.822 240.269 364.822 241.131C364.822 241.993 365.521 242.692 366.383 242.692H384.057C384.919 242.692 385.618 241.993 385.618 241.131C385.618 240.269 384.919 239.57 384.057 239.57Z" fill="white"/>
<path d="M427.423 239.57H409.749C408.886 239.57 408.188 240.269 408.188 241.131C408.188 241.993 408.886 242.692 409.749 242.692H427.423C428.285 242.692 428.984 241.993 428.984 241.131C428.984 240.269 428.285 239.57 427.423 239.57Z" fill="white"/>
<path d="M369.055 246.877H366.211C365.349 246.877 364.65 247.576 364.65 248.438C364.65 249.3 365.349 249.999 366.211 249.999H369.055C369.917 249.999 370.616 249.3 370.616 248.438C370.616 247.576 369.917 246.877 369.055 246.877Z" fill="white"/>
<path d="M401.577 246.877H398.733C397.871 246.877 397.172 247.576 397.172 248.438C397.172 249.3 397.871 249.999 398.733 249.999H401.577C402.439 249.999 403.138 249.3 403.138 248.438C403.138 247.576 402.439 246.877 401.577 246.877Z" fill="white"/>
<path d="M410.792 246.877H407.948C407.086 246.877 406.387 247.576 406.387 248.438C406.387 249.3 407.086 249.999 407.948 249.999H410.792C411.654 249.999 412.353 249.3 412.353 248.438C412.353 247.576 411.654 246.877 410.792 246.877Z" fill="white"/>
<path d="M392.731 246.617H375.057C374.195 246.617 373.496 247.316 373.496 248.178C373.496 249.04 374.195 249.739 375.057 249.739H392.731C393.593 249.739 394.292 249.04 394.292 248.178C394.292 247.316 393.593 246.617 392.731 246.617Z" fill="white"/>
<path d="M375.559 274.897H372.715C371.853 274.897 371.154 275.596 371.154 276.459C371.154 277.321 371.853 278.02 372.715 278.02H375.559C376.421 278.02 377.12 277.321 377.12 276.459C377.12 275.596 376.421 274.897 375.559 274.897Z" fill="white"/>
<path d="M384.774 274.897H381.93C381.068 274.897 380.369 275.596 380.369 276.459C380.369 277.321 381.068 278.02 381.93 278.02H384.774C385.636 278.02 386.335 277.321 386.335 276.459C386.335 275.596 385.636 274.897 384.774 274.897Z" fill="white"/>
<path d="M410.077 275.158H392.403C391.541 275.158 390.842 275.857 390.842 276.719C390.842 277.581 391.541 278.28 392.403 278.28H410.077C410.939 278.28 411.638 277.581 411.638 276.719C411.638 275.857 410.939 275.158 410.077 275.158Z" fill="white"/>
<path d="M343.036 274.897H340.192C339.33 274.897 338.631 275.596 338.631 276.459C338.631 277.321 339.33 278.02 340.192 278.02H343.036C343.898 278.02 344.597 277.321 344.597 276.459C344.597 275.596 343.898 274.897 343.036 274.897Z" fill="white"/>
<path d="M366.712 275.158H349.038C348.175 275.158 347.477 275.857 347.477 276.719C347.477 277.581 348.175 278.28 349.038 278.28H366.712C367.574 278.28 368.273 277.581 368.273 276.719C368.273 275.857 367.574 275.158 366.712 275.158Z" fill="white"/>
<path d="M351.709 267.851H348.866C348.004 267.851 347.305 268.55 347.305 269.412C347.305 270.274 348.004 270.973 348.866 270.973H351.709C352.572 270.973 353.271 270.274 353.271 269.412C353.271 268.55 352.572 267.851 351.709 267.851Z" fill="white"/>
<path d="M384.231 267.851H381.387C380.525 267.851 379.826 268.55 379.826 269.412C379.826 270.274 380.525 270.973 381.387 270.973H384.231C385.093 270.973 385.792 270.274 385.792 269.412C385.792 268.55 385.093 267.851 384.231 267.851Z" fill="white"/>
<path d="M393.446 267.851H390.602C389.74 267.851 389.041 268.55 389.041 269.412C389.041 270.274 389.74 270.973 390.602 270.973H393.446C394.308 270.973 395.007 270.274 395.007 269.412C395.007 268.55 394.308 267.851 393.446 267.851Z" fill="white"/>
<path d="M375.385 268.111H357.711C356.849 268.111 356.15 268.81 356.15 269.672C356.15 270.534 356.849 271.233 357.711 271.233H375.385C376.248 271.233 376.947 270.534 376.947 269.672C376.947 268.81 376.248 268.111 375.385 268.111Z" fill="white"/>
<path d="M360.381 260.804H357.538C356.675 260.804 355.977 261.503 355.977 262.365C355.977 263.227 356.675 263.926 357.538 263.926H360.381C361.243 263.926 361.942 263.227 361.942 262.365C361.942 261.503 361.243 260.804 360.381 260.804Z" fill="white"/>
<path d="M392.905 260.804H390.061C389.199 260.804 388.5 261.503 388.5 262.365C388.5 263.227 389.199 263.926 390.061 263.926H392.905C393.767 263.926 394.466 263.227 394.466 262.365C394.466 261.503 393.767 260.804 392.905 260.804Z" fill="white"/>
<path d="M402.12 260.804H399.276C398.414 260.804 397.715 261.503 397.715 262.365C397.715 263.227 398.414 263.926 399.276 263.926H402.12C402.982 263.926 403.681 263.227 403.681 262.365C403.681 261.503 402.982 260.804 402.12 260.804Z" fill="white"/>
<path d="M384.057 261.064H366.383C365.521 261.064 364.822 261.763 364.822 262.626C364.822 263.488 365.521 264.187 366.383 264.187H384.057C384.919 264.187 385.618 263.488 385.618 262.626C385.618 261.763 384.919 261.064 384.057 261.064Z" fill="white"/>
<path d="M369.055 253.758H366.211C365.349 253.758 364.65 254.457 364.65 255.319C364.65 256.181 365.349 256.88 366.211 256.88H369.055C369.917 256.88 370.616 256.181 370.616 255.319C370.616 254.457 369.917 253.758 369.055 253.758Z" fill="white"/>
<path d="M401.577 253.758H398.733C397.871 253.758 397.172 254.457 397.172 255.319C397.172 256.181 397.871 256.88 398.733 256.88H401.577C402.439 256.88 403.138 256.181 403.138 255.319C403.138 254.457 402.439 253.758 401.577 253.758Z" fill="white"/>
<path d="M410.792 253.758H407.948C407.086 253.758 406.387 254.457 406.387 255.319C406.387 256.181 407.086 256.88 407.948 256.88H410.792C411.654 256.88 412.353 256.181 412.353 255.319C412.353 254.457 411.654 253.758 410.792 253.758Z" fill="white"/>
<path d="M392.731 254.018H375.057C374.195 254.018 373.496 254.717 373.496 255.579C373.496 256.441 374.195 257.14 375.057 257.14H392.731C393.593 257.14 394.292 256.441 394.292 255.579C394.292 254.717 393.593 254.018 392.731 254.018Z" fill="white"/>
<path d="M327.918 357.482L314.568 336.38L356.47 302.977L373.766 283.816C376.013 281.327 378.874 279.471 382.063 278.433C385.252 277.396 388.657 277.214 391.939 277.905C395.22 278.596 398.263 280.136 400.763 282.372C403.262 284.607 405.132 287.46 406.184 290.644C407.743 295.363 407.407 300.502 405.249 304.979C403.09 309.455 399.277 312.917 394.614 314.635L367.265 324.71L327.918 357.482Z" fill="#FFCCB6"/>
<path d="M14.6895 204.481V307.041H86.5395V204.481C86.5407 203.743 86.3053 203.024 85.8679 202.43C85.4305 201.837 84.8142 201.398 84.1095 201.181C83.7773 201.071 83.4293 201.017 83.0795 201.021H18.1595C17.7044 201.02 17.2535 201.109 16.8328 201.282C16.412 201.456 16.0296 201.71 15.7074 202.032C15.3851 202.353 15.1293 202.735 14.9547 203.155C14.78 203.575 14.6899 204.026 14.6895 204.481ZM42.7295 239.721C42.7482 237.699 43.5645 235.766 45.0009 234.343C46.4373 232.92 48.3775 232.121 50.3994 232.121C52.4214 232.121 54.3616 232.92 55.798 234.343C57.2343 235.766 58.0507 237.699 58.0695 239.721V251.621C58.0591 253.648 57.2465 255.589 55.8092 257.019C54.3719 258.449 52.4269 259.252 50.3994 259.252C48.372 259.252 46.427 258.449 44.9897 257.019C43.5525 255.589 42.7398 253.648 42.7295 251.621V239.721Z" fill="#2F2E41"/>
<path d="M14.4707 303.761V313.651C14.4723 314.163 14.6759 314.654 15.0372 315.017C15.3985 315.381 15.8884 315.587 16.4007 315.591H84.8307C85.3435 315.588 85.8344 315.383 86.1961 315.019C86.5578 314.656 86.7608 314.164 86.7607 313.651V303.761H14.4707Z" fill="#3F3D56"/>
<path d="M-98.3398 49.9609V237.221C-98.338 239.607 -97.3891 241.895 -95.7017 243.583C-94.0143 245.27 -91.7262 246.219 -89.3398 246.221H188.16C190.547 246.219 192.835 245.27 194.522 243.583C196.209 241.895 197.158 239.607 197.16 237.221V49.9609C197.154 47.5767 196.204 45.2918 194.517 43.6068C192.83 41.9218 190.544 40.974 188.16 40.9709H-89.3398C-91.7241 40.974 -94.01 41.9218 -95.6969 43.6068C-97.3838 45.2918 -98.3342 47.5767 -98.3398 49.9609Z" fill="#3F3D56"/>
<path d="M-91.8301 52.2907V234.911C-91.8279 236.186 -91.3204 237.408 -90.4189 238.309C-89.5173 239.211 -88.2951 239.719 -87.0201 239.721H185.85C187.125 239.719 188.347 239.211 189.249 238.309C190.15 237.408 190.658 236.186 190.66 234.911V52.2907C190.66 51.0141 190.153 49.7898 189.252 48.8861C188.35 47.9825 187.126 47.4735 185.85 47.4707H-87.0201C-88.2966 47.4735 -89.52 47.9825 -90.4217 48.8861C-91.3235 49.7897 -91.8299 51.0141 -91.8301 52.2907Z" fill="white"/>
<path d="M-41.1897 314.921C-40.912 315.269 -40.5589 315.55 -40.1571 315.742C-39.7553 315.934 -39.3151 316.033 -38.8697 316.031H123.47C123.914 316.03 124.353 315.931 124.753 315.74C125.154 315.548 125.507 315.27 125.787 314.925C126.066 314.581 126.266 314.178 126.37 313.746C126.474 313.315 126.481 312.865 126.39 312.431L123.87 300.461C123.766 299.973 123.541 299.518 123.216 299.139C122.891 298.76 122.477 298.469 122.01 298.291C121.673 298.158 121.313 298.09 120.95 298.091H-36.3597C-36.7224 298.09 -37.082 298.158 -37.4197 298.291C-37.8861 298.469 -38.3006 298.76 -38.6255 299.139C-38.9504 299.518 -39.1753 299.973 -39.2797 300.461L-41.7997 312.431C-41.8893 312.865 -41.8811 313.314 -41.7756 313.745C-41.6701 314.175 -41.4699 314.577 -41.1897 314.921Z" fill="#2F2E41"/>
<path d="M176.994 72.6276H-78.3292C-78.5946 72.6217 -78.8471 72.5122 -79.0327 72.3224C-79.2184 72.1326 -79.3223 71.8777 -79.3223 71.6123C-79.3223 71.3468 -79.2184 71.0919 -79.0327 70.9022C-78.8471 70.7124 -78.5946 70.6028 -78.3292 70.5969H176.994C177.26 70.6028 177.512 70.7124 177.698 70.9022C177.883 71.0919 177.987 71.3468 177.987 71.6123C177.987 71.8777 177.883 72.1326 177.698 72.3224C177.512 72.5122 177.26 72.6217 176.994 72.6276Z" fill="#3F3D56"/>
<path d="M164.617 54.751H150.017C149.728 54.7577 149.454 54.8771 149.252 55.0836C149.05 55.2901 148.938 55.5673 148.938 55.856C148.938 56.1446 149.05 56.4219 149.252 56.6284C149.454 56.8349 149.728 56.9542 150.017 56.961H164.617C164.907 56.9569 165.185 56.8386 165.388 56.6319C165.592 56.4251 165.707 56.1463 165.707 55.856C165.707 55.5656 165.592 55.2869 165.388 55.0801C165.185 54.8733 164.907 54.7551 164.617 54.751Z" fill="#3F3D56"/>
<path d="M164.616 58.9009H150.016C149.728 58.9073 149.453 59.0265 149.251 59.233C149.049 59.4396 148.936 59.717 148.936 60.0059C148.936 60.2948 149.049 60.5722 149.251 60.7787C149.453 60.9853 149.728 61.1045 150.016 61.1109H164.616C164.907 61.1074 165.185 60.9894 165.389 60.7826C165.594 60.5757 165.708 60.2967 165.708 60.0059C165.708 59.7151 165.594 59.436 165.389 59.2292C165.185 59.0223 164.907 58.9044 164.616 58.9009Z" fill="#3F3D56"/>
<path d="M164.617 63.0508H150.017C149.728 63.0575 149.454 63.1769 149.252 63.3834C149.05 63.5899 148.938 63.8671 148.938 64.1558C148.938 64.4445 149.05 64.7217 149.252 64.9282C149.454 65.1347 149.728 65.254 150.017 65.2608H164.617C164.907 65.2567 165.185 65.1385 165.388 64.9317C165.592 64.7249 165.707 64.4462 165.707 64.1558C165.707 63.8654 165.592 63.5867 165.388 63.3799C165.185 63.1731 164.907 63.0549 164.617 63.0508Z" fill="#3F3D56"/>
<path d="M79.8398 127.827H35.6489C33.8462 127.827 32.3848 129.289 32.3848 131.091V135.409C32.3848 137.211 33.8462 138.673 35.6489 138.673H79.8398C81.6425 138.673 83.1039 137.211 83.1039 135.409V131.091C83.1039 129.289 81.6425 127.827 79.8398 127.827Z" fill="#5F7FF8"/>
<path d="M105.599 149.519H9.89113C8.08838 149.519 6.62695 150.98 6.62695 152.783V157.1C6.62695 158.903 8.08838 160.364 9.89113 160.364H105.599C107.402 160.364 108.863 158.903 108.863 157.1V152.783C108.863 150.98 107.402 149.519 105.599 149.519Z" fill="#E6E6E6"/>
<path d="M105.599 171.21H9.89113C8.08838 171.21 6.62695 172.671 6.62695 174.474V178.792C6.62695 180.594 8.08838 182.056 9.89113 182.056H105.599C107.402 182.056 108.863 180.594 108.863 178.792V174.474C108.863 172.671 107.402 171.21 105.599 171.21Z" fill="#E6E6E6"/>
<path d="M113.711 243.846L113.928 244.53L113.939 244.553L120.464 264.391L127.971 287.252L142.093 330.213L142.23 336.887V336.91L143.28 390.594L140.371 397.872L143.645 409.805C143.645 409.805 142.139 391.768 134.062 402.126C129.488 408.012 124.138 414.036 119.746 419.682C126.145 422.272 132.648 424.614 139.253 426.709C140.679 427.166 142.116 427.599 143.553 428.033C143.861 428.124 144.169 428.215 144.477 428.307C166.372 434.781 189.007 438.42 211.828 439.132C213.015 439.167 214.178 439.189 215.308 439.212C215.707 439.224 216.095 439.235 216.483 439.235C217.76 439.247 219.027 439.258 220.304 439.258C222.882 439.258 225.449 439.22 228.004 439.144C246.918 438.611 265.721 436.068 284.096 431.558C283.97 423.972 283.628 415.108 283.138 405.64C282.909 400.997 277.787 395.966 277.479 391.106C277.263 387.456 281.86 384.022 281.62 380.314C280.069 357.488 278.13 366.25 276.692 350.086C276.544 348.5 276.407 346.983 276.282 345.534C275.358 335.153 274.719 328.662 274.719 328.662L280.856 289.979L290.496 229.244L289.754 228.024L288.921 227.613L238.077 202.448L235.317 195.375C234.512 193.337 233.117 191.587 231.309 190.349C229.502 189.111 227.366 188.442 225.175 188.428L191.682 188.291C189.944 188.283 188.229 188.69 186.68 189.477C185.13 190.265 183.791 191.411 182.773 192.82L173.704 205.379L113.711 243.846Z" fill="#3F3D56"/>
<path d="M149.817 320.654L142.23 336.887L137.051 347.975L128.142 394.621L123.682 399.355L119.86 382.596L79.8623 391.477C78.5504 384.187 79.5111 391.723 78.7012 383.727C78.9293 383.498 79.1689 383.27 79.4084 383.042C80.0473 382.449 80.5835 381.89 80.5721 381.354C80.1157 353.77 81.4847 306.827 92.9152 278.388C94.7054 273.745 97.0658 269.342 99.9422 265.281C100.17 264.973 100.387 264.665 100.604 264.357C105.874 256.976 109.205 249.709 113.928 244.542V244.53C113.957 244.507 113.984 244.48 114.008 244.45C114.025 244.442 114.041 244.43 114.054 244.416L146.497 227.213L147.889 266.319L148.881 294.427L149.817 320.654Z" fill="#3F3D56"/>
<path d="M266.801 325.264L276.277 345.539L279.584 352.6L288.491 399.242L292.937 403.964L296.767 387.209L298.567 386.84L331.025 380.118L340.486 410.164C342.618 406.611 343.458 402.431 342.864 398.33C342.27 394.23 340.278 390.46 337.225 387.658C336.579 387.074 336.04 386.505 336.056 385.966C336.594 353.523 334.61 294.283 316.688 269.9C310.997 262.163 307.582 254.456 302.613 249.072C302.597 249.056 302.597 249.041 302.582 249.041L290.491 229.243L289.752 228.027L288.922 227.612L266.801 325.264Z" fill="#3F3D56"/>
<path d="M209.396 178.759C234.005 178.759 253.954 158.809 253.954 134.201C253.954 109.592 234.005 89.6423 209.396 89.6423C184.787 89.6423 164.838 109.592 164.838 134.201C164.838 158.809 184.787 178.759 209.396 178.759Z" fill="#FFCCB6"/>
<path d="M269.622 103.077C269.276 102.708 268.86 102.412 268.398 102.208C267.936 102.003 267.437 101.894 266.932 101.887L267.602 100.027C267.82 99.441 267.879 98.8075 267.773 98.1913C267.666 97.5751 267.397 96.9984 266.994 96.5202C266.592 96.0419 266.069 95.6794 265.48 95.4697C264.89 95.26 264.256 95.2107 263.642 95.3268L261.202 95.7968L261.432 94.1668C261.52 93.5598 261.448 92.9402 261.225 92.369C261.001 91.7979 260.632 91.2949 260.155 90.9094C259.678 90.524 259.108 90.2694 258.503 90.1708C257.897 90.0722 257.277 90.1328 256.702 90.3468C256.179 90.5527 255.616 90.6389 255.056 90.5991C254.495 90.5593 253.95 90.3945 253.462 90.1169C252.971 89.8477 252.545 89.4747 252.213 89.0239C251.882 88.5731 251.653 88.0553 251.542 87.5068L250.692 83.4068L250.602 83.1868C246.462 76.2868 238.502 71.2668 228.762 69.4268C220.092 67.7768 211.202 68.6168 202.632 69.4068C199.232 69.7268 195.392 70.0868 192.192 72.0468C189.472 73.7268 187.172 77.0868 187.642 80.4768C179.192 77.8868 170.132 83.0568 165.642 89.5768C160.322 97.3368 159.452 107.057 159.312 114.657C158.932 132.637 162.642 147.347 170.312 158.387C170.872 159.187 171.012 160.857 172.122 161.417L171.892 161.047C173.132 161.667 174.392 162.667 173.922 163.737C172.572 166.817 181.542 173.627 187.862 175.877C199.392 179.987 214.722 179.637 225.502 178.157L225.882 175.607C229.772 175.077 232.512 174.067 233.282 172.487C234.642 171.327 235.802 170.287 236.812 169.327L236.822 169.317C236.842 169.297 236.882 169.267 236.902 169.247C241.772 164.577 242.902 161.917 243.412 157.867C243.902 153.897 243.032 149.867 242.142 146.237C260.882 149.137 234.762 126.277 252.222 121.857C252.422 121.795 252.626 121.745 252.832 121.707C253.342 121.587 253.852 121.467 254.342 121.327C256.704 120.686 258.965 119.72 261.062 118.457C265.942 115.487 267.552 111.547 270.072 107.107C270.435 106.475 270.588 105.743 270.507 105.018C270.426 104.293 270.116 103.613 269.622 103.077Z" fill="#2F2E41"/>
<path d="M366.992 328.437C366.982 330.187 366.962 332.637 366.882 335.667C366.872 336.087 366.862 336.517 366.852 336.957C366.722 342.527 366.592 347.197 366.382 352.387C366.372 352.747 366.362 353.097 366.342 353.457C366.062 360.697 365.622 369.127 364.862 382.477C363.452 407.137 360.992 385.867 358.522 394.517C358.402 394.947 358.272 395.457 358.152 396.057C357.778 398.234 357.147 400.359 356.272 402.387C354.962 403.167 353.612 403.917 352.282 404.667C348.492 406.777 344.642 408.807 340.762 410.737C338.582 411.817 336.392 412.877 334.192 413.897C333.842 414.057 333.502 414.217 333.162 414.367C321.896 419.578 310.285 424.008 298.412 427.627C296.092 428.327 293.782 429.007 291.442 429.637C289.002 430.317 286.562 430.957 284.092 431.557C265.717 436.068 246.915 438.612 228.002 439.147C225.452 439.227 222.882 439.257 220.302 439.257C219.022 439.257 217.762 439.247 216.482 439.237C216.092 439.237 215.702 439.227 215.312 439.217C214.182 439.187 213.012 439.167 211.832 439.137C189.011 438.425 166.376 434.785 144.482 428.307L143.552 428.037C142.112 427.597 140.682 427.167 139.252 426.707C132.652 424.617 126.149 422.277 119.742 419.687C114.852 417.717 110.019 415.604 105.242 413.347C105.198 413.335 105.158 413.315 105.122 413.287C104.122 412.827 103.112 412.347 102.112 411.857C101.982 411.787 101.842 411.717 101.702 411.647C97.972 409.827 94.282 407.92 90.632 405.927C87.562 398.877 83.242 397.527 80.562 391.327C79.782 389.485 79.2183 387.559 78.882 385.587C78.882 385.567 78.872 385.547 78.872 385.517C79.152 389.237 77.682 378.917 78.862 385.477C78.852 385.357 78.842 385.227 78.832 385.077C78.802 384.717 78.7621 384.277 78.7021 383.727C75.2721 350.237 75.4921 311.937 74.0021 280.377C73.902 278.337 73.7987 276.384 73.6921 274.517C73.6621 273.897 73.6221 273.287 73.582 272.687C73.652 272.507 73.732 272.317 73.822 272.137C73.8412 272.085 73.8646 272.035 73.892 271.987C73.9215 271.925 73.9549 271.865 73.992 271.807C74.012 271.777 74.042 271.737 74.062 271.707C74.0767 271.673 74.0933 271.639 74.112 271.607C74.202 271.467 74.302 271.317 74.412 271.177C74.462 271.117 74.502 271.067 74.552 271.017C74.5866 270.966 74.6268 270.919 74.672 270.877C74.7027 270.829 74.7397 270.785 74.782 270.747C74.822 270.707 74.862 270.657 74.912 270.607C74.9334 270.575 74.9606 270.548 74.992 270.527C75.0711 270.436 75.1581 270.352 75.252 270.277C75.6088 269.949 75.9899 269.648 76.392 269.377C76.532 269.287 76.682 269.197 76.822 269.097C77.8298 268.494 78.891 267.985 79.992 267.577C80.372 267.437 80.752 267.307 81.162 267.167C81.312 267.127 81.452 267.077 81.602 267.027C81.822 266.957 82.042 266.887 82.272 266.837C83.412 266.497 84.642 266.207 85.972 265.937C86.132 265.907 86.302 265.877 86.472 265.837C86.712 265.787 86.962 265.747 87.212 265.707C87.552 265.647 87.902 265.587 88.252 265.527C91.222 265.057 94.592 264.707 98.312 264.477C98.662 264.457 99.012 264.437 99.362 264.417C99.772 264.397 100.182 264.377 100.602 264.357C100.952 264.337 101.312 264.327 101.672 264.317C102.022 264.297 102.382 264.287 102.752 264.277C103.762 264.247 104.802 264.217 105.862 264.197C108.882 264.137 112.062 264.157 115.402 264.227C116.952 264.267 118.532 264.307 120.152 264.377C120.262 264.377 120.362 264.387 120.462 264.387C121.872 264.437 123.292 264.497 124.752 264.577C125.772 264.627 126.802 264.677 127.832 264.737C128.802 264.797 129.782 264.857 130.772 264.927C131.542 264.967 132.312 265.027 133.092 265.077C133.752 265.127 134.412 265.177 135.072 265.217L135.972 265.277C136.462 265.317 136.952 265.347 137.452 265.397C138.552 265.487 139.652 265.577 140.772 265.667C141.882 265.767 143.012 265.867 144.142 265.967C145.272 266.067 146.412 266.177 147.552 266.287C147.672 266.297 147.782 266.307 147.892 266.317C148.932 266.427 149.972 266.527 151.022 266.637C151.262 266.657 151.512 266.677 151.752 266.707C152.753 266.807 153.774 266.925 154.784 267.033C155.094 267.066 155.402 267.098 155.713 267.132C156.505 267.219 157.285 267.293 158.082 267.387C159.132 267.507 160.202 267.617 161.242 267.757C162.052 267.847 162.862 267.937 163.672 268.037C164.942 268.187 166.232 268.347 167.522 268.517C168.012 268.577 168.502 268.637 168.992 268.707C172.672 269.167 176.392 269.677 180.172 270.207C185.902 271.017 191.722 271.897 197.582 272.847C203.452 273.797 209.355 274.8 215.292 275.857C216.792 276.127 218.292 276.397 219.802 276.677C220.482 276.807 221.162 276.937 221.842 277.067C223.002 277.277 224.162 277.497 225.322 277.717C226.482 277.937 227.642 278.157 228.802 278.387C230.182 278.657 231.572 278.927 232.952 279.197C242.042 280.997 251.082 282.917 259.902 284.927C261.352 285.257 262.802 285.597 264.242 285.927C267.122 286.597 269.975 287.277 272.802 287.967C273.582 288.147 274.352 288.337 275.122 288.527C277.042 289.007 278.962 289.487 280.852 289.977L281.182 290.067C282.572 290.407 283.932 290.757 285.292 291.117C288.502 291.957 291.659 292.807 294.762 293.667C296.822 294.237 298.859 294.814 300.872 295.397C303.882 296.267 306.832 297.147 309.702 298.037C310.412 298.257 311.122 298.477 311.822 298.687C313.922 299.337 315.992 299.997 318.002 300.657C319.602 301.177 321.162 301.707 322.702 302.237C324.242 302.767 325.752 303.297 327.232 303.827C328.182 304.167 329.122 304.527 330.062 304.867C331.412 305.367 332.742 305.867 334.042 306.367C334.442 306.517 334.832 306.677 335.222 306.827C335.472 306.937 335.712 307.027 335.952 307.127C336.422 307.317 336.902 307.497 337.362 307.687C337.832 307.867 338.292 308.057 338.752 308.257C339.202 308.437 339.662 308.627 340.102 308.817C340.552 308.997 340.992 309.187 341.432 309.387C341.802 309.537 342.162 309.697 342.512 309.857C343.222 310.167 343.932 310.477 344.622 310.797C344.962 310.957 345.302 311.107 345.642 311.267L346.422 311.627C346.532 311.687 346.642 311.737 346.752 311.787C347.002 311.907 347.262 312.037 347.512 312.157C348.092 312.427 348.662 312.717 349.222 312.987C349.972 313.367 350.702 313.747 351.402 314.117C352.112 314.497 352.802 314.877 353.462 315.247C353.572 315.307 353.672 315.367 353.782 315.427C353.932 315.507 354.082 315.597 354.232 315.677C354.742 315.967 355.232 316.267 355.722 316.557C356.682 317.147 357.592 317.727 358.442 318.307C358.632 318.437 358.812 318.567 359.002 318.687C359.632 319.137 360.232 319.577 360.792 320.027C360.792 320.037 360.792 320.037 360.802 320.037C360.992 320.177 361.172 320.327 361.352 320.467C361.502 320.607 361.662 320.727 361.812 320.867C362.332 321.317 362.812 321.747 363.252 322.187C363.399 322.323 363.54 322.466 363.672 322.617C363.73 322.665 363.784 322.719 363.832 322.777C364.032 322.977 364.212 323.177 364.382 323.377C364.408 323.404 364.432 323.434 364.452 323.467C364.692 323.747 364.912 324.027 365.122 324.307C365.222 324.447 365.332 324.587 365.422 324.727C365.542 324.897 365.662 325.077 365.762 325.247C365.852 325.387 365.932 325.537 366.012 325.677C366.224 326.037 366.405 326.415 366.552 326.807C366.664 327.072 366.755 327.346 366.822 327.627C366.898 327.892 366.954 328.163 366.992 328.437Z" fill="#2F2E41"/>
<path opacity="0.2" d="M366.992 328.437C366.982 330.187 366.962 332.637 366.882 335.667C366.872 336.087 366.852 336.517 366.842 336.957C366.742 341.207 366.592 346.457 366.382 352.387C366.372 352.747 366.362 353.097 366.342 353.457C366.062 360.697 365.622 369.127 364.862 382.477C363.452 407.137 360.992 385.867 358.522 394.517C351.662 390.297 344.142 385.877 336.102 381.337C334.652 380.517 333.189 379.693 331.712 378.867C315.632 369.897 297.672 360.497 278.922 351.187C278.182 350.817 277.432 350.447 276.692 350.087C233.742 328.857 186.862 308.207 148.882 294.427C141.552 291.767 134.552 289.367 127.972 287.257C114.112 282.827 102.132 279.727 92.9123 278.387C83.3123 276.987 76.6823 277.487 74.0023 280.377C73.9022 278.337 73.7989 276.383 73.6923 274.517C73.6522 273.897 73.6122 273.287 73.5723 272.687C73.634 272.522 73.7142 272.365 73.7918 272.207C73.8029 272.183 73.8108 272.16 73.8223 272.137C73.8414 272.085 73.8648 272.035 73.8923 271.987C73.9218 271.925 73.9552 271.865 73.9923 271.807C74.0248 271.736 74.065 271.669 74.1123 271.607C74.2023 271.467 74.3023 271.317 74.4123 271.177C74.4932 271.072 74.58 270.972 74.6723 270.877C74.703 270.829 74.74 270.785 74.7823 270.747C74.8223 270.707 74.8623 270.657 74.9123 270.607C74.9336 270.575 74.9608 270.548 74.9923 270.527C75.0714 270.436 75.1584 270.352 75.2523 270.277C75.6091 269.948 75.9901 269.648 76.3923 269.377C76.5322 269.287 76.6823 269.197 76.8223 269.097C77.8301 268.494 78.8912 267.985 79.9923 267.577C80.3723 267.437 80.7523 267.307 81.1623 267.167C81.3123 267.127 81.4523 267.077 81.6023 267.027C81.8223 266.957 82.0423 266.887 82.2723 266.837C83.4123 266.497 84.6423 266.207 85.9723 265.937C86.3723 265.857 86.7923 265.777 87.2123 265.707C87.5523 265.647 87.9023 265.587 88.2523 265.527C91.2223 265.057 94.5923 264.707 98.3123 264.477C98.6623 264.457 99.0123 264.437 99.3623 264.417C99.7723 264.397 100.182 264.377 100.602 264.357C100.952 264.337 101.312 264.327 101.672 264.317C102.022 264.297 102.382 264.287 102.752 264.277C103.762 264.247 104.802 264.217 105.862 264.197C108.882 264.147 112.062 264.167 115.402 264.237C116.952 264.267 118.532 264.317 120.152 264.387C120.252 264.387 120.362 264.397 120.462 264.397C121.872 264.437 123.302 264.507 124.752 264.577C125.772 264.627 126.802 264.677 127.832 264.737C128.802 264.797 129.782 264.857 130.772 264.927C131.542 264.967 132.312 265.027 133.092 265.077C133.752 265.127 134.412 265.177 135.072 265.217C135.862 265.277 136.652 265.337 137.452 265.397C138.552 265.487 139.652 265.577 140.772 265.667C141.882 265.767 143.012 265.867 144.142 265.967C145.272 266.067 146.412 266.177 147.552 266.287C147.672 266.297 147.782 266.307 147.892 266.317C148.932 266.427 149.972 266.527 151.022 266.637C156.842 267.227 162.832 267.917 168.992 268.707C172.672 269.177 176.399 269.68 180.172 270.217C185.902 271.027 191.722 271.907 197.582 272.847C203.452 273.797 209.356 274.8 215.292 275.857C216.792 276.127 218.292 276.397 219.802 276.677C221.642 277.017 223.482 277.363 225.322 277.717C226.482 277.937 227.642 278.157 228.802 278.387C230.182 278.657 231.572 278.927 232.952 279.197C242.042 280.997 251.082 282.917 259.902 284.927C261.352 285.257 262.802 285.597 264.242 285.927C267.122 286.597 269.976 287.277 272.802 287.967C273.582 288.157 274.352 288.347 275.122 288.537C277.052 289.017 278.962 289.497 280.852 289.977V289.987C280.962 290.007 281.072 290.037 281.182 290.067C282.562 290.417 283.932 290.767 285.292 291.127C288.502 291.967 291.659 292.813 294.762 293.667C296.822 294.247 298.862 294.817 300.872 295.397C303.882 296.277 306.832 297.157 309.702 298.037C310.412 298.257 311.122 298.477 311.822 298.687C313.922 299.347 315.982 300.003 318.002 300.657C319.602 301.177 321.162 301.707 322.702 302.237C324.242 302.767 325.752 303.297 327.232 303.827C328.192 304.167 329.132 304.517 330.062 304.857C331.422 305.357 332.742 305.857 334.042 306.367C334.442 306.517 334.832 306.677 335.222 306.827C335.952 307.107 336.662 307.397 337.362 307.687C337.832 307.867 338.292 308.057 338.752 308.257C339.202 308.437 339.662 308.627 340.102 308.817C340.552 308.997 340.992 309.187 341.432 309.387C341.802 309.537 342.162 309.697 342.512 309.857C343.222 310.167 343.932 310.477 344.622 310.797C344.962 310.957 345.302 311.107 345.642 311.267L346.422 311.627C346.532 311.687 346.642 311.737 346.752 311.787C347.602 312.187 348.422 312.587 349.222 312.987C349.972 313.367 350.702 313.747 351.402 314.117C352.232 314.557 353.022 314.987 353.782 315.427C353.932 315.507 354.082 315.597 354.232 315.677C354.742 315.967 355.232 316.267 355.722 316.557C356.682 317.147 357.592 317.727 358.442 318.307C359.282 318.887 360.062 319.457 360.792 320.027C360.792 320.037 360.792 320.037 360.802 320.037C361.152 320.317 361.492 320.597 361.812 320.867C362.332 321.317 362.812 321.747 363.252 322.187C363.4 322.322 363.54 322.466 363.672 322.617C363.73 322.665 363.784 322.718 363.832 322.777C364.042 323.007 364.252 323.237 364.452 323.467C364.692 323.747 364.912 324.027 365.122 324.307C365.222 324.447 365.332 324.587 365.422 324.727C365.542 324.897 365.662 325.077 365.762 325.247C365.852 325.387 365.932 325.537 366.012 325.677C366.225 326.037 366.405 326.415 366.552 326.807C366.662 327.073 366.752 327.347 366.822 327.627C366.898 327.892 366.955 328.163 366.992 328.437Z" fill="black"/>
</g>
</g>
<defs>
<clipPath id="clip0_11576_3619">
<rect width="432" height="306" fill="white"/>
</clipPath>
<clipPath id="clip1_11576_3619">
<rect width="786.82" height="572.258" fill="white" transform="translate(-177 -133)"/>
</clipPath>
</defs>
</svg>
