<svg width="432" height="306" viewBox="0 0 432 306" fill="none" xmlns="http://www.w3.org/2000/svg">
<g clip-path="url(#clip0_11576_3643)">
<rect width="432" height="306" fill="#9AACEF"/>
<g clip-path="url(#clip1_11576_3643)">
<path d="M628.068 -25.5692C521.493 -173.769 296.36 -233.886 74.9477 -169.139C-42.1062 -134.909 -154.968 -66.3249 -210.899 66.4762C-310.883 303.873 -100.955 379.691 36.3152 403.855C102.692 415.54 165.207 435.168 222.334 461.89C325.11 509.967 507.032 552.568 644.213 352.306C743.642 207.156 699.057 73.1467 628.068 -25.5692Z" fill="#F2F2F2"/>
<path d="M10.1843 3.75155C9.88615 1.39622 9.28322 -0.910451 8.39058 -3.1106C8.27675 -3.52666 8.07745 -3.91447 7.80539 -4.24933C7.53331 -4.58419 7.19444 -4.85876 6.81035 -5.05553C6.29692 -5.18893 5.75865 -5.19495 5.24236 -5.07307L-2.80788 -3.84213C-3.48167 -3.81138 -4.12682 -3.56088 -4.64462 -3.12895C-5.69312 -2.02705 -4.66068 -0.252705 -4.69276 1.26749C-4.72887 2.97692 -6.24876 4.36447 -7.89696 4.82354C-9.57938 5.16324 -11.3148 5.14174 -12.9883 4.76045L-24.2449 3.01239C-20.9297 1.95472 -17.9789 -0.0130835 -15.7292 -2.6664C-14.2478 -4.42002 -13.4598 -7.694 -15.6006 -8.52444C-16.2367 -8.69888 -16.9 -8.7521 -17.5558 -8.68132C-22.6558 -8.6417 -26.6691 -12.8969 -31.4436 -14.6891C-34.4994 -15.762 -37.8164 -15.8418 -40.9203 -14.9171C-44.0243 -13.9925 -46.7561 -12.1107 -48.7253 -9.5409L-42.7287 -9.25199C-42.1646 -9.2831 -41.6052 -9.13401 -41.1314 -8.82629C-39.8173 -7.74731 -41.4511 -5.67482 -41.266 -3.98525C-41.0254 -1.79014 -38.1088 -1.32146 -35.9102 -1.09949C-33.7116 -0.877522 -30.9224 0.907558 -31.98 2.84648C-43.0304 6.65009 -54.2754 -4.58875 -65.8807 -3.20529C-68.8179 -2.85513 -71.5915 -1.70205 -74.4592 -0.976997C-91.9771 3.45219 -110.088 -8.36538 -127.983 -5.86263C-131.962 -5.18487 -135.872 -4.15436 -139.667 -2.78329C-142.103 -1.98413 -144.643 -1.12049 -146.413 0.732906C-148.183 2.5863 -148.856 5.75593 -147.18 7.69392C-151.801 8.07417 -156.452 7.63232 -160.919 6.38885C-159.711 7.05978 -158.706 8.04324 -158.01 9.23604C-157.314 10.4288 -156.951 11.787 -156.961 13.1678C-164.177 14.3436 -171.2 16.4838 -177.844 19.5309C-176.604 21.5915 -175.156 23.5196 -173.522 25.2847L-182.656 31.1488C-179.57 31.9257 -177.975 36.1307 -179.769 38.7569C-176.57 37.3345 -174.587 33.6546 -171.165 32.9086C-168.923 32.4198 -166.643 33.3361 -164.516 34.197C-162.39 35.0578 -160.052 35.8925 -157.851 35.2464C-155.65 34.6004 -154.026 31.7479 -155.425 29.9306C-146.015 27.1872 -136.291 25.669 -126.493 25.4136C-125.737 25.3188 -124.97 25.4642 -124.302 25.8291C-123.026 26.7134 -123.362 28.6234 -123.431 30.1732C-123.499 31.723 -122.291 33.7598 -120.904 33.0613C-122.535 34.4744 -121.141 37.1347 -119.577 38.6206C-118.012 40.1066 -116.126 42.157 -117.084 44.09C-117.334 44.5945 -117.758 44.9981 -117.999 45.5072C-118.709 47.0098 -117.581 48.7616 -116.252 49.7595C-114.922 50.7573 -113.293 51.4547 -112.37 52.8365C-111.446 54.2183 -111.866 56.637 -113.517 56.83L-118.212 50.8737C-119.816 52.5356 -120.915 54.6179 -121.383 56.879C-116.405 60.9457 -115.656 69.223 -119.824 74.1158C-121.953 76.6161 -124.982 78.1355 -127.625 80.0857C-130.269 82.036 -132.715 84.8132 -132.708 88.0966C-132.697 93.7694 -133.16 99.0395 -131.033 104.299C-127.111 113.997 -122.582 123.438 -117.474 132.568C-116.132 134.966 -114.399 137.593 -111.681 138.006C-115.116 129.652 -118.207 121.167 -120.956 112.552C-119.166 112.559 -117.097 112.701 -116.047 114.151C-115.178 115.351 -115.365 116.983 -115.095 118.439C-114.751 119.851 -114.179 121.196 -113.399 122.422L-96.9996 151.615C-95.6401 154.035 -94.0807 156.632 -91.4824 157.613C-89.8212 158.239 -87.8992 158.121 -86.3702 159.023C-85.1717 159.73 -84.3645 160.985 -83.1427 161.651C-79.688 163.535 -74.8839 159.923 -71.6554 162.171C-70.7323 162.814 -70.145 163.836 -69.2945 164.572C-66.3127 167.152 -61.4213 165.426 -57.9791 167.351C-55.7607 168.592 -54.611 171.073 -53.4278 173.321C-50.4638 178.953 -45.668 184.471 -39.3161 184.919C-37.3208 185.06 -35.2827 184.682 -33.3323 185.126C-31.3819 185.569 -29.462 187.27 -29.7751 189.244C-30.3118 192.629 -28.6384 196.335 -29.0878 199.732C-29.9064 205.92 -38.6901 208.64 -39.4446 214.836C-39.6098 216.193 -39.3513 217.593 -39.6745 218.921C-40.0707 220.549 -41.2939 221.874 -41.7285 223.492C-42.5522 226.557 -40.3542 229.609 -37.9396 231.671C-35.525 233.734 -32.6448 235.512 -31.3247 238.399C-29.9294 241.451 -30.6147 245.009 -30.1609 248.334C-29.1703 255.591 -22.8974 260.972 -16.4417 264.441C-14.4747 265.498 -12.3628 266.521 -11.0898 268.355C-9.42815 270.748 -9.59369 273.903 -9.03883 276.763C-7.67998 283.766 -1.78027 289.536 -1.61276 296.668C-1.4937 301.737 -4.3134 306.336 -5.99777 311.119C-7.57692 315.701 -8.14835 320.57 -7.67311 325.393C-7.19788 330.217 -5.68713 334.881 -3.24394 339.068C-1.98393 341.194 -0.476913 343.198 0.414429 345.503C2.00505 349.616 1.48894 354.292 2.95552 358.451C4.89447 363.949 10.2223 368.491 9.71242 374.298C12.1312 379.318 17.4725 381.784 22.8434 383.278L32.4692 385.956C34.3123 386.469 36.2383 386.985 38.1151 386.614C39.9918 386.243 41.7829 384.686 41.7345 382.774C37.0141 381.711 32.1423 380.579 28.2512 377.705C24.36 374.831 21.6945 369.712 23.1708 365.107C23.8554 362.971 25.3119 360.506 23.9272 358.741C23.1344 357.731 21.6846 357.467 20.7904 356.545C19.3956 355.108 19.8748 352.693 20.8775 350.959C21.8803 349.225 23.3296 347.676 23.7341 345.715C23.9383 344.618 23.8019 343.485 23.3431 342.467C22.8844 341.45 22.1253 340.597 21.1677 340.023C22.9525 339.349 24.5757 338.308 25.9321 336.968C27.185 335.538 27.7638 333.333 26.7782 331.708C29.7051 332.079 33.1606 332.261 35.0819 330.023C36.6162 328.237 36.5108 325.565 35.9046 323.29C35.2983 321.015 34.2737 318.806 34.2417 316.451C40.9936 316.771 47.7603 316.542 54.4749 315.766C53.5039 312.498 51.2975 309.737 48.3233 308.067C51.3644 307.553 54.1349 303.915 55.0957 300.986C56.0565 298.057 55.8114 294.867 55.2176 291.842C54.9895 291.064 54.9582 290.241 55.1266 289.447C55.469 288.356 56.5411 287.691 57.533 287.122L72.6278 278.459C73.5286 278.008 74.345 277.405 75.0416 276.678C76.6231 274.822 76.3888 272.019 75.579 269.719C74.7693 267.42 73.4722 265.257 73.1603 262.839C72.2273 255.608 79.9738 250.419 82.5881 243.612C83.614 240.941 83.8231 238.037 84.0217 235.183C84.2349 232.117 84.2508 228.556 81.8951 226.58C79.637 224.686 76.1088 225.109 73.7459 223.347C71.5796 221.732 70.8322 218.595 68.4656 217.291C66.3164 216.106 63.6217 216.859 61.2314 216.302C57.0227 215.321 54.3742 210.474 50.076 210.025C47.6508 209.772 44.9061 210.957 42.9184 209.545C41.167 208.302 41.0968 205.802 40.7634 203.681C40.1792 200.385 38.5981 197.346 36.233 194.975C33.868 192.604 30.8327 191.015 27.5359 190.42C25.0354 190.019 22.3137 190.172 20.1865 188.798C18.0325 187.408 17.0449 184.805 15.353 182.879C12.6261 179.776 8.33131 178.673 4.30814 177.728L-12.0565 173.884C-14.9615 173.201 -18.706 172.839 -20.265 175.382C-20.7264 176.35 -21.0531 177.377 -21.236 178.434C-21.8201 180.346 -22.9956 182.023 -24.5937 183.225C-26.1917 184.427 -28.1299 185.092 -30.1298 185.124C-31.5013 182.786 -33.7232 181.068 -36.3319 180.328C-37.9913 179.866 -39.7675 179.814 -41.3501 179.134C-42.2121 178.714 -42.979 178.122 -43.6042 177.395C-44.2293 176.669 -44.6994 175.822 -44.9857 174.907C-45.2721 173.992 -45.3686 173.029 -45.2694 172.076C-45.1702 171.122 -44.8773 170.199 -44.4088 169.363C-43.4653 167.684 -43.1009 165.742 -43.3719 163.836C-43.6429 161.93 -44.5341 160.166 -45.9081 158.816C-48.6911 156.319 -52.7168 155.716 -56.4484 155.966C-57.4257 153.835 -55.7916 151.43 -54.0306 149.882C-52.2696 148.333 -50.1313 146.811 -49.7478 144.498C-49.1446 140.86 -53.7894 138.097 -57.3161 139.182C-60.8428 140.267 -63.0938 143.69 -64.5817 147.064C-65.4354 149 -66.1612 151.039 -67.5079 152.671C-68.8546 154.304 -71.0232 155.473 -73.0744 154.949C-75.9783 154.207 -77.0999 150.759 -77.7426 147.834C-78.6049 143.909 -79.4722 139.929 -79.2915 135.914C-79.1108 131.9 -77.7565 127.778 -74.7942 125.06C-69.9669 120.632 -62.5616 121.066 -56.0468 121.772C-57.5859 120.039 -57.2055 117.119 -55.5587 115.487C-54.6893 114.716 -53.6447 114.167 -52.5154 113.89C-51.386 113.613 -50.2061 113.615 -49.0778 113.896C-47.1147 114.305 -45.3462 115.361 -44.0571 116.896C-42.2057 119.152 -41.6793 122.197 -40.2799 124.757C-38.8806 127.318 -35.7341 129.501 -33.1586 128.128C-30.9341 126.941 -30.5811 123.859 -31.1347 121.401C-31.6883 118.943 -32.8642 116.552 -32.6637 114.04C-32.281 109.248 -27.3094 106.363 -22.9223 104.389C-18.5351 102.415 -13.5116 99.7607 -12.8165 95.0032C-12.7928 94.0717 -12.6169 93.1504 -12.2959 92.2755C-11.8094 91.5028 -11.1332 90.8674 -10.3316 90.4296C2.47238 81.9738 15.4893 73.4147 30.1237 68.7943C30.885 68.5539 30.9744 68.8211 31.7503 68.6327C32.8363 68.0055 32.1167 66.2705 31.0756 65.5716C30.0344 64.8726 28.6428 64.3366 28.3786 63.1113C28.1844 62.2106 28.7155 61.3262 28.8535 60.4152C29.1924 58.1766 26.5126 56.1097 24.4314 57.0047C23.2559 55.449 25.5819 53.6413 27.4628 53.1238C33.1105 51.5705 38.9081 50.6241 44.757 50.3006C45.4319 50.1934 46.1234 50.3109 46.7249 50.6351C47.7072 51.3151 47.5817 52.8748 46.8855 53.8454C46.1893 54.816 45.1064 55.4254 44.2388 56.2467C43.2909 57.1694 42.6149 58.3346 42.2844 59.6151C41.9539 60.8956 41.9818 62.2422 42.3649 63.5079C45.4182 65.06 48.7378 66.6578 52.1195 66.111C55.5013 65.5642 58.5028 61.7672 56.9133 58.7347C55.433 55.9107 50.9867 55.2738 50.2221 52.1788C49.3269 48.5551 54.4601 45.3322 53.3038 41.7831C52.7973 40.2285 51.2469 39.3136 50.0572 38.1912C48.6522 36.815 47.6965 35.0465 47.3156 33.1177C46.9346 31.1889 47.1463 29.1901 47.9228 27.3838C45.985 27.7244 43.9937 27.5958 42.116 27.0086C40.2382 26.4213 38.5288 25.3927 37.131 24.009C34.5497 21.4057 32.4904 17.2992 28.8249 17.4156C25.4612 17.5225 22.5639 21.4441 19.4187 20.2477C18.6449 19.9533 17.8291 19.3543 17.0793 19.7053C16.8336 19.8647 16.6274 20.0778 16.4762 20.3286C16.3251 20.5793 16.2329 20.8612 16.2067 21.1527C15.4074 24.9715 16.7824 29.3225 14.6997 32.6223C12.4332 36.2132 7.19089 36.7111 4.44328 39.9492C2.95178 41.7069 2.37392 44.0755 1.00298 45.9286C-0.367981 47.7818 -3.27776 48.96 -4.92299 47.3451C-4.1144 45.684 -3.89359 43.7979 -4.29663 41.9951C-4.69969 40.1923 -5.70274 38.5794 -7.14191 37.4201C-8.6694 36.4242 -10.316 35.6239 -12.043 35.0379C-13.9727 34.2216 -15.8085 33.1992 -17.5182 31.9884C-18.3747 31.4722 -19.0706 30.7281 -19.5282 29.8392C-19.8902 28.7263 -19.8414 27.5206 -19.3908 26.4405C-18.5565 24.0503 -17.0848 21.9332 -15.1344 20.3178C-13.184 18.7024 -10.8292 17.65 -8.32402 17.2743C-6.13344 16.9765 -3.58391 17.0814 -2.13422 15.4135C-1.36716 14.531 -0.964676 13.1967 0.148727 12.8383C0.860901 12.6953 1.60027 12.7863 2.25645 13.0977L10.4328 15.9736C11.3451 16.3851 12.3492 16.5511 13.3455 16.455C13.8395 16.3885 14.2901 16.1378 14.6068 15.7531C14.9235 15.3685 15.0829 14.8783 15.0531 14.3811C14.7919 13.0242 12.7025 12.3731 12.8926 11.0045C12.9991 10.561 13.2377 10.1602 13.577 9.855C16.5277 6.71653 20.1363 4.26884 24.1445 2.68714C28.1526 1.10544 32.4612 0.428858 36.7616 0.705868C37.7936 2.3996 36.1614 4.40528 34.8034 5.85118C33.4453 7.29708 32.354 9.88054 33.9964 10.9935C34.6694 11.3368 35.4181 11.5053 36.1734 11.4835C38.1864 11.7558 40.1427 12.3487 41.9679 13.2398C44.7933 14.4685 47.5645 15.8129 50.2814 17.273C50.0415 15.4828 49.8124 13.5969 50.4914 11.923C51.1704 10.2492 53.1002 8.93629 54.7858 9.58816C56.4102 10.2164 57.2434 12.3659 58.9741 12.5628C61.2827 12.8255 62.1935 9.41724 61.2292 7.30473C60.2648 5.19222 58.3558 3.42334 58.1965 1.10688C58.089 -0.455889 58.6841 -2.39408 57.4349 -3.34038C56.9904 -3.62449 56.4857 -3.8013 55.961 -3.85683L24.7698 -9.59258C22.9176 -9.93319 20.2415 -9.67213 20.1594 -7.79193C20.1135 -6.74242 21.0517 -5.70414 20.6362 -4.73919C20.1927 -3.7093 18.7358 -3.80346 17.6747 -3.4392C16.0283 -2.874 15.2021 -0.920328 15.3602 0.812151C15.6497 2.53363 16.3169 4.16975 17.3139 5.60315C15.285 4.75527 12.2131 4.59943 10.1843 3.75155Z" fill="#3F3D56"/>
<path d="M64.8424 -25.3512L69.2297 -24.5088C68.4221 -24.5445 67.6162 -24.4078 66.8657 -24.1076C66.1152 -23.8075 65.4374 -23.3508 64.8775 -22.7681C64.3176 -22.1855 63.8884 -21.4902 63.6187 -20.7287C63.349 -19.9672 63.2449 -19.1569 63.3134 -18.352C67.4219 -16.9805 71.9011 -18.3151 76.2289 -18.1328C80.5568 -17.9505 85.5922 -14.8612 84.8534 -10.596C84.63 -9.3063 83.8845 -8.0175 84.2722 -6.76732C84.5439 -5.89106 85.3172 -5.2693 85.7537 -4.46228C86.6633 -2.78059 85.9364 -0.653503 84.7878 0.875206C83.6393 2.40391 82.0955 3.62366 81.0874 5.24825C78.58 9.28886 80.0046 14.5125 81.4982 19.0266C81.9301 20.7322 82.7276 22.3238 83.8355 23.6911C86.0484 26.0423 89.6546 26.2468 92.8843 26.2939C95.2349 26.3282 97.9277 26.2121 99.4142 24.3921C101.355 22.016 99.9979 18.3088 101.276 15.5202C102.436 12.9875 105.393 11.901 108.071 11.1304C112.979 9.7186 117.98 8.51836 122.619 6.3859C128.38 3.73794 133.764 -0.388634 140.096 -0.729488C141.872 -0.825108 143.693 -0.615604 145.404 -1.10198C147.115 -1.58835 148.74 -3.06672 148.611 -4.83975C148.5 -6.35468 147.218 -7.46711 146.215 -8.60913C145.213 -9.75115 144.426 -11.5073 145.347 -12.7155L161.944 -15.8134C160.768 -19.0173 159.851 -23.2369 162.555 -25.3224C163.53 -26.0749 164.836 -26.3756 165.666 -27.2853C167.082 -28.8357 166.37 -31.5065 164.736 -32.825C163.102 -34.1436 160.893 -34.4496 158.8 -34.6234C151.523 -35.2273 144.204 -34.8283 136.912 -34.4289C122.659 -33.6481 108.406 -32.8674 94.1525 -32.0867C91.2832 -31.9295 87.9704 -32.1696 85.3388 -31.1914C83.111 -30.3632 81.5269 -28.8431 78.9789 -28.309C74.2752 -27.323 69.0988 -27.9902 64.8424 -25.3512Z" fill="#3F3D56"/>
<path d="M143.439 9.30297C142.992 9.23228 142.535 9.33589 142.162 9.59239C141.915 9.86362 141.769 10.2107 141.746 10.5764C141.463 12.1904 141.8 13.8517 142.691 15.2277C143.144 15.9027 143.771 16.4441 144.504 16.7956C145.238 17.1471 146.052 17.2959 146.863 17.2266C148.839 16.9749 150.294 15.2907 152.111 14.4689C154.91 13.2034 166.797 11.2307 158.574 6.79115C155.74 5.2612 153.909 6.61179 151.675 7.61937C149.134 8.91851 146.287 9.50059 143.439 9.30297Z" fill="#3F3D56"/>
<path d="M301.022 279.378C300.332 281.374 300.266 283.725 301.46 285.468C302.799 287.423 305.479 288.152 307.798 287.657C310.107 287.043 312.165 285.72 313.682 283.876C315.07 282.33 316.212 280.581 317.067 278.689C318.261 275.74 319.103 272.661 319.576 269.516L321.826 257.709C322.329 255.071 322.309 246.981 317.456 249.617C316.13 250.337 313.061 256.022 311.671 257.634C309.167 260.539 308.836 263.359 307.518 266.878C305.867 271.287 302.548 274.962 301.022 279.378Z" fill="#3F3D56"/>
<path d="M238.817 109.184C239.106 110.736 239.391 112.371 238.882 113.866C238.373 115.361 236.771 116.61 235.259 116.152C234.085 115.797 233.407 114.617 232.573 113.718C227.938 108.718 217.48 111.613 214.617 105.426C213.448 102.901 214.242 99.8764 213.445 97.2111C212.942 95.6706 211.942 94.3407 210.6 93.4302C209.259 92.5197 207.653 92.0801 206.035 92.1806C204.559 92.3936 203.122 92.8222 201.771 93.4526C192.717 97.0759 183.213 99.4514 173.519 100.514C171.676 100.626 169.854 100.957 168.09 101.501C164.11 102.943 161.39 106.631 159.454 110.394C157.519 114.157 156.09 118.231 153.495 121.574C150.767 125.088 146.946 127.549 143.381 130.21C142.008 131.094 140.864 132.292 140.044 133.704C139.272 135.29 139.315 137.134 139.375 138.897L140.104 160.305C140.197 163.058 140.315 165.91 141.548 168.375C143.088 171.452 146.131 173.467 148.241 176.185C150.395 178.979 151.517 182.43 151.417 185.955C151.372 187.372 151.231 189.049 152.336 189.939C153.008 190.374 153.794 190.6 154.595 190.588L183.574 192.958C188.671 193.375 194.32 194.06 197.649 197.941C199.219 199.773 200.481 202.407 202.887 202.604C203.919 202.688 204.923 202.264 205.955 202.183C208.559 201.977 210.847 203.952 212.291 206.127C214.476 209.443 215.468 213.403 215.103 217.357C214.867 219.838 214.097 222.251 213.931 224.738C213.299 234.203 221.328 242.426 221.484 251.91C221.575 257.489 218.925 262.701 216.341 267.647C220.511 273.96 217.097 282.367 218.757 289.747C220.332 296.749 226.174 302.23 227.63 309.258C228.296 312.475 228.335 316.434 231.174 318.091C232.419 318.698 233.8 318.974 235.184 318.893C243.528 318.992 251.778 317.115 259.257 313.417C262.768 311.676 266.406 309.077 267.019 305.209C267.513 302.09 265.93 298.601 267.541 295.884C269.44 292.682 274.303 292.936 277.097 290.474C281.629 286.48 278.095 278.862 279.931 273.11C281.581 267.938 287.263 265.191 290.079 260.55C291.188 258.554 291.983 256.4 292.438 254.163C293.728 248.817 294.531 243.364 294.837 237.873C294.912 234.537 295.158 231.206 295.574 227.895C298.611 209.044 317.26 196.421 323.315 178.311C323.893 176.582 324.165 174.278 322.625 173.299C321.712 172.864 320.677 172.756 319.693 172.993L306.335 174.676C304.675 174.885 302.917 175.08 301.393 174.391C299.869 173.703 298.777 171.776 299.585 170.313C301.854 166.206 297.187 161.017 295.113 156.808C289.529 145.475 282.88 134.698 275.254 124.623C274.766 124.105 274.46 123.442 274.383 122.734L278.175 122.86C276.895 118.271 274.783 113.249 270.321 111.571C267.807 110.625 265.023 110.952 262.341 111.098C254.658 111.518 246.421 110.359 238.817 109.184Z" fill="#3F3D56"/>
<path d="M262.346 5.76694C264.357 7.90048 266.61 10.1625 269.519 10.5344C274.657 11.1913 278.351 5.88193 280.703 1.27016C280.79 2.44587 281.332 3.54126 282.215 4.32335C283.098 5.10543 284.251 5.5125 285.43 5.458C286.698 5.24476 287.908 4.77188 288.985 4.06899C299.165 -1.49024 310.567 -4.43574 322.167 -4.50297C322.056 -5.38112 322.274 -6.26938 322.779 -6.99637C323.285 -7.72336 324.041 -8.23756 324.904 -8.43974C327.262 -8.90701 329.387 -6.86925 330.525 -4.75246C331.663 -2.63566 332.372 -0.182129 334.18 1.40232C335.987 2.98676 339.487 2.91776 340.201 0.62331C340.887 -1.57946 338.59 -3.45798 336.682 -4.75666C334.775 -6.05533 332.764 -8.45899 334.048 -10.3755C343.795 -12.5316 353.603 -14.6958 363.576 -15.1243C365.274 -15.0653 366.966 -15.3565 368.547 -15.98C370.068 -16.7258 371.277 -18.419 370.868 -20.062C368.691 -19.5507 366.412 -19.6988 364.32 -20.4873C362.228 -21.2758 360.418 -22.6691 359.122 -24.4894C372.961 -25.6306 387.68 -26.6033 399.945 -20.096C401.417 -16.9387 393.916 -14.3118 395.923 -11.4641C396.563 -10.5558 397.845 -10.4493 398.957 -10.4287C407.48 -10.2706 416.052 -10.1155 424.478 -11.4014C427.558 -11.8713 430.668 -12.5346 433.76 -12.1536C438.909 -11.5189 443.314 -8.0853 448.38 -6.96581C450.442 -6.51016 452.754 -6.49473 454.493 -7.69324C456.231 -8.89175 456.978 -11.6208 455.554 -13.1788C460.324 -17.8507 468.241 -16.6928 474.533 -14.4561C480.826 -12.2195 486.788 -8.61249 493.449 -8.11393C498.225 -7.75642 503.067 -9.04023 507.787 -8.22421C510.752 -7.71142 513.512 -6.39299 516.411 -5.58298C521.893 -4.05097 527.692 -4.37437 533.384 -4.30064C547.907 -4.10512 562.271 -1.25281 575.766 4.11504C577.521 4.68617 579.13 5.63577 580.477 6.89671C581.733 8.24038 582.373 10.3284 581.529 11.962L567.585 9.92596C568.899 12.5105 572.298 12.951 575.058 13.8426C577.818 14.7342 580.68 17.7803 579.022 20.1585C576.031 19.2069 573.321 22.195 571.81 24.9442C570.299 27.6935 568.458 30.9861 565.324 31.1536C562.517 31.3036 559.123 28.9154 557.293 31.0477C559.821 34.2339 561.985 37.6915 563.746 41.3567C565.553 45.1194 566.841 49.8606 564.398 53.246C564.014 53.8503 563.431 54.302 562.749 54.5236C560.754 55.0283 559.458 52.5893 558.027 51.111C556.224 49.2482 553.498 48.7206 551.056 47.847C548.615 46.9733 546.043 45.2547 545.852 42.6702C545.733 41.0622 546.582 39.5674 547.208 38.0812C548.26 35.5762 548.72 32.8626 548.552 30.1512C548.415 27.9698 547.803 25.7007 546.236 24.1766C544.668 22.6525 541.961 22.169 540.278 23.5649C539.493 24.2163 538.864 25.2581 537.844 25.2971C536.042 25.366 534.659 22.2267 533.209 23.2983C533.379 24.4401 533.142 25.6054 532.54 26.5903C528.214 30.3501 521.568 28.7595 515.991 30.0876C513.339 30.846 510.8 31.9541 508.441 33.3826C507.558 33.7597 506.807 34.3896 506.283 35.1928C505.586 36.5447 506.354 38.2761 507.581 39.1749C508.882 39.9725 510.345 40.4713 511.862 40.6352C518.661 41.922 525.56 43.914 530.927 48.2781C536.295 52.6421 539.815 59.8561 538.117 66.5596L524.709 53.7568C525.218 59.1325 525.507 64.5229 525.576 69.9281C525.662 70.9835 525.517 72.0451 525.151 73.0386C524.195 75.1484 521.604 75.8583 519.334 76.3241C518.703 76.4439 518.104 76.696 517.577 77.0636C517.05 77.4312 516.606 77.906 516.276 78.457C515.946 79.0079 515.736 79.6225 515.66 80.2603C515.584 80.8981 515.644 81.5447 515.836 82.1576C516.643 84.7848 518.654 86.8331 520.495 88.8741C522.337 90.9151 524.149 93.2348 524.39 95.9723C524.631 98.7098 522.564 101.795 519.821 101.605C517.741 101.461 516.198 99.6003 515.311 97.715C514.424 95.8298 513.897 93.7297 512.564 92.1278C508.53 87.2793 499.468 89.3566 495.854 84.1878C494.933 85.232 494.294 86.4942 493.999 87.8545C493.703 89.2149 493.76 90.6281 494.164 91.9602C495.846 90.9085 498.147 91.8857 499.41 93.414C500.674 94.9422 501.27 96.9015 502.262 98.618C503.6 100.934 505.73 102.988 505.917 105.656C505.868 106.665 505.885 107.676 505.968 108.682C506.3 110.299 507.668 111.46 508.616 112.811C510.822 115.956 510.713 120.275 509.291 123.843C507.869 127.411 505.314 130.392 502.784 133.282C498.365 138.33 493.855 143.349 488.616 147.541C487.121 148.737 485.525 149.913 484.594 151.586C483.663 153.258 483.615 155.606 485.046 156.878C484.022 156.929 482.186 157.432 481.162 157.484C480.802 153.379 480.724 149.255 480.928 145.14C476.888 143.202 472.538 148.394 473.059 152.842C473.58 157.29 476.8 160.86 479.092 164.709C480.769 167.523 482.014 170.805 481.455 174.032C480.895 177.259 478.012 180.236 474.747 179.951C469.554 179.499 467.382 172.048 462.239 171.195C461.785 171.089 461.309 171.136 460.885 171.33C460.122 171.748 459.989 172.769 459.946 173.638C459.736 177.904 459.554 182.34 461.22 186.273C463.658 192.027 469.956 196.859 468.635 202.967C461.518 199.661 457.818 191.685 456.137 184.024C454.457 176.363 454.177 168.321 451.166 161.078C448.879 164.007 444.072 161.586 441.983 158.513C440.002 155.6 438.782 152.23 436.86 149.278C434.939 146.325 431.994 143.682 428.474 143.519C424.782 143.349 421.581 145.88 418.765 148.272C416.45 150.239 414.073 152.283 412.72 155.002C410.751 158.958 411.266 163.622 411.171 168.04C411.068 172.816 410.056 177.855 406.798 181.351C403.541 184.848 397.529 186.066 393.936 182.914C392.06 181.269 391.152 178.811 390.343 176.452C386.443 165.08 383.196 153.494 380.616 141.752C380.012 144.432 377.657 147.886 375.408 146.308C374.903 145.883 374.494 145.357 374.208 144.763C370.011 137.655 362.24 133.392 354.388 130.836C346.536 128.28 338.275 127.087 330.51 124.278C326.158 122.703 322.002 120.634 318.123 118.112C317.134 119.564 316.557 121.256 316.452 123.009C316.347 124.763 316.719 126.511 317.528 128.071C319.25 131.118 323.148 132.882 326.484 131.816C328.209 131.266 329.665 130.07 331.375 129.479C333.086 128.888 335.382 129.178 336.13 130.825C336.846 132.402 335.764 134.309 336.301 135.955C337.119 138.462 340.903 138.655 342.226 140.937C343.21 142.634 342.4 144.888 340.995 146.258C339.589 147.628 337.714 148.379 335.998 149.333C330.43 152.426 326.471 157.708 321.606 161.817C316.74 165.925 309.875 168.925 304.077 166.29C305.459 159.296 297.121 154.161 295.588 147.198C295.083 144.906 295.345 142.472 294.624 140.239C293.58 137.005 290.71 134.782 288.355 132.332C285.498 129.327 283.273 125.782 281.81 121.904C280.347 118.026 279.676 113.895 279.837 109.754C279.964 106.877 280.493 103.952 279.837 101.148C279.181 98.3427 276.857 95.6281 273.978 95.7552C267.401 96.0455 259.116 96.5343 255.665 90.9317C254.434 88.9321 253.898 86.0035 255.678 84.4716C256.934 83.3909 258.788 83.4926 260.438 83.6548L275.256 85.1115C278.722 85.4522 282.469 85.7334 285.443 83.9228C288.417 82.1121 289.706 77.3059 286.952 75.1757C284.94 73.6192 281.335 73.7036 280.75 71.2288C280.262 69.1678 282.545 66.8292 281.312 65.1068C280.428 63.8717 278.441 64.2144 277.236 65.1402C276.032 66.0661 275.158 67.4201 273.81 68.1211C271.446 69.3508 268.62 68.1805 266.076 67.385C263.532 66.5896 260.122 66.522 258.888 68.8832C257.508 71.5239 260.112 74.9841 258.742 77.6302C256.931 81.1286 250.799 79.1371 248.256 82.1463C245.338 85.5993 250.242 90.7483 249.258 95.1596C248.002 95.7814 246.605 96.067 245.206 95.9884C243.806 95.9098 242.45 95.4697 241.272 94.7112C240.112 93.9232 239.188 92.8359 238.598 91.565C238.008 90.294 237.773 88.887 237.919 87.4934C238.163 85.509 239.198 83.4833 238.504 81.608C237.944 80.0918 236.42 79.1892 235.004 78.4074L220.604 70.4554C219.267 72.9338 220.957 76.0064 223.071 77.8679C225.185 79.7295 227.833 81.1315 229.221 83.5814C230.1 85.2788 230.297 87.2472 229.772 89.0848C229.247 90.9223 228.04 92.4904 226.398 93.4687C226.192 93.6107 225.957 93.7064 225.711 93.7494C225.465 93.7923 225.212 93.7814 224.97 93.7175C224.74 93.5826 224.54 93.403 224.381 93.1893C224.222 92.9756 224.108 92.7322 224.044 92.4735C221.504 85.9759 217.689 79.5696 211.59 76.1754C205.491 72.7812 196.728 73.479 192.728 79.1968C191.778 80.5548 191.141 82.1029 190.313 83.5387C185.917 91.1671 176.491 94.7794 167.685 94.5434C166.824 94.591 165.967 94.3898 165.217 93.9638C163.794 92.9815 163.858 90.8972 164.076 89.1826L165 81.9059C165.186 80.4447 165.455 78.8296 166.612 77.9175C168.243 76.6317 170.597 77.4431 172.674 77.4132C174.248 77.3396 175.761 76.7841 177.009 75.8221C178.256 74.8601 179.177 73.538 179.648 72.0352C180.067 70.5175 180.065 68.9142 179.64 67.398C179.215 65.8817 178.384 64.51 177.237 63.4307C176.285 62.537 175.007 61.4144 175.51 60.2095C175.71 59.8763 175.982 59.591 176.305 59.3737C176.627 59.1565 176.994 59.0126 177.378 58.952C181.11 57.8691 185.053 57.5852 188.723 56.3074C192.392 55.0297 195.951 52.4154 196.82 48.6305C197.087 47.4706 197.208 46.0655 198.25 45.4904C198.774 45.2697 199.335 45.155 199.903 45.153C201.893 44.8701 203.704 43.8533 204.981 42.3027C206.258 40.752 206.907 38.7799 206.802 36.7746C208.56 35.5466 211.024 36.4499 212.726 37.756C214.427 39.0621 215.929 40.7877 217.999 41.3507C221.857 42.4 225.585 38.9866 229.584 38.9708C231.265 38.9641 233.006 39.5582 234.587 38.9886C236.191 38.4111 237.149 36.8159 238.379 35.6375C239.61 34.459 241.769 33.7402 242.906 35.0097L241.938 27.8465C243.887 28.3386 245.919 28.4082 247.897 28.0508C249.875 27.6934 251.754 26.9173 253.407 25.7745L240.9 21.5515C240.464 21.4429 240.062 21.2282 239.73 20.9266C238.821 19.9482 239.724 18.4234 240.463 17.3112C242.232 14.6504 242.529 10.2674 239.62 8.94269C237.635 8.0385 235.356 9.12385 233.45 10.1857L224.321 15.2721C224.031 17.0061 226.153 17.9888 227.468 19.1568C228.264 19.8635 228.827 20.7941 229.083 21.8264C229.34 22.8587 229.278 23.9444 228.906 24.9409C228.534 25.9374 227.869 26.7981 226.998 27.41C226.127 28.0219 225.092 28.3563 224.028 28.3694C224.629 29.1504 225.046 30.0564 225.25 31.0206C225.453 31.9847 225.436 32.9822 225.202 33.9391L219.06 34.3806C218.37 34.5191 217.654 34.3794 217.067 33.992C216.411 33.409 216.5 32.3873 216.347 31.5227C215.98 29.4357 213.935 27.9729 211.848 27.5979C209.761 27.2228 207.626 27.7036 205.559 28.1783C204.682 28.4938 203.718 28.4716 202.856 28.1159C202.362 27.795 201.986 27.3212 201.786 26.767C200.88 24.5716 201.727 21.9913 203.182 20.1139C204.638 18.2365 206.63 16.864 208.419 15.3011C212.697 11.5498 215.841 6.67766 217.494 1.23507C220.875 -0.180603 224.375 -2.10409 227.757 -3.51979C232.969 -6.1572 238.815 -7.28904 244.637 -6.78803L256.087 -6.56946C259.477 -6.50475 262.959 -6.42184 266.094 -5.13029C269.229 -3.83874 271.983 -1.0453 272.2 2.33621C272.265 2.71903 272.232 3.11213 272.103 3.47865C271.975 3.84517 271.755 4.17309 271.465 4.4316C271.023 4.67303 270.521 4.78597 270.018 4.75768C266.856 4.86871 265.508 5.65595 262.346 5.76694Z" fill="#3F3D56"/>
<path d="M171.077 41.6286C171.524 41.2054 171.846 40.6672 172.007 40.0731C172.169 39.479 172.163 38.852 171.991 38.261C170.902 37.8413 169.718 37.7335 168.571 37.9498C167.425 38.1662 166.361 38.6981 165.501 39.4856C164.823 40.1713 164.238 40.9436 163.762 41.7825C162.258 44.2356 160.927 47.1658 161.799 49.908C161.87 50.207 162 50.4889 162.181 50.737C162.363 50.9851 162.592 51.1945 162.856 51.3529C163.247 51.5096 163.668 51.5756 164.088 51.5458C165.746 51.5436 167.402 51.4417 169.047 51.2408C170.057 51.1173 171.231 50.8322 171.621 49.8927C172.135 48.6579 170.892 47.2604 171.255 45.9732C171.493 45.3975 171.854 44.8808 172.313 44.459C172.54 44.2466 172.715 43.9841 172.823 43.6924C172.932 43.4006 172.97 43.0877 172.937 42.7784C172.79 42.1744 171.865 41.8317 171.532 42.3565" fill="#3F3D56"/>
<path d="M179.673 30.4927C178.2 30.1549 176.682 30.0596 175.179 30.2108C174.847 30.2009 174.517 30.2757 174.222 30.4282C173.935 30.6392 173.728 30.9397 173.632 31.2821C173.314 32.3004 173.392 33.4009 173.85 34.3643C174.308 35.3277 175.113 36.0833 176.103 36.4807C176.643 36.6047 177.16 36.8124 177.636 37.0961C178.907 38.0815 178.096 40.0957 178.337 41.6851C178.607 43.4698 180.336 44.9679 180.019 46.745C179.769 48.145 178.273 49.2535 178.514 50.6551C178.766 52.123 180.63 52.5641 182.116 52.6817C182.977 52.8324 183.864 52.7309 184.668 52.3894C185.475 51.8383 186.048 51.0081 186.278 50.0592C186.887 48.2498 187.142 46.3407 187.031 44.4352C187.025 43.5685 186.807 42.7165 186.397 41.9529C185.949 41.348 185.453 40.7805 184.914 40.256C182.067 36.9469 185.064 32.0111 179.673 30.4927Z" fill="#3F3D56"/>
<path opacity="0.8" d="M554.012 289.709C554.012 289.709 335.982 164.643 242.117 188.34C242.117 188.34 43.1884 209.733 20.1338 256.797C20.1338 256.797 -43.1017 59.3239 -66.1562 52.7415" stroke="#5F7FF8" stroke-width="2" stroke-miterlimit="10"/>
<path opacity="0.8" d="M20.1338 256.797C56.6918 159.377 386.043 51.425 386.043 51.425C339.275 63.2734 242.117 188.34 242.117 188.34C242.117 188.34 36.6013 38.9184 -66.1562 52.7415C-66.1562 52.7415 386.372 67.552 554.012 289.709" stroke="#5F7FF8" stroke-width="2" stroke-miterlimit="10"/>
<path d="M20.1332 266.342C25.4082 266.342 29.6844 262.069 29.6844 256.797C29.6844 251.526 25.4082 247.253 20.1332 247.253C14.8582 247.253 10.582 251.526 10.582 256.797C10.582 262.069 14.8582 266.342 20.1332 266.342Z" fill="#5F7FF8"/>
<path d="M386.043 60.9695C391.318 60.9695 395.595 56.6962 395.595 51.4249C395.595 46.1536 391.318 41.8804 386.043 41.8804C380.768 41.8804 376.492 46.1536 376.492 51.4249C376.492 56.6962 380.768 60.9695 386.043 60.9695Z" fill="#5F7FF8"/>
<path d="M242.116 197.884C247.391 197.884 251.667 193.611 251.667 188.34C251.667 183.068 247.391 178.795 242.116 178.795C236.841 178.795 232.564 183.068 232.564 188.34C232.564 193.611 236.841 197.884 242.116 197.884Z" fill="#5F7FF8"/>
</g>
</g>
<defs>
<clipPath id="clip0_11576_3643">
<rect width="432" height="306" fill="white"/>
</clipPath>
<clipPath id="clip1_11576_3643">
<rect width="939" height="697" fill="white" transform="translate(-237 -195)"/>
</clipPath>
</defs>
</svg>
