<svg width="859" height="229" viewBox="0 0 859 229" fill="none" xmlns="http://www.w3.org/2000/svg">
<g clip-path="url(#clip0_11703_4533)">
<path d="M816.549 -70.7351C706.342 -224.038 473.536 -286.224 244.578 -219.248C123.536 -183.84 6.82785 -112.894 -51.0096 24.4797C-154.4 270.05 62.6815 348.48 204.629 373.476C273.268 385.563 337.913 405.866 396.987 433.509C503.266 483.242 691.388 527.309 833.244 320.152C936.061 170.003 889.957 31.3798 816.549 -70.7351Z" fill="#F2F2F2"/>
<path d="M177.608 -40.4049C177.299 -42.8413 176.676 -45.2274 175.753 -47.5033C175.635 -47.9337 175.429 -48.3349 175.148 -48.6813C174.866 -49.0277 174.516 -49.3117 174.119 -49.5152C173.588 -49.6532 173.031 -49.6594 172.497 -49.5334L164.173 -48.2601C163.476 -48.2282 162.809 -47.9691 162.273 -47.5223C161.189 -46.3825 162.257 -44.547 162.224 -42.9745C162.186 -41.2062 160.615 -39.7709 158.91 -39.296C157.17 -38.9446 155.376 -38.9668 153.645 -39.3613L142.005 -41.1695C145.433 -42.2636 148.485 -44.2992 150.811 -47.0438C152.343 -48.8578 153.158 -52.2446 150.944 -53.1036C150.286 -53.284 149.6 -53.3391 148.922 -53.2659C143.648 -53.2249 139.498 -57.6266 134.561 -59.4805C131.401 -60.5903 127.971 -60.6729 124.761 -59.7164C121.552 -58.7599 118.727 -56.8133 116.691 -54.155L122.891 -53.8562C123.475 -53.8884 124.053 -53.7341 124.543 -53.4158C125.902 -52.2997 124.213 -50.1558 124.404 -48.4081C124.653 -46.1374 127.669 -45.6526 129.942 -45.423C132.216 -45.1934 135.1 -43.3468 134.006 -41.3411C122.579 -37.4066 110.951 -49.0324 98.9504 -47.6013C95.9131 -47.2391 93.045 -46.0463 90.0796 -45.2963C71.9647 -40.7146 53.237 -52.939 34.7316 -50.3501C30.6176 -49.649 26.5743 -48.583 22.6495 -47.1648C20.1309 -46.3381 17.5038 -45.4447 15.6738 -43.5275C13.8438 -41.6103 13.1473 -38.3315 14.8809 -36.3268C10.1025 -35.9334 5.29223 -36.3905 0.673542 -37.6768C1.92252 -36.9828 2.96156 -35.9654 3.6816 -34.7316C4.40164 -33.4977 4.77611 -32.0928 4.76572 -30.6644C-2.69518 -29.4482 -9.95853 -27.2343 -16.8289 -24.0822C-15.5467 -21.9506 -14.049 -19.9562 -12.3594 -18.1303L-21.8047 -12.0643C-18.6136 -11.2606 -16.9637 -6.91081 -18.8195 -4.19415C-15.5107 -5.66561 -13.4601 -9.47216 -9.92185 -10.2439C-7.60386 -10.7495 -5.24525 -9.80162 -3.04629 -8.91115C-0.847322 -8.02069 1.56956 -7.15723 3.84596 -7.82555C6.12236 -8.49386 7.80141 -11.4445 6.35492 -13.3244C16.0848 -16.1623 26.1405 -17.7328 36.2727 -17.997C37.0543 -18.095 37.8471 -17.9446 38.5385 -17.5671C39.8574 -16.6524 39.5104 -14.6766 39.4394 -13.0735C39.3683 -11.4703 40.6182 -9.36333 42.0516 -10.0859C40.3653 -8.62418 41.8068 -5.8723 43.4247 -4.33516C45.0425 -2.79801 46.9925 -0.677006 46.002 1.32251C45.7435 1.84438 45.3051 2.26194 45.0563 2.78853C44.3221 4.34289 45.4878 6.15501 46.8628 7.18723C48.2378 8.21946 49.922 8.94087 50.8771 10.3702C51.8322 11.7996 51.3985 14.3016 49.6906 14.5012L44.8361 8.33979C43.1776 10.059 42.0405 12.213 41.5568 14.5519C46.7046 18.7586 47.4789 27.3209 43.1692 32.3822C40.9669 34.9687 37.835 36.5403 35.1015 38.5577C32.3681 40.5752 29.8388 43.448 29.8456 46.8445C29.8575 52.7125 29.3779 58.1642 31.5776 63.6047C35.6338 73.6363 40.3168 83.4032 45.599 92.8475C46.9861 95.3274 48.7788 98.0456 51.5889 98.4726C48.0375 89.8302 44.8406 81.0533 41.9982 72.142C43.8496 72.1492 45.989 72.2962 47.0743 73.7955C47.973 75.0371 47.78 76.7251 48.0592 78.232C48.4144 79.692 49.0067 81.0838 49.8125 82.3522L66.771 112.55C68.1769 115.053 69.7894 117.74 72.4763 118.754C74.1941 119.402 76.1816 119.28 77.7627 120.213C79.002 120.945 79.8368 122.243 81.1002 122.932C84.6726 124.88 89.6404 121.144 92.9789 123.47C93.9335 124.135 94.5408 125.192 95.4203 125.953C98.5037 128.622 103.562 126.837 107.121 128.828C109.415 130.111 110.604 132.678 111.828 135.003C114.893 140.829 119.852 146.537 126.42 147.001C128.484 147.147 130.591 146.756 132.608 147.214C134.625 147.673 136.61 149.433 136.287 151.475C135.731 154.976 137.462 158.81 136.997 162.324C136.151 168.725 127.068 171.538 126.287 177.948C126.117 179.351 126.384 180.8 126.05 182.174C125.64 183.857 124.375 185.228 123.926 186.902C123.074 190.073 125.347 193.229 127.844 195.363C130.341 197.496 133.319 199.336 134.684 202.323C136.127 205.479 135.418 209.16 135.887 212.599C136.912 220.107 143.399 225.672 150.074 229.261C152.108 230.354 154.292 231.413 155.609 233.309C157.327 235.785 157.156 239.049 157.729 242.007C159.135 249.251 165.235 255.22 165.409 262.598C165.532 267.841 162.616 272.598 160.874 277.546C159.241 282.286 158.65 287.323 159.142 292.312C159.633 297.301 161.195 302.126 163.722 306.457C165.025 308.656 166.583 310.73 167.505 313.114C169.15 317.369 168.616 322.206 170.133 326.508C172.138 332.196 177.647 336.894 177.12 342.901C179.621 348.094 185.144 350.645 190.698 352.19L200.652 354.96C202.558 355.49 204.55 356.025 206.49 355.641C208.431 355.257 210.283 353.646 210.233 351.669C205.352 350.569 200.314 349.398 196.29 346.425C192.266 343.452 189.51 338.157 191.037 333.393C191.745 331.184 193.251 328.633 191.819 326.808C190.999 325.763 189.5 325.49 188.575 324.537C187.133 323.05 187.628 320.551 188.665 318.758C189.702 316.965 191.201 315.362 191.619 313.334C191.83 312.199 191.689 311.026 191.215 309.974C190.741 308.921 189.956 308.039 188.965 307.445C190.811 306.748 192.49 305.672 193.892 304.285C195.188 302.806 195.786 300.526 194.767 298.844C197.794 299.228 201.367 299.416 203.354 297.101C204.94 295.253 204.831 292.49 204.204 290.137C203.578 287.783 202.518 285.497 202.485 283.062C209.467 283.393 216.464 283.156 223.408 282.353C222.404 278.973 220.122 276.116 217.046 274.389C220.191 273.857 223.056 270.094 224.05 267.064C225.043 264.035 224.79 260.734 224.176 257.606C223.94 256.8 223.907 255.949 224.082 255.128C224.436 254 225.544 253.311 226.57 252.723L242.179 243.761C243.111 243.295 243.955 242.672 244.675 241.919C246.311 239.999 246.068 237.1 245.231 234.721C244.394 232.342 243.052 230.105 242.73 227.604C241.765 220.124 249.775 214.756 252.479 207.715C253.54 204.952 253.756 201.948 253.961 198.995C254.182 195.824 254.198 192.14 251.762 190.096C249.427 188.137 245.779 188.574 243.335 186.752C241.095 185.081 240.322 181.837 237.875 180.487C235.653 179.262 232.866 180.041 230.394 179.465C226.042 178.45 223.303 173.436 218.859 172.971C216.351 172.71 213.513 173.935 211.457 172.475C209.646 171.189 209.574 168.603 209.229 166.409C208.625 162.999 206.99 159.856 204.544 157.403C202.098 154.951 198.96 153.306 195.551 152.691C192.965 152.277 190.15 152.434 187.951 151.014C185.723 149.575 184.702 146.883 182.952 144.891C180.133 141.68 175.692 140.54 171.531 139.562L154.609 135.585C151.605 134.879 147.733 134.505 146.121 137.135C145.644 138.137 145.306 139.199 145.117 140.292C144.513 142.27 143.297 144.005 141.644 145.248C139.992 146.492 137.988 147.179 135.92 147.212C134.501 144.794 132.204 143.017 129.506 142.252C127.79 141.774 125.954 141.72 124.317 141.017C123.426 140.582 122.633 139.97 121.986 139.218C121.34 138.466 120.854 137.59 120.557 136.644C120.261 135.698 120.162 134.701 120.264 133.715C120.367 132.729 120.67 131.774 121.154 130.909C122.13 129.173 122.507 127.163 122.226 125.192C121.946 123.22 121.024 121.395 119.604 119.999C116.726 117.416 112.563 116.792 108.704 117.051C107.694 114.846 109.383 112.359 111.204 110.757C113.025 109.155 115.237 107.58 115.633 105.188C116.257 101.425 111.454 98.5667 107.807 99.6887C104.16 100.811 101.832 104.352 100.294 107.842C99.4109 109.845 98.6603 111.954 97.2678 113.643C95.8752 115.331 93.6327 116.54 91.5116 115.998C88.5087 115.231 87.3489 111.665 86.6843 108.639C85.7926 104.578 84.8957 100.462 85.0826 96.3089C85.2694 92.1561 86.6699 87.8921 89.7332 85.0808C94.725 80.4997 102.383 80.9488 109.12 81.6796C107.528 79.887 107.921 76.8658 109.624 75.1785C110.523 74.38 111.603 73.8128 112.771 73.526C113.939 73.2392 115.159 73.2415 116.326 73.5326C118.356 73.955 120.185 75.0481 121.518 76.6357C123.432 78.9689 123.977 82.1193 125.424 84.7677C126.871 87.416 130.124 89.6749 132.788 88.2541C135.088 87.0268 135.453 83.8383 134.881 81.2954C134.308 78.7525 133.092 76.2798 133.299 73.6816C133.695 68.7239 138.836 65.7397 143.373 63.6979C147.909 61.6561 153.104 58.9102 153.823 53.9889C153.848 53.0253 154.029 52.0722 154.361 51.1672C154.864 50.368 155.564 49.7106 156.393 49.2577C169.633 40.5108 183.093 31.657 198.227 26.8775C199.014 26.6288 199.106 26.9052 199.909 26.7104C201.032 26.0616 200.288 24.2668 199.211 23.5438C198.134 22.8208 196.695 22.2663 196.422 20.9988C196.221 20.0671 196.77 19.1522 196.913 18.2099C197.264 15.8942 194.492 13.7562 192.34 14.6819C191.125 13.0726 193.53 11.2027 195.475 10.6674C201.315 9.06065 207.31 8.08164 213.359 7.74702C214.056 7.63609 214.771 7.75768 215.393 8.09304C216.409 8.79645 216.28 10.4098 215.56 11.4138C214.84 12.4179 213.72 13.0483 212.823 13.8978C211.842 14.8523 211.143 16.0577 210.802 17.3822C210.46 18.7068 210.489 20.0998 210.885 21.4091C214.042 23.0146 217.475 24.6674 220.972 24.1018C224.469 23.5362 227.573 19.6084 225.929 16.4715C224.398 13.5503 219.801 12.8914 219.01 9.68987C218.084 5.9414 223.392 2.60756 222.197 -1.06376C221.673 -2.67191 220.07 -3.61835 218.839 -4.77939C217.386 -6.20291 216.398 -8.03239 216.004 -10.0276C215.61 -12.0228 215.829 -14.0904 216.632 -15.9589C214.628 -15.6065 212.569 -15.7397 210.628 -16.3471C208.686 -16.9545 206.918 -18.0185 205.473 -19.4499C202.803 -22.1428 200.674 -26.3908 196.883 -26.2703C193.405 -26.1598 190.409 -22.1032 187.157 -23.3408C186.357 -23.6452 185.513 -24.2649 184.738 -23.9018C184.484 -23.7369 184.27 -23.5164 184.114 -23.257C183.958 -22.9977 183.862 -22.7061 183.835 -22.4045C183.009 -18.4543 184.431 -13.9535 182.277 -10.54C179.933 -6.82545 174.512 -6.31045 171.671 -2.96086C170.129 -1.14258 169.531 1.30753 168.113 3.2245C166.696 5.14148 163.687 6.36028 161.986 4.68971C162.822 2.97138 163.05 1.02034 162.633 -0.844524C162.216 -2.70939 161.179 -4.37779 159.691 -5.57701C158.111 -6.60718 156.409 -7.43507 154.623 -8.04128C152.627 -8.88566 150.729 -9.94329 148.961 -11.1957C148.075 -11.7298 147.356 -12.4995 146.883 -13.4189C146.508 -14.5702 146.559 -15.8174 147.025 -16.9347C147.887 -19.4072 149.409 -21.5972 151.426 -23.2682C153.443 -24.9393 155.878 -26.0279 158.469 -26.4165C160.734 -26.7246 163.37 -26.616 164.869 -28.3414C165.663 -29.2543 166.079 -30.6345 167.23 -31.0053C167.967 -31.1532 168.731 -31.0591 169.41 -30.737L177.865 -27.762C178.808 -27.3363 179.846 -27.1646 180.877 -27.264C181.387 -27.3328 181.853 -27.5922 182.181 -27.9901C182.508 -28.388 182.673 -28.895 182.642 -29.4093C182.372 -30.8129 180.212 -31.4865 180.408 -32.9022C180.518 -33.361 180.765 -33.7756 181.116 -34.0913C184.167 -37.3378 187.899 -39.8698 192.044 -41.506C196.188 -43.1421 200.644 -43.842 205.091 -43.5555C206.158 -41.8034 204.47 -39.7287 203.066 -38.233C201.661 -36.7373 200.533 -34.0649 202.231 -32.9136C202.927 -32.5585 203.701 -32.3842 204.482 -32.4067C206.564 -32.1251 208.587 -31.5117 210.474 -30.5899C213.396 -29.3189 216.262 -27.9282 219.071 -26.4179C218.823 -28.2697 218.586 -30.2206 219.288 -31.952C219.991 -33.6835 221.986 -35.0416 223.729 -34.3673C225.409 -33.7174 226.27 -31.494 228.06 -31.2903C230.447 -31.0185 231.389 -34.5441 230.392 -36.7294C229.395 -38.9146 227.421 -40.7444 227.256 -43.1406C227.145 -44.7572 227.76 -46.7621 226.468 -47.741C226.009 -48.0349 225.487 -48.2178 224.944 -48.2753L192.69 -54.2085C190.775 -54.5608 188.008 -54.2908 187.923 -52.3459C187.875 -51.2602 188.845 -50.1862 188.416 -49.188C187.957 -48.1226 186.451 -48.2201 185.353 -47.8432C183.651 -47.2586 182.796 -45.2376 182.96 -43.4455C183.259 -41.6648 183.949 -39.9723 184.98 -38.4895C182.882 -39.3666 179.706 -39.5278 177.608 -40.4049Z" fill="#3F3D56"/>
<path d="M478.357 244.712C477.643 246.777 477.576 249.209 478.81 251.012C480.195 253.035 482.966 253.789 485.364 253.276C487.752 252.641 489.88 251.273 491.449 249.365C492.884 247.766 494.064 245.957 494.949 244C496.184 240.949 497.054 237.764 497.543 234.511L499.87 222.298C500.39 219.568 500.37 211.2 495.352 213.927C493.981 214.671 490.806 220.552 489.37 222.22C486.78 225.225 486.438 228.141 485.074 231.783C483.367 236.343 479.935 240.144 478.357 244.712Z" fill="#3F3D56"/>
<path d="M782.33 190.207C780.809 190.577 779.233 190.67 777.679 190.481C775.098 190.007 773.088 188.062 771.004 186.467C766.05 182.696 760.027 180.592 753.801 180.459C748.138 180.352 742.422 181.886 736.859 180.815C737.223 182.836 738.952 184.351 740.798 185.252C742.643 186.153 744.68 186.606 746.534 187.489C749.504 188.916 751.859 191.365 753.169 194.388C753.766 195.782 754.142 197.298 755.046 198.515C756.895 201.002 760.4 201.548 763.493 201.345C767.526 201.08 771.738 199.92 775.49 201.422C778.36 202.571 780.414 205.082 782.811 207.035C785.207 208.988 788.583 210.437 791.335 209.028C788.476 208.103 785.989 206.289 784.235 203.85C782.481 201.412 781.552 198.477 781.585 195.474C784.284 195.722 792.057 195.626 791.639 191.042C791.284 187.157 784.648 189.788 782.33 190.207Z" fill="#3F3D56"/>
<path d="M747.025 221.817C747.504 219.19 750.125 216.869 749.308 214.327C748.744 212.568 746.704 211.7 744.857 211.656C743.01 211.613 741.195 212.163 739.348 212.215C738.146 212.151 736.941 212.168 735.741 212.266C732.075 212.868 729.816 216.71 726.361 218.076C724.26 218.906 721.9 218.747 719.715 219.322C714.755 220.625 711.617 225.31 708.15 229.087C702.548 235.163 695.25 239.418 687.201 241.299C684.382 241.952 681.35 242.37 679.109 244.201C676.14 246.625 675.41 250.781 674.749 254.556C672.925 264.98 670.136 275.213 666.42 285.122L678.197 286.625C680.436 286.91 682.756 287.19 684.913 286.527C686.481 285.936 687.966 285.145 689.331 284.175C694.576 280.919 700.446 278.801 706.562 277.957C709.646 277.534 712.879 277.456 715.773 278.602C718.668 279.748 721.15 282.347 721.393 285.449C722.644 285.06 723.978 285.018 725.252 285.328C726.525 285.637 727.691 286.287 728.624 287.207C730.468 289.086 731.676 291.495 732.076 294.096C732.386 295.707 732.697 297.637 734.192 298.313C735.412 298.864 736.811 298.27 738.145 298.163C742.673 297.801 746.43 303.079 750.88 302.17C755.653 301.195 756.825 294.05 761.481 292.619C764.156 291.796 767.907 292.796 769.187 290.309C770.316 288.118 768.064 285.588 768.296 283.134C768.582 280.112 772.148 278.829 774.897 277.54C784.374 273.095 788.872 260.344 784.279 250.939C781.558 245.367 776.204 240.981 775.215 234.86C774.455 230.151 776.312 224.659 773.308 220.952C771.78 219.066 769.193 218.025 768.284 215.775C767.711 214.359 767.941 212.752 767.633 211.255C767.325 209.759 766.02 208.194 764.542 208.582C760.251 209.708 758.882 222.957 756.585 226.176C753.093 231.069 745.925 227.846 747.025 221.817Z" fill="#3F3D56"/>
<path d="M667.722 195.213C666.255 194.802 664.655 194.397 663.25 194.984C661.845 195.572 661.024 197.634 662.152 198.657C670.973 198.313 679.847 197.972 688.593 199.17C698.67 200.549 708.642 203.967 718.763 202.961C712.981 201.256 707.105 199.893 701.163 198.879L691.255 196.987C688.597 196.43 685.912 196.015 683.21 195.744C677.557 195.277 673.279 196.771 667.722 195.213Z" fill="#3F3D56"/>
<path d="M676.552 164.503C675.82 164.441 674.913 164.389 674.534 165.018C674.172 165.62 674.586 166.414 674.392 167.088C674.126 168.01 672.919 168.245 671.968 168.119C671.017 167.994 669.989 167.694 669.146 168.152C668.719 168.444 668.398 168.866 668.231 169.356C668.064 169.845 668.061 170.376 668.221 170.868C668.566 171.844 669.123 172.732 669.852 173.467C671.098 175.036 672.518 176.459 674.084 177.71C677.116 179.947 681.223 181.025 683.132 184.272C683.402 184.901 683.816 185.458 684.341 185.898C685.257 186.478 686.453 186.037 687.44 185.586L690.899 184.006C691.522 183.781 692.079 183.403 692.516 182.906C693.307 181.834 692.821 180.31 692.158 179.155C691.495 178 690.645 176.805 690.788 175.481C691.042 173.12 694.078 172.217 695.327 170.197C696.585 168.161 695.766 165.538 695.911 163.149C696.081 160.355 697.837 156.721 695.011 154.633C692.61 152.859 690.315 154.498 688.591 156.457C684.955 160.587 683.236 165.061 676.552 164.503Z" fill="#3F3D56"/>
<path d="M697.551 122.758C698.732 125.018 701.194 126.367 702.482 128.569C703.878 130.955 703.719 134.038 705.233 136.351C706.787 138.724 709.914 139.984 710.785 142.683C711.737 145.63 709.578 149.211 711.299 151.786C711.62 152.207 712.025 152.557 712.488 152.813C712.951 153.069 713.462 153.226 713.989 153.275C714.516 153.323 715.048 153.262 715.55 153.094C716.052 152.927 716.514 152.656 716.906 152.301C717.631 151.512 718.02 150.47 717.988 149.398C717.956 148.327 717.507 147.31 716.736 146.565C715.717 145.636 714.255 145.235 713.404 144.15C712.961 143.524 712.666 142.806 712.541 142.05C712.077 139.868 712.152 137.606 712.757 135.459C712.985 134.914 713.043 134.313 712.923 133.735C712.54 132.622 711.033 132.543 709.975 132.027C707.573 130.855 707.631 127.466 708.051 124.826C707.772 126.583 701.51 123.595 700.855 122.6C699.552 120.622 700.261 116.808 700.003 114.623C697.191 115.978 696.107 119.994 697.551 122.758Z" fill="#3F3D56"/>
<path d="M634.471 157.539C633.316 156.246 631.575 154.893 630.026 155.673C628.844 156.268 628.518 157.903 628.982 159.142C629.546 160.346 630.415 161.382 631.503 162.147C634.732 164.809 638.209 167.211 641.025 170.306C646.066 175.844 648.737 183.316 654.219 188.417C655.321 189.6 656.78 190.39 658.373 190.665C659.971 190.813 661.764 189.791 661.948 188.198C662.099 186.886 661.184 185.712 660.29 184.739C658.16 182.424 655.829 180.292 653.818 177.873C652.889 176.943 652.306 175.725 652.164 174.419C652.154 173.116 653.342 171.753 654.605 172.075C653.069 171.683 651.93 169.126 649.676 168.645C647.793 168.243 647.337 169.409 645.095 168.448C640.82 166.615 637.466 160.89 634.471 157.539Z" fill="#3F3D56"/>
<path d="M734.933 31.6116C733.706 31.2472 732.5 30.8167 731.321 30.3218C728.146 29.3693 723.946 31.7017 724.369 34.9878C724.65 37.1711 726.683 38.6431 727.805 40.537C729.47 43.3455 729.026 46.9076 728.152 50.0528C727.937 51.0267 727.528 51.9474 726.951 52.7603C726.143 53.6185 725.177 54.3131 724.106 54.8058C719.819 57.2089 716.039 60.4195 712.973 64.2602C712.64 64.6149 712.408 65.0524 712.301 65.5271C712.15 66.6366 713.265 67.4448 713.896 68.3702C715.297 70.4257 714.284 73.1917 714.423 75.6753C714.402 76.0264 714.47 76.3772 714.623 76.6943C714.775 77.0115 715.006 77.2844 715.294 77.4874C716.138 77.9162 717.139 77.1878 717.596 76.3588C719.115 73.6078 717.971 69.192 720.821 67.8656C721.36 67.6147 722.013 67.5089 722.373 67.0356C722.943 66.2847 722.393 65.1729 722.682 64.2754C723.116 62.9278 724.96 62.8673 726.375 62.9271C728.812 63.029 731.249 62.7047 733.574 61.9689C734.487 61.7521 735.315 61.2724 735.958 60.5893C736.81 59.5266 736.734 58.0155 736.564 56.6644C735.711 49.9285 733.577 43.418 730.276 37.4843C732.779 37.804 735.502 38.0808 737.662 36.7767C738.872 36.0465 740.322 33.8628 739.722 32.3765C738.774 30.0261 737.06 32.0045 734.933 31.6116Z" fill="#3F3D56"/>
<path d="M414.033 68.6577C414.332 70.2637 414.627 71.9548 414.1 73.5015C413.574 75.0481 411.917 76.3403 410.353 75.8664C409.14 75.4987 408.438 74.2786 407.577 73.3485C402.783 68.1757 391.969 71.1706 389.008 64.771C387.8 62.1592 388.621 59.0301 387.797 56.273C387.277 54.6795 386.242 53.3038 384.855 52.3619C383.468 51.42 381.807 50.9653 380.134 51.0692C378.608 51.2896 377.122 51.733 375.724 52.3851C366.362 56.1331 356.534 58.5905 346.509 59.6895C344.604 59.8056 342.72 60.1483 340.896 60.7106C336.78 62.2023 333.967 66.0171 331.966 69.9098C329.964 73.8025 328.486 78.0168 325.803 81.4752C322.983 85.1099 319.031 87.6551 315.344 90.4082C313.924 91.3231 312.742 92.562 311.894 94.0229C311.095 95.6631 311.14 97.5708 311.202 99.3941L311.956 121.539C312.053 124.388 312.174 127.338 313.45 129.887C315.042 133.07 318.188 135.155 320.371 137.966C322.598 140.856 323.758 144.426 323.655 148.073C323.608 149.539 323.463 151.273 324.605 152.193C325.3 152.644 326.113 152.878 326.941 152.865L356.907 155.317C362.178 155.748 368.02 156.457 371.462 160.472C373.086 162.366 374.391 165.091 376.878 165.294C377.946 165.382 378.984 164.944 380.051 164.859C382.744 164.646 385.11 166.689 386.603 168.94C388.862 172.37 389.888 176.466 389.511 180.555C389.267 183.123 388.47 185.618 388.299 188.191C387.646 197.982 395.948 206.488 396.109 216.299C396.204 222.07 393.463 227.462 390.791 232.578C395.104 239.108 391.572 247.804 393.289 255.439C394.918 262.681 400.959 268.352 402.465 275.621C403.154 278.949 403.194 283.044 406.129 284.758C407.417 285.386 408.845 285.672 410.276 285.588C418.905 285.691 427.435 283.749 435.17 279.923C438.8 278.122 442.562 275.434 443.196 271.433C443.707 268.207 442.07 264.597 443.736 261.787C445.699 258.474 450.729 258.737 453.617 256.19C458.304 252.059 454.649 244.179 456.548 238.228C458.255 232.879 464.13 230.037 467.042 225.236C468.188 223.172 469.011 220.943 469.481 218.629C470.815 213.099 471.646 207.459 471.962 201.778C472.04 198.327 472.294 194.882 472.725 191.457C475.865 171.957 495.15 158.899 501.411 140.166C502.009 138.377 502.29 135.994 500.697 134.981C499.753 134.531 498.682 134.419 497.665 134.664L483.851 136.405C482.136 136.621 480.317 136.823 478.741 136.111C477.166 135.399 476.036 133.406 476.872 131.892C479.218 127.644 474.392 122.276 472.248 117.922C466.474 106.199 459.597 95.051 451.712 84.6291C451.207 84.093 450.891 83.4069 450.812 82.675L454.732 82.8055C453.409 78.0583 451.225 72.8635 446.611 71.127C444.011 70.1485 441.132 70.4868 438.358 70.6383C430.414 71.0722 421.896 69.8731 414.033 68.6577Z" fill="#3F3D56"/>
<path d="M438.363 -38.3202C440.442 -36.1132 442.772 -33.7733 445.78 -33.3886C451.093 -32.7091 454.913 -38.2013 457.345 -42.9718C457.435 -41.7556 457.996 -40.6225 458.909 -39.8135C459.822 -39.0045 461.015 -38.5834 462.233 -38.6398C463.545 -38.8604 464.796 -39.3495 465.91 -40.0766C476.436 -45.8273 488.227 -48.8742 500.223 -48.9438C500.108 -49.8521 500.333 -50.771 500.856 -51.523C501.378 -52.275 502.161 -52.8069 503.053 -53.0161C505.492 -53.4994 507.689 -51.3915 508.865 -49.2018C510.042 -47.0122 510.775 -44.4741 512.645 -42.8351C514.514 -41.1961 518.133 -41.2675 518.871 -43.641C519.58 -45.9196 517.206 -47.8628 515.233 -49.2062C513.26 -50.5496 511.18 -53.036 512.509 -55.0185C522.588 -57.2488 532.73 -59.4875 543.043 -59.9308C544.799 -59.8697 546.549 -60.171 548.183 -60.8159C549.756 -61.5875 551.006 -63.3389 550.583 -65.0385C548.332 -64.5096 545.975 -64.6628 543.812 -65.4785C541.649 -66.2941 539.777 -67.7354 538.437 -69.6184C552.748 -70.7989 567.969 -71.8051 580.651 -65.0737C582.173 -61.8077 574.416 -59.0904 576.492 -56.1446C577.154 -55.2051 578.48 -55.0949 579.629 -55.0735C588.443 -54.91 597.307 -54.7496 606.021 -56.0797C609.205 -56.5658 612.421 -57.252 615.618 -56.8578C620.944 -56.2013 625.498 -52.6494 630.737 -51.4914C632.869 -51.0201 635.26 -51.0041 637.058 -52.2439C638.855 -53.4837 639.628 -56.3067 638.155 -57.9183C643.087 -62.7511 651.274 -61.5533 657.782 -59.2396C664.289 -56.926 670.454 -53.1948 677.341 -52.6791C682.28 -52.3092 687.288 -53.6372 692.168 -52.7931C695.235 -52.2627 698.089 -50.8989 701.086 -50.0609C706.755 -48.4762 712.752 -48.8107 718.638 -48.7345C733.656 -48.5322 748.51 -45.5817 762.464 -40.029C764.279 -39.4382 765.942 -38.4559 767.336 -37.1516C768.634 -35.7616 769.297 -33.6017 768.424 -31.9118L754.004 -34.018C755.363 -31.3444 758.878 -30.8888 761.732 -29.9665C764.586 -29.0442 767.546 -25.8932 765.831 -23.4331C762.738 -24.4175 759.935 -21.3265 758.373 -18.4826C756.811 -15.6386 754.907 -12.2327 751.666 -12.0594C748.764 -11.9043 745.254 -14.3746 743.362 -12.169C745.975 -8.87308 748.213 -5.29636 750.034 -1.50498C751.903 2.3873 753.235 7.29171 750.708 10.7937C750.311 11.4188 749.708 11.8861 749.004 12.1152C746.941 12.6373 745.6 10.1144 744.121 8.58523C742.256 6.65826 739.437 6.11247 736.912 5.20875C734.387 4.30502 731.728 2.52723 731.53 -0.146263C731.407 -1.80964 732.286 -3.3559 732.933 -4.89325C734.021 -7.48454 734.496 -10.2915 734.323 -13.0963C734.181 -15.3528 733.548 -17.7001 731.927 -19.2767C730.306 -20.8533 727.507 -21.3534 725.767 -19.9094C724.955 -19.2356 724.304 -18.1579 723.25 -18.1176C721.386 -18.0463 719.956 -21.2937 718.457 -20.1852C718.632 -19.004 718.388 -17.7987 717.764 -16.7798C713.291 -12.8906 706.419 -14.536 700.652 -13.1621C697.909 -12.3776 695.284 -11.2313 692.844 -9.7537C691.932 -9.36362 691.155 -8.71203 690.613 -7.88117C689.893 -6.48273 690.687 -4.6917 691.955 -3.76187C693.301 -2.93687 694.813 -2.42092 696.383 -2.25129C703.413 -0.920199 710.547 1.14037 716.097 5.65469C721.648 10.169 725.288 17.6314 723.532 24.5658L709.667 11.3221C710.193 16.8828 710.492 22.4589 710.563 28.0502C710.653 29.142 710.503 30.2401 710.124 31.2678C709.135 33.4502 706.456 34.1846 704.109 34.6664C703.456 34.7904 702.837 35.0511 702.292 35.4314C701.747 35.8116 701.288 36.3028 700.947 36.8728C700.605 37.4427 700.388 38.0784 700.31 38.7382C700.231 39.3979 700.293 40.0668 700.492 40.7008C701.326 43.4185 703.406 45.5373 705.31 47.6486C707.214 49.7599 709.088 52.1594 709.337 54.9912C709.587 57.8229 707.449 61.0148 704.613 60.8179C702.462 60.6686 700.867 58.7441 699.949 56.7939C699.032 54.8438 698.486 52.6714 697.108 51.0143C692.936 45.9989 683.566 48.1477 679.829 42.8009C678.877 43.8811 678.216 45.1868 677.91 46.5939C677.604 48.0011 677.663 49.463 678.081 50.841C679.82 49.753 682.2 50.7639 683.506 52.3448C684.813 53.9257 685.429 55.9524 686.455 57.728C687.839 60.1239 690.042 62.248 690.235 65.0081C690.184 66.0518 690.201 67.0977 690.288 68.1391C690.631 69.8114 692.045 71.0122 693.025 72.4101C695.307 75.6627 695.194 80.131 693.723 83.8215C692.253 87.5119 689.612 90.5957 686.995 93.5854C682.425 98.8074 677.762 103.999 672.344 108.335C670.798 109.573 669.148 110.79 668.185 112.52C667.222 114.25 667.173 116.678 668.652 117.994C667.594 118.047 665.695 118.568 664.636 118.621C664.264 114.375 664.183 110.109 664.394 105.852C660.216 103.847 655.718 109.218 656.257 113.819C656.796 118.421 660.125 122.113 662.496 126.094C664.229 129.006 665.518 132.4 664.939 135.739C664.36 139.077 661.379 142.156 658.003 141.862C652.632 141.394 650.386 133.686 645.068 132.804C644.599 132.694 644.106 132.743 643.668 132.943C642.879 133.376 642.741 134.432 642.697 135.331C642.48 139.744 642.291 144.333 644.014 148.401C646.535 154.353 653.048 159.352 651.682 165.67C644.322 162.25 640.496 154 638.759 146.075C637.021 138.15 636.732 129.831 633.617 122.339C631.253 125.369 626.282 122.864 624.122 119.685C622.073 116.672 620.812 113.186 618.825 110.132C616.837 107.078 613.793 104.343 610.152 104.175C606.335 103.999 603.024 106.618 600.113 109.092C597.719 111.127 595.261 113.241 593.862 116.053C591.825 120.146 592.358 124.971 592.26 129.541C592.154 134.481 591.106 139.693 587.738 143.31C584.37 146.927 578.152 148.187 574.437 144.927C572.498 143.225 571.558 140.683 570.722 138.242C566.69 126.478 563.331 114.494 560.664 102.347C560.039 105.12 557.604 108.693 555.278 107.06C554.756 106.621 554.333 106.076 554.037 105.462C549.698 98.1094 541.661 93.6994 533.542 91.0553C525.422 88.4111 516.879 87.1777 508.85 84.2717C504.35 82.6425 500.052 80.5025 496.041 77.8936C495.018 79.3954 494.421 81.1458 494.313 82.9593C494.204 84.7728 494.589 86.5818 495.425 88.1947C497.206 91.3473 501.237 93.1714 504.687 92.0694C506.47 91.5 507.976 90.2627 509.745 89.6516C511.514 89.0405 513.888 89.3406 514.662 91.0444C515.402 92.6752 514.283 94.6481 514.838 96.3509C515.684 98.9443 519.597 99.1441 520.965 101.504C521.983 103.26 521.145 105.592 519.692 107.009C518.238 108.426 516.299 109.203 514.525 110.189C508.768 113.389 504.673 118.852 499.642 123.103C494.611 127.353 487.512 130.456 481.516 127.73C482.945 120.495 474.324 115.183 472.738 107.981C472.215 105.61 472.486 103.092 471.741 100.782C470.662 97.437 467.693 95.1373 465.258 92.6025C462.304 89.4948 460.003 85.8271 458.49 81.8159C456.978 77.8047 456.284 73.5312 456.45 69.2477C456.582 66.2711 457.129 63.246 456.45 60.3446C455.772 57.4433 453.369 54.6351 450.391 54.7666C443.59 55.0669 435.023 55.5726 431.454 49.7771C430.181 47.7086 429.627 44.6792 431.468 43.0945C432.767 41.9765 434.684 42.0818 436.39 42.2496L451.713 43.7565C455.297 44.1089 459.172 44.3998 462.247 42.5268C465.323 40.6538 466.655 35.6821 463.807 33.4785C461.727 31.8684 457.999 31.9557 457.394 29.3957C456.89 27.2637 459.251 24.8446 457.976 23.0629C457.062 21.7853 455.006 22.1397 453.761 23.0975C452.515 24.0552 451.612 25.4558 450.218 26.181C447.773 27.453 444.851 26.2424 442.22 25.4196C439.59 24.5968 436.063 24.5269 434.787 26.9694C433.36 29.701 436.053 33.2803 434.636 36.0175C432.764 39.6364 426.423 37.5763 423.793 40.6891C420.776 44.2611 425.847 49.5874 424.829 54.1506C423.53 54.7938 422.086 55.0891 420.639 55.0078C419.191 54.9265 417.789 54.4714 416.57 53.6867C415.372 52.8716 414.416 51.7468 413.806 50.4321C413.195 49.1174 412.953 47.6619 413.104 46.2204C413.356 44.1676 414.426 42.0722 413.709 40.1323C413.129 38.5639 411.554 37.6302 410.09 36.8215L395.199 28.5957C393.816 31.1594 395.564 34.3378 397.75 36.2635C399.936 38.1891 402.674 39.6394 404.11 42.1737C405.018 43.9295 405.222 45.9657 404.679 47.8665C404.136 49.7673 402.888 51.3894 401.189 52.4014C400.977 52.5482 400.734 52.6473 400.48 52.6917C400.225 52.7362 399.963 52.7249 399.713 52.6587C399.476 52.5192 399.269 52.3334 399.104 52.1124C398.94 51.8913 398.821 51.6395 398.756 51.3719C396.129 44.6506 392.184 38.0237 385.877 34.5126C379.571 31.0015 370.508 31.7234 366.373 37.638C365.391 39.0429 364.731 40.6442 363.876 42.1295C359.329 50.0205 349.583 53.7572 340.476 53.5131C339.586 53.5624 338.699 53.3542 337.924 52.9135C336.452 51.8975 336.518 49.7414 336.744 47.9677L337.7 40.4405C337.892 38.929 338.17 37.2583 339.366 36.3147C341.053 34.9847 343.487 35.824 345.635 35.7931C347.263 35.7169 348.828 35.1423 350.118 34.1472C351.408 33.152 352.36 31.7845 352.846 30.2299C353.28 28.66 353.278 27.0014 352.838 25.433C352.399 23.8645 351.54 22.4456 350.354 21.3291C349.369 20.4046 348.047 19.2433 348.567 17.997C348.775 17.6523 349.056 17.3572 349.389 17.1324C349.723 16.9077 350.102 16.7588 350.5 16.6962C354.359 15.576 358.436 15.2823 362.231 13.9606C366.026 12.6388 369.706 9.93445 370.604 6.01923C370.88 4.8194 371.005 3.36593 372.083 2.77107C372.624 2.54275 373.205 2.4241 373.792 2.422C375.849 2.12943 377.723 1.07759 379.043 -0.526444C380.363 -2.13048 381.035 -4.1705 380.926 -6.24487C382.745 -7.51514 385.292 -6.58072 387.052 -5.22965C388.811 -3.87857 390.364 -2.09356 392.505 -1.51115C396.494 -0.425744 400.35 -3.9567 404.484 -3.97307C406.223 -3.97995 408.023 -3.36541 409.658 -3.95467C411.317 -4.55203 412.307 -6.20211 413.58 -7.42116C414.852 -8.64021 417.085 -9.38375 418.26 -8.07052L417.26 -15.4803C419.275 -14.9714 421.376 -14.8994 423.421 -15.269C425.467 -15.6387 427.41 -16.4416 429.119 -17.6237L416.186 -21.9921C415.735 -22.1045 415.32 -22.3266 414.976 -22.6385C414.036 -23.6507 414.97 -25.2279 415.735 -26.3785C417.564 -29.1309 417.871 -33.6648 414.863 -35.0351C412.81 -35.9704 410.453 -34.8477 408.482 -33.7493L399.043 -28.4877C398.743 -26.694 400.937 -25.6775 402.297 -24.4693C403.119 -23.7383 403.701 -22.7757 403.967 -21.7078C404.232 -20.64 404.168 -19.5169 403.783 -18.486C403.398 -17.4552 402.711 -16.5648 401.81 -15.9319C400.91 -15.2989 399.839 -14.953 398.739 -14.9395C399.36 -14.1316 399.792 -13.1944 400.002 -12.197C400.213 -11.1997 400.196 -10.1679 399.953 -9.17798L393.602 -8.72134C392.889 -8.57798 392.148 -8.72249 391.541 -9.12328C390.862 -9.72636 390.954 -10.7832 390.797 -11.6776C390.417 -13.8365 388.302 -15.3496 386.144 -15.7376C383.986 -16.1256 381.778 -15.6282 379.641 -15.1372C378.733 -14.8108 377.737 -14.8338 376.846 -15.2017C376.334 -15.5337 375.946 -16.0237 375.74 -16.5971C374.803 -18.868 375.678 -21.5373 377.183 -23.4793C378.688 -25.4213 380.748 -26.841 382.598 -28.4578C387.022 -32.3382 390.273 -37.3781 391.982 -43.0081C395.479 -44.4726 399.099 -46.4623 402.595 -47.9267C407.985 -50.655 414.03 -51.8258 420.05 -51.3075L431.891 -51.0814C435.397 -51.0145 438.997 -50.9287 442.239 -49.5927C445.48 -48.2567 448.329 -45.367 448.552 -41.8691C448.62 -41.4731 448.586 -41.0664 448.453 -40.6873C448.32 -40.3082 448.093 -39.9689 447.793 -39.7015C447.335 -39.4518 446.817 -39.335 446.296 -39.3642C443.027 -39.2494 441.633 -38.435 438.363 -38.3202Z" fill="#3F3D56"/>
<path d="M343.985 -1.22366C344.447 -1.66138 344.78 -2.21812 344.947 -2.83267C345.114 -3.44722 345.108 -4.09581 344.929 -4.70717C343.804 -5.14141 342.579 -5.25289 341.394 -5.02909C340.208 -4.80529 339.108 -4.25507 338.219 -3.44039C337.517 -2.73111 336.913 -1.93219 336.421 -1.06442C334.865 1.47317 333.489 4.50426 334.39 7.34082C334.464 7.65016 334.598 7.9417 334.786 8.19836C334.974 8.45502 335.211 8.67163 335.483 8.83546C335.888 8.99761 336.323 9.06584 336.758 9.03498C338.472 9.03276 340.184 8.92739 341.885 8.71948C342.93 8.59178 344.144 8.29681 344.548 7.32506C345.078 6.04769 343.794 4.60208 344.168 3.27051C344.415 2.67506 344.788 2.14051 345.262 1.70417C345.498 1.48447 345.679 1.21295 345.791 0.911182C345.903 0.609409 345.943 0.285695 345.908 -0.0342731C345.756 -0.659059 344.799 -1.01352 344.455 -0.470697" fill="#3F3D56"/>
<path d="M352.872 -12.7427C351.349 -13.0922 349.779 -13.1907 348.225 -13.0344C347.881 -13.0446 347.54 -12.9673 347.235 -12.8095C346.939 -12.5912 346.724 -12.2804 346.624 -11.9262C346.296 -10.8728 346.377 -9.73445 346.85 -8.73787C347.324 -7.74129 348.156 -6.95961 349.18 -6.54858C349.738 -6.42027 350.273 -6.20547 350.765 -5.91193C352.079 -4.89261 351.241 -2.80911 351.49 -1.16499C351.77 0.68121 353.557 2.23089 353.23 4.06912C352.971 5.51734 351.424 6.66407 351.673 8.11391C351.934 9.63239 353.862 10.0887 355.398 10.2103C356.289 10.3661 357.205 10.2612 358.037 9.90794C358.871 9.33785 359.464 8.47909 359.702 7.49747C360.331 5.62581 360.596 3.65097 360.481 1.67983C360.474 0.783324 360.249 -0.0980357 359.825 -0.887931C359.362 -1.5137 358.849 -2.10076 358.291 -2.64332C355.347 -6.06626 358.447 -11.172 352.872 -12.7427Z" fill="#3F3D56"/>
<path opacity="0.8" d="M739.969 255.399C739.969 255.399 514.508 126.027 417.444 150.539C417.444 150.539 211.737 172.669 187.897 221.354C187.897 221.354 122.506 17.0811 98.666 10.272" stroke="#5F7FF8" stroke-width="1.5" stroke-miterlimit="10"/>
<path opacity="0.8" d="M187.897 221.354C225.701 120.579 566.276 8.91016 566.276 8.91016C517.914 21.1665 417.444 150.539 417.444 150.539C417.444 150.539 204.925 -4.02713 98.666 10.272C98.666 10.272 566.616 25.5924 739.969 255.399" stroke="#5F7FF8" stroke-width="1.5" stroke-miterlimit="10"/>
<path d="M98.6638 20.1453C104.119 20.1453 108.54 15.7249 108.54 10.2721C108.54 4.81931 104.119 0.398926 98.6638 0.398926C93.2091 0.398926 88.7871 4.81931 88.7871 10.2721C88.7871 15.7249 93.2091 20.1453 98.6638 20.1453Z" fill="#5F7FF8"/>
<path d="M187.896 231.227C193.351 231.227 197.773 226.807 197.773 221.354C197.773 215.901 193.351 211.481 187.896 211.481C182.441 211.481 178.02 215.901 178.02 221.354C178.02 226.807 182.441 231.227 187.896 231.227Z" fill="#5F7FF8"/>
<path d="M566.275 18.7835C571.73 18.7835 576.152 14.3631 576.152 8.91031C576.152 3.45749 571.73 -0.962891 566.275 -0.962891C560.82 -0.962891 556.398 3.45749 556.398 8.91031C556.398 14.3631 560.82 18.7835 566.275 18.7835Z" fill="#5F7FF8"/>
<path d="M417.443 160.412C422.898 160.412 427.32 155.992 427.32 150.539C427.32 145.086 422.898 140.666 417.443 140.666C411.988 140.666 407.566 145.086 407.566 150.539C407.566 155.992 411.988 160.412 417.443 160.412Z" fill="#5F7FF8"/>
</g>
<defs>
<clipPath id="clip0_11703_4533">
<rect width="971" height="721" fill="white" transform="translate(-78 -246)"/>
</clipPath>
</defs>
</svg>
