<svg width="315" height="282" viewBox="0 0 315 282" fill="none" xmlns="http://www.w3.org/2000/svg">
<circle cx="223.426" cy="2.64567" r="85.1323" transform="rotate(15.654 223.426 2.64567)" fill="#111111"/>
<path d="M174.791 -1.73021L88.566 62.0054L81.781 51.3657L173.628 -3.08406L174.791 -1.73021Z" fill="#111111" stroke="#111111"/>
<path d="M318.913 129.638L271.977 31.1577L327.455 124.835L318.913 129.638Z" fill="#111111" stroke="#111111"/>
<path d="M318.913 129.638L271.976 31.1575L219.838 61.2469C218.673 61.9195 217.286 62.094 215.99 61.7309L213.283 60.9724C212.039 60.6237 210.978 59.8066 210.322 58.6925L174.79 -1.73043L88.5648 62.0052L100.839 82.4072C104.827 88.8314 106.281 91.3762 108.854 101.263C109.206 102.615 109.329 103.998 109.392 105.394C110.587 131.982 147.652 199.473 174.609 230.042C184.979 237.06 203.912 230.029 197.014 210.62C208.85 225.245 226.678 214.82 222.182 199.682C240.253 210.4 254.384 194.827 248.057 180.717C262.143 196.487 279.952 182.459 273.207 166.176C276.391 163.984 280.929 160.63 283.427 157.217C284.897 151.975 295.575 143.83 301.085 140.063L318.913 129.638Z" fill="white" stroke="#111111"/>
<path d="M273.683 166.309L237.129 104.15" stroke="#111111"/>
<path d="M218.025 62.3006L207.872 59.8889C206.613 59.5897 205.32 59.4548 204.026 59.4875L185.785 59.9486C169.12 58.877 158.551 80.0742 184.924 90.5488C189.797 92.484 196.477 94.778 206.611 96.2923C207.452 96.418 208.198 96.8875 208.714 97.5634C213.94 104.409 225.971 112.773 240.322 101.96" stroke="#111111" stroke-linecap="round"/>
<rect x="144.042" y="210.06" width="43.546" height="28.6973" rx="14.3487" transform="rotate(-30.3391 144.042 210.06)" fill="white" stroke="#111111"/>
<rect x="129.067" y="184.233" width="43.546" height="28.6973" rx="14.3487" transform="rotate(-30.3391 129.067 184.233)" fill="white" stroke="#111111"/>
<rect x="114.094" y="158.406" width="43.546" height="28.6973" rx="14.3487" transform="rotate(-30.3391 114.094 158.406)" fill="white" stroke="#111111"/>
<rect x="99.1196" y="132.579" width="43.546" height="28.6973" rx="14.3487" transform="rotate(-30.3391 99.1196 132.579)" fill="white" stroke="#111111"/>
<rect x="272.534" y="31.7821" width="45.5258" height="116.799" rx="0.5" transform="rotate(-30.5379 272.534 31.7821)" fill="#9AACEF" stroke="#111111"/>
<rect x="49.6222" y="16.6734" width="118.386" height="45.0987" rx="0.5" transform="rotate(-30.5379 49.6222 16.6734)" fill="#9AACEF" stroke="#111111"/>
<circle cx="73.9113" cy="28.0858" r="7.42433" transform="rotate(15.654 73.9113 28.0858)" fill="#111111"/>
<circle cx="239.942" cy="-37.9594" r="54.935" transform="rotate(15.654 239.942 -37.9594)" fill="#9AACEF" stroke="#111111"/>
<circle cx="239.677" cy="-37.006" r="44.046" transform="rotate(15.654 239.677 -37.006)" stroke="#111111"/>
<rect x="309.117" y="171.152" width="45.0335" height="4.95964" rx="2.47982" transform="rotate(-29.5217 309.117 171.152)" fill="white" stroke="#111111"/>
<rect x="83.2038" y="121.944" width="30.9244" height="4.95964" rx="2.47982" transform="rotate(-121.317 83.2038 121.944)" fill="#9AACEF" stroke="#111111"/>
<circle cx="70.9887" cy="148.576" r="2.97478" transform="rotate(15.654 70.9887 148.576)" fill="#9AACEF" stroke="#111111"/>
<circle cx="42.5941" cy="99.4968" r="2.97478" transform="rotate(15.654 42.5941 99.4968)" fill="white" stroke="#111111"/>
<circle cx="285.766" cy="202.078" r="4.45964" transform="rotate(15.654 285.766 202.078)" fill="white" stroke="#111111"/>
<path d="M228.595 181.868L227.638 181.613L220.992 197.427L204.414 194.989L204.124 195.934L219.346 203.296L216.92 219.862L217.87 220.141L224.824 204.823L239.575 205.866L239.813 204.91L226.464 198.966L228.595 181.868Z" fill="#9AACEF" stroke="#111111" stroke-linecap="round" stroke-linejoin="round"/>
<path d="M101.291 29.86C101.276 29.8521 101.27 29.8456 101.267 29.8427C101.265 29.8397 101.263 29.8368 101.262 29.8334C101.259 29.8254 101.256 29.8096 101.262 29.79C101.267 29.7705 101.276 29.7617 101.278 29.7602C101.279 29.7597 101.279 29.7595 101.281 29.7591C101.282 29.7587 101.289 29.7566 101.305 29.7578C108.462 30.266 115.288 26.6669 118.911 20.4736L119.62 19.2617C119.639 19.2291 119.656 19.2211 119.666 19.2176C119.68 19.2125 119.703 19.2103 119.73 19.2181C119.756 19.2259 119.774 19.24 119.784 19.2522C119.79 19.2603 119.8 19.2761 119.799 19.3139L119.757 20.3683C119.469 27.6713 123.458 34.474 129.972 37.7879C129.986 37.7951 129.991 37.8004 129.991 37.8011C129.992 37.8017 129.992 37.8019 129.992 37.8021L129.992 37.8022C129.993 37.8039 129.996 37.8153 129.991 37.8341C129.985 37.853 129.975 37.8643 129.97 37.8687C129.967 37.8705 129.965 37.8718 129.962 37.8728C129.959 37.8737 129.95 37.8759 129.934 37.8749C122.434 37.446 115.302 41.4137 111.769 48.0484L111.621 48.3257C111.605 48.3553 111.592 48.361 111.586 48.3633C111.576 48.3675 111.557 48.3704 111.533 48.3644C111.51 48.3585 111.495 48.3469 111.488 48.3381C111.484 48.3333 111.475 48.3218 111.475 48.2884L111.487 47.1974C111.567 39.9974 107.606 33.3101 101.291 29.86Z" fill="white" stroke="#111111" stroke-linejoin="round"/>
</svg>
