<svg width="477" height="597" viewBox="0 0 477 597" fill="none" xmlns="http://www.w3.org/2000/svg">
<rect x="-1.02301" y="214.202" width="155.313" height="325.075" stroke="#111111" stroke-width="1.20398"/>
<rect x="-1.02301" y="214.202" width="155.313" height="36.1194" fill="#EE4777" stroke="#111111" stroke-width="1.20398"/>
<circle cx="20.0468" cy="232.863" r="10.2338" fill="white" stroke="#111111" stroke-width="1.20398"/>
<line x1="44.125" y1="232.261" x2="74.2245" y2="232.261" stroke="#111111" stroke-width="1.20398"/>
<rect x="200.043" y="315.336" width="114.378" height="127.622" stroke="#111111" stroke-width="1.20398"/>
<rect x="301.179" y="302.092" width="25.2836" height="25.2836" fill="white" stroke="#111111" stroke-width="1.20398"/>
<rect x="186.8" y="302.092" width="25.2836" height="25.2836" fill="white" stroke="#111111" stroke-width="1.20398"/>
<rect x="301.179" y="430.918" width="25.2836" height="25.2836" fill="white" stroke="#111111" stroke-width="1.20398"/>
<rect x="186.8" y="430.918" width="25.2836" height="25.2836" fill="white" stroke="#111111" stroke-width="1.20398"/>
<ellipse cx="70.6163" cy="589.844" rx="163.741" ry="6.62189" fill="#111111"/>
<path d="M-55.1966 540.48C-86.503 501.953 -65.4333 459.814 -52.1866 445.968L139.849 483.291C213.292 523.022 166.336 591.649 130.217 591.649H-97.3359C-120.82 592.251 -114.797 571.784 -99.7504 570.58C-73.2629 564.56 -62.4204 549.711 -55.1966 540.48Z" fill="white" stroke="#111111" stroke-width="1.20398" stroke-linecap="round"/>
<path d="M-37.7422 520.615C-29.3143 520.013 -21.4885 525.106 -16.0705 528.441C-10.6526 531.775 8.00906 531.45 17.0389 529.645C26.0688 527.839 53.7603 518.206 74.228 516.401C80.8499 515.817 94.0936 516.401 102.521 516.401" stroke="#111111" stroke-width="1.20398" stroke-linecap="round"/>
<path d="M17.0391 529.645C8.00929 531.45 -7.04046 531.451 -13.0604 529.645C-12.057 543.089 -11.2544 574.312 -16.0703 591.65H14.6312C16.8385 583.222 20.4103 559.022 17.0391 529.645Z" fill="#EE4777" stroke="#111111" stroke-width="1.20398" stroke-linecap="round"/>
<circle cx="63.9934" cy="259.953" r="12.6418" fill="#111111"/>
<path d="M71.8165 270.187H56.1647C54.3632 271.391 54.3603 273.798 56.1647 275.002H71.8165C73.0251 273.196 73.0251 271.992 71.8165 270.187Z" fill="white" stroke="#111111" stroke-width="1.20398"/>
<path d="M-10.6504 341.823C20.6531 296.072 83.862 314.734 91.0859 368.311L103.728 484.495C41.1207 515.197 -39.3067 456.248 -49.7798 447.172C-58.8096 439.346 -69.0435 441.152 -73.8594 441.152C-57.0037 428.51 -47.9738 409.247 -40.1479 397.809C-31.1734 384.692 -18.4763 352.057 -10.6504 341.823Z" fill="#EE4777" stroke="#111111" stroke-width="1.20398"/>
<path d="M167.538 361.689C163.203 347.241 145.264 326.172 136.234 318.948L86.8711 351.455C93.493 371.923 95.299 408.042 98.3089 435.734L167.538 361.689Z" fill="#EE4777" stroke="#111111" stroke-width="1.20398"/>
<path d="M167.538 361.689C163.204 347.242 145.264 326.172 136.234 318.948C142.737 314.73 156.596 303.956 165.761 296.169C168.084 294.195 171.038 293.103 174.085 293.175L191.496 293.59C193.549 293.639 195.556 294.212 197.325 295.256L199.105 296.305C204.385 299.419 202.176 307.51 196.047 307.51H179.92C179.128 307.51 178.387 307.9 177.937 308.552L169.946 320.152C172.354 319.55 177.772 318.346 182.588 322.56L191.617 317.744C200.045 313.53 204.356 322.351 199.443 326.172C194.025 330.386 190.413 332.192 183.792 346.038C174.762 356.873 171.15 359.281 167.538 361.689Z" fill="white"/>
<path d="M182.588 322.56C177.772 318.346 172.354 319.55 169.946 320.152L177.937 308.552C178.387 307.9 179.128 307.51 179.92 307.51H196.047C202.176 307.51 204.385 299.419 199.105 296.305L197.325 295.256C195.556 294.212 193.549 293.639 191.496 293.59L174.085 293.175C171.038 293.103 168.084 294.195 165.761 296.169C156.596 303.956 142.737 314.73 136.234 318.948C145.264 326.172 163.204 347.242 167.538 361.689C171.15 359.281 174.762 356.873 183.792 346.038C190.413 332.192 194.025 330.386 199.443 326.172C204.356 322.351 200.045 313.53 191.617 317.744L182.588 322.56ZM182.588 322.56C183.792 324.968 183.19 326.172 182.588 327.376" stroke="#111111" stroke-width="1.20398" stroke-linecap="round"/>
<path d="M70.0136 328.58C64.5957 322.56 47.7399 315.938 39.9141 315.938L58.5758 285.236L77.2374 291.256L70.0136 328.58Z" fill="white" stroke="#111111" stroke-width="1.20398"/>
<path d="M56.1715 275.604C44.7338 279.216 44.1305 295.47 47.1416 302.092C49.9918 302.092 58.5427 295.064 62.6266 291.406L62.7934 291.256C65.6825 294.627 72.8267 297.878 76.0376 299.082C91.0874 295.47 79.6496 279.216 72.4257 275.604H56.1715Z" fill="#111111"/>
<path d="M62.7934 291.256C65.6825 294.627 72.8267 297.878 76.0376 299.082C91.0874 295.47 79.6496 279.216 72.4257 275.604H56.1715C44.7338 279.216 44.1305 295.47 47.1416 302.092C49.9918 302.092 58.5427 295.064 62.6266 291.406M62.7934 291.256C62.7387 291.305 62.6831 291.355 62.6266 291.406M62.7934 291.256L62.6266 291.406M63.3942 300.888C65.2002 300.085 69.0529 299.564 70.0161 303.898" stroke="#111111" stroke-width="1.20398" stroke-linecap="round"/>
<path d="M72.4234 318.948C67.7419 319.884 63.0641 317.91 59.801 315.288C58.074 313.9 56.9234 310.967 58.3752 309.294C60.1239 307.278 62.5552 309.289 65.0217 310.307C67.5448 311.349 70.8384 312.089 73.0284 311.724L72.4234 318.948Z" stroke="#111111" stroke-width="1.20398"/>
<path d="M-3.43714 365.301C8.60266 324.366 47.732 341.824 54.9559 359.883L81.4435 420.082C83.2565 420.082 101.642 420.698 109.142 423.694C115.169 426.102 134.419 425.902 143.448 425.5C161.515 438.142 156.699 465.834 156.09 478.475C154.686 478.877 141.294 482.617 98.2992 491.117C46.5351 501.351 34.0765 482.939 29.0791 479.077C15.8336 468.844 15.8043 448.376 12.2272 438.142C7.21545 423.804 -7.04644 388.177 -3.43714 365.301Z" fill="#EE4777" stroke="#111111" stroke-width="1.20398"/>
<path d="M143.449 425.5C161.516 438.142 156.7 465.833 156.091 478.475C157.904 477.873 175.362 471.251 185.596 469.445C200.013 466.901 212.108 457.842 219.395 449.009C219.74 448.59 220.029 448.123 220.204 447.61C222.298 441.462 216.157 439.416 212.685 441.152C207.617 445.375 199.401 446.75 194.208 447.16C192.917 447.262 191.639 446.887 190.569 446.157L188.694 444.878C187.108 443.797 187.366 441.397 189.15 440.69C193.763 438.862 199.325 436.695 200.043 436.336C205.121 432.951 203.325 427.451 198.619 425.287C197.983 424.994 197.277 424.907 196.577 424.926L175.454 425.482C175 425.494 174.546 425.371 174.152 425.148C158.191 416.108 145.834 425.5 143.449 425.5Z" fill="white" stroke="#111111" stroke-width="1.20398"/>
<path d="M90.483 349.047L86.8711 351.455C92.891 365.903 94.697 399.615 96.5029 420.684C96.9845 420.684 101.921 421.286 104.329 421.888C104.931 417.072 104.931 413.46 104.329 408.644C103.494 401.966 100.115 386.973 99.5129 378.545C98.5515 365.086 93.6936 353.261 90.483 349.047Z" fill="#111111" stroke="#111111" stroke-width="1.20398"/>
<path d="M-4.01582 373.354C-4.01893 370.543 -3.83854 367.844 -3.43741 365.301C-3.75969 367.437 -3.95251 370.172 -4.01582 373.354C-3.99091 395.833 7.77218 425.397 12.2269 438.142C15.8041 448.376 14.6297 507.659 98.2989 491.117C141.294 482.617 136.632 483.692 138.036 483.291L148.872 489.913L95.8969 503.759C-0.420371 526.634 7.90026 452.367 1.38559 423.092C-2.4686 405.773 -4.26775 386.018 -4.01582 373.354Z" fill="#111111"/>
<path d="M-3.43741 365.301C-7.04671 388.177 7.21519 423.804 12.2269 438.142C15.8041 448.376 14.6297 507.659 98.2989 491.117C141.294 482.617 136.632 483.692 138.036 483.291L148.872 489.913L95.8969 503.759C-0.420371 526.634 7.90026 452.367 1.38559 423.092C-3.4371 401.421 -5.04219 375.936 -3.43741 365.301Z" stroke="#111111" stroke-width="1.20398"/>
<path d="M42.918 435.241C57.9748 418.878 82.6564 417.072 109.144 423.694" stroke="#111111" stroke-width="1.20398" stroke-linecap="round"/>
<path d="M240.977 373.729C240.977 366.082 247.176 359.883 254.823 359.883H433.012C440.659 359.883 446.858 366.082 446.858 373.729V389.983V542.286C446.858 549.933 440.659 556.132 433.012 556.132H254.823C247.176 556.132 240.977 549.933 240.977 542.286V389.983V373.729Z" fill="white" stroke="#111111" stroke-width="1.20398"/>
<path d="M359.57 409.247H430.003V467.64H359.57V409.247Z" fill="#EE4777"/>
<path d="M359.57 409.247H430.003M359.57 409.247V467.64M359.57 409.247C382.045 428.31 427.595 466.676 430.003 467.64M430.003 409.247V467.64M430.003 409.247L359.57 467.64M430.003 467.64H359.57" stroke="#111111" stroke-width="1.20398" stroke-linecap="round"/>
<rect x="257.23" y="408.645" width="84.2786" height="130.03" fill="#111111"/>
<rect x="181.736" y="388.188" width="62.9824" height="7.22388" rx="3.61194" transform="rotate(-47.7397 181.736 388.188)" fill="white" stroke="#111111" stroke-width="1.20398"/>
<rect x="204.611" y="515.81" width="62.9824" height="7.22388" rx="3.61194" transform="rotate(-47.7397 204.611 515.81)" fill="white" stroke="#111111" stroke-width="1.20398"/>
<circle cx="337.295" cy="261.157" r="3.61194" fill="#EE4777" stroke="#111111" stroke-width="1.20398"/>
<circle cx="477.561" cy="548.306" r="4.21393" fill="#EE4777" stroke="#111111" stroke-width="1.20398"/>
<path d="M162.524 540.862C162.469 540.847 162.443 540.822 162.428 540.801C162.41 540.776 162.397 540.738 162.397 540.694C162.397 540.65 162.41 540.613 162.428 540.588C162.443 540.567 162.469 540.542 162.524 540.526L162.711 540.474C171.467 538.004 178.338 531.046 180.806 522.296C180.819 522.25 180.839 522.23 180.856 522.219C180.877 522.204 180.908 522.192 180.945 522.193C180.982 522.193 181.009 522.204 181.023 522.214C181.032 522.221 181.048 522.235 181.059 522.279L181.378 523.619C183.436 532.264 190.338 538.92 199.053 540.663C199.072 540.667 199.08 540.672 199.082 540.673C199.083 540.673 199.083 540.674 199.084 540.674C199.084 540.675 199.084 540.675 199.085 540.676C199.087 540.678 199.095 540.692 199.095 540.717C199.095 540.742 199.086 540.76 199.08 540.768C199.078 540.772 199.075 540.774 199.071 540.777C199.067 540.779 199.057 540.785 199.037 540.789C190.115 542.748 183.066 549.734 181.106 558.661L181.01 559.098L181.598 559.227L181.01 559.098C181.001 559.14 180.986 559.153 180.979 559.159C180.966 559.168 180.943 559.179 180.912 559.18C180.881 559.181 180.858 559.172 180.845 559.163C180.837 559.157 180.821 559.145 180.809 559.104L180.749 558.89C178.296 550.191 171.497 543.393 162.799 540.94L162.524 540.862Z" fill="#EE4777" stroke="#111111" stroke-width="1.20398" stroke-linejoin="round"/>
<mask id="path-39-outside-1_12048_1421" maskUnits="userSpaceOnUse" x="185.402" y="300.694" width="28" height="13" fill="black">
<rect fill="white" x="185.402" y="300.694" width="28" height="13"/>
<path d="M187.402 302.694H211.482V313.53H187.402V302.694Z"/>
</mask>
<path d="M187.402 302.694H211.482V313.53H187.402V302.694Z" fill="white"/>
<path d="M187.402 302.694V301.49H186.198V302.694H187.402ZM211.482 302.694H212.686V301.49H211.482V302.694ZM187.402 303.898H211.482V301.49H187.402V303.898ZM210.278 302.694V313.53H212.686V302.694H210.278ZM188.606 313.53V302.694H186.198V313.53H188.606Z" fill="#111111" mask="url(#path-39-outside-1_12048_1421)"/>
<path d="M449.259 478.386L448.066 478.4L445.114 502.017L422.099 504.968L422.069 506.157L445.112 510.293L448.066 533.333L449.258 533.348L452.807 510.284L472.864 506.154L472.831 504.969L452.804 502.024L449.259 478.386Z" fill="#EE4777" stroke="#111111" stroke-width="1.20398" stroke-linecap="round" stroke-linejoin="round"/>
<path d="M360.172 22.1668C360.172 10.5303 369.606 1.09711 381.242 1.09711L505.984 1.09711C517.621 1.09711 527.054 10.5303 527.054 22.1668V112.465C527.054 124.102 517.621 133.535 505.984 133.535H381.242C369.606 133.535 360.172 124.102 360.172 112.465V22.1668Z" fill="white" stroke="#111111" stroke-width="1.20398"/>
<path d="M360.172 22.1668C360.172 10.5303 369.606 1.09711 381.242 1.09711L505.984 1.09711C517.621 1.09711 527.054 10.5303 527.054 22.1668V26.3807L360.172 26.3807V22.1668Z" fill="#EE4777" stroke="#111111" stroke-width="1.20398"/>
<rect x="470.938" y="76.9482" width="114.378" height="127.622" stroke="#111111" stroke-width="1.20398"/>
<rect x="457.695" y="63.7042" width="25.2836" height="25.2836" fill="white" stroke="#111111" stroke-width="1.20398"/>
<rect x="457.695" y="192.53" width="25.2836" height="25.2836" fill="white" stroke="#111111" stroke-width="1.20398"/>
<path d="M414.333 166.803C418.514 165.44 421.82 162.145 423.247 157.996C424.293 162.269 427.547 165.625 431.729 166.829C427.607 168.085 424.372 171.38 423.234 175.555C421.82 171.4 418.52 168.15 414.333 166.803Z" fill="#EE4777" stroke="#111111" stroke-width="1.20398" stroke-linejoin="round"/>
<circle cx="402.856" cy="100.553" r="3.13729" fill="white" stroke="#111111" stroke-width="1.20398"/>
<circle cx="381.448" cy="142.244" r="2.01049" fill="white" stroke="#111111" stroke-width="1.20398"/>
<circle cx="383.135" cy="228.445" r="2.01049" fill="#EE4777" stroke="#111111" stroke-width="1.20398"/>
<circle cx="409.619" cy="254.925" r="2.01049" fill="white" stroke="#111111" stroke-width="1.20398"/>
<rect x="412.917" y="235.917" width="20.6973" height="4.02098" rx="2.01049" transform="rotate(-137.005 412.917 235.917)" fill="#EE4777" stroke="#111111" stroke-width="1.20398"/>
</svg>
