<svg width="432" height="306" viewBox="0 0 432 306" fill="none" xmlns="http://www.w3.org/2000/svg">
<g clip-path="url(#clip0_11576_3601)">
<rect width="432" height="306" fill="#C6B9EE"/>
<path d="M424.5 70.0371L42.5772 0.105447C41.7997 -0.0439431 40.9999 -0.0345094 40.2261 0.133177C39.5243 0.286794 38.8654 0.594353 38.2971 1.03362C37.7416 1.46666 37.2946 2.02304 36.9916 2.65867C36.6693 3.34518 36.5053 4.09529 36.5119 4.85361V346.808C36.5048 347.567 36.6683 348.317 36.9902 349.004C37.2927 349.64 37.7391 350.196 38.2942 350.63C38.8622 351.07 39.5208 351.378 40.2225 351.532C40.9962 351.7 41.7959 351.71 42.5735 351.561L424.5 281.629C424.816 281.564 425.11 281.415 425.349 281.198C425.629 280.948 425.863 280.652 426.041 280.322C426.247 279.946 426.404 279.545 426.506 279.128C426.619 278.674 426.676 278.209 426.676 277.741V73.9359C426.677 73.4673 426.62 73.0005 426.506 72.5458C426.404 72.1288 426.248 71.727 426.041 71.3506C425.863 71.0209 425.629 70.7246 425.35 70.4749C425.11 70.258 424.817 70.1091 424.501 70.0437L424.5 70.0371Z" fill="#E4E4E4"/>
<path d="M430.342 70.0371L48.419 0.105447C47.6415 -0.0439431 46.8417 -0.0345094 46.0679 0.133177C45.3661 0.286794 44.7072 0.594353 44.1389 1.03362C43.5834 1.46666 43.1364 2.02304 42.8334 2.65867C42.5111 3.34518 42.3471 4.09529 42.3537 4.85361V346.808C42.3466 347.567 42.5101 348.317 42.832 349.004C43.1345 349.64 43.5809 350.196 44.136 350.63C44.704 351.07 45.3626 351.378 46.0643 351.532C46.838 351.7 47.6377 351.71 48.4153 351.561L430.342 281.629C430.658 281.564 430.951 281.415 431.191 281.198C431.47 280.948 431.704 280.652 431.882 280.322C432.089 279.946 432.245 279.545 432.347 279.128C432.461 278.674 432.518 278.209 432.518 277.741V73.9359C432.519 73.4673 432.461 73.0005 432.348 72.5458C432.246 72.1288 432.09 71.727 431.883 71.3506C431.705 71.0209 431.471 70.7246 431.192 70.4749C430.952 70.258 430.659 70.1091 430.342 70.0437L430.342 70.0371Z" fill="#3F3D56"/>
<path d="M430.342 70.0371L48.419 0.105447C47.6415 -0.0439431 46.8417 -0.0345094 46.0679 0.133177C45.3661 0.286794 44.7072 0.594353 44.1389 1.03362C43.5834 1.46666 43.1364 2.02304 42.8334 2.65867C42.5111 3.34518 42.3471 4.09529 42.3537 4.85361V346.808C42.3466 347.567 42.5101 348.317 42.832 349.004C43.1345 349.64 43.5809 350.196 44.136 350.63C44.704 351.07 45.3626 351.378 46.0643 351.532C46.838 351.7 47.6377 351.71 48.4153 351.561L430.342 281.629C430.658 281.564 430.951 281.415 431.191 281.198C431.47 280.948 431.704 280.652 431.882 280.322C432.089 279.946 432.245 279.545 432.347 279.128C432.461 278.674 432.518 278.209 432.518 277.741V73.9359C432.519 73.4673 432.461 73.0005 432.348 72.5458C432.246 72.1288 432.09 71.727 431.883 71.3506C431.705 71.0209 431.471 70.7246 431.192 70.4749C430.952 70.258 430.659 70.1091 430.342 70.0437L430.342 70.0371ZM431.795 277.865C431.795 278.178 431.757 278.489 431.681 278.793C431.613 279.071 431.508 279.339 431.371 279.59C431.252 279.81 431.096 280.008 430.909 280.174C430.749 280.318 430.554 280.417 430.343 280.46L48.4226 349.616C47.9045 349.715 47.3717 349.707 46.8565 349.594C46.3896 349.491 45.9514 349.285 45.5736 348.992C45.2044 348.704 44.9075 348.333 44.7062 347.91C44.4924 347.453 44.3836 346.954 44.3879 346.45V5.217C44.3835 4.71294 44.492 4.21429 44.7055 3.7576C44.9063 3.33388 45.2031 2.96266 45.5722 2.67327C45.9496 2.37998 46.3875 2.17411 46.8543 2.07053C47.3695 1.95739 47.9022 1.94969 48.4204 2.04791L430.343 71.2061C430.554 71.2491 430.749 71.3479 430.909 71.4921C431.096 71.6585 431.252 71.856 431.371 72.0759C431.509 72.3268 431.613 72.5947 431.682 72.8727C431.757 73.1763 431.796 73.488 431.795 73.8009V277.864L431.795 277.865Z" fill="#CACACA"/>
<path d="M22.0376 106.732C22.0192 104.399 22.513 102.091 23.484 99.9694C24.3915 98.0096 25.7327 96.2815 27.4063 94.9155C29.091 93.5499 31.0577 92.5747 33.1649 92.0602C35.4447 91.5106 37.8137 91.4393 40.1224 91.8508C42.5439 92.2722 44.8675 93.1341 46.9777 94.3938C49.0623 95.6335 50.9285 97.2078 52.5011 99.0537C54.0606 100.873 55.3067 102.939 56.1883 105.167C57.067 107.378 57.5232 109.734 57.5333 112.112C57.5496 114.362 57.0914 116.59 56.1883 118.651C55.3403 120.566 54.0815 122.271 52.5011 123.646C50.8993 125.031 49.0143 126.05 46.9777 126.632C44.7496 127.261 42.4151 127.419 40.1224 127.098C37.6802 126.761 35.322 125.973 33.1686 124.774C31.0049 123.574 29.0589 122.019 27.4121 120.173C25.7584 118.331 24.4316 116.221 23.4891 113.932C22.544 111.649 22.0511 109.204 22.0376 106.732Z" fill="#E4E4E4"/>
<path d="M22.0376 177.513C22.0192 175.18 22.513 172.872 23.484 170.75C24.3915 168.791 25.7327 167.063 27.4063 165.697C29.091 164.331 31.0577 163.356 33.1649 162.841C35.4447 162.292 37.8137 162.22 40.1224 162.632C42.5439 163.053 44.8675 163.915 46.9777 165.175C49.0623 166.415 50.9285 167.989 52.5011 169.835C54.0606 171.654 55.3067 173.72 56.1883 175.948C57.067 178.159 57.5232 180.515 57.5333 182.893C57.5496 185.143 57.0914 187.371 56.1883 189.432C55.3403 191.347 54.0815 193.052 52.5011 194.427C50.8993 195.812 49.0143 196.831 46.9777 197.413C44.7496 198.042 42.4151 198.2 40.1224 197.879C37.6802 197.542 35.322 196.754 33.1686 195.555C31.0049 194.355 29.0589 192.8 27.4121 190.954C25.7584 189.113 24.4316 187.002 23.4891 184.713C22.544 182.43 22.0511 179.985 22.0376 177.513Z" fill="#E4E4E4"/>
<path d="M22.0376 248.294C22.0192 245.961 22.513 243.653 23.484 241.531C24.3915 239.572 25.7327 237.844 27.4063 236.478C29.091 235.112 31.0577 234.137 33.1649 233.622C35.4447 233.073 37.8137 233.001 40.1224 233.413C42.5439 233.834 44.8675 234.696 46.9777 235.956C49.0623 237.196 50.9285 238.77 52.5011 240.616C54.0606 242.435 55.3067 244.501 56.1883 246.729C57.067 248.94 57.5232 251.296 57.5333 253.674C57.5496 255.924 57.0914 258.152 56.1883 260.213C55.3403 262.128 54.0815 263.833 52.5011 265.208C50.8993 266.593 49.0143 267.612 46.9777 268.194C44.7496 268.823 42.4151 268.981 40.1224 268.66C37.6802 268.323 35.322 267.535 33.1686 266.336C31.0049 265.136 29.0589 263.581 27.4121 261.735C25.7584 259.894 24.4316 257.783 23.4891 255.494C22.544 253.211 22.0511 250.766 22.0376 248.294Z" fill="#E4E4E4"/>
<path d="M26.4165 106.732C26.3981 104.399 26.8919 102.091 27.8629 99.9694C28.7704 98.0096 30.1116 96.2815 31.7852 94.9155C33.4699 93.5499 35.4366 92.5747 37.5438 92.0602C39.8236 91.5106 42.1926 91.4393 44.5013 91.8508C46.9228 92.2722 49.2464 93.1341 51.3566 94.3938C53.4412 95.6335 55.3074 97.2078 56.8801 99.0537C58.4395 100.873 59.6856 102.939 60.5673 105.167C61.4459 107.378 61.9021 109.734 61.9122 112.112C61.9285 114.362 61.4703 116.59 60.5673 118.651C59.7192 120.566 58.4604 122.271 56.8801 123.646C55.2782 125.031 53.3932 126.05 51.3566 126.632C49.1285 127.261 46.794 127.419 44.5013 127.098C42.0591 126.761 39.7009 125.973 37.5475 124.774C35.3838 123.574 33.4378 122.019 31.7911 120.173C30.1373 118.331 28.8105 116.221 27.868 113.932C26.923 111.649 26.43 109.204 26.4165 106.732Z" fill="#5F7FF8"/>
<path d="M26.4182 177.031C26.407 174.664 26.9 172.321 27.8646 170.159C28.7805 168.122 30.1172 166.301 31.7869 164.817C33.4569 163.334 35.4183 162.216 37.5455 161.534C39.7907 160.819 42.1587 160.573 44.5029 160.81C46.8973 161.045 49.2245 161.736 51.3582 162.847C53.436 163.927 55.306 165.367 56.8817 167.099C58.4466 168.812 59.695 170.788 60.5689 172.937C61.454 175.114 61.9104 177.441 61.9131 179.791C61.9232 182.073 61.4655 184.333 60.5682 186.431C59.7078 188.428 58.4464 190.227 56.8621 191.717C55.2777 193.207 53.4042 194.356 51.3575 195.093C49.1627 195.881 46.8297 196.211 44.5022 196.064C42.089 195.916 39.7275 195.301 37.5484 194.254C33.1981 192.164 29.7579 188.562 27.8704 184.122C26.9191 181.879 26.4254 179.468 26.4182 177.031Z" fill="#5F7FF8"/>
<path d="M26.418 247.33C26.415 244.975 26.8891 242.643 27.8118 240.476C28.7345 238.309 30.0866 236.351 31.7867 234.72C33.8773 232.719 36.4238 231.258 39.2062 230.461C41.9886 229.665 44.9233 229.557 47.7566 230.148C50.5899 230.738 53.2367 232.01 55.4683 233.852C57.6999 235.694 59.4492 238.051 60.5651 240.72C61.6619 243.376 62.091 246.261 61.8149 249.121C61.5388 251.981 60.5659 254.73 58.9812 257.127C57.3966 259.525 55.2484 261.498 52.7244 262.874C50.2005 264.251 47.3777 264.988 44.5028 265.022C40.9831 265.074 37.5267 264.085 34.5675 262.18C31.6084 260.274 29.2784 257.538 27.8702 254.314C26.9124 252.11 26.4181 249.733 26.418 247.33Z" fill="#5F7FF8"/>
<path d="M37.4481 106.652L42.7504 107.466V102.242C42.7478 102.016 42.7941 101.792 42.8862 101.585C42.9722 101.394 43.1003 101.225 43.2607 101.09C43.4228 100.955 43.6128 100.858 43.8171 100.805C44.0397 100.748 44.2717 100.738 44.4983 100.776C44.7384 100.815 44.9694 100.897 45.1795 101.019C45.3891 101.141 45.5771 101.296 45.7359 101.479C45.8944 101.66 46.0215 101.867 46.1119 102.09C46.2021 102.311 46.2494 102.548 46.2514 102.787V108.004L51.4529 108.802C51.6892 108.839 51.9165 108.92 52.1231 109.04C52.5375 109.281 52.8598 109.653 53.0387 110.097C53.1269 110.317 53.1728 110.551 53.1738 110.788C53.1755 111.012 53.1294 111.233 53.0387 111.438C52.9549 111.627 52.8302 111.795 52.6737 111.93C52.5147 112.065 52.328 112.163 52.1268 112.217C51.9083 112.276 51.6799 112.288 51.4565 112.252L46.2477 111.474V116.68C46.2494 116.906 46.2026 117.13 46.1104 117.336C46.0242 117.528 45.8965 117.698 45.7366 117.835C45.5751 117.971 45.3857 118.071 45.1817 118.127C44.9601 118.187 44.7283 118.2 44.5012 118.166C44.2614 118.131 44.0301 118.052 43.8193 117.932C43.6095 117.814 43.4212 117.661 43.2622 117.48C43.1033 117.3 42.9762 117.095 42.8862 116.873C42.7967 116.651 42.7506 116.414 42.7504 116.175V110.95L37.4481 110.155C37.2045 110.117 36.9699 110.035 36.7559 109.913C36.5431 109.792 36.3518 109.636 36.1901 109.453C36.0293 109.272 35.9002 109.065 35.8082 108.841C35.7165 108.617 35.6689 108.378 35.668 108.136C35.6663 107.907 35.7141 107.682 35.8082 107.474C35.8965 107.281 36.027 107.11 36.1901 106.975C36.355 106.837 36.5482 106.737 36.7559 106.683C36.9821 106.625 37.2177 106.615 37.4481 106.652Z" fill="white"/>
<path d="M41.1699 183.106L55.8939 184.173H55.9479L49.043 171.644C49.0002 171.565 48.9388 171.498 48.8641 171.448C48.8275 171.424 48.788 171.404 48.7466 171.389C48.7049 171.374 48.6615 171.364 48.6173 171.361C48.5744 171.357 48.5312 171.359 48.4888 171.366C48.448 171.374 48.4084 171.387 48.3713 171.406C48.2969 171.443 48.2348 171.5 48.1924 171.571L43.4939 179.29L43.2676 179.662L41.1699 183.106Z" fill="white"/>
<path d="M32.7676 182.497L45.7582 183.438L43.2684 179.661L43.0888 179.388L39.8236 174.434C39.7658 174.357 39.6937 174.292 39.6112 174.243C39.5711 174.219 39.5288 174.199 39.4849 174.183C39.4394 174.167 39.3925 174.155 39.3447 174.149C39.2985 174.142 39.2517 174.14 39.2052 174.144C39.16 174.147 39.1152 174.154 39.0716 174.167C39.0287 174.179 38.9873 174.197 38.9482 174.218C38.9089 174.24 38.8721 174.266 38.8387 174.295L38.8277 174.309L38.8139 174.322L38.8029 174.336L38.792 174.349L32.7676 182.497Z" fill="white"/>
<path d="M42.5915 169.582C42.891 169.608 43.1827 169.691 43.4508 169.827C43.7137 169.96 43.9508 170.139 44.151 170.356C44.3509 170.571 44.5106 170.82 44.6227 171.091C44.7363 171.366 44.7951 171.66 44.7958 171.957C44.7971 172.244 44.7381 172.529 44.6227 172.793C44.5131 173.042 44.3525 173.266 44.151 173.45C43.9486 173.634 43.7102 173.773 43.4508 173.861C43.1743 173.953 42.8819 173.987 42.5915 173.962C42.2916 173.937 41.9994 173.854 41.7306 173.719C41.4665 173.586 41.2282 173.407 41.0268 173.191C40.8255 172.975 40.6645 172.726 40.5515 172.454C40.4368 172.178 40.3775 171.882 40.377 171.584C40.3757 171.295 40.4352 171.009 40.5515 170.745C40.6621 170.495 40.8241 170.271 41.0268 170.088C41.2307 169.905 41.4703 169.766 41.7306 169.681C42.0078 169.589 42.3008 169.555 42.5915 169.582Z" fill="white"/>
<path d="M160.441 219.526L306.235 81.2788L306.86 82.3734L161.353 220.696L160.441 219.526Z" fill="#E6E6E6"/>
<path d="M160.465 62.835L161.379 61.7405L306.847 212.661L306.22 213.701L160.465 62.835Z" fill="#E6E6E6"/>
<path d="M304.76 79.2605L163.04 59.8023C162.385 59.7088 161.717 59.7657 161.087 59.9687C160.487 60.1663 159.94 60.4965 159.486 60.9348C159.016 61.3882 158.647 61.9351 158.401 62.5401C158.133 63.2076 157.998 63.9209 158.002 64.6402V217.104C158 217.833 158.135 218.556 158.401 219.235C158.649 219.866 159.017 220.443 159.485 220.933C159.937 221.406 160.482 221.779 161.086 222.028C161.705 222.281 162.372 222.393 163.039 222.355L304.76 214.554C305.238 214.523 305.701 214.373 306.107 214.117C306.536 213.846 306.908 213.494 307.202 213.08C307.526 212.627 307.775 212.125 307.939 211.593C308.12 211.015 308.211 210.414 308.21 209.808V84.2852C308.21 83.6727 308.119 83.0636 307.939 82.4778C307.773 81.9279 307.525 81.4063 307.202 80.9308C306.908 80.4922 306.537 80.1103 306.107 79.8034C305.707 79.5185 305.245 79.3325 304.76 79.2605ZM163.04 220.786C162.564 220.812 162.087 220.731 161.646 220.55C161.215 220.371 160.826 220.104 160.504 219.766C160.17 219.415 159.908 219.002 159.732 218.55C159.542 218.066 159.446 217.55 159.447 217.03V64.8292C159.444 64.3166 159.541 63.8084 159.732 63.3326C159.906 62.9 160.169 62.5087 160.504 62.184C160.828 61.8714 161.219 61.6357 161.646 61.4945C162.095 61.3486 162.572 61.3069 163.04 61.3726L304.76 80.5674C305.107 80.6187 305.437 80.7518 305.723 80.9556C306.03 81.1738 306.296 81.4457 306.507 81.7583C306.738 82.098 306.916 82.4708 307.035 82.8638C307.163 83.2826 307.229 83.7181 307.229 84.1561V209.86C307.23 210.293 307.164 210.723 307.035 211.137C306.917 211.517 306.739 211.876 306.507 212.199C306.297 212.494 306.03 212.746 305.723 212.939C305.433 213.12 305.102 213.227 304.76 213.248L163.04 220.786Z" fill="#E6E6E6"/>
<path d="M158.346 238.456C157.969 238.497 157.61 238.636 157.304 238.86C156.966 239.108 156.679 239.418 156.458 239.773C156.207 240.17 156.017 240.602 155.895 241.056C155.759 241.551 155.693 242.062 155.7 242.575C155.703 243.066 155.776 243.555 155.919 244.025C156.043 244.438 156.235 244.828 156.488 245.178C156.709 245.485 156.995 245.74 157.326 245.924C157.638 246.095 157.992 246.175 158.348 246.154L406.452 225.623C406.649 225.606 406.834 225.521 406.976 225.383C407.156 225.21 407.302 225.005 407.407 224.778C407.539 224.499 407.637 224.205 407.699 223.903C407.772 223.553 407.811 223.196 407.813 222.839C407.817 222.485 407.784 222.132 407.716 221.784C407.66 221.489 407.566 221.203 407.436 220.931C407.337 220.715 407.195 220.521 407.017 220.363C406.873 220.236 406.687 220.167 406.495 220.17H406.452L158.346 238.456Z" fill="#E6E6E6"/>
<path d="M158.346 261.821C157.967 261.873 157.608 262.022 157.304 262.254C156.967 262.509 156.68 262.826 156.458 263.186C156.208 263.589 156.018 264.026 155.895 264.484C155.759 264.982 155.693 265.497 155.7 266.013C155.702 266.502 155.776 266.989 155.919 267.457C156.042 267.866 156.235 268.251 156.488 268.595C156.708 268.896 156.994 269.143 157.324 269.318C157.639 269.481 157.993 269.551 158.346 269.52L406.452 242.166C406.65 242.144 406.835 242.054 406.976 241.912C407.156 241.734 407.302 241.525 407.407 241.295C407.539 241.012 407.637 240.714 407.699 240.408C407.772 240.057 407.81 239.699 407.813 239.34C407.817 238.987 407.785 238.634 407.716 238.288C407.66 237.995 407.566 237.711 407.436 237.443C407.337 237.23 407.193 237.041 407.015 236.888C406.87 236.764 406.684 236.7 406.493 236.71H406.449L158.346 261.821Z" fill="#E6E6E6"/>
<path d="M158.346 284.808C157.965 284.871 157.607 285.03 157.304 285.269C156.966 285.534 156.68 285.858 156.458 286.225C156.208 286.633 156.018 287.076 155.895 287.538C155.759 288.038 155.694 288.554 155.7 289.072C155.702 289.559 155.776 290.043 155.919 290.509C156.041 290.914 156.234 291.293 156.488 291.631C156.709 291.927 156.995 292.166 157.324 292.332C157.641 292.487 157.996 292.547 158.346 292.506L406.452 258.442C406.651 258.413 406.836 258.319 406.976 258.173C407.156 257.991 407.302 257.778 407.407 257.545C407.539 257.259 407.637 256.958 407.699 256.649C407.772 256.297 407.81 255.939 407.813 255.579C407.817 255.227 407.785 254.875 407.716 254.53C407.66 254.239 407.566 253.958 407.436 253.692C407.337 253.482 407.193 253.297 407.015 253.149C406.869 253.029 406.682 252.97 406.493 252.984H406.449L158.346 284.808Z" fill="#E6E6E6"/>
<path d="M51.5813 239.926L37.4181 239.757C37.1819 239.749 36.9461 239.782 36.7215 239.855C36.5044 239.926 36.3011 240.034 36.1206 240.174C35.9408 240.314 35.7866 240.483 35.665 240.676C35.5405 240.873 35.4527 241.091 35.4058 241.32C35.3591 241.593 35.3733 241.873 35.4474 242.14C35.4845 242.273 35.5359 242.402 35.6008 242.525C35.7331 242.774 35.9182 242.991 36.1433 243.162C36.4807 243.417 36.8917 243.557 37.3151 243.561L41.5748 243.599C41.7756 243.601 41.9718 243.661 42.1391 243.772C42.3064 243.883 42.4376 244.04 42.5166 244.225C42.5698 244.35 42.5971 244.484 42.597 244.62V252.97C42.5864 253.431 42.7401 253.881 43.0307 254.239C43.3214 254.599 43.7296 254.844 44.1835 254.932C44.5949 255.001 45.0176 254.934 45.3869 254.74C45.7561 254.546 46.0515 254.236 46.2279 253.858C46.3441 253.609 46.4044 253.338 46.4046 253.064V244.643C46.4047 244.512 46.4307 244.381 46.4811 244.26C46.5315 244.139 46.6053 244.029 46.6983 243.936C46.7913 243.843 46.9017 243.769 47.0232 243.719C47.1447 243.669 47.2749 243.643 47.4063 243.643L47.4159 243.643L51.4849 243.675C51.9392 243.69 52.384 243.543 52.74 243.261C53.0961 242.978 53.3403 242.579 53.4293 242.133C53.4739 241.864 53.4598 241.588 53.3878 241.324C53.3158 241.061 53.1877 240.816 53.0122 240.606C52.8368 240.396 52.6181 240.227 52.3711 240.11C52.1241 239.992 51.8547 239.93 51.5813 239.926Z" fill="white"/>
<path d="M51.5824 251.177C51.9862 251.177 52.3794 251.307 52.7036 251.547C53.0278 251.788 53.2659 252.126 53.3825 252.513C53.4992 252.899 53.4882 253.313 53.3513 253.693C53.2143 254.072 52.9586 254.398 52.6221 254.621C52.2856 254.844 51.8861 254.953 51.4828 254.931C51.0795 254.91 50.6939 254.759 50.383 254.502C50.0721 254.244 49.8526 253.893 49.7568 253.501C49.661 253.109 49.6941 252.696 49.8512 252.325C49.9943 251.984 50.2351 251.693 50.5431 251.489C50.8511 251.285 51.2127 251.176 51.5824 251.177Z" fill="white"/>
<path d="M342.5 140.511C342.434 141.021 342.329 141.524 342.184 142.017L371.708 177.346L382.734 175.447L387.777 191.704L368.583 196.961C367.033 197.386 365.386 197.296 363.891 196.706C362.395 196.116 361.132 195.057 360.29 193.688L332.85 149.075C330.871 149.081 328.936 148.484 327.304 147.364C325.672 146.244 324.42 144.654 323.715 142.805C323.009 140.957 322.883 138.937 323.354 137.015C323.825 135.094 324.87 133.361 326.35 132.047C327.83 130.733 329.676 129.901 331.641 129.661C333.606 129.421 335.597 129.785 337.351 130.704C339.104 131.623 340.535 133.053 341.455 134.805C342.375 136.557 342.74 138.547 342.5 140.511Z" fill="#FFCCB6"/>
<path d="M373.015 175.376C373.331 174.866 373.753 174.429 374.252 174.096C374.752 173.763 375.318 173.542 375.911 173.448L396.624 170.146C399.555 169.222 402.732 169.497 405.46 170.911C408.187 172.325 410.243 174.762 411.175 177.688C412.108 180.614 411.842 183.79 410.435 186.52C409.028 189.25 406.595 191.311 403.67 192.251L384.745 201.446C384.205 201.709 383.614 201.852 383.014 201.866C382.414 201.879 381.817 201.764 381.266 201.526C380.714 201.289 380.22 200.936 379.817 200.491C379.415 200.045 379.113 199.519 378.932 198.946L372.585 178.828C372.404 178.256 372.348 177.651 372.423 177.055C372.497 176.46 372.699 175.887 373.015 175.376Z" fill="#3F3D56"/>
<path d="M377.664 251.36L416.453 240.157C430.583 250.174 440.34 270.251 437.18 296.227C432.088 338.089 461.566 391.913 474.279 446.45L452.296 447.14L404.158 332.008L375.936 449.538L356.299 450.154L369.431 288.329L377.664 251.36Z" fill="#2F2E41"/>
<path d="M394.937 149.557C406.019 149.557 415.002 140.578 415.002 129.503C415.002 118.428 406.019 109.449 394.937 109.449C383.855 109.449 374.871 118.428 374.871 129.503C374.871 140.578 383.855 149.557 394.937 149.557Z" fill="#FFCCB6"/>
<path d="M374.52 218.675C370.085 210.894 367.893 201.445 371.754 193.364C372.726 191.329 375.376 189.405 376.763 187.627L392.267 164.525L409.773 161.711C424.922 174.409 411.981 217.794 424.393 246.252L372.553 273.981C376.259 259.838 381.26 230.499 374.52 218.675Z" fill="#5F7FF8"/>
<path d="M374.744 121.473C374.744 121.473 376.103 118.958 384.236 122.203C387.082 123.338 388.417 123.077 388.602 125.549C389.262 134.849 392.665 143.746 398.383 151.113L398.445 151.193L402.511 147.485L407.74 151.657L429.814 152.12C429.814 152.12 433.3 134.969 421.681 115.5C410.063 96.0304 386.246 106.692 386.246 106.692C369.98 107.619 374.744 121.473 374.744 121.473Z" fill="#2F2E41"/>
<path d="M323.518 95.8406L181.798 76.3824C181.143 76.2888 180.475 76.3457 179.845 76.5487C179.245 76.7464 178.698 77.0766 178.244 77.5149C177.774 77.9683 177.404 78.5152 177.159 79.1202C176.891 79.7877 176.755 80.501 176.76 81.2203V233.684C176.758 234.413 176.893 235.136 177.159 235.815C177.407 236.446 177.775 237.023 178.243 237.514C178.694 237.986 179.24 238.359 179.844 238.608C180.463 238.861 181.13 238.973 181.797 238.935L323.518 231.135C323.996 231.103 324.459 230.953 324.865 230.697C325.294 230.426 325.666 230.074 325.96 229.66C326.284 229.207 326.533 228.705 326.697 228.173C326.878 227.596 326.969 226.994 326.968 226.389V100.865C326.968 100.253 326.876 99.6436 326.697 99.0578C326.531 98.508 326.282 97.9864 325.96 97.5109C325.666 97.0723 325.295 96.6904 324.865 96.3835C324.465 96.0986 324.003 95.9126 323.518 95.8406Z" fill="#C5C3E9"/>
<path d="M329.359 95.8406L187.64 76.3824C186.984 76.2888 186.316 76.3457 185.687 76.5487C185.087 76.7464 184.54 77.0766 184.085 77.5149C183.616 77.9683 183.246 78.5152 183.001 79.1202C182.733 79.7877 182.597 80.501 182.602 81.2203V233.684C182.6 234.413 182.735 235.136 183.001 235.815C183.248 236.446 183.616 237.023 184.085 237.514C184.536 237.986 185.082 238.359 185.686 238.608C186.304 238.861 186.972 238.973 187.639 238.935L329.359 231.135C329.838 231.103 330.301 230.953 330.706 230.697C331.136 230.426 331.508 230.074 331.802 229.66C332.126 229.207 332.375 228.705 332.539 228.173C332.719 227.596 332.811 226.994 332.81 226.389V100.865C332.81 100.253 332.718 99.6436 332.539 99.0578C332.373 98.508 332.124 97.9864 331.802 97.5109C331.507 97.0723 331.136 96.6904 330.706 96.3835C330.307 96.0986 329.845 95.9126 329.359 95.8406Z" fill="white"/>
<path d="M328.752 217.73C329.137 218.07 329.496 218.439 329.823 218.835L375.642 214.154L380.238 203.959L396.541 208.881L390.159 227.72C389.643 229.242 388.647 230.555 387.321 231.464C385.995 232.372 384.41 232.826 382.803 232.757L330.452 230.515C329.349 232.158 327.772 233.426 325.929 234.151C324.087 234.876 322.068 235.023 320.14 234.573C318.213 234.123 316.468 233.097 315.138 231.631C313.807 230.166 312.955 228.331 312.694 226.369C312.434 224.408 312.776 222.414 313.677 220.652C314.578 218.89 315.994 217.444 317.737 216.507C319.48 215.569 321.468 215.184 323.435 215.402C325.403 215.621 327.257 216.433 328.752 217.73Z" fill="#FFCCB6"/>
<path d="M374.738 211.969C374.492 211.422 374.366 210.828 374.369 210.228C374.373 209.628 374.506 209.036 374.76 208.491L383.615 189.488C384.488 186.544 386.494 184.066 389.193 182.598C391.892 181.129 395.063 180.791 398.012 181.656C400.96 182.521 403.445 184.519 404.921 187.213C406.398 189.906 406.745 193.075 405.887 196.024L402.921 216.844C402.836 217.439 402.624 218.008 402.3 218.513C401.975 219.018 401.546 219.447 401.04 219.771C400.535 220.095 399.965 220.306 399.371 220.391C398.776 220.475 398.17 220.43 397.594 220.259L377.36 214.258C376.784 214.087 376.251 213.794 375.799 213.399C375.347 213.005 374.985 212.517 374.738 211.969Z" fill="#5F7FF8"/>
</g>
<defs>
<clipPath id="clip0_11576_3601">
<rect width="432" height="306" fill="white"/>
</clipPath>
</defs>
</svg>
